G04*
G04 #@! TF.GenerationSoftware,Altium Limited,Altium Designer,24.9.1 (31)*
G04*
G04 Layer_Color=32896*
%FSLAX44Y44*%
%MOMM*%
G71*
G04*
G04 #@! TF.SameCoordinates,8CC4960B-DDB6-439F-946E-CE4BBF34D09A*
G04*
G04*
G04 #@! TF.FilePolarity,Positive*
G04*
G01*
G75*
%ADD13C,0.1270*%
%ADD15C,0.1524*%
D13*
X720087Y812799D02*
X715008D01*
X717548D01*
Y805181D01*
X712469D02*
Y812799D01*
X708660D01*
X707391Y811529D01*
Y808990D01*
X708660Y807720D01*
X712469D01*
X704852Y811529D02*
X703582Y812799D01*
X701043D01*
X699773Y811529D01*
Y810260D01*
X701043Y808990D01*
X699773Y807720D01*
Y806451D01*
X701043Y805181D01*
X703582D01*
X704852Y806451D01*
Y807720D01*
X703582Y808990D01*
X704852Y810260D01*
Y811529D01*
X703582Y808990D02*
X701043D01*
X720232Y790906D02*
Y798523D01*
X716423D01*
X715154Y797254D01*
Y794715D01*
X716423Y793445D01*
X720232D01*
X717693D02*
X715154Y790906D01*
X712615Y798523D02*
X707536D01*
X710075D01*
Y790906D01*
X699919Y797254D02*
X701188Y798523D01*
X703727D01*
X704997Y797254D01*
Y795984D01*
X703727Y794715D01*
X701188D01*
X699919Y793445D01*
Y792176D01*
X701188Y790906D01*
X703727D01*
X704997Y792176D01*
X386080Y730247D02*
Y725169D01*
X383541Y722630D01*
X381002Y725169D01*
Y730247D01*
X378462D02*
Y722630D01*
X374654D01*
X373384Y723900D01*
Y728978D01*
X374654Y730247D01*
X378462D01*
X370845D02*
Y722630D01*
X367036D01*
X365767Y723900D01*
Y728978D01*
X367036Y730247D01*
X370845D01*
X469900Y713740D02*
Y721357D01*
X466091D01*
X464822Y720088D01*
Y717548D01*
X466091Y716279D01*
X469900D01*
X467361D02*
X464822Y713740D01*
X457204Y721357D02*
X462282D01*
Y713740D01*
X457204D01*
X462282Y717548D02*
X459743D01*
X449587Y720088D02*
X450856Y721357D01*
X453395D01*
X454665Y720088D01*
Y718818D01*
X453395Y717548D01*
X450856D01*
X449587Y716279D01*
Y715009D01*
X450856Y713740D01*
X453395D01*
X454665Y715009D01*
X441969Y721357D02*
X447047D01*
Y713740D01*
X441969D01*
X447047Y717548D02*
X444508D01*
X439430Y721357D02*
X434352D01*
X436891D01*
Y713740D01*
X431812Y712470D02*
X426734D01*
X424195Y713740D02*
Y721357D01*
X419116Y713740D01*
Y721357D01*
X579120Y843278D02*
Y835660D01*
X575311D01*
X574042Y836930D01*
Y842008D01*
X575311Y843278D01*
X579120D01*
X571502D02*
X566424D01*
X568963D01*
Y835660D01*
X563885D02*
Y843278D01*
X560076D01*
X558807Y842008D01*
Y839469D01*
X560076Y838199D01*
X563885D01*
X561346D02*
X558807Y835660D01*
X599437Y783589D02*
X594359D01*
X596898D01*
Y775971D01*
X591820D02*
Y783589D01*
X588011D01*
X586741Y782319D01*
Y779780D01*
X588011Y778510D01*
X591820D01*
X584202Y775971D02*
X581663D01*
X582933D01*
Y783589D01*
X584202Y782319D01*
X596900Y772158D02*
Y767079D01*
X594361Y764540D01*
X591822Y767079D01*
Y772158D01*
X589282D02*
Y764540D01*
X585474D01*
X584204Y765810D01*
Y767079D01*
X585474Y768349D01*
X589282D01*
X585474D01*
X584204Y769618D01*
Y770888D01*
X585474Y772158D01*
X589282D01*
X581665D02*
Y765810D01*
X580395Y764540D01*
X577856D01*
X576587Y765810D01*
Y772158D01*
X568969Y770888D02*
X570239Y772158D01*
X572778D01*
X574047Y770888D01*
Y769618D01*
X572778Y768349D01*
X570239D01*
X568969Y767079D01*
Y765810D01*
X570239Y764540D01*
X572778D01*
X574047Y765810D01*
X600710Y727709D02*
X595632D01*
X598171Y730248D02*
Y725170D01*
X593092Y730248D02*
X591823Y731517D01*
X589284D01*
X588014Y730248D01*
Y728978D01*
X589284Y727709D01*
X590553D01*
X589284D01*
X588014Y726439D01*
Y725170D01*
X589284Y723900D01*
X591823D01*
X593092Y725170D01*
X585475Y723900D02*
Y725170D01*
X584205D01*
Y723900D01*
X585475D01*
X579127Y730248D02*
X577857Y731517D01*
X575318D01*
X574049Y730248D01*
Y728978D01*
X575318Y727709D01*
X576588D01*
X575318D01*
X574049Y726439D01*
Y725170D01*
X575318Y723900D01*
X577857D01*
X579127Y725170D01*
X571509Y731517D02*
Y726439D01*
X568970Y723900D01*
X566431Y726439D01*
Y731517D01*
X494030Y760727D02*
Y755649D01*
X491491Y753110D01*
X488952Y755649D01*
Y760727D01*
X486413D02*
Y753110D01*
X482604D01*
X481334Y754379D01*
Y755649D01*
X482604Y756918D01*
X486413D01*
X482604D01*
X481334Y758188D01*
Y759457D01*
X482604Y760727D01*
X486413D01*
X478795D02*
Y754379D01*
X477525Y753110D01*
X474986D01*
X473717Y754379D01*
Y760727D01*
X466099Y759457D02*
X467369Y760727D01*
X469908D01*
X471177Y759457D01*
Y758188D01*
X469908Y756918D01*
X467369D01*
X466099Y755649D01*
Y754379D01*
X467369Y753110D01*
X469908D01*
X471177Y754379D01*
X463560Y751840D02*
X458481D01*
X450864Y759457D02*
X452133Y760727D01*
X454673D01*
X455942Y759457D01*
Y758188D01*
X454673Y756918D01*
X452133D01*
X450864Y755649D01*
Y754379D01*
X452133Y753110D01*
X454673D01*
X455942Y754379D01*
X443246Y760727D02*
X448325D01*
Y753110D01*
X443246D01*
X448325Y756918D02*
X445786D01*
X440707Y753110D02*
Y760727D01*
X435629Y753110D01*
Y760727D01*
X428011Y759457D02*
X429281Y760727D01*
X431820D01*
X433090Y759457D01*
Y758188D01*
X431820Y756918D01*
X429281D01*
X428011Y755649D01*
Y754379D01*
X429281Y753110D01*
X431820D01*
X433090Y754379D01*
X420394Y760727D02*
X425472D01*
Y753110D01*
X420394D01*
X425472Y756918D02*
X422933D01*
X474977Y852169D02*
X469898D01*
X472438D01*
Y844551D01*
X467359D02*
Y852169D01*
X463550D01*
X462281Y850899D01*
Y848360D01*
X463550Y847090D01*
X467359D01*
X459742Y852169D02*
X454663D01*
Y850899D01*
X459742Y845821D01*
Y844551D01*
X471172Y840738D02*
X472441Y842008D01*
X474980D01*
X476250Y840738D01*
Y835660D01*
X474980Y834390D01*
X472441D01*
X471172Y835660D01*
Y838199D01*
X473711D01*
X468633Y834390D02*
Y842008D01*
X463554Y834390D01*
Y842008D01*
X461015D02*
Y834390D01*
X457206D01*
X455937Y835660D01*
Y840738D01*
X457206Y842008D01*
X461015D01*
X473707Y731519D02*
X468628D01*
X471167D01*
Y723901D01*
X466089D02*
Y731519D01*
X462280D01*
X461011Y730249D01*
Y727710D01*
X462280Y726440D01*
X466089D01*
X453393Y731519D02*
X455932Y730249D01*
X458472Y727710D01*
Y725171D01*
X457202Y723901D01*
X454663D01*
X453393Y725171D01*
Y726440D01*
X454663Y727710D01*
X458472D01*
X386216Y717822D02*
X381815D01*
X384016D01*
Y711220D01*
X379614D02*
Y717822D01*
X376313D01*
X375213Y716722D01*
Y714521D01*
X376313Y713421D01*
X379614D01*
X368611Y717822D02*
X373013D01*
Y714521D01*
X370812Y715622D01*
X369712D01*
X368611Y714521D01*
Y712321D01*
X369712Y711220D01*
X371912D01*
X373013Y712321D01*
X495213Y770381D02*
X490811D01*
X493012D01*
Y763779D01*
X488611D02*
Y770381D01*
X485310D01*
X484209Y769281D01*
Y767080D01*
X485310Y765980D01*
X488611D01*
X478708Y763779D02*
Y770381D01*
X482009Y767080D01*
X477607D01*
X601430Y720582D02*
X597029D01*
X599230D01*
Y713980D01*
X594828D02*
Y720582D01*
X591527D01*
X590427Y719482D01*
Y717281D01*
X591527Y716181D01*
X594828D01*
X588227Y719482D02*
X587126Y720582D01*
X584926D01*
X583825Y719482D01*
Y718381D01*
X584926Y717281D01*
X586026D01*
X584926D01*
X583825Y716181D01*
Y715080D01*
X584926Y713980D01*
X587126D01*
X588227Y715080D01*
X575853Y853701D02*
X571451D01*
X573652D01*
Y847099D01*
X569251D02*
Y853701D01*
X565950D01*
X564849Y852601D01*
Y850400D01*
X565950Y849300D01*
X569251D01*
X558247Y847099D02*
X562649D01*
X558247Y851500D01*
Y852601D01*
X559348Y853701D01*
X561548D01*
X562649Y852601D01*
D15*
X695706Y796290D02*
G03*
X695706Y796290I-7366J0D01*
G01*
X615696Y768350D02*
G03*
X615696Y768350I-7366J0D01*
G01*
X453136Y838200D02*
G03*
X453136Y838200I-7366J0D01*
G01*
X406146Y715010D02*
G03*
X406146Y715010I-7366J0D01*
G01*
X597916Y850900D02*
G03*
X597916Y850900I-7366J0D01*
G01*
X488696Y717550D02*
G03*
X488696Y717550I-7366J0D01*
G01*
X623316D02*
G03*
X623316Y717550I-7366J0D01*
G01*
X512826Y753110D02*
G03*
X512826Y753110I-7366J0D01*
G01*
X789178Y716674D02*
Y725561D01*
X784734D01*
X783253Y724080D01*
Y721118D01*
X784734Y719636D01*
X789178D01*
X775847Y725561D02*
X778810D01*
X780291Y724080D01*
Y718155D01*
X778810Y716674D01*
X775847D01*
X774366Y718155D01*
Y724080D01*
X775847Y725561D01*
X771404D02*
Y716674D01*
X768441Y719636D01*
X765479Y716674D01*
Y725561D01*
X756592D02*
X762517D01*
Y716674D01*
X756592D01*
X762517Y721118D02*
X759554D01*
X753630Y716674D02*
Y725561D01*
X749186D01*
X747705Y724080D01*
Y721118D01*
X749186Y719636D01*
X753630D01*
X750667D02*
X747705Y716674D01*
X789178Y750961D02*
Y742074D01*
X784734D01*
X783253Y743555D01*
Y745036D01*
X784734Y746518D01*
X789178D01*
X784734D01*
X783253Y747999D01*
Y749480D01*
X784734Y750961D01*
X789178D01*
X775847D02*
X778810D01*
X780291Y749480D01*
Y743555D01*
X778810Y742074D01*
X775847D01*
X774366Y743555D01*
Y749480D01*
X775847Y750961D01*
X766960D02*
X769923D01*
X771404Y749480D01*
Y743555D01*
X769923Y742074D01*
X766960D01*
X765479Y743555D01*
Y749480D01*
X766960Y750961D01*
X762517D02*
X756592D01*
X759554D01*
Y742074D01*
X753630D02*
X747705Y747999D01*
X738818Y749480D02*
X740299Y750961D01*
X743261D01*
X744742Y749480D01*
Y743555D01*
X743261Y742074D01*
X740299D01*
X738818Y743555D01*
X735855Y750961D02*
X729930D01*
X732893D01*
Y742074D01*
X721043Y749480D02*
X722524Y750961D01*
X725487D01*
X726968Y749480D01*
Y747999D01*
X725487Y746518D01*
X722524D01*
X721043Y745036D01*
Y743555D01*
X722524Y742074D01*
X725487D01*
X726968Y743555D01*
X783253Y776361D02*
X789178D01*
Y767474D01*
X783253D01*
X789178Y771918D02*
X786216D01*
X780291Y767474D02*
Y776361D01*
X774366Y767474D01*
Y776361D01*
X771404Y767474D02*
Y773399D01*
X768441Y776361D01*
X765479Y773399D01*
Y767474D01*
Y771918D01*
X771404D01*
X762517Y767474D02*
X756592Y773399D01*
X753630Y767474D02*
Y776361D01*
X749186D01*
X747705Y774880D01*
Y771918D01*
X749186Y770436D01*
X753630D01*
X750667D02*
X747705Y767474D01*
X744742Y776361D02*
X738818D01*
X741780D01*
Y767474D01*
X729930Y774880D02*
X731412Y776361D01*
X734374D01*
X735855Y774880D01*
Y773399D01*
X734374Y771918D01*
X731412D01*
X729930Y770436D01*
Y768955D01*
X731412Y767474D01*
X734374D01*
X735855Y768955D01*
X726968Y767474D02*
X721043Y773399D01*
X713637Y767474D02*
Y776361D01*
X718081Y771918D01*
X712156D01*
X709194Y774880D02*
X707713Y776361D01*
X704750D01*
X703269Y774880D01*
Y773399D01*
X704750Y771918D01*
X703269Y770436D01*
Y768955D01*
X704750Y767474D01*
X707713D01*
X709194Y768955D01*
Y770436D01*
X707713Y771918D01*
X709194Y773399D01*
Y774880D01*
X707713Y771918D02*
X704750D01*
X694382Y776361D02*
X700307D01*
Y771918D01*
X697344Y773399D01*
X695863D01*
X694382Y771918D01*
Y768955D01*
X695863Y767474D01*
X698826D01*
X700307Y768955D01*
X789178Y828037D02*
X783253D01*
X786216D01*
Y819150D01*
X780291Y828037D02*
X774366Y819150D01*
Y828037D02*
X780291Y819150D01*
X771404Y828037D02*
Y819150D01*
X766960D01*
X765479Y820631D01*
Y826556D01*
X766960Y828037D01*
X771404D01*
X789178Y793750D02*
Y802637D01*
X784734D01*
X783253Y801156D01*
Y798194D01*
X784734Y796712D01*
X789178D01*
X786216D02*
X783253Y793750D01*
X780291Y802637D02*
X774366Y793750D01*
Y802637D02*
X780291Y793750D01*
X771404Y802637D02*
Y793750D01*
X766960D01*
X765479Y795231D01*
Y801156D01*
X766960Y802637D01*
X771404D01*
X783253Y851080D02*
X784734Y852561D01*
X787697D01*
X789178Y851080D01*
Y845155D01*
X787697Y843674D01*
X784734D01*
X783253Y845155D01*
Y848118D01*
X786216D01*
X780291Y843674D02*
Y852561D01*
X774366Y843674D01*
Y852561D01*
X771404D02*
Y843674D01*
X766960D01*
X765479Y845155D01*
Y851080D01*
X766960Y852561D01*
X771404D01*
M02*
