G04*
G04 #@! TF.GenerationSoftware,Altium Limited,Altium Designer,25.8.1 (18)*
G04*
G04 Layer_Color=39423*
%FSLAX44Y44*%
%MOMM*%
G71*
G04*
G04 #@! TF.SameCoordinates,1908CFB6-2130-4752-B80A-5B201478E641*
G04*
G04*
G04 #@! TF.FilePolarity,Positive*
G04*
G01*
G75*
%ADD12C,0.2540*%
%ADD13C,0.1524*%
%ADD16R,1.7780X0.4572*%
%ADD80C,0.1000*%
D12*
X368296Y776436D02*
Y788436D01*
Y776436D02*
X398296D01*
Y785436D01*
X395296Y788436D02*
X398296Y785436D01*
X368296Y788436D02*
X395296D01*
X652000Y781090D02*
X678000D01*
Y705090D02*
Y781090D01*
X652000Y705090D02*
X678000D01*
X652000D02*
Y781090D01*
X621520Y786370D02*
Y862370D01*
Y786370D02*
X647520D01*
Y862370D01*
X621520D02*
X647520D01*
X652000D02*
X678000D01*
X678000Y786370D02*
X678000Y862370D01*
X652000Y786370D02*
X678000D01*
X652000Y862370D02*
X652000Y786370D01*
X621520Y781090D02*
X647520D01*
X647520Y705090D02*
X647520Y781090D01*
X621520Y705090D02*
X647520D01*
X621520Y781090D02*
X621520Y705090D01*
D13*
X451360Y849074D02*
X469140D01*
X451360Y811736D02*
X469140D01*
Y849074D01*
X451360Y811736D02*
Y849074D01*
D16*
X460253Y846782D02*
D03*
D80*
X560114Y816000D02*
X560114Y848000D01*
X590086Y848000D01*
Y816000D02*
Y848000D01*
X560114Y816000D02*
X590086D01*
X560114Y759000D02*
X560114Y791000D01*
X590086Y791000D01*
Y759000D02*
Y791000D01*
X560114Y759000D02*
X590086D01*
M02*
