G04*
G04 #@! TF.GenerationSoftware,Altium Limited,Altium Designer,25.8.1 (18)*
G04*
G04 Layer_Physical_Order=1*
G04 Layer_Color=255*
%FSLAX44Y44*%
%MOMM*%
G71*
G04*
G04 #@! TF.SameCoordinates,1908CFB6-2130-4752-B80A-5B201478E641*
G04*
G04*
G04 #@! TF.FilePolarity,Positive*
G04*
G01*
G75*
%ADD12C,0.2540*%
%ADD19R,1.5000X0.8500*%
%ADD20R,1.1500X0.3000*%
%ADD21R,1.1500X0.6000*%
%ADD22R,1.4000X0.9000*%
%ADD23R,0.7000X0.6000*%
%ADD24O,0.2500X1.0000*%
%ADD25R,0.8500X1.5000*%
%ADD26O,1.0000X0.2500*%
%ADD27R,0.6500X1.2500*%
%ADD28R,1.1684X0.7620*%
%ADD29R,0.7620X0.7620*%
%ADD30R,1.3000X1.1000*%
%ADD31R,1.1000X0.6000*%
%AMCUSTOMSHAPE53*
4,1,5,-1.6250,-1.6250,-1.6250,0.8125,-0.8125,1.6250,1.6250,1.6250,1.6250,-1.6250,-1.6250,-1.6250,0.0*%
%ADD53CUSTOMSHAPE53*%

%ADD54C,0.3048*%
%ADD55C,0.2286*%
%ADD56C,0.5080*%
%ADD57C,0.4992*%
%ADD58C,0.4572*%
%ADD59C,0.5000*%
%ADD60C,0.4064*%
%ADD61R,1.1684X1.6944*%
%ADD62R,0.9686X1.5308*%
%ADD63R,1.0000X1.5000*%
%ADD64C,0.6500*%
%ADD65O,2.1000X1.0000*%
G04:AMPARAMS|DCode=66|XSize=1.8mm|YSize=1mm|CornerRadius=0.25mm|HoleSize=0mm|Usage=FLASHONLY|Rotation=0.000|XOffset=0mm|YOffset=0mm|HoleType=Round|Shape=RoundedRectangle|*
%AMROUNDEDRECTD66*
21,1,1.8000,0.5000,0,0,0.0*
21,1,1.3000,1.0000,0,0,0.0*
1,1,0.5000,0.6500,-0.2500*
1,1,0.5000,-0.6500,-0.2500*
1,1,0.5000,-0.6500,0.2500*
1,1,0.5000,0.6500,0.2500*
%
%ADD66ROUNDEDRECTD66*%
%ADD67C,1.7780*%
%ADD68C,1.6500*%
%ADD69R,1.7780X1.7780*%
%ADD70R,1.6500X1.6500*%
%ADD71C,2.0000*%
%ADD72C,0.7000*%
%ADD73C,0.7112*%
%ADD74C,0.3500*%
%ADD75C,0.5000*%
G36*
X834340Y703630D02*
X278942D01*
Y864566D01*
X834340D01*
Y703630D01*
D02*
G37*
%LPC*%
G36*
X803514Y858782D02*
X800806D01*
X798191Y858081D01*
X795999Y856816D01*
X797677Y855139D01*
X795521Y852983D01*
X793844Y854661D01*
X792579Y852469D01*
X791878Y849854D01*
Y847146D01*
X792579Y844531D01*
X793844Y842339D01*
X795521Y844017D01*
X797677Y841861D01*
X795999Y840184D01*
X798191Y838919D01*
X800806Y838218D01*
X803514D01*
X806129Y838919D01*
X808321Y840184D01*
X806643Y841861D01*
X808799Y844017D01*
X810476Y842339D01*
X811741Y844531D01*
X812442Y847146D01*
Y849854D01*
X811741Y852469D01*
X810476Y854661D01*
X808799Y852983D01*
X806643Y855139D01*
X808321Y856816D01*
X806129Y858081D01*
X803514Y858782D01*
D02*
G37*
G36*
X401426Y843216D02*
X400216Y843072D01*
X392643D01*
X392619Y843005D01*
X392536Y842702D01*
X392501Y842515D01*
X392544Y842254D01*
X392633Y841924D01*
X392747Y841645D01*
X392887Y841416D01*
X393052Y841238D01*
X393243Y841111D01*
X393459Y841035D01*
X393700Y841010D01*
X388620D01*
X388861Y841035D01*
X389077Y841111D01*
X389268Y841238D01*
X389433Y841416D01*
X389572Y841645D01*
X389687Y841924D01*
X389776Y842254D01*
X389819Y842515D01*
X389784Y842702D01*
X389701Y843005D01*
X389677Y843072D01*
X381628D01*
Y830508D01*
X400216D01*
X400692Y830508D01*
X401902Y830652D01*
X420490D01*
Y843216D01*
X412011D01*
X411960Y843028D01*
X411909Y842755D01*
X411968Y842398D01*
X412057Y842068D01*
X412172Y841788D01*
X412311Y841560D01*
X412476Y841382D01*
X412667Y841255D01*
X412883Y841179D01*
X413124Y841153D01*
X408044D01*
X408285Y841179D01*
X408501Y841255D01*
X408692Y841382D01*
X408857Y841560D01*
X408997Y841788D01*
X409111Y842068D01*
X409200Y842398D01*
X409259Y842755D01*
X409208Y843028D01*
X409157Y843216D01*
X401902D01*
X401431Y843216D01*
X401426D01*
D02*
G37*
G36*
X675414Y860184D02*
X654586D01*
Y844781D01*
X654493Y844585D01*
X654479Y844307D01*
X654449Y844107D01*
X654397Y843899D01*
X654320Y843678D01*
X654214Y843444D01*
X654078Y843195D01*
X653907Y842934D01*
X653702Y842659D01*
X653458Y842373D01*
X653148Y842047D01*
X653086Y841885D01*
X652136Y840935D01*
X644934D01*
Y860184D01*
X624106D01*
Y845159D01*
X624065Y845148D01*
X623827Y845108D01*
X623509Y845080D01*
X623077Y845069D01*
X622919Y844999D01*
X617117D01*
X617117Y844999D01*
X616027Y844782D01*
X615103Y844164D01*
X615091Y844153D01*
X613803D01*
X612713Y843936D01*
X611789Y843318D01*
X611789Y843318D01*
X603320Y834849D01*
X591311D01*
X591153Y834919D01*
X590721Y834930D01*
X590403Y834958D01*
X590165Y834998D01*
X590124Y835009D01*
Y836524D01*
X580076D01*
Y831159D01*
X578806Y830633D01*
X577902Y831537D01*
X576055Y832302D01*
X575346D01*
X575066Y832427D01*
X574804Y832434D01*
X574617Y832454D01*
X574441Y832487D01*
X574275Y832532D01*
X574114Y832591D01*
X573958Y832664D01*
X573802Y832753D01*
X573647Y832859D01*
X573489Y832986D01*
X573288Y833174D01*
X573130Y833233D01*
X570501Y835862D01*
X570124Y836976D01*
X570124Y836976D01*
X570124D01*
X570124Y836976D01*
Y846024D01*
X560076D01*
Y844509D01*
X560035Y844498D01*
X559797Y844458D01*
X559479Y844430D01*
X559047Y844419D01*
X558889Y844349D01*
X558001D01*
X557843Y844419D01*
X557411Y844430D01*
X557093Y844458D01*
X556855Y844498D01*
X556814Y844509D01*
Y854844D01*
X545266D01*
Y837518D01*
X542621D01*
X540814Y839325D01*
X540751Y839487D01*
X540442Y839813D01*
X540198Y840099D01*
X539993Y840373D01*
X539822Y840636D01*
X539686Y840883D01*
X539580Y841118D01*
X539503Y841339D01*
X539451Y841547D01*
X539421Y841747D01*
X539407Y842025D01*
X539314Y842221D01*
Y854844D01*
X527766D01*
Y848011D01*
X527725Y848000D01*
X527487Y847960D01*
X527169Y847932D01*
X526737Y847921D01*
X526579Y847851D01*
X524710D01*
X524655Y847888D01*
X523564Y848105D01*
X523564Y848105D01*
X516823D01*
X515733Y847888D01*
X514809Y847270D01*
X514809Y847270D01*
X509598Y842059D01*
X508980Y841135D01*
X508763Y840045D01*
X508763Y840045D01*
Y827465D01*
X508763Y827465D01*
X508980Y826375D01*
X509001Y826343D01*
Y815250D01*
X509022Y815147D01*
Y811500D01*
X509194Y810631D01*
X508777Y810073D01*
X508219Y809656D01*
X507350Y809828D01*
X499850D01*
X498768Y809613D01*
X497850Y809000D01*
X497237Y808082D01*
X497022Y807000D01*
X497237Y805918D01*
X497607Y805365D01*
X497761Y804500D01*
X497607Y803635D01*
X497237Y803082D01*
X497022Y802000D01*
X497237Y800918D01*
X497850Y800000D01*
X497184Y798918D01*
X496758Y798281D01*
X496504Y797000D01*
X496758Y795720D01*
X496804Y795651D01*
X496827Y795574D01*
X496400Y793969D01*
X496348Y793935D01*
X490744D01*
X488541Y796138D01*
X487659Y796728D01*
X486817Y796895D01*
Y803910D01*
X459632D01*
X459622Y803925D01*
X454264Y809282D01*
X453382Y809872D01*
X452341Y810079D01*
X425514D01*
X424473Y809872D01*
X423591Y809282D01*
X401180Y786871D01*
X398817D01*
X398536Y788024D01*
X398536Y788141D01*
Y799708D01*
X382788D01*
Y788141D01*
X382788Y788024D01*
X382507Y786871D01*
X379937D01*
X379207Y787686D01*
X379103Y787823D01*
X379073Y790109D01*
X379030Y790208D01*
Y791199D01*
X378978Y791462D01*
Y799200D01*
X368310D01*
Y791462D01*
X368258Y791199D01*
Y790208D01*
X368215Y790109D01*
X368185Y787823D01*
X368059Y787680D01*
X367288Y786935D01*
X361367D01*
Y793392D01*
X361367Y793392D01*
X361160Y794433D01*
X360571Y795315D01*
X360276Y795610D01*
X360574Y797108D01*
X360854Y797225D01*
X361776Y798145D01*
X362274Y799349D01*
Y800651D01*
X361776Y801855D01*
X360854Y802775D01*
X359651Y803274D01*
X358349D01*
X357324Y804224D01*
Y805971D01*
X358225Y806866D01*
X360519Y806852D01*
X360817Y806792D01*
X383071D01*
X383719Y806921D01*
X400325D01*
X401894Y807233D01*
X403223Y808122D01*
X405463Y810361D01*
X405473Y810368D01*
X405686Y810456D01*
X405686Y810456D01*
X405687Y810457D01*
X408889Y813660D01*
X418068D01*
X418205Y813580D01*
X418319Y813610D01*
X418428Y813565D01*
X418657Y813660D01*
X419982D01*
Y814855D01*
X420062Y814992D01*
X420068Y815034D01*
X420080Y815043D01*
X420301Y815147D01*
X420674Y815265D01*
X421165Y815367D01*
X422638Y815509D01*
X422710Y815511D01*
X424001Y814976D01*
X425999D01*
X427846Y815741D01*
X429259Y817154D01*
X430024Y819001D01*
Y820999D01*
X429259Y822846D01*
X427846Y824259D01*
X425999Y825024D01*
X424001D01*
X422154Y824259D01*
X421853Y823958D01*
X421779Y823960D01*
X421113Y824021D01*
X420558Y824103D01*
X420143Y824197D01*
X419982Y824251D01*
Y825208D01*
X418657D01*
X418428Y825303D01*
X418277Y825241D01*
X418117Y825274D01*
X418018Y825208D01*
X401934D01*
Y819059D01*
X401454Y818694D01*
X400184Y819324D01*
Y825064D01*
X382136D01*
Y822424D01*
X380857D01*
X379653Y821926D01*
X378732Y821005D01*
X378234Y819801D01*
Y818499D01*
X378732Y817295D01*
X379653Y816375D01*
X379713Y816350D01*
X379461Y815080D01*
X361236D01*
X360964Y815134D01*
X360746Y815229D01*
X359013Y815264D01*
X357832Y815355D01*
Y817362D01*
X357570Y817345D01*
X357020Y817258D01*
X356570Y817151D01*
X356219Y817025D01*
X355970Y816880D01*
X355820Y816715D01*
X355770Y816531D01*
Y822469D01*
X357832Y822482D01*
Y824532D01*
X354565D01*
X354134Y825802D01*
X354453Y826047D01*
X355499Y827410D01*
X356156Y828997D01*
X356380Y830700D01*
X356156Y832403D01*
X355499Y833990D01*
X354453Y835353D01*
X353090Y836399D01*
X351503Y837056D01*
X349800Y837280D01*
X338800D01*
X337097Y837056D01*
X335510Y836399D01*
X334147Y835353D01*
X333101Y833990D01*
X332444Y832403D01*
X332220Y830700D01*
X332444Y828997D01*
X333101Y827410D01*
X334147Y826047D01*
X335510Y825001D01*
X337097Y824344D01*
X338800Y824120D01*
X342268D01*
Y821713D01*
X340998Y820864D01*
X340250Y821174D01*
X338350D01*
X336596Y820447D01*
X335253Y819104D01*
X334526Y817350D01*
Y815450D01*
X335253Y813696D01*
X336596Y812353D01*
X338350Y811626D01*
X340250D01*
X341506Y812146D01*
X342776Y811465D01*
Y801976D01*
Y792437D01*
X342690Y792435D01*
X342355Y792291D01*
X341674Y792155D01*
X340792Y791566D01*
X339453Y790227D01*
X338864Y789344D01*
X338657Y788304D01*
Y781696D01*
X338864Y780656D01*
X339453Y779773D01*
X340792Y778434D01*
X341674Y777845D01*
X342334Y777713D01*
X342662Y777565D01*
X342776Y777562D01*
Y771976D01*
Y763535D01*
X341506Y762854D01*
X340250Y763374D01*
X338350D01*
X336596Y762647D01*
X335253Y761304D01*
X334526Y759550D01*
Y757650D01*
X335253Y755896D01*
X336596Y754553D01*
X338350Y753826D01*
X340250D01*
X340998Y754136D01*
X342268Y753287D01*
Y750880D01*
X338800D01*
X337097Y750656D01*
X335510Y749999D01*
X334147Y748953D01*
X333101Y747590D01*
X332444Y746003D01*
X332220Y744300D01*
X332444Y742597D01*
X333101Y741010D01*
X334147Y739647D01*
X335510Y738601D01*
X337097Y737944D01*
X338800Y737720D01*
X349800D01*
X351503Y737944D01*
X353090Y738601D01*
X354453Y739647D01*
X355499Y741010D01*
X356156Y742597D01*
X356380Y744300D01*
X356156Y746003D01*
X355499Y747590D01*
X354453Y748953D01*
X354134Y749198D01*
X354565Y750468D01*
X357832D01*
Y752871D01*
X356219Y752770D01*
X355970Y752700D01*
X355820Y752620D01*
X355770Y752531D01*
Y758469D01*
X355820Y758380D01*
X355970Y758300D01*
X356219Y758230D01*
X356570Y758169D01*
X357020Y758117D01*
X357936Y758071D01*
X358733Y758863D01*
X360840Y758850D01*
X360845Y758852D01*
X360849Y758850D01*
X360960Y758896D01*
X362004D01*
X362442Y758604D01*
X364028Y758288D01*
X369263D01*
X369605Y758356D01*
X385339D01*
X386454Y757982D01*
Y756657D01*
X386359Y756428D01*
X386397Y756335D01*
X386370Y756239D01*
X386454Y756087D01*
Y746434D01*
X404502D01*
Y757982D01*
X398279D01*
X398120Y758068D01*
X397831Y758099D01*
X397776Y758118D01*
X397729Y758149D01*
X397643Y758242D01*
X397519Y758445D01*
X397380Y758785D01*
X397250Y759268D01*
X397147Y759887D01*
X397095Y760466D01*
X397524Y761501D01*
Y763499D01*
X397132Y764445D01*
X397721Y765672D01*
X398282D01*
Y766997D01*
X398377Y767227D01*
X398324Y767355D01*
X398356Y767490D01*
X398282Y767610D01*
Y776340D01*
X387614D01*
Y767674D01*
X387562Y767602D01*
X386955Y766937D01*
X386386Y766644D01*
X378978D01*
Y773411D01*
X379030Y773673D01*
Y774665D01*
X379073Y774764D01*
X379103Y777050D01*
X379207Y777187D01*
X379937Y778002D01*
X403727D01*
X404768Y778209D01*
X405650Y778798D01*
X428061Y801210D01*
X436976D01*
Y792976D01*
X436976D01*
Y792024D01*
X436976D01*
Y782976D01*
X451024D01*
Y783612D01*
X463976D01*
Y782976D01*
X478024D01*
Y783612D01*
X486817D01*
Y784088D01*
X487946Y784977D01*
X489002Y784799D01*
X489450Y783600D01*
X485835Y779985D01*
X449594D01*
X448009Y779670D01*
X446664Y778772D01*
X440506Y772613D01*
X439608Y771269D01*
X439292Y769683D01*
Y741426D01*
X439246Y741319D01*
X439236Y740389D01*
X439151Y738851D01*
X439085Y738291D01*
X439006Y737850D01*
X438986Y737774D01*
X438226D01*
Y736708D01*
X438020Y736631D01*
X437617Y736530D01*
X437094Y736444D01*
X436935Y736432D01*
X436711Y736459D01*
X436184Y736559D01*
X435801Y736671D01*
X435571Y736771D01*
X435562Y736776D01*
X435524Y736840D01*
Y738024D01*
X434199D01*
X433969Y738119D01*
X433852Y738070D01*
X433728Y738101D01*
X433599Y738024D01*
X417476D01*
Y737336D01*
X416206Y736561D01*
X415019Y737052D01*
X413021D01*
X411174Y736287D01*
X409761Y734874D01*
X408996Y733027D01*
Y731029D01*
X409761Y729182D01*
X411174Y727769D01*
X413021Y727004D01*
X415019D01*
X416206Y727495D01*
X417476Y726720D01*
Y726476D01*
X433577D01*
X433690Y726405D01*
X433834Y726437D01*
X433969Y726381D01*
X434199Y726476D01*
X435524D01*
Y727542D01*
X435730Y727619D01*
X436133Y727720D01*
X436656Y727806D01*
X436815Y727818D01*
X437039Y727791D01*
X437566Y727691D01*
X437949Y727579D01*
X438179Y727479D01*
X438188Y727474D01*
X438226Y727410D01*
Y726226D01*
X439551D01*
X439781Y726131D01*
X439898Y726180D01*
X440022Y726149D01*
X440151Y726226D01*
X455914D01*
X457202Y724938D01*
X457242Y724833D01*
X457893Y724148D01*
X458442Y723503D01*
X458917Y722869D01*
X459321Y722248D01*
X459655Y721640D01*
X459922Y721047D01*
X460125Y720467D01*
X460267Y719899D01*
X460351Y719340D01*
X460383Y718703D01*
X460476Y718507D01*
Y709476D01*
X472024D01*
Y727524D01*
X469493D01*
X469297Y727617D01*
X468660Y727649D01*
X468101Y727733D01*
X467533Y727875D01*
X466953Y728078D01*
X466360Y728345D01*
X465752Y728679D01*
X465131Y729082D01*
X464497Y729558D01*
X463852Y730106D01*
X463167Y730758D01*
X463062Y730798D01*
X460286Y733574D01*
X458941Y734472D01*
X457593Y734741D01*
X457376Y734834D01*
X456274Y734847D01*
Y737774D01*
X448847D01*
X448689Y737860D01*
X448163Y738883D01*
X448117Y739072D01*
X448345Y739495D01*
X448918Y739968D01*
X464532D01*
Y752532D01*
X447580D01*
Y757976D01*
X462089D01*
X462210Y757902D01*
X462343Y757933D01*
X462469Y757881D01*
X462699Y757976D01*
X464024D01*
Y759125D01*
X464028Y759128D01*
X464266Y759224D01*
X464659Y759330D01*
X465172Y759421D01*
X466260Y759511D01*
X466659Y759497D01*
X467306Y759425D01*
X467841Y759330D01*
X468234Y759224D01*
X468472Y759128D01*
X468476Y759125D01*
Y757976D01*
X469801D01*
X470031Y757881D01*
X470157Y757933D01*
X470290Y757902D01*
X470411Y757976D01*
X484599D01*
X484728Y757899D01*
X484851Y757930D01*
X484969Y757881D01*
X485199Y757976D01*
X486524D01*
Y759160D01*
X486562Y759224D01*
X486571Y759229D01*
X486801Y759329D01*
X487184Y759441D01*
X487687Y759537D01*
X488953Y759649D01*
X489332Y759489D01*
X490231Y758471D01*
X490231Y758459D01*
X490246Y758422D01*
Y752710D01*
X490326Y752310D01*
Y741976D01*
X489818Y741782D01*
Y734220D01*
X490078Y734099D01*
X490370Y733993D01*
X490639Y733919D01*
X490966Y734007D01*
X491245Y734122D01*
X491474Y734261D01*
X491652Y734426D01*
X491779Y734617D01*
X491855Y734833D01*
X491880Y735074D01*
Y729994D01*
X491855Y730235D01*
X491779Y730451D01*
X491652Y730642D01*
X491474Y730807D01*
X491245Y730947D01*
X490966Y731061D01*
X490639Y731149D01*
X490370Y731075D01*
X490078Y730969D01*
X489818Y730849D01*
Y728672D01*
X489524Y727524D01*
X477976D01*
Y709476D01*
X489524D01*
Y712941D01*
X489531Y712962D01*
X489617Y713124D01*
X489692Y713224D01*
X490857Y713576D01*
X490913Y713523D01*
X491199Y713413D01*
X491701Y712912D01*
X493547Y712147D01*
X495546D01*
X497392Y712912D01*
X497894Y713413D01*
X498180Y713523D01*
X498371Y713703D01*
X498517Y713822D01*
X498664Y713922D01*
X498814Y714008D01*
X498969Y714079D01*
X499132Y714138D01*
X499304Y714186D01*
X499490Y714221D01*
X499691Y714242D01*
X499966Y714252D01*
X500119Y714322D01*
X500821D01*
X501450Y713902D01*
X502540Y713685D01*
X502540Y713685D01*
X516382D01*
X516382Y713685D01*
X517472Y713902D01*
X518396Y714520D01*
X522658Y718782D01*
X522658Y718782D01*
X522798Y718991D01*
X524068Y718968D01*
X524310Y718968D01*
X532180D01*
X532204Y719034D01*
X532286Y719337D01*
X532322Y719525D01*
X532278Y719786D01*
X532189Y720116D01*
X532075Y720396D01*
X531935Y720624D01*
X531770Y720802D01*
X531580Y720929D01*
X531364Y721005D01*
X531123Y721031D01*
X536203D01*
X535961Y721005D01*
X535745Y720929D01*
X535555Y720802D01*
X535390Y720624D01*
X535250Y720396D01*
X535136Y720116D01*
X535047Y719786D01*
X535003Y719525D01*
X535039Y719337D01*
X535121Y719034D01*
X535145Y718968D01*
X543132D01*
Y731532D01*
X524763D01*
X524068Y731532D01*
X523493Y732564D01*
Y736525D01*
X524576Y736976D01*
X524763Y736976D01*
X542624D01*
Y748524D01*
X539289D01*
X538584Y749580D01*
X538591Y749599D01*
Y751597D01*
X537827Y753444D01*
X536413Y754857D01*
X534567Y755622D01*
X532568D01*
X530722Y754857D01*
X529308Y753444D01*
X528543Y751597D01*
Y749599D01*
X528551Y749580D01*
X527846Y748524D01*
X524763D01*
X524576Y748524D01*
X523493Y748975D01*
Y759657D01*
X523493Y759657D01*
X523276Y760748D01*
X523032Y761112D01*
X522957Y762080D01*
X523416Y762710D01*
X523485Y762757D01*
X524350Y762911D01*
X525215Y762757D01*
X525768Y762387D01*
X526850Y762172D01*
X527932Y762387D01*
X528850Y763000D01*
X529850D01*
X530768Y762387D01*
X531850Y762172D01*
X532932Y762387D01*
X533485Y762757D01*
X534350Y762911D01*
X535215Y762757D01*
X535768Y762387D01*
X536850Y762172D01*
X537932Y762387D01*
X538850Y763000D01*
X539850D01*
X540768Y762387D01*
X541850Y762172D01*
X542932Y762387D01*
X543850Y763000D01*
X544463Y763918D01*
X544678Y765000D01*
Y772500D01*
X544506Y773369D01*
X544923Y773927D01*
X545481Y774344D01*
X546350Y774172D01*
X553850D01*
X554932Y774387D01*
X554944Y774395D01*
X556214Y773716D01*
Y761395D01*
X556421Y760355D01*
X557010Y759473D01*
X560931Y755552D01*
X560405Y754282D01*
X556958D01*
X556664Y754721D01*
Y756720D01*
X555899Y758567D01*
X554486Y759980D01*
X552639Y760745D01*
X550641D01*
X548794Y759980D01*
X547381Y758567D01*
X546616Y756720D01*
Y754721D01*
X546881Y754081D01*
X546676Y753774D01*
X546676D01*
Y752449D01*
X546581Y752220D01*
X546655Y752040D01*
X546623Y751848D01*
X546676Y751774D01*
Y738226D01*
X555568D01*
Y737718D01*
X559427D01*
X559474Y737888D01*
X559527Y738169D01*
X559466Y738536D01*
X559377Y738866D01*
X559263Y739146D01*
X559123Y739374D01*
X558958Y739552D01*
X558767Y739679D01*
X558551Y739755D01*
X558310Y739781D01*
X563390D01*
X563149Y739755D01*
X562933Y739679D01*
X562742Y739552D01*
X562577Y739374D01*
X562438Y739146D01*
X562323Y738866D01*
X562234Y738536D01*
X562173Y738169D01*
X562226Y737888D01*
X562272Y737718D01*
X564829D01*
X565074Y737351D01*
Y735352D01*
X565839Y733506D01*
X567253Y732093D01*
X569099Y731328D01*
X571098D01*
X572944Y732093D01*
X574357Y733506D01*
X575122Y735352D01*
Y737351D01*
X574861Y737982D01*
X575024Y738226D01*
X575024D01*
Y739551D01*
X575119Y739781D01*
X575044Y739962D01*
X575076Y740156D01*
X575024Y740228D01*
Y753638D01*
X603783D01*
X629270Y728150D01*
X629061Y726563D01*
X628126Y726023D01*
X627315Y725213D01*
X627022Y725097D01*
X626284Y724380D01*
X625586Y723771D01*
X624904Y723244D01*
X624237Y722796D01*
X623588Y722426D01*
X622957Y722130D01*
X622344Y721906D01*
X621749Y721750D01*
X621167Y721658D01*
X620508Y721623D01*
X620406Y721575D01*
X598519D01*
X597624Y722470D01*
Y728524D01*
X581479D01*
X581334Y728606D01*
X581230Y728578D01*
X581130Y728619D01*
X580901Y728524D01*
X579576D01*
Y727318D01*
X579494Y727173D01*
X579487Y727117D01*
X579336Y727039D01*
X579030Y726934D01*
X578619Y726840D01*
X577331Y726704D01*
X577263Y726706D01*
X576595Y726762D01*
X576046Y726849D01*
X575623Y726958D01*
X575333Y727072D01*
X575174Y727164D01*
X575131Y727202D01*
X575109Y727400D01*
X575024Y727555D01*
Y728774D01*
X573699D01*
X573470Y728869D01*
X573381Y728832D01*
X573289Y728859D01*
X573134Y728774D01*
X565476D01*
Y713226D01*
X575024D01*
Y717847D01*
X575110Y718005D01*
X575135Y718246D01*
X575139Y718258D01*
X575146Y718267D01*
X575202Y718320D01*
X575360Y718416D01*
X575644Y718532D01*
X576061Y718644D01*
X576604Y718735D01*
X577267Y718793D01*
X577356Y718796D01*
X578028Y718746D01*
X578591Y718666D01*
X579030Y718566D01*
X579336Y718461D01*
X579487Y718383D01*
X579494Y718327D01*
X579576Y718182D01*
Y716976D01*
X580901D01*
X581130Y716881D01*
X581230Y716922D01*
X581334Y716894D01*
X581479Y716976D01*
X592130D01*
X594163Y714943D01*
X595423Y714101D01*
X596910Y713805D01*
X620406D01*
X620508Y713757D01*
X621167Y713722D01*
X621749Y713630D01*
X622344Y713474D01*
X622957Y713250D01*
X623588Y712954D01*
X624237Y712584D01*
X624904Y712136D01*
X625586Y711609D01*
X626283Y711001D01*
X627022Y710284D01*
X627315Y710167D01*
X628126Y709357D01*
X630500Y707986D01*
X633149Y707276D01*
X635891D01*
X638540Y707986D01*
X640914Y709357D01*
X642853Y711296D01*
X644224Y713670D01*
X644934Y716319D01*
Y717978D01*
X646204Y718504D01*
X648941Y715767D01*
X649824Y715178D01*
X650429Y715057D01*
X650730Y714903D01*
X651220Y714863D01*
X651649Y714764D01*
X652155Y714579D01*
X652732Y714298D01*
X653373Y713916D01*
X654072Y713429D01*
X654809Y712849D01*
X656480Y711327D01*
X657374Y710415D01*
X657382Y710411D01*
X657386Y710403D01*
X657682Y710281D01*
X658606Y709357D01*
X660980Y707986D01*
X663629Y707276D01*
X666371D01*
X669020Y707986D01*
X671394Y709357D01*
X673333Y711296D01*
X674704Y713670D01*
X675414Y716319D01*
Y719061D01*
X674704Y721710D01*
X674260Y722479D01*
X674895Y723579D01*
X789212D01*
X789325Y723529D01*
X790143Y723508D01*
X790806Y723449D01*
X791349Y723358D01*
X791766Y723246D01*
X792050Y723130D01*
X792208Y723034D01*
X792264Y722981D01*
X792271Y722972D01*
X792275Y722961D01*
X792300Y722719D01*
X792386Y722561D01*
Y711726D01*
X811934D01*
Y731274D01*
X796571D01*
X796196Y731349D01*
X794000D01*
X793951Y731369D01*
X789380Y731400D01*
X789374Y731397D01*
X789369Y731400D01*
X789246Y731349D01*
X675155D01*
X673367Y733137D01*
X672289Y733857D01*
X672013Y734738D01*
X671944Y735306D01*
X673333Y736696D01*
X674704Y739070D01*
X675414Y741719D01*
Y744461D01*
X674704Y747110D01*
X673333Y749484D01*
X671394Y751423D01*
X669020Y752794D01*
X666371Y753504D01*
X665218D01*
X664920Y753629D01*
X663627Y753636D01*
X661344Y753774D01*
X660400Y753896D01*
X659553Y754056D01*
X658821Y754246D01*
X658209Y754461D01*
X657717Y754691D01*
X657343Y754924D01*
X656972Y755239D01*
X656836Y755283D01*
X655313Y756806D01*
X655839Y758076D01*
X675414D01*
Y778904D01*
X654586D01*
Y759329D01*
X653447Y758857D01*
X652495Y759641D01*
Y783844D01*
X652495Y783844D01*
X652278Y784934D01*
X651661Y785858D01*
X646713Y790806D01*
X646669Y790942D01*
X646354Y791313D01*
X646121Y791687D01*
X645891Y792179D01*
X645676Y792791D01*
X645486Y793522D01*
X645326Y794370D01*
X645204Y795314D01*
X645066Y797597D01*
X645060Y798752D01*
X646082Y799485D01*
X646911Y798829D01*
Y797686D01*
X646911Y797686D01*
X647128Y796596D01*
X647746Y795672D01*
X658146Y785272D01*
X658146Y785272D01*
X659070Y784654D01*
X660160Y784437D01*
X660161Y784437D01*
X675217D01*
X675373Y784367D01*
X675653Y784359D01*
X675877Y784339D01*
X676093Y784306D01*
X676302Y784261D01*
X676506Y784203D01*
X676706Y784132D01*
X676904Y784047D01*
X677099Y783949D01*
X677293Y783836D01*
X677527Y783680D01*
X677604Y783665D01*
X677620Y783649D01*
X679467Y782884D01*
X681465D01*
X683312Y783649D01*
X684725Y785062D01*
X685490Y786909D01*
Y788907D01*
X684725Y790754D01*
X683312Y792167D01*
X681465Y792932D01*
X679467D01*
X677620Y792167D01*
X676413Y790960D01*
X676251Y790864D01*
X676111Y790677D01*
X676017Y790575D01*
X675924Y790491D01*
X675828Y790422D01*
X675724Y790364D01*
X675608Y790313D01*
X675475Y790271D01*
X675318Y790237D01*
X675136Y790215D01*
X674863Y790204D01*
X674742Y790149D01*
X674611Y790175D01*
X674550Y790135D01*
X672688D01*
X672162Y791405D01*
X673333Y792576D01*
X674704Y794950D01*
X675414Y797599D01*
Y800341D01*
X674704Y802990D01*
X673333Y805364D01*
X671394Y807303D01*
X669020Y808674D01*
X666371Y809384D01*
X663629D01*
X660980Y808674D01*
X658606Y807303D01*
X656667Y805364D01*
X655296Y802990D01*
X654586Y800341D01*
Y799010D01*
X653398Y798487D01*
X652609Y799111D01*
Y800254D01*
X652609Y800254D01*
X652392Y801344D01*
X651774Y802268D01*
X651774Y802268D01*
X641374Y812668D01*
X640450Y813286D01*
X639360Y813503D01*
X639359Y813504D01*
X638723Y814678D01*
X638725Y814773D01*
X640914Y816037D01*
X642853Y817976D01*
X644224Y820350D01*
X644903Y822882D01*
X644968Y822990D01*
X645360Y825522D01*
X645823Y827603D01*
X646072Y828452D01*
X646337Y829203D01*
X646608Y829835D01*
X646880Y830348D01*
X647088Y830660D01*
X655140D01*
X655873Y829390D01*
X655296Y828390D01*
X654586Y825741D01*
Y822999D01*
X655296Y820350D01*
X656667Y817976D01*
X658606Y816037D01*
X660980Y814666D01*
X663379Y814023D01*
X663520Y813935D01*
X666062Y813519D01*
X668151Y813038D01*
X669003Y812783D01*
X669755Y812514D01*
X670389Y812239D01*
X670902Y811967D01*
X671291Y811707D01*
X671656Y811392D01*
X671786Y811349D01*
X728422Y754714D01*
X728479Y754563D01*
X728857Y754165D01*
X729162Y753807D01*
X729422Y753461D01*
X729638Y753127D01*
X729815Y752807D01*
X729952Y752501D01*
X730054Y752209D01*
X730125Y751928D01*
X730165Y751656D01*
X730183Y751307D01*
X730276Y751110D01*
Y745206D01*
X745347D01*
X745437Y745145D01*
X745609Y745178D01*
X745770Y745111D01*
X745999Y745206D01*
X747324D01*
Y745799D01*
X748320Y745885D01*
X748840Y745892D01*
X748992Y745957D01*
X788537D01*
X788544Y745952D01*
X788591Y745957D01*
X788746D01*
X788869Y745895D01*
X789418Y745857D01*
X789840Y745766D01*
X790264Y745610D01*
X790698Y745382D01*
X791146Y745071D01*
X791608Y744669D01*
X792080Y744170D01*
X792559Y743571D01*
X793040Y742870D01*
X793543Y742028D01*
X793795Y741840D01*
X794339Y740899D01*
X796159Y739079D01*
X798387Y737792D01*
X800873Y737126D01*
X803447D01*
X805933Y737792D01*
X808161Y739079D01*
X809981Y740899D01*
X811268Y743127D01*
X811934Y745613D01*
Y748187D01*
X811268Y750673D01*
X809981Y752901D01*
X808161Y754721D01*
X805933Y756008D01*
X803447Y756674D01*
X800873D01*
X798387Y756008D01*
X797499Y755495D01*
X797183Y755457D01*
X795017Y754242D01*
X793185Y753323D01*
X791658Y752681D01*
X791054Y752477D01*
X790533Y752337D01*
X790122Y752263D01*
X789717Y752235D01*
X789593Y752173D01*
X749007D01*
X748861Y752238D01*
X748333Y752252D01*
X747928Y752288D01*
X747614Y752340D01*
X747396Y752399D01*
X747335Y752423D01*
X747324Y752444D01*
Y757254D01*
X736420D01*
X736223Y757347D01*
X735874Y757365D01*
X735602Y757405D01*
X735321Y757476D01*
X735029Y757578D01*
X734723Y757716D01*
X734403Y757891D01*
X734069Y758109D01*
X733722Y758369D01*
X733365Y758673D01*
X732967Y759051D01*
X732816Y759108D01*
X676563Y815362D01*
X676540Y815452D01*
X676483Y815486D01*
X676462Y815550D01*
X676093Y815978D01*
X675836Y816378D01*
X675612Y816856D01*
X675426Y817420D01*
X675284Y818075D01*
X675191Y818824D01*
X675155Y819640D01*
X675265Y821641D01*
X675416Y822761D01*
X675383Y822884D01*
X675414Y822999D01*
Y824925D01*
X676684Y825451D01*
X728422Y773714D01*
X728479Y773563D01*
X728857Y773165D01*
X729162Y772807D01*
X729422Y772461D01*
X729638Y772127D01*
X729815Y771807D01*
X729952Y771501D01*
X730054Y771209D01*
X730125Y770928D01*
X730165Y770656D01*
X730183Y770307D01*
X730276Y770110D01*
Y764206D01*
X747324D01*
Y767886D01*
X747335Y767906D01*
X747396Y767931D01*
X747614Y767990D01*
X747928Y768043D01*
X748333Y768078D01*
X748861Y768092D01*
X749007Y768157D01*
X749869D01*
X750768Y767262D01*
X750768Y766887D01*
Y754198D01*
X768832D01*
Y759393D01*
X768729Y759413D01*
X768598Y759427D01*
X768395Y759409D01*
X768014Y759346D01*
X767684Y759257D01*
X767404Y759143D01*
X767176Y759003D01*
X766998Y758838D01*
X766871Y758647D01*
X766795Y758431D01*
X766769Y758190D01*
Y763270D01*
X766795Y763029D01*
X766871Y762813D01*
X766998Y762622D01*
X767176Y762457D01*
X767404Y762318D01*
X767684Y762203D01*
X768014Y762114D01*
X768395Y762051D01*
X768598Y762033D01*
X768729Y762047D01*
X768832Y762067D01*
Y766887D01*
X768832Y767262D01*
X769731Y768157D01*
X789129D01*
X789254Y768095D01*
X789723Y768063D01*
X790157Y767980D01*
X790669Y767828D01*
X791254Y767599D01*
X791905Y767292D01*
X792586Y766921D01*
X795112Y765233D01*
X796034Y764524D01*
X796143Y764495D01*
X796159Y764479D01*
X798387Y763192D01*
X800873Y762526D01*
X803447D01*
X805933Y763192D01*
X808161Y764479D01*
X809981Y766299D01*
X811268Y768527D01*
X811934Y771013D01*
Y773587D01*
X811268Y776073D01*
X809981Y778301D01*
X808161Y780121D01*
X805933Y781408D01*
X803447Y782074D01*
X800873D01*
X798387Y781408D01*
X796159Y780121D01*
X794425Y778387D01*
X794300Y778318D01*
X793645Y777496D01*
X793028Y776799D01*
X792430Y776199D01*
X791853Y775693D01*
X791300Y775281D01*
X790776Y774959D01*
X790283Y774722D01*
X789822Y774562D01*
X789389Y774472D01*
X788859Y774435D01*
X788813Y774412D01*
X788764Y774425D01*
X788673Y774373D01*
X749007D01*
X748861Y774438D01*
X748333Y774452D01*
X747928Y774488D01*
X747614Y774540D01*
X747396Y774599D01*
X747335Y774623D01*
X747324Y774644D01*
Y776254D01*
X736420D01*
X736223Y776347D01*
X735874Y776365D01*
X735602Y776405D01*
X735321Y776476D01*
X735029Y776578D01*
X734723Y776715D01*
X734403Y776892D01*
X734069Y777109D01*
X733722Y777368D01*
X733365Y777673D01*
X732967Y778051D01*
X732816Y778109D01*
X676115Y834809D01*
X675280Y835368D01*
X672562Y838086D01*
X673088Y839356D01*
X675414D01*
Y860184D01*
D02*
G37*
G36*
X717317Y857484D02*
X714283D01*
X711352Y856699D01*
X708724Y855182D01*
X706579Y853036D01*
X705061Y850408D01*
X704276Y847477D01*
Y844443D01*
X705061Y841512D01*
X706579Y838884D01*
X708724Y836739D01*
X711352Y835221D01*
X714283Y834436D01*
X717317D01*
X720248Y835221D01*
X722876Y836739D01*
X725022Y838884D01*
X726539Y841512D01*
X727324Y844443D01*
Y847477D01*
X726539Y850408D01*
X725022Y853036D01*
X722876Y855182D01*
X720248Y856699D01*
X717317Y857484D01*
D02*
G37*
G36*
X468274Y844414D02*
X452226D01*
Y830366D01*
X468274D01*
Y834396D01*
X468315Y834407D01*
X468553Y834447D01*
X468871Y834475D01*
X469303Y834486D01*
X469461Y834557D01*
X470539D01*
X470697Y834486D01*
X471129Y834475D01*
X471447Y834447D01*
X471685Y834407D01*
X471726Y834396D01*
Y831726D01*
X489774D01*
Y843274D01*
X471726D01*
Y840415D01*
X471685Y840404D01*
X471447Y840364D01*
X471129Y840336D01*
X470697Y840324D01*
X470539Y840254D01*
X469461D01*
X469303Y840324D01*
X468871Y840336D01*
X468553Y840364D01*
X468315Y840404D01*
X468274Y840415D01*
Y844414D01*
D02*
G37*
G36*
X309000Y837303D02*
X296000D01*
X294430Y836991D01*
X293099Y836101D01*
X292209Y834770D01*
X291897Y833200D01*
Y828200D01*
X292209Y826630D01*
X293099Y825299D01*
X294430Y824409D01*
X296000Y824097D01*
X309000D01*
X310570Y824409D01*
X311901Y825299D01*
X312791Y826630D01*
X313103Y828200D01*
Y833200D01*
X312791Y834770D01*
X311901Y836101D01*
X310570Y836991D01*
X309000Y837303D01*
D02*
G37*
G36*
X468274Y826634D02*
X452226D01*
Y825216D01*
X452140Y825058D01*
X452109Y824768D01*
X452090Y824714D01*
X452058Y824666D01*
X451966Y824581D01*
X451763Y824457D01*
X451423Y824317D01*
X450940Y824187D01*
X450321Y824084D01*
X449571Y824018D01*
X449099Y824006D01*
X448846Y824259D01*
X446999Y825024D01*
X445001D01*
X443154Y824259D01*
X441741Y822846D01*
X440976Y820999D01*
Y819001D01*
X441741Y817154D01*
X443154Y815741D01*
X445001Y814976D01*
X446999D01*
X448603Y815640D01*
X448657Y815616D01*
X449571Y815592D01*
X450321Y815526D01*
X450940Y815423D01*
X451423Y815293D01*
X451763Y815153D01*
X451966Y815029D01*
X452058Y814944D01*
X452090Y814896D01*
X452109Y814842D01*
X452140Y814552D01*
X452226Y814394D01*
Y812586D01*
X468274D01*
Y826634D01*
D02*
G37*
G36*
X490282Y826282D02*
X471218D01*
Y813718D01*
X479249D01*
X479291Y813835D01*
X479374Y814138D01*
X479405Y814302D01*
X479366Y814536D01*
X479277Y814866D01*
X479162Y815145D01*
X479023Y815374D01*
X478858Y815552D01*
X478667Y815679D01*
X478451Y815755D01*
X478210Y815780D01*
X483290D01*
X483049Y815755D01*
X482833Y815679D01*
X482642Y815552D01*
X482477Y815374D01*
X482337Y815145D01*
X482223Y814866D01*
X482134Y814536D01*
X482095Y814302D01*
X482126Y814138D01*
X482209Y813835D01*
X482251Y813718D01*
X490282D01*
Y826282D01*
D02*
G37*
G36*
X739631Y835858D02*
X737633D01*
X735786Y835093D01*
X734373Y833680D01*
X733608Y831833D01*
Y829835D01*
X734234Y828324D01*
X733784Y827350D01*
X733511Y827054D01*
X730276D01*
Y815006D01*
X747324D01*
Y818686D01*
X747335Y818707D01*
X747396Y818731D01*
X747614Y818790D01*
X747928Y818842D01*
X748333Y818878D01*
X748861Y818892D01*
X749007Y818957D01*
X749869D01*
X750768Y818062D01*
X750768Y817687D01*
Y805138D01*
X749007D01*
X748861Y805203D01*
X748333Y805217D01*
X747928Y805253D01*
X747614Y805305D01*
X747396Y805364D01*
X747335Y805388D01*
X747324Y805409D01*
Y808054D01*
X730276D01*
Y796006D01*
X732877D01*
X732892Y795996D01*
X733621Y794736D01*
X733100Y793479D01*
Y791481D01*
X733865Y789634D01*
X735278Y788221D01*
X737125Y787456D01*
X739123D01*
X740970Y788221D01*
X742383Y789634D01*
X743148Y791481D01*
Y793479D01*
X742627Y794736D01*
X743356Y795996D01*
X743371Y796006D01*
X747324D01*
Y798651D01*
X747335Y798671D01*
X747396Y798696D01*
X747614Y798755D01*
X747928Y798807D01*
X748333Y798843D01*
X748861Y798857D01*
X749007Y798922D01*
X765171D01*
X768590Y795502D01*
X769599Y794829D01*
X770788Y794592D01*
X788863D01*
X788988Y794530D01*
X789493Y794495D01*
X789931Y794407D01*
X790422Y794249D01*
X790964Y794012D01*
X791553Y793692D01*
X792187Y793286D01*
X792843Y792803D01*
X794328Y791519D01*
X795112Y790749D01*
X795409Y790629D01*
X796159Y789879D01*
X798387Y788592D01*
X800873Y787926D01*
X803447D01*
X805933Y788592D01*
X808161Y789879D01*
X809981Y791699D01*
X811268Y793927D01*
X811934Y796413D01*
Y798987D01*
X811268Y801473D01*
X809981Y803701D01*
X808161Y805521D01*
X805933Y806808D01*
X803447Y807474D01*
X800873D01*
X798387Y806808D01*
X796159Y805521D01*
X795420Y804783D01*
X795136Y804674D01*
X793557Y803183D01*
X792860Y802609D01*
X792187Y802114D01*
X791553Y801708D01*
X790964Y801388D01*
X790422Y801151D01*
X789931Y800993D01*
X789493Y800905D01*
X788988Y800870D01*
X788863Y800808D01*
X772075D01*
X769060Y803823D01*
X768832Y804998D01*
X768832Y804998D01*
X768832Y804998D01*
Y809739D01*
X768827Y809739D01*
X768395Y809701D01*
X768014Y809638D01*
X767684Y809549D01*
X767404Y809435D01*
X767176Y809295D01*
X766998Y809130D01*
X766871Y808939D01*
X766795Y808723D01*
X766769Y808482D01*
Y813562D01*
X766795Y813321D01*
X766871Y813105D01*
X766998Y812914D01*
X767176Y812749D01*
X767404Y812609D01*
X767684Y812495D01*
X768014Y812406D01*
X768395Y812343D01*
X768827Y812305D01*
X768832Y812305D01*
Y817687D01*
X768832Y818062D01*
X769731Y818957D01*
X789129D01*
X789254Y818895D01*
X789724Y818863D01*
X790157Y818780D01*
X790670Y818628D01*
X791254Y818400D01*
X791904Y818092D01*
X792587Y817721D01*
X795112Y816033D01*
X796034Y815324D01*
X796143Y815295D01*
X796159Y815279D01*
X798387Y813992D01*
X800873Y813326D01*
X803447D01*
X805933Y813992D01*
X808161Y815279D01*
X809981Y817099D01*
X811268Y819327D01*
X811934Y821813D01*
Y824387D01*
X811268Y826873D01*
X809981Y829101D01*
X808161Y830921D01*
X805933Y832208D01*
X803447Y832874D01*
X800873D01*
X798387Y832208D01*
X796159Y830921D01*
X794424Y829187D01*
X794300Y829118D01*
X793645Y828296D01*
X793028Y827599D01*
X792430Y826999D01*
X791852Y826493D01*
X791300Y826081D01*
X790776Y825759D01*
X790283Y825522D01*
X789822Y825362D01*
X789389Y825272D01*
X788859Y825235D01*
X788813Y825212D01*
X788764Y825225D01*
X788673Y825173D01*
X749007D01*
X748861Y825238D01*
X748333Y825252D01*
X747928Y825288D01*
X747614Y825340D01*
X747396Y825399D01*
X747335Y825424D01*
X747324Y825444D01*
Y827054D01*
X743753D01*
X743480Y827350D01*
X743030Y828324D01*
X743656Y829835D01*
Y831833D01*
X742891Y833680D01*
X741478Y835093D01*
X739631Y835858D01*
D02*
G37*
G36*
X598132Y746532D02*
X590238D01*
X590176Y746396D01*
X590070Y746105D01*
X589987Y745802D01*
X589984Y745784D01*
X589995Y745714D01*
X590084Y745384D01*
X590198Y745105D01*
X590338Y744876D01*
X590503Y744698D01*
X590694Y744571D01*
X590910Y744495D01*
X591151Y744470D01*
X586071D01*
X586312Y744495D01*
X586528Y744571D01*
X586719Y744698D01*
X586884Y744876D01*
X587023Y745105D01*
X587138Y745384D01*
X587227Y745714D01*
X587238Y745784D01*
X587235Y745802D01*
X587152Y746105D01*
X587046Y746396D01*
X586983Y746532D01*
X579068D01*
Y733968D01*
X598132D01*
Y746532D01*
D02*
G37*
G36*
X487032Y752532D02*
X467968D01*
Y739968D01*
X476191D01*
X476203Y740031D01*
X476219Y740180D01*
X476199Y740405D01*
X476136Y740786D01*
X476047Y741116D01*
X475933Y741395D01*
X475793Y741624D01*
X475628Y741802D01*
X475437Y741929D01*
X475221Y742005D01*
X474980Y742030D01*
X480060D01*
X479819Y742005D01*
X479603Y741929D01*
X479412Y741802D01*
X479247Y741624D01*
X479108Y741395D01*
X478993Y741116D01*
X478904Y740786D01*
X478841Y740405D01*
X478821Y740180D01*
X478837Y740031D01*
X478849Y739968D01*
X487032D01*
Y752532D01*
D02*
G37*
G36*
X309000Y750903D02*
X296000D01*
X294430Y750591D01*
X293099Y749701D01*
X292209Y748370D01*
X291897Y746800D01*
Y741800D01*
X292209Y740230D01*
X293099Y738899D01*
X294430Y738009D01*
X296000Y737697D01*
X309000D01*
X310570Y738009D01*
X311901Y738899D01*
X312791Y740230D01*
X313103Y741800D01*
Y746800D01*
X312791Y748370D01*
X311901Y749701D01*
X310570Y750591D01*
X309000Y750903D01*
D02*
G37*
G36*
X405010Y740990D02*
X385946D01*
Y728426D01*
X393816D01*
X393848Y728542D01*
X393905Y728845D01*
X393903Y728863D01*
X393840Y729244D01*
X393751Y729574D01*
X393637Y729854D01*
X393497Y730082D01*
X393332Y730260D01*
X393141Y730387D01*
X392925Y730463D01*
X392684Y730489D01*
X397764D01*
X397523Y730463D01*
X397307Y730387D01*
X397116Y730260D01*
X396951Y730082D01*
X396811Y729854D01*
X396697Y729574D01*
X396608Y729244D01*
X396545Y728863D01*
X396543Y728845D01*
X396600Y728542D01*
X396632Y728426D01*
X405010D01*
Y740990D01*
D02*
G37*
G36*
X387142Y725558D02*
X382367D01*
X382317Y725295D01*
X382311Y725235D01*
X382321Y725121D01*
X382384Y724740D01*
X382473Y724410D01*
X382588Y724130D01*
X382727Y723902D01*
X382892Y723724D01*
X383083Y723597D01*
X383299Y723521D01*
X383540Y723495D01*
X378460D01*
X378701Y723521D01*
X378917Y723597D01*
X379108Y723724D01*
X379273Y723902D01*
X379412Y724130D01*
X379527Y724410D01*
X379616Y724740D01*
X379679Y725121D01*
X379689Y725235D01*
X379683Y725295D01*
X379633Y725558D01*
X374578D01*
Y706494D01*
X387142D01*
Y725558D01*
D02*
G37*
G36*
X436032Y721032D02*
X416968D01*
Y716290D01*
X417165Y716199D01*
X417457Y716093D01*
X417751Y716012D01*
X417786Y716018D01*
X418116Y716107D01*
X418396Y716221D01*
X418624Y716361D01*
X418802Y716526D01*
X418929Y716717D01*
X419005Y716933D01*
X419030Y717174D01*
Y712094D01*
X419005Y712335D01*
X418929Y712551D01*
X418802Y712742D01*
X418624Y712907D01*
X418396Y713046D01*
X418116Y713161D01*
X417786Y713250D01*
X417751Y713255D01*
X417457Y713175D01*
X417165Y713069D01*
X416968Y712978D01*
Y708468D01*
X436032D01*
Y713217D01*
X436027Y713217D01*
X435595Y713179D01*
X435214Y713116D01*
X434884Y713027D01*
X434604Y712913D01*
X434376Y712773D01*
X434198Y712608D01*
X434071Y712417D01*
X433995Y712201D01*
X433969Y711960D01*
Y717040D01*
X433995Y716799D01*
X434071Y716583D01*
X434198Y716392D01*
X434376Y716227D01*
X434604Y716087D01*
X434884Y715973D01*
X435214Y715884D01*
X435595Y715821D01*
X436027Y715783D01*
X436032Y715783D01*
Y721032D01*
D02*
G37*
G36*
X556224Y728774D02*
X546676D01*
Y713226D01*
X556224D01*
Y728774D01*
D02*
G37*
G36*
X456782Y720782D02*
X437718D01*
Y715783D01*
X437723Y715783D01*
X438155Y715821D01*
X438536Y715884D01*
X438866Y715973D01*
X439146Y716087D01*
X439374Y716227D01*
X439552Y716392D01*
X439679Y716583D01*
X439755Y716799D01*
X439781Y717040D01*
Y711960D01*
X439755Y712201D01*
X439679Y712417D01*
X439552Y712608D01*
X439374Y712773D01*
X439146Y712913D01*
X438866Y713027D01*
X438536Y713116D01*
X438155Y713179D01*
X437723Y713217D01*
X437718Y713217D01*
Y708218D01*
X456782D01*
Y720782D01*
D02*
G37*
G36*
X344017Y731524D02*
X340983D01*
X338052Y730739D01*
X335424Y729221D01*
X333279Y727076D01*
X331761Y724448D01*
X330976Y721517D01*
Y718483D01*
X331761Y715552D01*
X333279Y712924D01*
X335424Y710779D01*
X338052Y709261D01*
X340983Y708476D01*
X344017D01*
X346948Y709261D01*
X349576Y710779D01*
X351721Y712924D01*
X353239Y715552D01*
X354024Y718483D01*
Y721517D01*
X353239Y724448D01*
X351721Y727076D01*
X349576Y729221D01*
X346948Y730739D01*
X344017Y731524D01*
D02*
G37*
G36*
X363871Y730476D02*
X362569D01*
X361365Y729977D01*
X360444Y729057D01*
X359946Y727853D01*
Y726551D01*
X360042Y726320D01*
X359299Y725050D01*
X357586D01*
Y707002D01*
X369134D01*
Y725050D01*
X367141D01*
X366398Y726320D01*
X366494Y726551D01*
Y727853D01*
X365995Y729057D01*
X365075Y729977D01*
X363871Y730476D01*
D02*
G37*
%LPD*%
G36*
X529320Y842462D02*
X529295Y842703D01*
X529219Y842919D01*
X529092Y843110D01*
X528914Y843275D01*
X528685Y843415D01*
X528406Y843529D01*
X528076Y843618D01*
X527695Y843681D01*
X527263Y843719D01*
X526781Y843732D01*
Y846272D01*
X527263Y846285D01*
X527695Y846323D01*
X528076Y846386D01*
X528406Y846475D01*
X528685Y846590D01*
X528914Y846729D01*
X529092Y846894D01*
X529219Y847085D01*
X529295Y847301D01*
X529320Y847542D01*
Y842462D01*
D02*
G37*
G36*
X625661Y840910D02*
X623120Y840880D01*
Y843420D01*
X623603Y843433D01*
X624035Y843471D01*
X624416Y843534D01*
X624746Y843623D01*
X625025Y843737D01*
X625254Y843877D01*
X625432Y844042D01*
X625559Y844233D01*
X625635Y844449D01*
X625661Y844690D01*
Y840910D01*
D02*
G37*
G36*
X659733D02*
X659373Y840893D01*
X659014Y840839D01*
X658655Y840749D01*
X658296Y840623D01*
X657937Y840462D01*
X657577Y840264D01*
X657218Y840031D01*
X656859Y839761D01*
X656500Y839456D01*
X656141Y839115D01*
X654344Y840910D01*
X654686Y841270D01*
X654991Y841629D01*
X655260Y841988D01*
X655494Y842347D01*
X655692Y842707D01*
X655853Y843066D01*
X655979Y843425D01*
X656069Y843784D01*
X656123Y844143D01*
X656141Y844503D01*
X659733Y840910D01*
D02*
G37*
G36*
X561631Y838960D02*
X561605Y839201D01*
X561529Y839417D01*
X561402Y839608D01*
X561224Y839773D01*
X560995Y839912D01*
X560716Y840027D01*
X560386Y840116D01*
X560005Y840179D01*
X559573Y840217D01*
X559090Y840230D01*
Y842770D01*
X559573Y842783D01*
X560005Y842821D01*
X560386Y842884D01*
X560716Y842973D01*
X560995Y843087D01*
X561224Y843227D01*
X561402Y843392D01*
X561529Y843583D01*
X561605Y843799D01*
X561631Y844040D01*
Y838960D01*
D02*
G37*
G36*
X555285Y843799D02*
X555361Y843583D01*
X555488Y843392D01*
X555666Y843227D01*
X555895Y843087D01*
X556174Y842973D01*
X556504Y842884D01*
X556885Y842821D01*
X557317Y842783D01*
X557799Y842770D01*
Y840230D01*
X557317Y840217D01*
X556885Y840179D01*
X556504Y840116D01*
X556174Y840027D01*
X555895Y839912D01*
X555666Y839773D01*
X555488Y839608D01*
X555361Y839417D01*
X555285Y839201D01*
X555260Y838960D01*
Y844040D01*
X555285Y843799D01*
D02*
G37*
G36*
X537777Y841583D02*
X537831Y841224D01*
X537921Y840865D01*
X538047Y840506D01*
X538209Y840146D01*
X538406Y839787D01*
X538640Y839428D01*
X538909Y839069D01*
X539214Y838710D01*
X539556Y838351D01*
X537760Y836554D01*
X537400Y836896D01*
X537041Y837201D01*
X536682Y837470D01*
X536323Y837704D01*
X535964Y837901D01*
X535604Y838063D01*
X535245Y838189D01*
X534886Y838279D01*
X534527Y838333D01*
X534167Y838351D01*
X537760Y841943D01*
X537777Y841583D01*
D02*
G37*
G36*
X646209Y832185D02*
X645824Y831739D01*
X645461Y831193D01*
X645119Y830548D01*
X644799Y829803D01*
X644501Y828959D01*
X644225Y828015D01*
X643738Y825828D01*
X643338Y823242D01*
X635824Y833164D01*
X637015Y833015D01*
X639172Y832914D01*
X640138Y832963D01*
X641029Y833078D01*
X641844Y833259D01*
X642585Y833506D01*
X643251Y833818D01*
X643841Y834197D01*
X644356Y834642D01*
X646209Y832185D01*
D02*
G37*
G36*
X588595Y834299D02*
X588671Y834083D01*
X588798Y833892D01*
X588976Y833727D01*
X589204Y833587D01*
X589484Y833473D01*
X589814Y833384D01*
X590195Y833321D01*
X590627Y833283D01*
X591110Y833270D01*
Y830730D01*
X590627Y830717D01*
X590195Y830679D01*
X589814Y830616D01*
X589484Y830527D01*
X589204Y830413D01*
X588976Y830273D01*
X588798Y830108D01*
X588671Y829917D01*
X588595Y829701D01*
X588569Y829460D01*
Y834540D01*
X588595Y834299D01*
D02*
G37*
G36*
X537632Y832500D02*
X538222Y832253D01*
X538523Y832153D01*
X539138Y831999D01*
X539451Y831945D01*
X540089Y831883D01*
X540414Y831875D01*
X541278Y829335D01*
X540934Y829322D01*
X540611Y829281D01*
X540309Y829212D01*
X540029Y829117D01*
X539771Y828994D01*
X539534Y828843D01*
X539318Y828666D01*
X539124Y828460D01*
X538952Y828228D01*
X538801Y827969D01*
X537343Y832647D01*
X537632Y832500D01*
D02*
G37*
G36*
X572408Y831738D02*
X572663Y831534D01*
X572927Y831354D01*
X573199Y831198D01*
X573480Y831067D01*
X573771Y830960D01*
X574070Y830878D01*
X574378Y830820D01*
X574695Y830787D01*
X575021Y830778D01*
X571556Y827313D01*
X571547Y827639D01*
X571514Y827956D01*
X571456Y828264D01*
X571374Y828563D01*
X571267Y828854D01*
X571136Y829135D01*
X570980Y829407D01*
X570800Y829671D01*
X570596Y829926D01*
X570367Y830171D01*
X572163Y831967D01*
X572408Y831738D01*
D02*
G37*
G36*
X521229Y828885D02*
X521199Y828590D01*
X521202Y828301D01*
X521237Y828017D01*
X521306Y827738D01*
X521408Y827465D01*
X521542Y827197D01*
X521710Y826934D01*
X521910Y826677D01*
X522143Y826424D01*
X519857Y825118D01*
X519620Y825343D01*
X519374Y825553D01*
X519118Y825747D01*
X518855Y825925D01*
X518582Y826088D01*
X518301Y826236D01*
X518010Y826367D01*
X517711Y826484D01*
X517403Y826584D01*
X517087Y826669D01*
X521292Y829185D01*
X521229Y828885D01*
D02*
G37*
G36*
X528982Y827579D02*
X528797Y827314D01*
X528633Y827041D01*
X528492Y826759D01*
X528372Y826469D01*
X528274Y826170D01*
X528198Y825863D01*
X528144Y825547D01*
X528111Y825223D01*
X528100Y824890D01*
X525560Y824663D01*
X525547Y825001D01*
X525510Y825325D01*
X525447Y825636D01*
X525359Y825934D01*
X525246Y826217D01*
X525108Y826487D01*
X524945Y826743D01*
X524757Y826985D01*
X524544Y827214D01*
X524305Y827429D01*
X529188Y827835D01*
X528982Y827579D01*
D02*
G37*
G36*
X536505Y826161D02*
X536189Y826076D01*
X535881Y825975D01*
X535582Y825859D01*
X535291Y825727D01*
X535010Y825580D01*
X534737Y825417D01*
X534473Y825239D01*
X534218Y825045D01*
X533972Y824835D01*
X533735Y824610D01*
X531449Y825916D01*
X531682Y826169D01*
X531883Y826426D01*
X532050Y826689D01*
X532184Y826957D01*
X532286Y827230D01*
X532355Y827509D01*
X532390Y827793D01*
X532393Y828082D01*
X532363Y828377D01*
X532300Y828677D01*
X536505Y826161D01*
D02*
G37*
G36*
X578565Y826917D02*
X578598Y826600D01*
X578656Y826292D01*
X578738Y825993D01*
X578845Y825702D01*
X578976Y825421D01*
X579132Y825149D01*
X579312Y824885D01*
X579516Y824631D01*
X579745Y824385D01*
X577949Y822589D01*
X577704Y822818D01*
X577449Y823022D01*
X577185Y823202D01*
X576913Y823358D01*
X576632Y823489D01*
X576341Y823596D01*
X576042Y823678D01*
X575734Y823736D01*
X575417Y823769D01*
X575091Y823778D01*
X578556Y827243D01*
X578565Y826917D01*
D02*
G37*
G36*
X561990Y826924D02*
X562349Y826619D01*
X562708Y826350D01*
X563067Y826116D01*
X563427Y825919D01*
X563786Y825757D01*
X564145Y825631D01*
X564504Y825541D01*
X564863Y825488D01*
X565223Y825470D01*
X561631Y821878D01*
X561613Y822237D01*
X561559Y822596D01*
X561469Y822955D01*
X561343Y823314D01*
X561181Y823673D01*
X560984Y824033D01*
X560750Y824392D01*
X560481Y824751D01*
X560176Y825110D01*
X559834Y825470D01*
X561631Y827266D01*
X561990Y826924D01*
D02*
G37*
G36*
X547199Y821861D02*
X546962Y822085D01*
X546714Y822286D01*
X546456Y822463D01*
X546186Y822616D01*
X545905Y822746D01*
X545614Y822852D01*
X545311Y822935D01*
X544997Y822994D01*
X544673Y823029D01*
X544337Y823041D01*
Y825581D01*
X544673Y825593D01*
X544997Y825628D01*
X545311Y825687D01*
X545614Y825770D01*
X545905Y825876D01*
X546186Y826006D01*
X546456Y826159D01*
X546714Y826336D01*
X546962Y826537D01*
X547199Y826761D01*
Y821861D01*
D02*
G37*
G36*
X628849Y833121D02*
X628126Y832703D01*
X626187Y830764D01*
X624816Y828390D01*
X624106Y825741D01*
Y822999D01*
X624816Y820350D01*
X625770Y818697D01*
X625037Y817427D01*
X622793D01*
X622640Y817497D01*
X622365Y817506D01*
X622163Y817528D01*
X621978Y817563D01*
X621805Y817610D01*
X621643Y817669D01*
X621488Y817741D01*
X621338Y817826D01*
X621190Y817927D01*
X621044Y818046D01*
X620854Y818226D01*
X620568Y818335D01*
X620066Y818837D01*
X618219Y819602D01*
X616221D01*
X614374Y818837D01*
X612961Y817424D01*
X612196Y815577D01*
Y813579D01*
X612961Y811732D01*
X614374Y810319D01*
X616221Y809554D01*
X618219D01*
X620066Y810319D01*
X620568Y810821D01*
X620854Y810930D01*
X621044Y811111D01*
X621190Y811229D01*
X621338Y811330D01*
X621488Y811415D01*
X621643Y811487D01*
X621805Y811546D01*
X621978Y811593D01*
X622163Y811628D01*
X622365Y811650D01*
X622640Y811659D01*
X622793Y811729D01*
X626608D01*
X629040Y809298D01*
X628849Y807721D01*
X628126Y807303D01*
X626187Y805364D01*
X624816Y802990D01*
X624106Y800341D01*
Y797599D01*
X624816Y794950D01*
X626187Y792576D01*
X628126Y790637D01*
X630500Y789266D01*
X633149Y788556D01*
X634302D01*
X634600Y788431D01*
X635893Y788424D01*
X638176Y788286D01*
X639120Y788164D01*
X639967Y788004D01*
X640699Y787814D01*
X641311Y787599D01*
X641803Y787369D01*
X642177Y787136D01*
X642548Y786821D01*
X642684Y786777D01*
X646797Y782664D01*
Y758444D01*
X646797Y758444D01*
X647014Y757354D01*
X647632Y756430D01*
X652807Y751254D01*
X652851Y751118D01*
X653166Y750747D01*
X653399Y750373D01*
X653629Y749882D01*
X653844Y749269D01*
X654034Y748538D01*
X654194Y747690D01*
X654316Y746746D01*
X654454Y744463D01*
X654461Y743170D01*
X654586Y742872D01*
Y741719D01*
X655296Y739070D01*
X656667Y736696D01*
X657818Y735545D01*
X657292Y734275D01*
X648829D01*
X647247Y735857D01*
X647209Y735963D01*
X646768Y736454D01*
X646422Y736930D01*
X646111Y737462D01*
X645836Y738054D01*
X645599Y738709D01*
X645402Y739429D01*
X645247Y740218D01*
X645137Y741073D01*
X645074Y741996D01*
X645059Y743025D01*
X644934Y743315D01*
Y744461D01*
X644224Y747110D01*
X642853Y749484D01*
X640914Y751423D01*
X638540Y752794D01*
X635891Y753504D01*
X633149D01*
X630500Y752794D01*
X628126Y751423D01*
X626187Y749484D01*
X624816Y747110D01*
X624106Y744461D01*
Y742802D01*
X622836Y742276D01*
X606832Y758280D01*
X605950Y758869D01*
X604909Y759076D01*
X565304D01*
X564776Y759740D01*
X565324Y760976D01*
X570124D01*
Y764599D01*
X570217Y764795D01*
X570231Y765073D01*
X570261Y765273D01*
X570313Y765481D01*
X570390Y765702D01*
X570496Y765936D01*
X570632Y766185D01*
X570802Y766447D01*
X571008Y766721D01*
X571252Y767007D01*
X571562Y767333D01*
X571624Y767495D01*
X578903Y774774D01*
X580076Y774288D01*
Y770476D01*
X590124D01*
Y774099D01*
X590217Y774295D01*
X590231Y774573D01*
X590261Y774773D01*
X590313Y774981D01*
X590390Y775202D01*
X590496Y775436D01*
X590632Y775685D01*
X590803Y775947D01*
X591008Y776221D01*
X591252Y776507D01*
X591562Y776833D01*
X591624Y776995D01*
X598462Y783834D01*
X599080Y784758D01*
X599297Y785848D01*
X599297Y785848D01*
Y817021D01*
X616667Y834391D01*
X628509D01*
X628849Y833121D01*
D02*
G37*
G36*
X567399Y819505D02*
X567183Y819429D01*
X566992Y819302D01*
X566827Y819124D01*
X566688Y818895D01*
X566573Y818616D01*
X566484Y818286D01*
X566421Y817905D01*
X566383Y817473D01*
X566370Y816991D01*
X563830D01*
X563817Y817473D01*
X563779Y817905D01*
X563716Y818286D01*
X563627Y818616D01*
X563512Y818895D01*
X563373Y819124D01*
X563208Y819302D01*
X563017Y819429D01*
X562801Y819505D01*
X562560Y819530D01*
X567640D01*
X567399Y819505D01*
D02*
G37*
G36*
X383690Y816967D02*
X383669Y817141D01*
X383603Y817296D01*
X383494Y817433D01*
X383341Y817551D01*
X383145Y817652D01*
X382905Y817734D01*
X382621Y817798D01*
X382294Y817843D01*
X381923Y817871D01*
X381508Y817880D01*
Y820420D01*
X381923Y820429D01*
X382621Y820502D01*
X382905Y820566D01*
X383145Y820648D01*
X383341Y820749D01*
X383494Y820867D01*
X383603Y821004D01*
X383669Y821159D01*
X383690Y821332D01*
Y816967D01*
D02*
G37*
G36*
X418478Y823388D02*
X418631Y823151D01*
X418885Y822941D01*
X419240Y822760D01*
X419697Y822606D01*
X420256Y822480D01*
X420917Y822383D01*
X421679Y822313D01*
X423507Y822257D01*
Y817177D01*
X422542Y817157D01*
X420917Y817000D01*
X420256Y816863D01*
X419697Y816686D01*
X419240Y816470D01*
X418885Y816215D01*
X418631Y815921D01*
X418478Y815587D01*
X418428Y815214D01*
Y823653D01*
X418478Y823388D01*
D02*
G37*
G36*
X673621Y821796D02*
X673504Y819649D01*
X673546Y818687D01*
X673656Y817799D01*
X673833Y816985D01*
X674077Y816245D01*
X674389Y815580D01*
X674767Y814989D01*
X675213Y814472D01*
X672734Y812640D01*
X672292Y813023D01*
X671749Y813385D01*
X671106Y813727D01*
X670362Y814049D01*
X669517Y814351D01*
X668572Y814634D01*
X666381Y815138D01*
X663787Y815563D01*
X673781Y822981D01*
X673621Y821796D01*
D02*
G37*
G36*
X619956Y816804D02*
X620204Y816603D01*
X620463Y816426D01*
X620733Y816273D01*
X621013Y816143D01*
X621305Y816037D01*
X621608Y815954D01*
X621921Y815895D01*
X622246Y815860D01*
X622581Y815848D01*
Y813308D01*
X622246Y813296D01*
X621921Y813261D01*
X621608Y813202D01*
X621305Y813119D01*
X621013Y813013D01*
X620733Y812883D01*
X620463Y812730D01*
X620204Y812553D01*
X619956Y812352D01*
X619720Y812128D01*
Y817028D01*
X619956Y816804D01*
D02*
G37*
G36*
X408111Y815214D02*
X404520Y811623D01*
X400928Y815215D01*
X403489Y817775D01*
X408111Y815214D01*
D02*
G37*
G36*
X566383Y812527D02*
X566421Y812095D01*
X566484Y811714D01*
X566573Y811384D01*
X566688Y811105D01*
X566827Y810876D01*
X566992Y810698D01*
X567183Y810571D01*
X567399Y810495D01*
X567640Y810470D01*
X562560D01*
X562801Y810495D01*
X563017Y810571D01*
X563208Y810698D01*
X563373Y810876D01*
X563512Y811105D01*
X563627Y811384D01*
X563716Y811714D01*
X563779Y812095D01*
X563817Y812527D01*
X563830Y813009D01*
X566370D01*
X566383Y812527D01*
D02*
G37*
G36*
X355819Y814301D02*
X355967Y814149D01*
X356214Y814016D01*
X356560Y813900D01*
X357005Y813802D01*
X357549Y813722D01*
X358933Y813616D01*
X360713Y813580D01*
Y808500D01*
X355770Y808531D01*
Y814470D01*
X355819Y814301D01*
D02*
G37*
G36*
X355795Y801432D02*
X355871Y801398D01*
X355998Y801368D01*
X356176Y801342D01*
X356684Y801302D01*
X358310Y801270D01*
Y798730D01*
X357827Y798728D01*
X355871Y798602D01*
X355795Y798568D01*
X355770Y798531D01*
Y801469D01*
X355795Y801432D01*
D02*
G37*
G36*
X355785Y796196D02*
X355831Y796128D01*
X355908Y796069D01*
X356016Y796017D01*
X356154Y795974D01*
X356324Y795938D01*
X356524Y795910D01*
X357016Y795879D01*
X357309Y795875D01*
Y793589D01*
X355770Y793531D01*
Y796271D01*
X355785Y796196D01*
D02*
G37*
G36*
X344330Y788531D02*
X342715Y788500D01*
Y790786D01*
X343022Y790791D01*
X343539Y790828D01*
X343749Y790862D01*
X343927Y790904D01*
X344072Y790956D01*
X344185Y791018D01*
X344266Y791088D01*
X344314Y791169D01*
X344330Y791258D01*
Y788531D01*
D02*
G37*
G36*
X643417Y797543D02*
X643561Y795158D01*
X643697Y794111D01*
X643875Y793162D01*
X644097Y792310D01*
X644361Y791555D01*
X644669Y790898D01*
X645019Y790338D01*
X645412Y789875D01*
X643615Y788079D01*
X643152Y788471D01*
X642592Y788821D01*
X641935Y789129D01*
X641180Y789393D01*
X640328Y789615D01*
X639379Y789793D01*
X638332Y789929D01*
X635947Y790073D01*
X634609Y790080D01*
X643410Y798881D01*
X643417Y797543D01*
D02*
G37*
G36*
X377454Y787801D02*
X375168D01*
X375157Y788235D01*
X375122Y788624D01*
X375065Y788967D01*
X374985Y789264D01*
X374882Y789515D01*
X374757Y789721D01*
X374608Y789881D01*
X374436Y789995D01*
X374242Y790064D01*
X374025Y790087D01*
X377424D01*
X377454Y787801D01*
D02*
G37*
G36*
X373046Y790064D02*
X372851Y789995D01*
X372680Y789881D01*
X372532Y789721D01*
X372406Y789515D01*
X372303Y789264D01*
X372223Y788967D01*
X372166Y788624D01*
X372131Y788235D01*
X372120Y787801D01*
X369834D01*
X369865Y790087D01*
X373263D01*
X373046Y790064D01*
D02*
G37*
G36*
X678442Y785053D02*
X678167Y785236D01*
X677886Y785400D01*
X677599Y785544D01*
X677306Y785669D01*
X677007Y785775D01*
X676702Y785862D01*
X676391Y785929D01*
X676074Y785977D01*
X675751Y786006D01*
X675421Y786016D01*
X674927Y788556D01*
X675268Y788569D01*
X675592Y788609D01*
X675899Y788675D01*
X676189Y788767D01*
X676462Y788886D01*
X676718Y789031D01*
X676957Y789202D01*
X677178Y789400D01*
X677383Y789624D01*
X677571Y789875D01*
X678442Y785053D01*
D02*
G37*
G36*
X570366Y787469D02*
X570024Y787110D01*
X569719Y786751D01*
X569450Y786392D01*
X569216Y786033D01*
X569019Y785674D01*
X568857Y785314D01*
X568731Y784955D01*
X568641Y784596D01*
X568587Y784237D01*
X568569Y783877D01*
X564977Y787469D01*
X565337Y787487D01*
X565696Y787541D01*
X566055Y787631D01*
X566414Y787757D01*
X566773Y787919D01*
X567133Y788116D01*
X567492Y788350D01*
X567851Y788619D01*
X568210Y788924D01*
X568569Y789266D01*
X570366Y787469D01*
D02*
G37*
G36*
X355787Y786267D02*
X355839Y786166D01*
X355926Y786077D01*
X356047Y786000D01*
X356204Y785934D01*
X356395Y785881D01*
X356620Y785839D01*
X356881Y785810D01*
X357176Y785792D01*
X357506Y785786D01*
Y783500D01*
X355770Y783531D01*
Y786380D01*
X355787Y786267D01*
D02*
G37*
G36*
X495533Y783818D02*
X495781Y783703D01*
X496088Y783601D01*
X496454Y783513D01*
X496877Y783439D01*
X497899Y783331D01*
X499155Y783277D01*
X499870Y783270D01*
Y780730D01*
X499155Y780723D01*
X496877Y780561D01*
X496454Y780487D01*
X496088Y780399D01*
X495781Y780297D01*
X495533Y780182D01*
X495342Y780054D01*
Y783946D01*
X495533Y783818D01*
D02*
G37*
G36*
X344330Y781469D02*
Y778742D01*
X344314Y778831D01*
X344266Y778912D01*
X344185Y778982D01*
X344072Y779044D01*
X343927Y779096D01*
X343749Y779138D01*
X343539Y779172D01*
X343297Y779195D01*
X342715Y779214D01*
Y781500D01*
X344330Y781469D01*
D02*
G37*
G36*
X357506Y779214D02*
X357176Y779208D01*
X356620Y779161D01*
X356395Y779119D01*
X356204Y779065D01*
X356047Y779000D01*
X355926Y778923D01*
X355839Y778834D01*
X355787Y778733D01*
X355770Y778620D01*
Y781469D01*
X357506Y781500D01*
Y779214D01*
D02*
G37*
G36*
X377424Y774786D02*
X374025D01*
X374242Y774809D01*
X374436Y774877D01*
X374608Y774992D01*
X374757Y775152D01*
X374882Y775357D01*
X374985Y775609D01*
X375065Y775906D01*
X375122Y776249D01*
X375157Y776637D01*
X375168Y777072D01*
X377454D01*
X377424Y774786D01*
D02*
G37*
G36*
X372131Y776637D02*
X372166Y776249D01*
X372223Y775906D01*
X372303Y775609D01*
X372406Y775357D01*
X372532Y775152D01*
X372680Y774992D01*
X372851Y774877D01*
X373046Y774809D01*
X373263Y774786D01*
X369865D01*
X369834Y777072D01*
X372120D01*
X372131Y776637D01*
D02*
G37*
G36*
X590366Y777970D02*
X590024Y777610D01*
X589719Y777251D01*
X589450Y776892D01*
X589216Y776533D01*
X589019Y776173D01*
X588857Y775814D01*
X588731Y775455D01*
X588641Y775096D01*
X588587Y774737D01*
X588569Y774377D01*
X584977Y777970D01*
X585337Y777988D01*
X585696Y778041D01*
X586055Y778131D01*
X586414Y778257D01*
X586773Y778419D01*
X587133Y778616D01*
X587492Y778850D01*
X587851Y779119D01*
X588210Y779424D01*
X588569Y779766D01*
X590366Y777970D01*
D02*
G37*
G36*
X501456Y775757D02*
X501246Y775739D01*
X501019Y775685D01*
X500778Y775595D01*
X500520Y775469D01*
X500247Y775308D01*
X499958Y775110D01*
X499654Y774877D01*
X498998Y774302D01*
X498647Y773961D01*
X497175Y776083D01*
X498701Y777476D01*
X501456Y775757D01*
D02*
G37*
G36*
X732262Y776445D02*
X732693Y776079D01*
X733124Y775756D01*
X733555Y775475D01*
X733986Y775238D01*
X734417Y775044D01*
X734848Y774893D01*
X735279Y774786D01*
X735710Y774721D01*
X736141Y774699D01*
X731831Y770389D01*
X731809Y770820D01*
X731744Y771251D01*
X731637Y771682D01*
X731486Y772113D01*
X731292Y772544D01*
X731055Y772975D01*
X730774Y773406D01*
X730451Y773837D01*
X730085Y774268D01*
X729675Y774699D01*
X731831Y776855D01*
X732262Y776445D01*
D02*
G37*
G36*
X355795Y771394D02*
X355871Y771327D01*
X355998Y771268D01*
X356176Y771216D01*
X356404Y771173D01*
X356684Y771137D01*
X357395Y771089D01*
X358310Y771074D01*
Y768534D01*
X355770Y768531D01*
Y771469D01*
X355795Y771394D01*
D02*
G37*
G36*
X745800Y774024D02*
X745891Y773764D01*
X746044Y773536D01*
X746257Y773338D01*
X746532Y773170D01*
X746867Y773033D01*
X747263Y772926D01*
X747720Y772850D01*
X748238Y772804D01*
X748818Y772789D01*
Y769741D01*
X748238Y769726D01*
X747720Y769680D01*
X747263Y769604D01*
X746867Y769497D01*
X746532Y769360D01*
X746257Y769192D01*
X746044Y768994D01*
X745891Y768766D01*
X745800Y768507D01*
X745770Y768217D01*
Y774313D01*
X745800Y774024D01*
D02*
G37*
G36*
X470031Y759530D02*
X469980Y759850D01*
X469827Y760135D01*
X469573Y760387D01*
X469218Y760605D01*
X468760Y760790D01*
X468202Y760941D01*
X467541Y761059D01*
X466779Y761143D01*
X466222Y761163D01*
X464959Y761059D01*
X464298Y760941D01*
X463740Y760790D01*
X463282Y760605D01*
X462927Y760387D01*
X462673Y760135D01*
X462520Y759850D01*
X462469Y759530D01*
Y767970D01*
X462520Y767651D01*
X462673Y767365D01*
X462927Y767113D01*
X463282Y766895D01*
X463740Y766710D01*
X464298Y766559D01*
X464959Y766441D01*
X465721Y766357D01*
X466278Y766337D01*
X467541Y766441D01*
X468202Y766559D01*
X468760Y766710D01*
X469218Y766895D01*
X469573Y767113D01*
X469827Y767365D01*
X469980Y767651D01*
X470031Y767970D01*
Y759530D01*
D02*
G37*
G36*
X797039Y765832D02*
X796074Y766574D01*
X793441Y768334D01*
X792652Y768764D01*
X791907Y769116D01*
X791206Y769389D01*
X790549Y769585D01*
X789936Y769702D01*
X789367Y769741D01*
X788975Y772789D01*
X789616Y772834D01*
X790262Y772969D01*
X790913Y773194D01*
X791568Y773509D01*
X792227Y773914D01*
X792891Y774409D01*
X793559Y774995D01*
X794232Y775670D01*
X794909Y776435D01*
X795590Y777290D01*
X797039Y765832D01*
D02*
G37*
G36*
X570366Y768469D02*
X570024Y768110D01*
X569719Y767751D01*
X569450Y767392D01*
X569216Y767033D01*
X569019Y766674D01*
X568857Y766314D01*
X568731Y765955D01*
X568641Y765596D01*
X568587Y765237D01*
X568569Y764877D01*
X564977Y768469D01*
X565337Y768487D01*
X565696Y768541D01*
X566055Y768631D01*
X566414Y768757D01*
X566773Y768919D01*
X567133Y769116D01*
X567492Y769350D01*
X567851Y769619D01*
X568210Y769924D01*
X568569Y770266D01*
X570366Y768469D01*
D02*
G37*
G36*
X396449Y767182D02*
X396201Y767047D01*
X395981Y766822D01*
X395791Y766506D01*
X395630Y766101D01*
X395498Y765606D01*
X395396Y765020D01*
X395323Y764345D01*
X395264Y762724D01*
X390184D01*
X390174Y763579D01*
X390022Y765606D01*
X389930Y766101D01*
X389818Y766506D01*
X389686Y766822D01*
X389534Y767047D01*
X389361Y767182D01*
X389169Y767227D01*
X396727D01*
X396449Y767182D01*
D02*
G37*
G36*
X512326Y763851D02*
X510933Y762325D01*
X508811Y763797D01*
X509152Y764156D01*
X509457Y764515D01*
X509726Y764874D01*
X509960Y765233D01*
X510158Y765593D01*
X510319Y765952D01*
X510445Y766311D01*
X510535Y766670D01*
X510589Y767029D01*
X510607Y767389D01*
X512326Y763851D01*
D02*
G37*
G36*
X355820Y766301D02*
X355973Y766149D01*
X356227Y766016D01*
X356582Y765900D01*
X357039Y765802D01*
X357598Y765722D01*
X359021Y765616D01*
X360849Y765580D01*
Y760500D01*
X355770Y760530D01*
Y766469D01*
X355820Y766301D01*
D02*
G37*
G36*
X485020Y767674D02*
X485173Y767410D01*
X485427Y767177D01*
X485782Y766975D01*
X486240Y766804D01*
X486798Y766664D01*
X487459Y766555D01*
X488221Y766477D01*
X490050Y766415D01*
Y761335D01*
X489084Y761317D01*
X487459Y761173D01*
X486798Y761046D01*
X486240Y760884D01*
X485782Y760685D01*
X485427Y760451D01*
X485173Y760180D01*
X485020Y759873D01*
X484969Y759530D01*
Y767970D01*
X485020Y767674D01*
D02*
G37*
G36*
X513133Y760527D02*
X513171Y760095D01*
X513234Y759714D01*
X513323Y759384D01*
X513438Y759105D01*
X513577Y758876D01*
X513742Y758698D01*
X513933Y758571D01*
X514149Y758495D01*
X514390Y758470D01*
X509380D01*
X509608Y758495D01*
X509812Y758571D01*
X509992Y758698D01*
X510148Y758876D01*
X510280Y759105D01*
X510388Y759384D01*
X510472Y759714D01*
X510532Y760095D01*
X510568Y760527D01*
X510580Y761010D01*
X513120D01*
X513133Y760527D01*
D02*
G37*
G36*
X496951Y762212D02*
X497013Y761427D01*
X497117Y760734D01*
X497263Y760133D01*
X497450Y759625D01*
X497679Y759209D01*
X497950Y758885D01*
X498262Y758654D01*
X498615Y758516D01*
X499011Y758469D01*
X491880D01*
X491850Y763090D01*
X496930D01*
X496951Y762212D01*
D02*
G37*
G36*
X395433Y760542D02*
X395509Y759679D01*
X395636Y758917D01*
X395814Y758256D01*
X396042Y757698D01*
X396322Y757240D01*
X396652Y756885D01*
X397033Y756631D01*
X397465Y756478D01*
X397947Y756428D01*
X388008D01*
X388449Y756478D01*
X388843Y756631D01*
X389191Y756885D01*
X389493Y757240D01*
X389748Y757698D01*
X389956Y758256D01*
X390119Y758917D01*
X390235Y759679D01*
X390304Y760542D01*
X390327Y761507D01*
X395407D01*
X395433Y760542D01*
D02*
G37*
G36*
X554091Y754978D02*
X554231Y753071D01*
X554296Y752765D01*
X554371Y752526D01*
X554459Y752356D01*
X554558Y752254D01*
X554669Y752220D01*
X548231D01*
X548378Y752254D01*
X548509Y752356D01*
X548625Y752526D01*
X548726Y752765D01*
X548811Y753071D01*
X548881Y753446D01*
X548935Y753888D01*
X548997Y754978D01*
X549005Y755626D01*
X554085D01*
X554091Y754978D01*
D02*
G37*
G36*
X732262Y757445D02*
X732693Y757079D01*
X733124Y756756D01*
X733555Y756475D01*
X733986Y756238D01*
X734417Y756044D01*
X734848Y755893D01*
X735279Y755786D01*
X735710Y755721D01*
X736141Y755699D01*
X731831Y751389D01*
X731809Y751820D01*
X731744Y752251D01*
X731637Y752682D01*
X731486Y753113D01*
X731292Y753544D01*
X731055Y753975D01*
X730774Y754406D01*
X730451Y754837D01*
X730085Y755268D01*
X729675Y755699D01*
X731831Y757855D01*
X732262Y757445D01*
D02*
G37*
G36*
X536134Y749895D02*
X536220Y748739D01*
X536295Y748270D01*
X536392Y747873D01*
X536510Y747548D01*
X536649Y747295D01*
X536810Y747114D01*
X536992Y747006D01*
X537196Y746970D01*
X529972D01*
X530175Y747006D01*
X530358Y747114D01*
X530518Y747295D01*
X530658Y747548D01*
X530776Y747873D01*
X530872Y748270D01*
X530947Y748739D01*
X531001Y749281D01*
X531044Y750582D01*
X536124D01*
X536134Y749895D01*
D02*
G37*
G36*
X745800Y751823D02*
X745891Y751564D01*
X746044Y751336D01*
X746257Y751138D01*
X746532Y750970D01*
X746867Y750833D01*
X747263Y750726D01*
X747720Y750650D01*
X748238Y750604D01*
X748818Y750589D01*
Y747541D01*
X748238Y747533D01*
X746867Y747416D01*
X746532Y747346D01*
X746257Y747260D01*
X746044Y747159D01*
X745891Y747041D01*
X745800Y746909D01*
X745770Y746760D01*
Y752113D01*
X745800Y751823D01*
D02*
G37*
G36*
X656367Y753589D02*
X656928Y753239D01*
X657585Y752931D01*
X658340Y752667D01*
X659192Y752445D01*
X660141Y752267D01*
X661188Y752131D01*
X663573Y751987D01*
X664911Y751980D01*
X656111Y743179D01*
X656103Y744517D01*
X655959Y746902D01*
X655824Y747949D01*
X655645Y748898D01*
X655423Y749750D01*
X655159Y750505D01*
X654851Y751162D01*
X654501Y751722D01*
X654109Y752185D01*
X655905Y753981D01*
X656367Y753589D01*
D02*
G37*
G36*
X794959Y742874D02*
X794430Y743760D01*
X793885Y744554D01*
X793326Y745254D01*
X792751Y745861D01*
X792161Y746374D01*
X791556Y746794D01*
X790936Y747121D01*
X790301Y747354D01*
X789650Y747494D01*
X788985Y747541D01*
X789831Y750589D01*
X790327Y750623D01*
X790894Y750726D01*
X791533Y750898D01*
X792242Y751138D01*
X793874Y751824D01*
X795790Y752784D01*
X797990Y754019D01*
X794959Y742874D01*
D02*
G37*
G36*
X462487Y745263D02*
X462541Y744904D01*
X462631Y744545D01*
X462757Y744186D01*
X462919Y743827D01*
X463116Y743467D01*
X463350Y743108D01*
X463619Y742749D01*
X463924Y742390D01*
X464266Y742030D01*
X462469Y740235D01*
X462110Y740576D01*
X461751Y740881D01*
X461392Y741151D01*
X461033Y741384D01*
X460673Y741581D01*
X460314Y741743D01*
X459955Y741869D01*
X459596Y741959D01*
X459237Y742013D01*
X458877Y742030D01*
X462469Y745623D01*
X462487Y745263D01*
D02*
G37*
G36*
X515899Y743505D02*
X515683Y743429D01*
X515492Y743302D01*
X515327Y743124D01*
X515187Y742896D01*
X515073Y742616D01*
X514984Y742286D01*
X514921Y741905D01*
X514896Y741625D01*
X514921Y741345D01*
X514984Y740964D01*
X515073Y740634D01*
X515187Y740355D01*
X515327Y740126D01*
X515492Y739948D01*
X515683Y739821D01*
X515899Y739745D01*
X516140Y739719D01*
X511060D01*
X511301Y739745D01*
X511517Y739821D01*
X511708Y739948D01*
X511873Y740126D01*
X512012Y740355D01*
X512127Y740634D01*
X512216Y740964D01*
X512279Y741345D01*
X512304Y741625D01*
X512279Y741905D01*
X512216Y742286D01*
X512127Y742616D01*
X512012Y742896D01*
X511873Y743124D01*
X511708Y743302D01*
X511517Y743429D01*
X511301Y743505D01*
X511060Y743531D01*
X516140D01*
X515899Y743505D01*
D02*
G37*
G36*
X573326Y739747D02*
X573198Y739646D01*
X573084Y739479D01*
X572986Y739244D01*
X572903Y738942D01*
X572835Y738573D01*
X572782Y738138D01*
X572722Y737065D01*
X572714Y736427D01*
X567634D01*
X567628Y737065D01*
X567483Y738942D01*
X567417Y739244D01*
X567338Y739479D01*
X567248Y739646D01*
X567145Y739747D01*
X567030Y739781D01*
X573470D01*
X573326Y739747D01*
D02*
G37*
G36*
X446001Y740334D02*
X446078Y739471D01*
X446205Y738709D01*
X446382Y738048D01*
X446611Y737489D01*
X446890Y737032D01*
X447221Y736677D01*
X447602Y736423D01*
X448033Y736270D01*
X448516Y736219D01*
X439781D01*
X439992Y736270D01*
X440182Y736423D01*
X440349Y736677D01*
X440494Y737032D01*
X440617Y737489D01*
X440718Y738048D01*
X440796Y738709D01*
X440885Y740334D01*
X440896Y741300D01*
X445976D01*
X446001Y740334D01*
D02*
G37*
G36*
X419030Y733311D02*
X419046Y733310D01*
X419381Y733298D01*
Y730758D01*
X419046Y730746D01*
X419030Y730744D01*
Y729488D01*
X419005Y729729D01*
X418929Y729945D01*
X418802Y730136D01*
X418624Y730301D01*
X418396Y730441D01*
X418116Y730555D01*
X418087Y730563D01*
X417813Y730463D01*
X417533Y730333D01*
X417263Y730180D01*
X417004Y730003D01*
X416756Y729802D01*
X416520Y729578D01*
Y730757D01*
X416491Y730758D01*
Y733298D01*
X416520Y733299D01*
Y734478D01*
X416756Y734254D01*
X417004Y734053D01*
X417263Y733876D01*
X417533Y733723D01*
X417813Y733593D01*
X418087Y733493D01*
X418116Y733501D01*
X418396Y733615D01*
X418624Y733755D01*
X418802Y733920D01*
X418929Y734111D01*
X419005Y734327D01*
X419030Y734568D01*
Y733311D01*
D02*
G37*
G36*
X643425Y741927D02*
X643495Y740911D01*
X643618Y739953D01*
X643795Y739053D01*
X644025Y738210D01*
X644309Y737424D01*
X644647Y736697D01*
X645039Y736027D01*
X645484Y735415D01*
X645983Y734860D01*
X642750Y731627D01*
X642196Y732126D01*
X641583Y732571D01*
X640913Y732963D01*
X640186Y733300D01*
X639400Y733585D01*
X638558Y733815D01*
X637657Y733992D01*
X636699Y734115D01*
X635683Y734185D01*
X634609Y734201D01*
X643410Y743001D01*
X643425Y741927D01*
D02*
G37*
G36*
X454746Y733262D02*
X454825Y733246D01*
X454957Y733231D01*
X455379Y733208D01*
X457356Y733184D01*
Y728104D01*
X454720Y728008D01*
Y733280D01*
X454746Y733262D01*
D02*
G37*
G36*
X434020Y736127D02*
X434173Y735820D01*
X434427Y735549D01*
X434782Y735315D01*
X435239Y735116D01*
X435798Y734954D01*
X436459Y734827D01*
X436901Y734775D01*
X437291Y734805D01*
X437952Y734914D01*
X438511Y735054D01*
X438968Y735225D01*
X439323Y735427D01*
X439577Y735660D01*
X439730Y735924D01*
X439781Y736219D01*
Y727781D01*
X439730Y728123D01*
X439577Y728430D01*
X439323Y728701D01*
X438968Y728935D01*
X438511Y729134D01*
X437952Y729296D01*
X437291Y729423D01*
X436849Y729475D01*
X436459Y729445D01*
X435798Y729336D01*
X435239Y729196D01*
X434782Y729025D01*
X434427Y728823D01*
X434173Y728590D01*
X434020Y728326D01*
X433969Y728030D01*
Y736469D01*
X434020Y736127D01*
D02*
G37*
G36*
X506488Y728000D02*
X506525Y727672D01*
X506586Y727354D01*
X506671Y727047D01*
X506781Y726750D01*
X506915Y726464D01*
X507073Y726188D01*
X507256Y725922D01*
X507464Y725668D01*
X507695Y725424D01*
X502717D01*
X502948Y725668D01*
X503156Y725922D01*
X503339Y726188D01*
X503497Y726464D01*
X503631Y726750D01*
X503741Y727047D01*
X503826Y727354D01*
X503887Y727672D01*
X503924Y728000D01*
X503936Y728339D01*
X506476D01*
X506488Y728000D01*
D02*
G37*
G36*
X793941Y729719D02*
Y722892D01*
X793895Y723326D01*
X793758Y723715D01*
X793529Y724058D01*
X793209Y724355D01*
X792797Y724606D01*
X792295Y724812D01*
X791700Y724972D01*
X791014Y725087D01*
X790237Y725155D01*
X789369Y725178D01*
Y729750D01*
X793941Y729719D01*
D02*
G37*
G36*
X462749Y728879D02*
X463467Y728269D01*
X464186Y727730D01*
X464904Y727263D01*
X465623Y726868D01*
X466341Y726544D01*
X467059Y726293D01*
X467778Y726113D01*
X468496Y726005D01*
X469215Y725969D01*
X462030Y718785D01*
X461995Y719504D01*
X461887Y720222D01*
X461707Y720941D01*
X461456Y721659D01*
X461133Y722377D01*
X460737Y723096D01*
X460270Y723814D01*
X459731Y724533D01*
X459121Y725251D01*
X458438Y725969D01*
X462030Y729562D01*
X462749Y728879D01*
D02*
G37*
G36*
X573515Y726805D02*
X573652Y726433D01*
X573881Y726106D01*
X574201Y725822D01*
X574613Y725582D01*
X575116Y725385D01*
X575710Y725233D01*
X576396Y725123D01*
X577173Y725058D01*
X577345Y725053D01*
X577427Y725055D01*
X578890Y725210D01*
X579485Y725345D01*
X579987Y725519D01*
X580399Y725732D01*
X580719Y725984D01*
X580948Y726273D01*
X581085Y726602D01*
X581130Y726970D01*
Y718531D01*
X581085Y718898D01*
X580948Y719227D01*
X580719Y719517D01*
X580399Y719768D01*
X579987Y719981D01*
X579485Y720155D01*
X578890Y720290D01*
X578204Y720387D01*
X577427Y720445D01*
X577362Y720446D01*
X577173Y720441D01*
X576396Y720373D01*
X575710Y720258D01*
X575116Y720098D01*
X574613Y719893D01*
X574201Y719641D01*
X573881Y719344D01*
X573652Y719001D01*
X573515Y718612D01*
X573470Y718178D01*
Y727220D01*
X573515Y726805D01*
D02*
G37*
G36*
X497283Y719397D02*
X497531Y719196D01*
X497789Y719019D01*
X498059Y718866D01*
X498340Y718736D01*
X498632Y718630D01*
X498934Y718547D01*
X499248Y718488D01*
X499572Y718453D01*
X499908Y718441D01*
Y715901D01*
X499572Y715889D01*
X499248Y715854D01*
X498934Y715795D01*
X498632Y715712D01*
X498340Y715606D01*
X498059Y715476D01*
X497789Y715322D01*
X497531Y715145D01*
X497283Y714945D01*
X497046Y714721D01*
Y719621D01*
X497283Y719397D01*
D02*
G37*
G36*
X487995Y719469D02*
X488071Y719253D01*
X488198Y719063D01*
X488376Y718898D01*
X488605Y718758D01*
X488884Y718644D01*
X489214Y718555D01*
X489595Y718492D01*
X489752Y718478D01*
X489845Y718488D01*
X490159Y718547D01*
X490462Y718630D01*
X490753Y718736D01*
X491034Y718866D01*
X491304Y719019D01*
X491562Y719196D01*
X491810Y719397D01*
X492047Y719621D01*
Y714721D01*
X491810Y714945D01*
X491562Y715145D01*
X491304Y715322D01*
X491034Y715476D01*
X490753Y715606D01*
X490462Y715712D01*
X490159Y715795D01*
X489845Y715854D01*
X489752Y715864D01*
X489595Y715850D01*
X489214Y715786D01*
X488884Y715697D01*
X488605Y715583D01*
X488376Y715443D01*
X488198Y715278D01*
X488071Y715088D01*
X487995Y714872D01*
X487970Y714631D01*
Y719711D01*
X487995Y719469D01*
D02*
G37*
G36*
X658552Y711570D02*
X657625Y712515D01*
X655876Y714108D01*
X655054Y714755D01*
X654268Y715303D01*
X653517Y715751D01*
X652801Y716099D01*
X652120Y716348D01*
X651474Y716497D01*
X650864Y716547D01*
Y718833D01*
X651474Y718883D01*
X652120Y719032D01*
X652801Y719281D01*
X653517Y719629D01*
X654268Y720077D01*
X655054Y720625D01*
X655876Y721272D01*
X657625Y722865D01*
X658552Y723810D01*
Y711570D01*
D02*
G37*
G36*
X628171Y711467D02*
X627401Y712215D01*
X626633Y712884D01*
X625869Y713475D01*
X625107Y713987D01*
X624348Y714420D01*
X623591Y714774D01*
X622838Y715050D01*
X622088Y715247D01*
X621340Y715365D01*
X620595Y715404D01*
Y719976D01*
X621340Y720015D01*
X622088Y720134D01*
X622838Y720330D01*
X623591Y720606D01*
X624348Y720960D01*
X625107Y721393D01*
X625869Y721905D01*
X626633Y722496D01*
X627401Y723165D01*
X628171Y723913D01*
Y711467D01*
D02*
G37*
%LPC*%
G36*
X644934Y778904D02*
X624106D01*
Y758076D01*
X644934D01*
Y778904D01*
D02*
G37*
%LPD*%
G36*
X473280Y834865D02*
X473255Y835107D01*
X473179Y835323D01*
X473052Y835513D01*
X472874Y835678D01*
X472645Y835818D01*
X472366Y835932D01*
X472036Y836021D01*
X471655Y836085D01*
X471223Y836123D01*
X470741Y836135D01*
Y838675D01*
X471223Y838688D01*
X471655Y838726D01*
X472036Y838790D01*
X472366Y838879D01*
X472645Y838993D01*
X472874Y839133D01*
X473052Y839298D01*
X473179Y839488D01*
X473255Y839704D01*
X473280Y839945D01*
Y834865D01*
D02*
G37*
G36*
X466745Y839704D02*
X466821Y839488D01*
X466948Y839298D01*
X467126Y839133D01*
X467355Y838993D01*
X467634Y838879D01*
X467964Y838790D01*
X468345Y838726D01*
X468777Y838688D01*
X469259Y838675D01*
Y836135D01*
X468777Y836123D01*
X468345Y836085D01*
X467964Y836021D01*
X467634Y835932D01*
X467355Y835818D01*
X467126Y835678D01*
X466948Y835513D01*
X466821Y835323D01*
X466745Y835107D01*
X466720Y834865D01*
Y839945D01*
X466745Y839704D01*
D02*
G37*
G36*
X453781Y814725D02*
X453730Y815208D01*
X453577Y815639D01*
X453323Y816020D01*
X452968Y816351D01*
X452510Y816630D01*
X451952Y816859D01*
X451291Y817036D01*
X450529Y817163D01*
X449666Y817240D01*
X448700Y817265D01*
Y822345D01*
X449666Y822370D01*
X450529Y822447D01*
X451291Y822574D01*
X451952Y822751D01*
X452510Y822980D01*
X452968Y823259D01*
X453323Y823590D01*
X453577Y823971D01*
X453730Y824402D01*
X453781Y824885D01*
Y814725D01*
D02*
G37*
G36*
X740858Y828098D02*
X740657Y827850D01*
X740480Y827591D01*
X740327Y827321D01*
X740197Y827041D01*
X740091Y826749D01*
X740053Y826609D01*
X740105Y826414D01*
X740219Y826134D01*
X740359Y825906D01*
X740524Y825728D01*
X740715Y825601D01*
X740931Y825525D01*
X741172Y825499D01*
X739903D01*
X739902Y825472D01*
X737362D01*
X737361Y825499D01*
X736092D01*
X736333Y825525D01*
X736549Y825601D01*
X736740Y825728D01*
X736905Y825906D01*
X737045Y826134D01*
X737159Y826414D01*
X737211Y826609D01*
X737173Y826749D01*
X737067Y827041D01*
X736937Y827321D01*
X736784Y827591D01*
X736607Y827850D01*
X736406Y828098D01*
X736182Y828335D01*
X741082D01*
X740858Y828098D01*
D02*
G37*
G36*
X745800Y824823D02*
X745891Y824564D01*
X746044Y824336D01*
X746257Y824138D01*
X746532Y823970D01*
X746867Y823833D01*
X747263Y823726D01*
X747720Y823650D01*
X748238Y823604D01*
X748818Y823589D01*
Y820541D01*
X748238Y820526D01*
X747720Y820480D01*
X747263Y820404D01*
X746867Y820297D01*
X746532Y820160D01*
X746257Y819992D01*
X746044Y819794D01*
X745891Y819566D01*
X745800Y819307D01*
X745770Y819017D01*
Y825113D01*
X745800Y824823D01*
D02*
G37*
G36*
X797039Y816631D02*
X796074Y817374D01*
X793441Y819134D01*
X792652Y819564D01*
X791907Y819915D01*
X791206Y820189D01*
X790549Y820385D01*
X789936Y820502D01*
X789367Y820541D01*
X788975Y823589D01*
X789616Y823634D01*
X790262Y823769D01*
X790913Y823994D01*
X791568Y824309D01*
X792227Y824714D01*
X792891Y825209D01*
X793559Y825795D01*
X794232Y826470D01*
X794909Y827235D01*
X795590Y828090D01*
X797039Y816631D01*
D02*
G37*
G36*
X745800Y804788D02*
X745891Y804529D01*
X746044Y804301D01*
X746257Y804103D01*
X746532Y803935D01*
X746867Y803798D01*
X747263Y803691D01*
X747720Y803615D01*
X748238Y803569D01*
X748818Y803554D01*
Y800506D01*
X748238Y800491D01*
X747720Y800445D01*
X747263Y800369D01*
X746867Y800262D01*
X746532Y800125D01*
X746257Y799957D01*
X746044Y799759D01*
X745891Y799531D01*
X745800Y799272D01*
X745770Y798982D01*
Y805078D01*
X745800Y804788D01*
D02*
G37*
G36*
X739652Y797561D02*
X741172D01*
X740882Y797530D01*
X740623Y797439D01*
X740395Y797286D01*
X740197Y797073D01*
X740029Y796798D01*
X739892Y796463D01*
X739838Y796263D01*
X739880Y796121D01*
X739981Y795855D01*
X740102Y795608D01*
X740241Y795380D01*
X740398Y795170D01*
X740574Y794979D01*
X739660D01*
X739648Y794512D01*
X736600D01*
X736588Y794979D01*
X735674D01*
X735850Y795170D01*
X736007Y795380D01*
X736146Y795608D01*
X736267Y795855D01*
X736368Y796121D01*
X736410Y796263D01*
X736356Y796463D01*
X736219Y796798D01*
X736051Y797073D01*
X735853Y797286D01*
X735625Y797439D01*
X735366Y797530D01*
X735076Y797561D01*
X736596D01*
X736600Y797731D01*
X739648D01*
X739652Y797561D01*
D02*
G37*
G36*
X796268Y791925D02*
X795447Y792733D01*
X793873Y794093D01*
X793122Y794646D01*
X792393Y795113D01*
X791688Y795496D01*
X791007Y795793D01*
X790349Y796006D01*
X789714Y796133D01*
X789102Y796176D01*
Y799224D01*
X789714Y799267D01*
X790349Y799394D01*
X791007Y799607D01*
X791688Y799904D01*
X792393Y800287D01*
X793122Y800754D01*
X793873Y801307D01*
X794648Y801945D01*
X796268Y803475D01*
Y791925D01*
D02*
G37*
G36*
X364503Y725553D02*
X364541Y725121D01*
X364604Y724740D01*
X364693Y724410D01*
X364808Y724130D01*
X364947Y723902D01*
X365112Y723724D01*
X365303Y723597D01*
X365519Y723521D01*
X365760Y723495D01*
X360680D01*
X360921Y723521D01*
X361137Y723597D01*
X361328Y723724D01*
X361493Y723902D01*
X361632Y724130D01*
X361747Y724410D01*
X361836Y724740D01*
X361899Y725121D01*
X361937Y725553D01*
X361950Y726036D01*
X364490D01*
X364503Y725553D01*
D02*
G37*
D12*
X738632Y821198D02*
Y830834D01*
Y821198D02*
X738800Y821030D01*
X511612Y840045D02*
X516823Y845256D01*
X511612Y827465D02*
Y840045D01*
X517906Y828865D02*
Y830072D01*
X567665Y834669D02*
X589894Y812440D01*
X511612Y827465D02*
X511850Y827227D01*
X517906Y828865D02*
X521850Y824921D01*
Y815250D02*
Y824921D01*
X511850Y815250D02*
Y827227D01*
X391020Y819150D02*
X391160Y819290D01*
X381508Y819150D02*
X391020D01*
X395224Y724154D02*
Y734454D01*
X395478Y734708D01*
X414020Y732028D02*
X426278D01*
X426500Y732250D01*
X505206Y759744D02*
X507772Y762310D01*
X485079Y717171D02*
X501903D01*
X516382Y716534D02*
X520644Y720796D01*
X507772Y762310D02*
X509120D01*
X511850Y765040D01*
X502540Y716534D02*
X516382D01*
X501903Y717171D02*
X502540Y716534D01*
X511850Y765040D02*
Y768750D01*
X505206Y722884D02*
Y759744D01*
X627788Y814578D02*
X631712Y810654D01*
X660160Y787286D02*
X679844D01*
X639360Y810654D02*
X649760Y800254D01*
Y797686D02*
Y800254D01*
X541441Y834669D02*
X567665D01*
X533540Y842570D02*
X541441Y834669D01*
X589894Y794343D02*
Y812440D01*
X556495Y830605D02*
X564600Y822500D01*
X537934Y830605D02*
X556495D01*
X760308Y811022D02*
X777240D01*
X759800Y811530D02*
X760308Y811022D01*
X631712Y810654D02*
X639360D01*
X617220Y814578D02*
X627788D01*
X649760Y797686D02*
X660160Y787286D01*
X533540Y842570D02*
Y845820D01*
X577870Y796770D02*
X579870D01*
X582850Y799750D01*
Y803000D01*
X565600Y784500D02*
X577870Y796770D01*
X626900Y842150D02*
X634520Y849770D01*
X613803Y841304D02*
X616271D01*
X596448Y785848D02*
Y818201D01*
X604500Y832000D02*
X613803Y841304D01*
X615487Y837240D02*
X643003D01*
X616271Y841304D02*
X617117Y842150D01*
X626900D01*
X585100Y832000D02*
X604500D01*
X596448Y818201D02*
X615487Y837240D01*
X585600Y775000D02*
X596448Y785848D01*
X679844Y787286D02*
X680466Y787908D01*
X541442Y824311D02*
X549698D01*
X536870Y818980D02*
X537806Y819916D01*
Y820675D01*
X541442Y824311D01*
X536893Y829564D02*
X537934Y830605D01*
X531850Y824521D02*
X535686Y828357D01*
X531850Y818980D02*
Y824521D01*
X535686Y828357D02*
Y829564D01*
X578806Y783255D02*
X589894Y794343D01*
X565600Y765500D02*
X578806Y778706D01*
X516823Y845256D02*
X523564D01*
X523819Y845002D01*
X495606Y797000D02*
X503600D01*
X493613Y798993D02*
Y801787D01*
Y798993D02*
X495606Y797000D01*
X492760Y802640D02*
X493613Y801787D01*
X520644Y720796D02*
Y759657D01*
X516870Y763431D02*
Y768730D01*
Y763431D02*
X520644Y759657D01*
X516850Y768750D02*
X516870Y768730D01*
X643849Y838086D02*
X653316D01*
X643003Y837240D02*
X643849Y838086D01*
X513600Y732250D02*
Y751000D01*
X511850Y752750D02*
X513600Y751000D01*
X511850Y752750D02*
Y768750D01*
X363220Y716166D02*
Y727202D01*
Y716166D02*
X363360Y716026D01*
X358464Y769804D02*
X358648Y769620D01*
X350246Y769804D02*
X358464D01*
X350050Y770000D02*
X350246Y769804D01*
X535686Y829564D02*
X536893D01*
X653316Y838086D02*
X665000Y849770D01*
X578806Y778706D02*
Y783255D01*
X523819Y845002D02*
X532722D01*
X497590Y774700D02*
X499890Y777000D01*
X350050Y800000D02*
X359000D01*
X458250Y746250D02*
X465237Y739263D01*
X455000Y746250D02*
X458250D01*
X364816Y817684D02*
X365000Y817500D01*
X585100Y775000D02*
X585600D01*
X480750Y820000D02*
X480750Y820000D01*
X426750Y714500D02*
X447250D01*
X560850Y733500D02*
Y746000D01*
X465237Y734913D02*
Y739263D01*
X480750Y809750D02*
Y820000D01*
X465237Y734913D02*
X466090Y734060D01*
X588611Y740261D02*
Y750190D01*
X588600Y740250D02*
X588611Y740261D01*
X533662Y714949D02*
Y725188D01*
X533600Y725250D02*
X533662Y725188D01*
X477520Y735330D02*
Y746230D01*
X477500Y746250D02*
X477520Y746230D01*
X486285Y732534D02*
X495816D01*
X496100Y732250D01*
X426500Y714750D02*
X426750Y714500D01*
X413372Y714634D02*
X426384D01*
X426500Y714750D01*
X381000Y716166D02*
Y729996D01*
X380860Y716026D02*
X381000Y716166D01*
X410584Y837308D02*
Y847416D01*
Y837308D02*
X410958Y836934D01*
X759800Y760730D02*
X773430D01*
X391160Y836790D02*
X391160Y836790D01*
Y847090D01*
X634520Y798970D02*
X649646Y783844D01*
Y758444D02*
X665000Y743090D01*
X649646Y758444D02*
Y783844D01*
X565100Y803250D02*
Y822250D01*
Y803250D02*
X565350Y803000D01*
X564600Y822500D02*
X565100D01*
X526539Y830123D02*
X526830Y829832D01*
Y815270D02*
X526850Y815250D01*
X526830Y815270D02*
Y829832D01*
X493710Y782000D02*
X499870D01*
X496570Y774700D02*
X497590D01*
X499890Y777000D02*
X503600D01*
X483750Y718500D02*
X485079Y717171D01*
X532722Y845002D02*
X533540Y845820D01*
X551040Y843810D02*
Y845820D01*
Y843810D02*
X553350Y841500D01*
X565100D01*
X460265Y837405D02*
X480655D01*
X460250Y837390D02*
X460265Y837405D01*
X480655D02*
X480750Y837500D01*
X565100Y784500D02*
X565600D01*
X565100Y765500D02*
X565600D01*
D19*
X447250Y732000D02*
D03*
Y714500D02*
D03*
X477500Y763750D02*
D03*
Y746250D02*
D03*
X395478Y752208D02*
D03*
Y734708D02*
D03*
X410958Y819434D02*
D03*
Y836934D02*
D03*
X480750Y820000D02*
D03*
X455000Y746250D02*
D03*
X426500Y714750D02*
D03*
X391160Y836790D02*
D03*
X588600Y740250D02*
D03*
X533600Y725250D02*
D03*
X533600Y742750D02*
D03*
X588600Y722750D02*
D03*
X391160Y819290D02*
D03*
X426500Y732250D02*
D03*
X455000Y763750D02*
D03*
X480750Y837500D02*
D03*
D20*
X350050Y805000D02*
D03*
Y800000D02*
D03*
Y795000D02*
D03*
Y770000D02*
D03*
Y775000D02*
D03*
Y780000D02*
D03*
Y790000D02*
D03*
Y785000D02*
D03*
D21*
Y763500D02*
D03*
Y811500D02*
D03*
Y755500D02*
D03*
Y819500D02*
D03*
D22*
X738800Y751230D02*
D03*
Y770230D02*
D03*
X759800Y811530D02*
D03*
Y760730D02*
D03*
X738800Y802030D02*
D03*
Y821030D02*
D03*
D23*
X585100Y775000D02*
D03*
Y832000D02*
D03*
X565100Y822500D02*
D03*
Y841500D02*
D03*
Y784500D02*
D03*
Y765500D02*
D03*
D24*
X536850Y815250D02*
D03*
X531850D02*
D03*
X526850D02*
D03*
X521850D02*
D03*
Y768750D02*
D03*
X526850D02*
D03*
X531850D02*
D03*
X536850D02*
D03*
X541850D02*
D03*
Y815250D02*
D03*
X516850D02*
D03*
X511850Y768750D02*
D03*
X516850D02*
D03*
X511850Y815250D02*
D03*
D25*
X496100Y732250D02*
D03*
X380860Y716026D02*
D03*
X565350Y803000D02*
D03*
X496100Y751000D02*
D03*
X513600Y751000D02*
D03*
X363360Y716026D02*
D03*
X513600Y732250D02*
D03*
X466250Y718500D02*
D03*
X483750Y718500D02*
D03*
X551040Y845820D02*
D03*
X533540Y845820D02*
D03*
X582850Y803000D02*
D03*
D26*
X503600Y797000D02*
D03*
X550100Y787000D02*
D03*
X503600Y807000D02*
D03*
Y802000D02*
D03*
X550100Y777000D02*
D03*
Y782000D02*
D03*
Y792000D02*
D03*
Y797000D02*
D03*
Y802000D02*
D03*
Y807000D02*
D03*
X503600Y792000D02*
D03*
Y787000D02*
D03*
Y782000D02*
D03*
Y777000D02*
D03*
D27*
X560850Y746000D02*
D03*
X570250D02*
D03*
X551450D02*
D03*
Y721000D02*
D03*
X570250D02*
D03*
D28*
X390662Y793866D02*
D03*
D29*
X373644Y771006D02*
D03*
Y793866D02*
D03*
X392948Y771006D02*
D03*
D30*
X460250Y819610D02*
D03*
Y837390D02*
D03*
D31*
X471000Y787500D02*
D03*
X444000D02*
D03*
Y797500D02*
D03*
X471000D02*
D03*
D53*
X526850Y792000D02*
D03*
D54*
X738124Y801354D02*
X738800Y802030D01*
X738124Y792480D02*
Y801354D01*
X738800Y802030D02*
X766458D01*
X636240Y824370D02*
X645638Y833768D01*
X669945Y836308D02*
X673641Y832612D01*
X656521Y833768D02*
X659061Y836308D01*
X645638Y833768D02*
X656521D01*
X634520Y824370D02*
X636240D01*
X673641Y832612D02*
X673918D01*
X659061Y836308D02*
X669945D01*
X673918Y832612D02*
X736300Y770230D01*
X738800D01*
X736300Y751230D02*
X738800D01*
X665000Y822530D02*
Y824370D01*
Y822530D02*
X736300Y751230D01*
X738800D02*
X740965Y749065D01*
X799995D02*
X802160Y746900D01*
X740965Y749065D02*
X799995D01*
X801125Y771265D02*
X802160Y772300D01*
X738800Y770230D02*
X739835Y771265D01*
X801125D01*
X770788Y797700D02*
X802160D01*
X766458Y802030D02*
X770788Y797700D01*
X801125Y822065D02*
X802160Y823100D01*
X739835Y822065D02*
X801125D01*
X738800Y821030D02*
X739835Y822065D01*
D55*
X357506Y784643D02*
X357934Y784215D01*
X350050Y785000D02*
X350407Y784643D01*
X370977Y785554D02*
Y791199D01*
X369638Y784215D02*
X370977Y785554D01*
X357934Y784215D02*
X369638D01*
X350407Y784643D02*
X357506D01*
X357934Y780785D02*
X369252D01*
X357506Y780357D02*
X357934Y780785D01*
X350050Y780000D02*
X350407Y780357D01*
X357506D01*
X369252Y780785D02*
X370977Y779060D01*
X341376Y788304D02*
X342715Y789643D01*
X349693D01*
X342715Y780357D02*
X348890D01*
X341376Y781696D02*
X342715Y780357D01*
X341376Y781696D02*
Y788304D01*
X350050Y795000D02*
X350318Y794732D01*
X357309D02*
X358648Y793392D01*
X357309Y785268D02*
X358648Y786608D01*
X350318Y794732D02*
X357309D01*
X358648Y786608D02*
Y793392D01*
X348890Y780357D02*
X349247Y780000D01*
X349693Y789643D02*
X350050Y790000D01*
X475357Y795554D02*
Y795643D01*
X473500Y797500D02*
X475357Y795643D01*
Y795554D02*
X476696Y794215D01*
X489618Y791215D02*
X497448D01*
X486618Y794215D02*
X489618Y791215D01*
X476696Y794215D02*
X486618D01*
X471000Y797500D02*
X473500D01*
X498192Y791959D02*
X503559D01*
X503600Y792000D01*
X497448Y791215D02*
X498192Y791959D01*
X488197Y787785D02*
X497448D01*
X471000Y787500D02*
X473500D01*
X475357Y789357D01*
Y789446D01*
X476696Y790785D01*
X485197D02*
X488197Y787785D01*
X503559Y787041D02*
X503600Y787000D01*
X498192Y787041D02*
X503559D01*
X476696Y790785D02*
X485197D01*
X497448Y787785D02*
X498192Y787041D01*
X370977Y773673D02*
Y779060D01*
Y773673D02*
X373644Y771006D01*
X370977Y791199D02*
X373644Y793866D01*
X425514Y807359D02*
X452341D01*
X376531Y780721D02*
X403727D01*
X452341Y807359D02*
X457699Y802002D01*
X403727Y780721D02*
X426935Y803929D01*
X450920D01*
X376311Y784372D02*
X376531Y784152D01*
X454350Y790785D02*
X457699Y794133D01*
X454268Y795554D02*
Y800581D01*
X450920Y803929D02*
X454268Y800581D01*
X448357Y789446D02*
X449696Y790785D01*
X446500Y787500D02*
X448357Y789357D01*
Y789446D01*
X444000Y787500D02*
X446500D01*
X449696Y790785D02*
X454350D01*
X402306Y784152D02*
X425514Y807359D01*
X457699Y794133D02*
Y802002D01*
X376531Y784152D02*
X402306D01*
X376311Y784372D02*
Y791199D01*
X373644Y793866D02*
X376311Y791199D01*
X448357Y795554D02*
Y795643D01*
X446500Y797500D02*
X448357Y795643D01*
X444000Y797500D02*
X446500D01*
X448357Y795554D02*
X449696Y794215D01*
X452929D01*
X454268Y795554D01*
X376311Y780501D02*
X376531Y780721D01*
X376311Y773673D02*
Y780501D01*
X373644Y771006D02*
X376311Y773673D01*
X639307Y729247D02*
X650864Y717690D01*
X555472Y785917D02*
X558933Y782457D01*
Y761395D02*
Y782457D01*
Y761395D02*
X563971Y756357D01*
X632019Y729247D02*
X639307D01*
X650864Y717690D02*
X665000D01*
X554991Y785917D02*
X555472D01*
X563971Y756357D02*
X604909D01*
X550100Y787000D02*
X553908D01*
X604909Y756357D02*
X632019Y729247D01*
X553908Y787000D02*
X554991Y785917D01*
D56*
X424717Y819717D02*
X425000Y820000D01*
X411241Y819717D02*
X424717D01*
X410958Y819434D02*
X411241Y819717D01*
X407708Y819434D02*
X410958D01*
X405998Y817724D02*
X407708Y819434D01*
X405998Y816693D02*
Y817724D01*
X402724Y813419D02*
X405998Y816693D01*
X383071Y810936D02*
X383111Y810976D01*
X360817Y810936D02*
X383071D01*
X360713Y811040D02*
X360817Y810936D01*
X350510Y811040D02*
X360713D01*
X350050Y811500D02*
X350510Y811040D01*
X445146Y732000D02*
X445400D01*
X369263Y762432D02*
X369331Y762500D01*
X392500D01*
X363420Y763040D02*
X364028Y762432D01*
X369263D01*
X350510Y763040D02*
X363420D01*
X350050Y763500D02*
X350510Y763040D01*
X426500Y732250D02*
X426625Y732125D01*
X443436Y769683D02*
X449594Y775842D01*
X487552D01*
X426625Y732125D02*
X443375D01*
X443436Y733710D02*
X445146Y732000D01*
X443436Y733710D02*
Y769683D01*
X487552Y775842D02*
X493710Y782000D01*
X494367Y764367D02*
Y772497D01*
X477500Y763750D02*
X477625Y763875D01*
X493875D01*
X494390Y752710D02*
Y763090D01*
X494367Y772497D02*
X496570Y774700D01*
X494000Y764000D02*
X494367Y764367D01*
X493875Y763875D02*
X494000Y764000D01*
X494390Y752710D02*
X496100Y751000D01*
X494000Y763480D02*
X494390Y763090D01*
X494000Y763480D02*
Y764000D01*
X446195Y819805D02*
X460055D01*
X446000Y820000D02*
X446195Y819805D01*
X460055D02*
X460250Y819610D01*
X392500Y762500D02*
X392867Y762133D01*
Y753918D02*
Y762133D01*
Y753918D02*
X393768D01*
X392724Y770782D02*
X392948Y771006D01*
X392724Y762724D02*
Y770782D01*
X393768Y753918D02*
X395478Y752208D01*
X392500Y762500D02*
X392724Y762724D01*
X533584Y742766D02*
X533600Y742750D01*
X533567Y750598D02*
X533584Y750582D01*
Y742766D02*
Y750582D01*
X551545Y755626D02*
X551640Y755721D01*
X551450Y746000D02*
X551545Y746095D01*
Y755626D01*
X570174Y736427D02*
Y745924D01*
X570250Y746000D01*
X570098Y736352D02*
X570174Y736427D01*
X443375Y732125D02*
X443500Y732250D01*
X455000Y763750D02*
X477500D01*
X457356Y730644D02*
X466250Y721750D01*
X448606Y730644D02*
X457356D01*
X466250Y718500D02*
Y721750D01*
D57*
X400325Y811020D02*
X402724Y813419D01*
X383155Y811020D02*
X400325D01*
X383111Y810976D02*
X383155Y811020D01*
D58*
X634520Y743090D02*
X647220Y730390D01*
X659380D01*
X796196Y727464D02*
X802160Y721500D01*
X670620Y730390D02*
X673546Y727464D01*
X796196D01*
X570250Y721000D02*
Y721786D01*
X571214Y722750D02*
X588600D01*
X570250Y721786D02*
X571214Y722750D01*
X591850D02*
X596910Y717690D01*
X588600Y722750D02*
X591850D01*
X596910Y717690D02*
X634520D01*
D59*
X350050Y755500D02*
X364500D01*
X370000Y750000D01*
X365000Y822103D02*
Y822500D01*
X350050Y819500D02*
X350550Y820000D01*
X362897D02*
X365000Y822103D01*
X350550Y820000D02*
X362897D01*
D60*
X659380Y730390D02*
X670620D01*
D61*
X390662Y798528D02*
D03*
D62*
X372657Y750154D02*
D03*
D63*
X367500Y822500D02*
D03*
D64*
X339300Y816400D02*
D03*
Y758600D02*
D03*
D65*
X344300Y744300D02*
D03*
Y830700D02*
D03*
D66*
X302500Y744300D02*
D03*
Y830700D02*
D03*
D67*
X665000Y824370D02*
D03*
Y798970D02*
D03*
X634520Y824370D02*
D03*
Y743090D02*
D03*
X665000Y717690D02*
D03*
X634520Y798970D02*
D03*
X665000Y743090D02*
D03*
X634520Y717690D02*
D03*
D68*
X802160Y746900D02*
D03*
Y772300D02*
D03*
Y848500D02*
D03*
Y797700D02*
D03*
Y823100D02*
D03*
D69*
X665000Y849770D02*
D03*
X634520D02*
D03*
X665000Y768490D02*
D03*
X634520D02*
D03*
D70*
X802160Y721500D02*
D03*
D71*
X715800Y845960D02*
D03*
X342500Y720000D02*
D03*
D72*
X738632Y830834D02*
D03*
X738124Y792480D02*
D03*
X517906Y830072D02*
D03*
X395224Y724154D02*
D03*
X414020Y732028D02*
D03*
X617220Y814578D02*
D03*
X680466Y787908D02*
D03*
X575056Y827278D02*
D03*
X777240Y811022D02*
D03*
X535686Y829564D02*
D03*
X549698Y824311D02*
D03*
X494000Y764000D02*
D03*
X425000Y820000D02*
D03*
X446000D02*
D03*
X392500Y762500D02*
D03*
X480750Y809750D02*
D03*
X492760Y802640D02*
D03*
X575818Y859282D02*
D03*
X598678Y859790D02*
D03*
X521970Y852170D02*
D03*
X505460D02*
D03*
X499110Y835660D02*
D03*
X560850Y733500D02*
D03*
X381000Y729996D02*
D03*
X466090Y734060D02*
D03*
X588611Y750190D02*
D03*
X533662Y714949D02*
D03*
X477520Y735330D02*
D03*
X486285Y732534D02*
D03*
X413372Y714634D02*
D03*
X436750Y723000D02*
D03*
X612394Y853694D02*
D03*
X410584Y847416D02*
D03*
X773430Y760730D02*
D03*
X391160Y847090D02*
D03*
X526539Y830123D02*
D03*
X533567Y750598D02*
D03*
X551640Y755721D02*
D03*
X570098Y736352D02*
D03*
X494547Y717171D02*
D03*
D73*
X610616Y800100D02*
D03*
X710692Y812546D02*
D03*
X505206Y722884D02*
D03*
X419000Y777000D02*
D03*
X433000D02*
D03*
X822000Y849000D02*
D03*
X820000Y824000D02*
D03*
Y798000D02*
D03*
Y747000D02*
D03*
Y772000D02*
D03*
Y721000D02*
D03*
X735000Y717000D02*
D03*
X687000D02*
D03*
X686000Y750000D02*
D03*
D74*
X381508Y819150D02*
D03*
X363220Y727202D02*
D03*
X358648Y769620D02*
D03*
X394000Y805000D02*
D03*
X388000D02*
D03*
Y800000D02*
D03*
X394000D02*
D03*
X359000D02*
D03*
X365000Y817500D02*
D03*
Y827500D02*
D03*
Y822500D02*
D03*
X370000Y745000D02*
D03*
Y755000D02*
D03*
X375000Y750000D02*
D03*
X370000D02*
D03*
X375000Y755000D02*
D03*
X370000Y827500D02*
D03*
Y822500D02*
D03*
Y817500D02*
D03*
X375000Y745000D02*
D03*
D75*
X537850Y781000D02*
D03*
X526850D02*
D03*
X515850D02*
D03*
X537850Y792000D02*
D03*
X526850D02*
D03*
X515850D02*
D03*
X537850Y803000D02*
D03*
X526850D02*
D03*
X515850D02*
D03*
M02*
