G04*
G04 #@! TF.GenerationSoftware,Altium Limited,Altium Designer,25.8.1 (18)*
G04*
G04 Layer_Color=255*
%FSLAX44Y44*%
%MOMM*%
G71*
G04*
G04 #@! TF.SameCoordinates,C1BCB00A-ABA2-4098-A91F-09611CED283E*
G04*
G04*
G04 #@! TF.FilePolarity,Positive*
G04*
G01*
G75*
%ADD64C,0.6500*%
%ADD65O,2.1000X1.0000*%
G04:AMPARAMS|DCode=66|XSize=1.8mm|YSize=1mm|CornerRadius=0.25mm|HoleSize=0mm|Usage=FLASHONLY|Rotation=0.000|XOffset=0mm|YOffset=0mm|HoleType=Round|Shape=RoundedRectangle|*
%AMROUNDEDRECTD66*
21,1,1.8000,0.5000,0,0,0.0*
21,1,1.3000,1.0000,0,0,0.0*
1,1,0.5000,0.6500,-0.2500*
1,1,0.5000,-0.6500,-0.2500*
1,1,0.5000,-0.6500,0.2500*
1,1,0.5000,0.6500,0.2500*
%
%ADD66ROUNDEDRECTD66*%
%ADD67C,1.7780*%
%ADD68C,1.6500*%
%ADD69R,1.7780X1.7780*%
%ADD70R,1.6500X1.6500*%
%ADD71C,2.0000*%
%ADD76C,1.0000*%
D64*
X339300Y816400D02*
D03*
Y758600D02*
D03*
D65*
X344300Y744300D02*
D03*
Y830700D02*
D03*
D66*
X302500Y744300D02*
D03*
Y830700D02*
D03*
D67*
X665000Y824370D02*
D03*
Y798970D02*
D03*
X634520Y824370D02*
D03*
Y743090D02*
D03*
X665000Y717690D02*
D03*
X634520Y798970D02*
D03*
X665000Y743090D02*
D03*
X634520Y717690D02*
D03*
D68*
X802160Y746900D02*
D03*
Y772300D02*
D03*
Y848500D02*
D03*
Y797700D02*
D03*
Y823100D02*
D03*
D69*
X665000Y849770D02*
D03*
X634520D02*
D03*
X665000Y768490D02*
D03*
X634520D02*
D03*
D70*
X802160Y721500D02*
D03*
D71*
X715800Y845960D02*
D03*
X342500Y720000D02*
D03*
D76*
X423418Y847344D02*
D03*
X696000Y789000D02*
D03*
X608330Y768350D02*
D03*
X400812Y735838D02*
D03*
X583438Y837438D02*
D03*
X481330Y717550D02*
D03*
X615950D02*
D03*
X505333Y739350D02*
D03*
M02*
