G04*
G04 #@! TF.GenerationSoftware,Altium Limited,Altium Designer,25.8.1 (18)*
G04*
G04 Layer_Physical_Order=2*
G04 Layer_Color=16711680*
%FSLAX44Y44*%
%MOMM*%
G71*
G04*
G04 #@! TF.SameCoordinates,14A44499-DC71-4E58-906D-4858D5B17C9E*
G04*
G04*
G04 #@! TF.FilePolarity,Positive*
G04*
G01*
G75*
%ADD12C,0.2540*%
%ADD14C,0.1524*%
%ADD64C,0.6500*%
%ADD65O,2.1000X1.0000*%
G04:AMPARAMS|DCode=66|XSize=1.8mm|YSize=1mm|CornerRadius=0.25mm|HoleSize=0mm|Usage=FLASHONLY|Rotation=0.000|XOffset=0mm|YOffset=0mm|HoleType=Round|Shape=RoundedRectangle|*
%AMROUNDEDRECTD66*
21,1,1.8000,0.5000,0,0,0.0*
21,1,1.3000,1.0000,0,0,0.0*
1,1,0.5000,0.6500,-0.2500*
1,1,0.5000,-0.6500,-0.2500*
1,1,0.5000,-0.6500,0.2500*
1,1,0.5000,0.6500,0.2500*
%
%ADD66ROUNDEDRECTD66*%
%ADD67C,1.7780*%
%ADD68C,1.6500*%
%ADD69R,1.7780X1.7780*%
%ADD70R,1.6500X1.6500*%
%ADD71C,2.0000*%
%ADD72C,0.3500*%
%ADD73C,0.7000*%
%ADD74C,0.7112*%
%ADD75C,0.5000*%
%ADD76C,1.0000*%
G36*
X834340Y703630D02*
X278942D01*
Y864566D01*
X834340D01*
Y703630D01*
D02*
G37*
%LPC*%
G36*
X803514Y858782D02*
X800806D01*
X798191Y858081D01*
X795999Y856816D01*
X797677Y855139D01*
X795521Y852983D01*
X793844Y854661D01*
X792579Y852469D01*
X791878Y849854D01*
Y847146D01*
X792579Y844531D01*
X793844Y842339D01*
X795521Y844017D01*
X797677Y841861D01*
X795999Y840184D01*
X798191Y838919D01*
X800806Y838218D01*
X803514D01*
X806129Y838919D01*
X808321Y840184D01*
X806643Y841861D01*
X808799Y844017D01*
X810476Y842339D01*
X811741Y844531D01*
X812442Y847146D01*
Y849854D01*
X811741Y852469D01*
X810476Y854661D01*
X808799Y852983D01*
X806643Y855139D01*
X808321Y856816D01*
X806129Y858081D01*
X803514Y858782D01*
D02*
G37*
G36*
X424344Y854376D02*
X422492D01*
X420704Y853897D01*
X419100Y852971D01*
X417791Y851662D01*
X416865Y850058D01*
X416491Y848662D01*
X416500Y848663D01*
X416917Y848701D01*
X417303Y848764D01*
X417658Y848852D01*
X417981Y848966D01*
X418273Y849105D01*
X418534Y849270D01*
X418764Y849460D01*
X418962Y849675D01*
X419130Y849915D01*
X419093Y844835D01*
X418929Y845077D01*
X418734Y845294D01*
X418507Y845485D01*
X418248Y845651D01*
X417958Y845791D01*
X417636Y845906D01*
X417283Y845995D01*
X416898Y846059D01*
X416481Y846097D01*
X416472Y846097D01*
X416865Y844630D01*
X417791Y843026D01*
X419100Y841717D01*
X420704Y840791D01*
X422492Y840312D01*
X424344D01*
X426132Y840791D01*
X427736Y841717D01*
X429045Y843026D01*
X429971Y844630D01*
X430450Y846418D01*
Y848270D01*
X429971Y850058D01*
X429045Y851662D01*
X427736Y852971D01*
X426132Y853897D01*
X424344Y854376D01*
D02*
G37*
G36*
X675414Y860184D02*
X654586D01*
Y840173D01*
X654586Y839356D01*
X653504Y838903D01*
X646016D01*
X644934Y839356D01*
X644934Y840173D01*
Y860184D01*
X624106D01*
Y839356D01*
X626306D01*
X626691Y838086D01*
X626665Y838068D01*
X626665Y838068D01*
X612429Y823833D01*
X580375D01*
X579593Y825103D01*
X580080Y826279D01*
Y828001D01*
X580125Y828178D01*
X580092Y828408D01*
X580085Y828547D01*
X580092Y828671D01*
X580111Y828787D01*
X580143Y828901D01*
X580188Y829018D01*
X580253Y829143D01*
X580340Y829277D01*
X580452Y829421D01*
X580638Y829622D01*
X580685Y829749D01*
X580758Y829797D01*
X580849Y829832D01*
X581141Y830109D01*
X581386Y830316D01*
X581613Y830485D01*
X581819Y830616D01*
X582003Y830712D01*
X582163Y830778D01*
X582298Y830818D01*
X582411Y830838D01*
X582509Y830844D01*
X582701Y830832D01*
X582856Y830885D01*
X583015Y830842D01*
X583142Y830914D01*
X584297D01*
X585956Y831359D01*
X587444Y832217D01*
X588658Y833432D01*
X589517Y834920D01*
X589962Y836579D01*
Y838297D01*
X589517Y839956D01*
X588658Y841444D01*
X587444Y842658D01*
X585956Y843517D01*
X584297Y843962D01*
X582579D01*
X580920Y843517D01*
X579432Y842658D01*
X578218Y841444D01*
X577359Y839956D01*
X576914Y838297D01*
Y836579D01*
X577196Y835529D01*
X577156Y835383D01*
X577232Y835249D01*
X577218Y835097D01*
X577266Y834945D01*
X577270Y834919D01*
X577269Y834884D01*
X577260Y834826D01*
X577233Y834734D01*
X577175Y834603D01*
X577079Y834435D01*
X576939Y834235D01*
X576751Y834007D01*
X576481Y833720D01*
X576450Y833638D01*
X576374Y833594D01*
X576344Y833484D01*
X576306Y833445D01*
X576146Y833384D01*
X575942Y833192D01*
X575770Y833048D01*
X575593Y832918D01*
X575413Y832802D01*
X575228Y832699D01*
X575036Y832607D01*
X574836Y832527D01*
X574628Y832458D01*
X574410Y832400D01*
X574135Y832344D01*
X574072Y832302D01*
X574057D01*
X572210Y831537D01*
X570797Y830124D01*
X570310Y828948D01*
X568859Y828603D01*
X555525Y841936D01*
X554601Y842554D01*
X553511Y842771D01*
X553511Y842771D01*
X527438D01*
X527438Y842771D01*
X526347Y842554D01*
X525423Y841936D01*
X525423Y841936D01*
X519603Y836116D01*
X519445Y836057D01*
X519243Y835868D01*
X519080Y835735D01*
X518917Y835621D01*
X518751Y835522D01*
X518583Y835439D01*
X518410Y835369D01*
X518229Y835311D01*
X518040Y835266D01*
X517839Y835234D01*
X517570Y835210D01*
X517352Y835096D01*
X516907D01*
X515060Y834331D01*
X513647Y832918D01*
X512882Y831071D01*
Y829073D01*
X513153Y828419D01*
X512304Y827149D01*
X421000D01*
X419834Y826666D01*
X419350Y825500D01*
Y815625D01*
X419351Y815622D01*
X419350Y815620D01*
X419593Y815039D01*
X419834Y814458D01*
X419836Y814457D01*
X419837Y814455D01*
X420546Y813750D01*
X420548Y813749D01*
X420549Y813747D01*
X421133Y813509D01*
X421714Y813270D01*
X421716Y813271D01*
X421718Y813270D01*
X476931Y813583D01*
X477185Y813690D01*
X495115D01*
X501744Y807062D01*
X502910Y806578D01*
X543180D01*
Y776604D01*
X490982D01*
X489815Y776120D01*
X483355Y769660D01*
X389214D01*
X388048Y769176D01*
X387564Y768010D01*
Y763713D01*
X387476Y763499D01*
Y761501D01*
X387564Y761287D01*
Y757596D01*
X388048Y756430D01*
X389994Y754484D01*
X391160Y754000D01*
X519667Y754000D01*
X542834Y730834D01*
X544000Y730350D01*
X555491D01*
X555648Y730415D01*
X555813Y730382D01*
X556213Y730649D01*
X556658Y730834D01*
X556722Y730990D01*
X556863Y731084D01*
X557198Y731584D01*
X557291Y732056D01*
X557476Y732501D01*
Y734171D01*
X557989Y735412D01*
X558939Y736361D01*
X560179Y736874D01*
X561521D01*
X562761Y736361D01*
X563711Y735412D01*
X564224Y734171D01*
Y732501D01*
X564408Y732056D01*
X564502Y731584D01*
X564837Y731084D01*
X564977Y730990D01*
X565042Y730834D01*
X565487Y730649D01*
X565887Y730382D01*
X566053Y730415D01*
X566209Y730350D01*
X612000D01*
X613166Y730834D01*
X618166Y735834D01*
X618650Y737000D01*
Y746350D01*
X623569D01*
X624342Y745343D01*
X624106Y744461D01*
Y741719D01*
X624816Y739070D01*
X626187Y736696D01*
X628126Y734757D01*
X630500Y733386D01*
X633149Y732676D01*
X635891D01*
X638540Y733386D01*
X640914Y734757D01*
X642853Y736696D01*
X644224Y739070D01*
X644934Y741719D01*
Y744461D01*
X644698Y745343D01*
X645471Y746350D01*
X651510D01*
X652676Y746834D01*
X653160Y748000D01*
Y772769D01*
X654430Y773268D01*
X654586Y773100D01*
Y758076D01*
X675414D01*
Y764991D01*
X675455Y765002D01*
X675693Y765042D01*
X676011Y765070D01*
X676443Y765081D01*
X676601Y765151D01*
X677700D01*
X677700Y765151D01*
X678790Y765368D01*
X679714Y765986D01*
X694169Y780440D01*
X694335Y780506D01*
X694743Y780903D01*
X695101Y781231D01*
X695792Y781798D01*
X696068Y781994D01*
X696324Y782156D01*
X696544Y782275D01*
X696721Y782353D01*
X696847Y782395D01*
X697030Y782433D01*
X697163Y782524D01*
X697324Y782524D01*
X697429Y782629D01*
X698518Y782921D01*
X700006Y783780D01*
X701220Y784994D01*
X702079Y786482D01*
X702524Y788141D01*
Y789859D01*
X702079Y791518D01*
X701220Y793006D01*
X700645Y793581D01*
X701171Y794851D01*
X731724D01*
X732169Y794406D01*
X732228Y794249D01*
X732416Y794047D01*
X732542Y793890D01*
X732649Y793734D01*
X732738Y793578D01*
X732811Y793421D01*
X732870Y793261D01*
X732915Y793095D01*
X732948Y792919D01*
X732968Y792732D01*
X732975Y792470D01*
X733100Y792190D01*
Y791481D01*
X733865Y789634D01*
X735278Y788221D01*
X737125Y787456D01*
X739123D01*
X740970Y788221D01*
X742383Y789634D01*
X743148Y791481D01*
Y793479D01*
X742383Y795326D01*
X740970Y796739D01*
X739123Y797504D01*
X738414D01*
X738134Y797629D01*
X737872Y797636D01*
X737685Y797656D01*
X737509Y797689D01*
X737343Y797734D01*
X737182Y797793D01*
X737026Y797866D01*
X736870Y797955D01*
X736715Y798062D01*
X736557Y798188D01*
X736356Y798376D01*
X736198Y798435D01*
X734918Y799714D01*
X733994Y800332D01*
X732904Y800549D01*
X732904Y800549D01*
X690258D01*
X690258Y800549D01*
X689168Y800332D01*
X688244Y799714D01*
X688244Y799714D01*
X682392Y793863D01*
X682234Y793804D01*
X682033Y793616D01*
X681876Y793490D01*
X681720Y793383D01*
X681564Y793294D01*
X681407Y793221D01*
X681247Y793162D01*
X681081Y793117D01*
X680905Y793084D01*
X680718Y793064D01*
X680456Y793057D01*
X680176Y792932D01*
X679467D01*
X677620Y792167D01*
X676207Y790754D01*
X675442Y788907D01*
Y786909D01*
X676207Y785062D01*
X677620Y783649D01*
X679467Y782884D01*
X681465D01*
X683312Y783649D01*
X684725Y785062D01*
X685490Y786909D01*
Y787618D01*
X685615Y787898D01*
X685622Y788160D01*
X685642Y788347D01*
X685675Y788523D01*
X685720Y788689D01*
X685779Y788849D01*
X685852Y789006D01*
X685941Y789162D01*
X686048Y789317D01*
X686174Y789475D01*
X686362Y789676D01*
X686421Y789834D01*
X688931Y792345D01*
X689948Y791565D01*
X689921Y791518D01*
X689476Y789859D01*
Y788141D01*
X689921Y786482D01*
X690478Y785516D01*
X690478Y785367D01*
X690578Y785267D01*
X690590Y785190D01*
X690589Y785185D01*
X690519Y785058D01*
X690397Y784881D01*
X690219Y784663D01*
X689949Y784377D01*
X689917Y784293D01*
X689839Y784248D01*
X689810Y784139D01*
X676684Y771013D01*
X675414Y771209D01*
Y778904D01*
X660011D01*
X659815Y778997D01*
X659537Y779011D01*
X659337Y779041D01*
X659129Y779093D01*
X658908Y779170D01*
X658674Y779276D01*
X658425Y779412D01*
X658164Y779583D01*
X657889Y779788D01*
X657603Y780032D01*
X657277Y780341D01*
X657115Y780404D01*
X654201Y783318D01*
X654347Y784271D01*
X654559Y784756D01*
X655330Y785272D01*
X656836Y786777D01*
X656972Y786821D01*
X657343Y787136D01*
X657717Y787369D01*
X658209Y787599D01*
X658821Y787814D01*
X659553Y788004D01*
X660400Y788164D01*
X661344Y788286D01*
X663627Y788424D01*
X664920Y788431D01*
X665218Y788556D01*
X666371D01*
X669020Y789266D01*
X671394Y790637D01*
X673333Y792576D01*
X674704Y794950D01*
X675414Y797599D01*
Y800341D01*
X674704Y802990D01*
X673333Y805364D01*
X671394Y807303D01*
X669020Y808674D01*
X666371Y809384D01*
X663629D01*
X660980Y808674D01*
X658606Y807303D01*
X656667Y805364D01*
X655296Y802990D01*
X654586Y800341D01*
Y799188D01*
X654461Y798890D01*
X654454Y797597D01*
X654316Y795314D01*
X654194Y794370D01*
X654034Y793523D01*
X653844Y792791D01*
X653629Y792179D01*
X653399Y791687D01*
X653166Y791313D01*
X652851Y790942D01*
X652807Y790806D01*
X652136Y790135D01*
X642208D01*
X641682Y791405D01*
X642853Y792576D01*
X644224Y794950D01*
X644934Y797599D01*
Y800341D01*
X644224Y802990D01*
X642853Y805364D01*
X640914Y807303D01*
X638540Y808674D01*
X635891Y809384D01*
X633149D01*
X630500Y808674D01*
X628126Y807303D01*
X626187Y805364D01*
X624816Y802990D01*
X624106Y800341D01*
Y797599D01*
X624816Y794950D01*
X626187Y792576D01*
X627358Y791405D01*
X626832Y790135D01*
X587904D01*
X555653Y822385D01*
X555594Y822543D01*
X555407Y822744D01*
X555280Y822902D01*
X555174Y823058D01*
X555085Y823213D01*
X555012Y823370D01*
X554953Y823530D01*
X554907Y823696D01*
X554874Y823872D01*
X554855Y824059D01*
X554847Y824321D01*
X554723Y824601D01*
Y825311D01*
X553958Y827157D01*
X552544Y828570D01*
X550698Y829335D01*
X548699D01*
X546853Y828570D01*
X545439Y827157D01*
X544952Y825981D01*
X543501Y825636D01*
X541597Y827541D01*
X541538Y827698D01*
X541351Y827899D01*
X541227Y828054D01*
X541124Y828207D01*
X541039Y828358D01*
X540971Y828509D01*
X540917Y828662D01*
X540876Y828822D01*
X540848Y828990D01*
X540833Y829171D01*
X540833Y829429D01*
X540710Y829726D01*
Y830563D01*
X540223Y831739D01*
X541005Y833009D01*
X550648D01*
X571093Y812564D01*
X571093Y812564D01*
X572017Y811946D01*
X573108Y811729D01*
X611647D01*
X611800Y811659D01*
X612076Y811650D01*
X612277Y811628D01*
X612462Y811593D01*
X612635Y811546D01*
X612797Y811487D01*
X612952Y811415D01*
X613102Y811330D01*
X613250Y811229D01*
X613396Y811110D01*
X613586Y810930D01*
X613872Y810821D01*
X614374Y810319D01*
X616221Y809554D01*
X618219D01*
X620066Y810319D01*
X621479Y811732D01*
X622244Y813579D01*
Y815577D01*
X621479Y817424D01*
X620066Y818837D01*
X618219Y819602D01*
X617915D01*
X617429Y820775D01*
X623021Y826367D01*
X623819Y825907D01*
X624106Y825656D01*
Y822999D01*
X624816Y820350D01*
X626187Y817976D01*
X628126Y816037D01*
X630500Y814666D01*
X633149Y813956D01*
X635891D01*
X638540Y814666D01*
X640914Y816037D01*
X642853Y817976D01*
X644224Y820350D01*
X644934Y822999D01*
Y825741D01*
X644224Y828390D01*
X642853Y830764D01*
X641682Y831935D01*
X642208Y833205D01*
X657312D01*
X657838Y831935D01*
X656667Y830764D01*
X655296Y828390D01*
X654586Y825741D01*
Y822999D01*
X655296Y820350D01*
X656667Y817976D01*
X658606Y816037D01*
X660980Y814666D01*
X663629Y813956D01*
X666371D01*
X669020Y814666D01*
X671394Y816037D01*
X673333Y817976D01*
X674704Y820350D01*
X675414Y822999D01*
Y825741D01*
X674704Y828390D01*
X673333Y830764D01*
X672162Y831935D01*
X672688Y833205D01*
X679262D01*
X683648Y828820D01*
X683648Y828820D01*
X684572Y828202D01*
X685662Y827985D01*
X733059D01*
X733213Y827915D01*
X733487Y827906D01*
X733689Y827884D01*
X733874Y827849D01*
X734047Y827802D01*
X734209Y827743D01*
X734364Y827671D01*
X734514Y827586D01*
X734661Y827485D01*
X734808Y827366D01*
X734998Y827186D01*
X735284Y827077D01*
X735786Y826575D01*
X737633Y825810D01*
X739631D01*
X741478Y826575D01*
X742891Y827988D01*
X743656Y829835D01*
Y831833D01*
X742891Y833680D01*
X741478Y835093D01*
X739631Y835858D01*
X737633D01*
X735786Y835093D01*
X735284Y834591D01*
X734998Y834482D01*
X734808Y834302D01*
X734662Y834183D01*
X734514Y834082D01*
X734364Y833997D01*
X734209Y833925D01*
X734047Y833866D01*
X733874Y833819D01*
X733689Y833784D01*
X733487Y833762D01*
X733213Y833753D01*
X733059Y833683D01*
X719413D01*
X719246Y834953D01*
X720248Y835221D01*
X722876Y836739D01*
X725022Y838884D01*
X726539Y841512D01*
X727324Y844443D01*
Y847477D01*
X726539Y850408D01*
X725022Y853036D01*
X722876Y855182D01*
X720248Y856699D01*
X717317Y857484D01*
X714283D01*
X711352Y856699D01*
X708724Y855182D01*
X706579Y853036D01*
X705061Y850408D01*
X704276Y847477D01*
Y844443D01*
X705061Y841512D01*
X706579Y838884D01*
X708724Y836739D01*
X711352Y835221D01*
X712354Y834953D01*
X712187Y833683D01*
X686842D01*
X682457Y838068D01*
X681532Y838686D01*
X680442Y838903D01*
X680442Y838903D01*
X676496D01*
X675414Y839356D01*
X675414Y840173D01*
Y860184D01*
D02*
G37*
G36*
X349800Y837280D02*
X338800D01*
X337097Y837056D01*
X335510Y836399D01*
X334147Y835353D01*
X333101Y833990D01*
X332444Y832403D01*
X332220Y830700D01*
X332444Y828997D01*
X333101Y827410D01*
X334147Y826047D01*
X335510Y825001D01*
X337097Y824344D01*
X338800Y824120D01*
X349800D01*
X351503Y824344D01*
X353090Y825001D01*
X354453Y826047D01*
X355499Y827410D01*
X356156Y828997D01*
X356380Y830700D01*
X356156Y832403D01*
X355499Y833990D01*
X354453Y835353D01*
X353090Y836399D01*
X351503Y837056D01*
X349800Y837280D01*
D02*
G37*
G36*
X309000Y837303D02*
X296000D01*
X294430Y836991D01*
X293099Y836101D01*
X292209Y834770D01*
X291897Y833200D01*
Y828200D01*
X292209Y826630D01*
X293099Y825299D01*
X294430Y824409D01*
X296000Y824097D01*
X309000D01*
X310570Y824409D01*
X311901Y825299D01*
X312791Y826630D01*
X313103Y828200D01*
Y833200D01*
X312791Y834770D01*
X311901Y836101D01*
X310570Y836991D01*
X309000Y837303D01*
D02*
G37*
G36*
X803447Y832874D02*
X800873D01*
X798387Y832208D01*
X796159Y830921D01*
X794339Y829101D01*
X793052Y826873D01*
X792386Y824387D01*
Y821813D01*
X793052Y819327D01*
X794339Y817099D01*
X796159Y815279D01*
X798387Y813992D01*
X800873Y813326D01*
X803447D01*
X805933Y813992D01*
X808161Y815279D01*
X809981Y817099D01*
X811268Y819327D01*
X811934Y821813D01*
Y824387D01*
X811268Y826873D01*
X809981Y829101D01*
X808161Y830921D01*
X805933Y832208D01*
X803447Y832874D01*
D02*
G37*
G36*
X340250Y821174D02*
X338350D01*
X336596Y820447D01*
X335253Y819104D01*
X334526Y817350D01*
Y815450D01*
X335253Y813696D01*
X336596Y812353D01*
X338350Y811626D01*
X340250D01*
X342004Y812353D01*
X343347Y813696D01*
X344074Y815450D01*
Y817350D01*
X343347Y819104D01*
X342004Y820447D01*
X340250Y821174D01*
D02*
G37*
G36*
X382159Y822424D02*
X380857D01*
X379653Y821926D01*
X378732Y821005D01*
X378307Y819978D01*
X371148Y812819D01*
X370530Y811894D01*
X370313Y810804D01*
X370313Y810804D01*
Y809342D01*
X363820Y802849D01*
X360678D01*
X359651Y803274D01*
X358349D01*
X357145Y802775D01*
X356225Y801855D01*
X355726Y800651D01*
Y799349D01*
X356225Y798145D01*
X357145Y797225D01*
X358349Y796726D01*
X359651D01*
X360678Y797151D01*
X365000D01*
X365000Y797151D01*
X366090Y797368D01*
X367014Y797986D01*
X375177Y806148D01*
X375177Y806148D01*
X375794Y807072D01*
X376011Y808162D01*
Y809624D01*
X382336Y815949D01*
X383363Y816375D01*
X384283Y817295D01*
X384782Y818499D01*
Y819801D01*
X384283Y821005D01*
X383363Y821926D01*
X382159Y822424D01*
D02*
G37*
G36*
X803447Y807474D02*
X800873D01*
X798387Y806808D01*
X796159Y805521D01*
X794339Y803701D01*
X793052Y801473D01*
X792386Y798987D01*
Y796413D01*
X793052Y793927D01*
X794339Y791699D01*
X796159Y789879D01*
X798387Y788592D01*
X800873Y787926D01*
X803447D01*
X805933Y788592D01*
X808161Y789879D01*
X809981Y791699D01*
X811268Y793927D01*
X811934Y796413D01*
Y798987D01*
X811268Y801473D01*
X809981Y803701D01*
X808161Y805521D01*
X805933Y806808D01*
X803447Y807474D01*
D02*
G37*
G36*
Y782074D02*
X800873D01*
X798387Y781408D01*
X796159Y780121D01*
X794339Y778301D01*
X793052Y776073D01*
X792386Y773587D01*
Y771013D01*
X793052Y768527D01*
X794339Y766299D01*
X796159Y764479D01*
X798387Y763192D01*
X800873Y762526D01*
X803447D01*
X805933Y763192D01*
X808161Y764479D01*
X809981Y766299D01*
X811268Y768527D01*
X811934Y771013D01*
Y773587D01*
X811268Y776073D01*
X809981Y778301D01*
X808161Y780121D01*
X805933Y781408D01*
X803447Y782074D01*
D02*
G37*
G36*
X340250Y763374D02*
X338350D01*
X336596Y762647D01*
X335253Y761304D01*
X334526Y759550D01*
Y757650D01*
X335253Y755896D01*
X336596Y754553D01*
X338350Y753826D01*
X340250D01*
X342004Y754553D01*
X343347Y755896D01*
X344074Y757650D01*
Y759550D01*
X343347Y761304D01*
X342004Y762647D01*
X340250Y763374D01*
D02*
G37*
G36*
X349800Y750880D02*
X338800D01*
X337097Y750656D01*
X335510Y749999D01*
X334147Y748953D01*
X333101Y747590D01*
X332444Y746003D01*
X332220Y744300D01*
X332444Y742597D01*
X333101Y741010D01*
X334147Y739647D01*
X335510Y738601D01*
X337097Y737944D01*
X338800Y737720D01*
X349800D01*
X351503Y737944D01*
X353090Y738601D01*
X354453Y739647D01*
X355499Y741010D01*
X356156Y742597D01*
X356380Y744300D01*
X356156Y746003D01*
X355499Y747590D01*
X354453Y748953D01*
X353090Y749999D01*
X351503Y750656D01*
X349800Y750880D01*
D02*
G37*
G36*
X309000Y750903D02*
X296000D01*
X294430Y750591D01*
X293099Y749701D01*
X292209Y748370D01*
X291897Y746800D01*
Y741800D01*
X292209Y740230D01*
X293099Y738899D01*
X294430Y738009D01*
X296000Y737697D01*
X309000D01*
X310570Y738009D01*
X311901Y738899D01*
X312791Y740230D01*
X313103Y741800D01*
Y746800D01*
X312791Y748370D01*
X311901Y749701D01*
X310570Y750591D01*
X309000Y750903D01*
D02*
G37*
G36*
X803447Y756674D02*
X800873D01*
X798387Y756008D01*
X796159Y754721D01*
X794339Y752901D01*
X793052Y750673D01*
X792386Y748187D01*
Y745613D01*
X793052Y743127D01*
X794339Y740899D01*
X796159Y739079D01*
X798387Y737792D01*
X800873Y737126D01*
X803447D01*
X805933Y737792D01*
X808161Y739079D01*
X809981Y740899D01*
X811268Y743127D01*
X811934Y745613D01*
Y748187D01*
X811268Y750673D01*
X809981Y752901D01*
X808161Y754721D01*
X805933Y756008D01*
X803447Y756674D01*
D02*
G37*
G36*
X666371Y753504D02*
X663629D01*
X660980Y752794D01*
X658606Y751423D01*
X656667Y749484D01*
X655296Y747110D01*
X654586Y744461D01*
Y741719D01*
X655296Y739070D01*
X656667Y736696D01*
X658606Y734757D01*
X660980Y733386D01*
X663629Y732676D01*
X666371D01*
X669020Y733386D01*
X671394Y734757D01*
X673333Y736696D01*
X674704Y739070D01*
X675414Y741719D01*
Y744461D01*
X674704Y747110D01*
X673333Y749484D01*
X671394Y751423D01*
X669020Y752794D01*
X666371Y753504D01*
D02*
G37*
G36*
X401671Y742362D02*
X399953D01*
X398294Y741917D01*
X396806Y741059D01*
X395592Y739844D01*
X394733Y738356D01*
X394288Y736697D01*
Y734979D01*
X394733Y733320D01*
X395592Y731832D01*
X396806Y730618D01*
X398294Y729759D01*
X399953Y729314D01*
X401671D01*
X403330Y729759D01*
X404818Y730618D01*
X405644Y731444D01*
X405784Y731483D01*
X405865Y731625D01*
X406012Y731698D01*
X406139Y731842D01*
X406212Y731907D01*
X406306Y731973D01*
X406429Y732040D01*
X406588Y732106D01*
X406786Y732168D01*
X407024Y732222D01*
X407303Y732263D01*
X407623Y732290D01*
X408024Y732300D01*
X408876Y731397D01*
X408879Y731391D01*
X408921Y731251D01*
X408965Y731053D01*
X408979Y731031D01*
X408976Y731005D01*
X409043Y730914D01*
X409761Y729182D01*
X411174Y727769D01*
X413021Y727004D01*
X415019D01*
X416866Y727769D01*
X418279Y729182D01*
X419044Y731029D01*
Y733027D01*
X418279Y734874D01*
X416866Y736287D01*
X415019Y737052D01*
X413021D01*
X412723Y736928D01*
X412535Y736956D01*
X411463Y737457D01*
X411447Y737481D01*
X411184Y737536D01*
X410712Y737851D01*
X409622Y738068D01*
X409622Y738068D01*
X408620D01*
X408521Y738125D01*
X408437Y738102D01*
X408358Y738138D01*
X407965Y738150D01*
X407671Y738178D01*
X407430Y738221D01*
X407243Y738272D01*
X407110Y738324D01*
X407024Y738370D01*
X406976Y738405D01*
X406951Y738429D01*
X406935Y738451D01*
X406861Y738592D01*
X406743Y738690D01*
X406702Y738839D01*
X406570Y738914D01*
X406032Y739844D01*
X404818Y741059D01*
X403330Y741917D01*
X401671Y742362D01*
D02*
G37*
G36*
X359299Y772894D02*
X357997D01*
X356793Y772395D01*
X355872Y771475D01*
X355374Y770271D01*
Y768969D01*
X355872Y767765D01*
X356793Y766844D01*
X357820Y766419D01*
X360371Y763868D01*
Y728880D01*
X359946Y727853D01*
Y726551D01*
X360444Y725347D01*
X361365Y724426D01*
X362569Y723928D01*
X363871D01*
X365075Y724426D01*
X365995Y725347D01*
X366494Y726551D01*
Y727853D01*
X366069Y728880D01*
Y765048D01*
X365852Y766138D01*
X365234Y767062D01*
X365234Y767062D01*
X361849Y770448D01*
X361423Y771475D01*
X360503Y772395D01*
X359299Y772894D01*
D02*
G37*
G36*
X635891Y728104D02*
X633149D01*
X630500Y727394D01*
X628126Y726023D01*
X627255Y725152D01*
X626954Y725027D01*
X626045Y724114D01*
X624351Y722592D01*
X623604Y722011D01*
X622898Y721524D01*
X622605Y721350D01*
X622147Y721344D01*
X621171Y721556D01*
X619956Y722770D01*
X618468Y723629D01*
X616809Y724074D01*
X615091D01*
X613432Y723629D01*
X611944Y722770D01*
X610729Y721556D01*
X609871Y720068D01*
X609426Y718409D01*
Y716691D01*
X609871Y715032D01*
X610729Y713544D01*
X611944Y712329D01*
X613432Y711471D01*
X615091Y711026D01*
X616809D01*
X618468Y711471D01*
X619956Y712329D01*
X621171Y713544D01*
X621194Y713584D01*
X622294Y713873D01*
X622710Y713848D01*
X622931Y713719D01*
X623648Y713234D01*
X624410Y712654D01*
X626139Y711142D01*
X627070Y710236D01*
X627365Y710118D01*
X628126Y709357D01*
X630500Y707986D01*
X633149Y707276D01*
X635891D01*
X638540Y707986D01*
X640914Y709357D01*
X642853Y711296D01*
X644224Y713670D01*
X644934Y716319D01*
Y719061D01*
X644224Y721710D01*
X642853Y724084D01*
X640914Y726023D01*
X638540Y727394D01*
X635891Y728104D01*
D02*
G37*
G36*
X506192Y745874D02*
X504474D01*
X502815Y745429D01*
X501327Y744570D01*
X500112Y743356D01*
X499254Y741868D01*
X498809Y740209D01*
Y738491D01*
X499254Y736832D01*
X500112Y735344D01*
X501327Y734129D01*
X502815Y733271D01*
X502897Y733249D01*
X502903Y733212D01*
X502916Y733068D01*
X502922Y732840D01*
X503002Y732660D01*
Y728778D01*
X502925Y728620D01*
X502913Y728437D01*
X502895Y728340D01*
X502859Y728219D01*
X502797Y728072D01*
X502705Y727899D01*
X502579Y727703D01*
X502431Y727504D01*
X501960Y726981D01*
X501670Y726704D01*
X501534Y726396D01*
X500899Y725762D01*
X500126Y723895D01*
Y721873D01*
X500899Y720006D01*
X502328Y718577D01*
X504196Y717804D01*
X506217D01*
X508084Y718577D01*
X509513Y720006D01*
X510286Y721873D01*
Y723895D01*
X509513Y725762D01*
X509113Y726161D01*
X509025Y726420D01*
X508455Y727070D01*
X508265Y727322D01*
X508100Y727566D01*
X507971Y727787D01*
X507875Y727981D01*
X507810Y728146D01*
X507771Y728280D01*
X507752Y728383D01*
X507742Y728562D01*
X507664Y728721D01*
Y732660D01*
X507744Y732840D01*
X507750Y733068D01*
X507763Y733212D01*
X507769Y733249D01*
X507851Y733271D01*
X509339Y734129D01*
X510554Y735344D01*
X511412Y736832D01*
X511857Y738491D01*
Y740209D01*
X511412Y741868D01*
X510554Y743356D01*
X509339Y744570D01*
X507851Y745429D01*
X506192Y745874D01*
D02*
G37*
G36*
X482189Y724074D02*
X480471D01*
X478812Y723629D01*
X477324Y722770D01*
X476110Y721556D01*
X475251Y720068D01*
X474806Y718409D01*
Y716691D01*
X475251Y715032D01*
X476110Y713544D01*
X477324Y712329D01*
X478812Y711471D01*
X480471Y711026D01*
X482189D01*
X483848Y711471D01*
X485336Y712329D01*
X486550Y713544D01*
X486590Y713613D01*
X486659Y713639D01*
X486726Y713784D01*
X486863Y713867D01*
X486972Y714014D01*
X487025Y714069D01*
X487096Y714125D01*
X487194Y714184D01*
X487329Y714247D01*
X487504Y714307D01*
X487725Y714360D01*
X487990Y714403D01*
X488300Y714430D01*
X488698Y714441D01*
X488855Y714512D01*
X488881D01*
X489021Y714444D01*
X489040Y714450D01*
X489057Y714442D01*
X489331Y714432D01*
X489526Y714410D01*
X489703Y714375D01*
X489864Y714329D01*
X490012Y714271D01*
X490152Y714202D01*
X490286Y714120D01*
X490418Y714022D01*
X490548Y713906D01*
X490723Y713722D01*
X491023Y713589D01*
X491701Y712912D01*
X493547Y712147D01*
X495546D01*
X497392Y712912D01*
X498806Y714325D01*
X499571Y716171D01*
Y718170D01*
X498806Y720016D01*
X497392Y721430D01*
X495546Y722195D01*
X493547D01*
X491701Y721430D01*
X491358Y721087D01*
X491113Y721007D01*
X490908Y720833D01*
X490746Y720714D01*
X490583Y720611D01*
X490418Y720525D01*
X490248Y720452D01*
X490072Y720392D01*
X489888Y720344D01*
X489693Y720310D01*
X489486Y720288D01*
X489210Y720279D01*
X489056Y720209D01*
X488968D01*
X488817Y720279D01*
X488808Y720275D01*
X488800Y720279D01*
X488404Y720291D01*
X488102Y720319D01*
X487848Y720362D01*
X487644Y720414D01*
X487488Y720471D01*
X487376Y720527D01*
X487301Y720577D01*
X487251Y720621D01*
X487216Y720662D01*
X487123Y720808D01*
X486995Y720899D01*
X486940Y721046D01*
X486810Y721106D01*
X486550Y721556D01*
X485336Y722770D01*
X483848Y723629D01*
X482189Y724074D01*
D02*
G37*
G36*
X811934Y731274D02*
X792386D01*
Y711726D01*
X811934D01*
Y731274D01*
D02*
G37*
G36*
X344017Y731524D02*
X340983D01*
X338052Y730739D01*
X335424Y729221D01*
X333279Y727076D01*
X331761Y724448D01*
X330976Y721517D01*
Y718483D01*
X331761Y715552D01*
X333279Y712924D01*
X335424Y710779D01*
X338052Y709261D01*
X340983Y708476D01*
X344017D01*
X346948Y709261D01*
X349576Y710779D01*
X351721Y712924D01*
X353239Y715552D01*
X354024Y718483D01*
Y721517D01*
X353239Y724448D01*
X351721Y727076D01*
X349576Y729221D01*
X346948Y730739D01*
X344017Y731524D01*
D02*
G37*
G36*
X666371Y728104D02*
X663629D01*
X660980Y727394D01*
X658606Y726023D01*
X656667Y724084D01*
X655296Y721710D01*
X654586Y719061D01*
Y716319D01*
X655296Y713670D01*
X656667Y711296D01*
X658606Y709357D01*
X660980Y707986D01*
X663629Y707276D01*
X666371D01*
X669020Y707986D01*
X671394Y709357D01*
X673333Y711296D01*
X674704Y713670D01*
X675414Y716319D01*
Y719061D01*
X674704Y721710D01*
X673333Y724084D01*
X671394Y726023D01*
X669020Y727394D01*
X666371Y728104D01*
D02*
G37*
%LPD*%
G36*
X582807Y832478D02*
X582514Y832497D01*
X582217Y832479D01*
X581916Y832425D01*
X581612Y832335D01*
X581305Y832208D01*
X580993Y832045D01*
X580679Y831846D01*
X580361Y831610D01*
X580039Y831338D01*
X579714Y831029D01*
X577682Y832589D01*
X577990Y832916D01*
X578254Y833237D01*
X578474Y833551D01*
X578651Y833860D01*
X578784Y834163D01*
X578873Y834461D01*
X578918Y834752D01*
X578920Y835037D01*
X578878Y835316D01*
X578792Y835590D01*
X582807Y832478D01*
D02*
G37*
G36*
X522492Y833180D02*
X522262Y832933D01*
X522058Y832677D01*
X521882Y832413D01*
X521732Y832140D01*
X521609Y831860D01*
X521513Y831571D01*
X521444Y831273D01*
X521401Y830968D01*
X521385Y830654D01*
X521396Y830332D01*
X517716Y833567D01*
X518043Y833596D01*
X518362Y833647D01*
X518670Y833720D01*
X518970Y833816D01*
X519260Y833933D01*
X519541Y834073D01*
X519813Y834234D01*
X520075Y834418D01*
X520328Y834624D01*
X520571Y834852D01*
X522492Y833180D01*
D02*
G37*
G36*
X531229Y833016D02*
X531000Y832770D01*
X530795Y832516D01*
X530615Y832252D01*
X530460Y831980D01*
X530328Y831699D01*
X530222Y831408D01*
X530140Y831109D01*
X530082Y830801D01*
X530048Y830484D01*
X530039Y830158D01*
X526575Y833623D01*
X526900Y833632D01*
X527218Y833665D01*
X527526Y833723D01*
X527825Y833805D01*
X528115Y833912D01*
X528396Y834043D01*
X528669Y834199D01*
X528932Y834379D01*
X529187Y834583D01*
X529433Y834812D01*
X531229Y833016D01*
D02*
G37*
G36*
X736133Y828384D02*
X735896Y828608D01*
X735648Y828809D01*
X735389Y828986D01*
X735119Y829139D01*
X734839Y829269D01*
X734547Y829375D01*
X734244Y829458D01*
X733931Y829517D01*
X733606Y829552D01*
X733270Y829564D01*
Y832104D01*
X733606Y832116D01*
X733931Y832151D01*
X734244Y832210D01*
X734547Y832293D01*
X734839Y832399D01*
X735119Y832529D01*
X735389Y832682D01*
X735648Y832859D01*
X735896Y833060D01*
X736133Y833284D01*
Y828384D01*
D02*
G37*
G36*
X579427Y830742D02*
X579196Y830492D01*
X578994Y830235D01*
X578824Y829971D01*
X578684Y829701D01*
X578575Y829424D01*
X578497Y829140D01*
X578450Y828850D01*
X578433Y828554D01*
X578448Y828251D01*
X578493Y827941D01*
X574462Y830727D01*
X574785Y830793D01*
X575100Y830876D01*
X575404Y830977D01*
X575700Y831096D01*
X575986Y831233D01*
X576263Y831387D01*
X576531Y831560D01*
X576789Y831750D01*
X577038Y831958D01*
X577277Y832185D01*
X579427Y830742D01*
D02*
G37*
G36*
X532840Y825305D02*
X534687Y824540D01*
X535276D01*
X535531Y824417D01*
X535797Y824403D01*
X535990Y824378D01*
X536172Y824340D01*
X536345Y824289D01*
X536511Y824225D01*
X536674Y824147D01*
X536833Y824055D01*
X536993Y823944D01*
X537152Y823815D01*
X537354Y823627D01*
X537512Y823568D01*
X579872Y781208D01*
X579872Y781208D01*
X580797Y780590D01*
X581887Y780373D01*
X581887Y780373D01*
X623504D01*
X623598Y779412D01*
X623598Y779373D01*
Y770014D01*
X625151D01*
X625254Y770077D01*
X625432Y770242D01*
X625559Y770433D01*
X625635Y770649D01*
X625661Y770890D01*
Y770014D01*
X625874D01*
Y766966D01*
X625661D01*
Y765810D01*
X625635Y766051D01*
X625559Y766267D01*
X625432Y766458D01*
X625254Y766623D01*
X625025Y766762D01*
X624746Y766877D01*
X624416Y766966D01*
X624414Y766966D01*
X623598D01*
Y757568D01*
X632996D01*
Y759844D01*
X636044D01*
Y757568D01*
X645442D01*
Y766966D01*
X643166D01*
Y770014D01*
X645442D01*
Y779373D01*
X645442Y779412D01*
X645536Y780373D01*
X649088D01*
X651510Y777951D01*
Y748000D01*
X643710D01*
X642853Y749484D01*
X640914Y751423D01*
X638540Y752794D01*
X635891Y753504D01*
X633149D01*
X630500Y752794D01*
X628126Y751423D01*
X626187Y749484D01*
X625330Y748000D01*
X617000D01*
Y737000D01*
X612000Y732000D01*
X566209D01*
X565874Y732501D01*
Y734499D01*
X565109Y736346D01*
X563696Y737759D01*
X561849Y738524D01*
X559851D01*
X558004Y737759D01*
X556591Y736346D01*
X555826Y734499D01*
Y732501D01*
X555491Y732000D01*
X544000D01*
X520350Y755650D01*
X391160Y755650D01*
X389214Y757596D01*
Y768010D01*
X484038D01*
X490982Y774954D01*
X544830D01*
Y808228D01*
X502910D01*
X495798Y815340D01*
X477028D01*
X476921Y815233D01*
X421709Y814920D01*
X421000Y815625D01*
Y825500D01*
X515816D01*
X516907Y825048D01*
X518905D01*
X519996Y825500D01*
X524572D01*
X525540Y825099D01*
X527539D01*
X528507Y825500D01*
X532645D01*
X532840Y825305D01*
D02*
G37*
G36*
X539184Y829105D02*
X539209Y828789D01*
X539260Y828482D01*
X539337Y828183D01*
X539439Y827893D01*
X539566Y827612D01*
X539719Y827339D01*
X539897Y827076D01*
X540101Y826820D01*
X540331Y826574D01*
X538480Y824833D01*
X538235Y825061D01*
X537981Y825266D01*
X537718Y825448D01*
X537446Y825607D01*
X537165Y825741D01*
X536874Y825853D01*
X536575Y825941D01*
X536266Y826005D01*
X535948Y826047D01*
X535621Y826065D01*
X539183Y829429D01*
X539184Y829105D01*
D02*
G37*
G36*
X553207Y823950D02*
X553241Y823633D01*
X553298Y823325D01*
X553381Y823026D01*
X553487Y822736D01*
X553619Y822454D01*
X553774Y822182D01*
X553954Y821918D01*
X554159Y821664D01*
X554388Y821418D01*
X552592Y819622D01*
X552346Y819851D01*
X552091Y820055D01*
X551828Y820236D01*
X551555Y820391D01*
X551274Y820522D01*
X550984Y820629D01*
X550685Y820711D01*
X550377Y820769D01*
X550060Y820803D01*
X549734Y820811D01*
X553198Y824276D01*
X553207Y823950D01*
D02*
G37*
G36*
X614720Y812128D02*
X614484Y812352D01*
X614236Y812553D01*
X613977Y812730D01*
X613707Y812883D01*
X613427Y813013D01*
X613135Y813119D01*
X612832Y813202D01*
X612519Y813261D01*
X612194Y813296D01*
X611858Y813308D01*
Y815848D01*
X612194Y815860D01*
X612519Y815895D01*
X612832Y815954D01*
X613135Y816037D01*
X613427Y816143D01*
X613707Y816273D01*
X613977Y816426D01*
X614236Y816603D01*
X614484Y816804D01*
X614720Y817028D01*
Y812128D01*
D02*
G37*
G36*
X735477Y796940D02*
X735731Y796736D01*
X735995Y796556D01*
X736267Y796400D01*
X736548Y796269D01*
X736839Y796162D01*
X737138Y796080D01*
X737446Y796022D01*
X737763Y795989D01*
X738089Y795980D01*
X734624Y792515D01*
X734615Y792841D01*
X734582Y793158D01*
X734524Y793466D01*
X734442Y793765D01*
X734335Y794056D01*
X734204Y794337D01*
X734048Y794609D01*
X733868Y794873D01*
X733664Y795127D01*
X733435Y795373D01*
X735231Y797169D01*
X735477Y796940D01*
D02*
G37*
G36*
X664911Y790080D02*
X663573Y790073D01*
X661188Y789929D01*
X660141Y789793D01*
X659192Y789615D01*
X658340Y789393D01*
X657585Y789129D01*
X656928Y788821D01*
X656367Y788471D01*
X655905Y788079D01*
X654109Y789875D01*
X654501Y790338D01*
X654851Y790898D01*
X655159Y791555D01*
X655423Y792310D01*
X655645Y793162D01*
X655824Y794111D01*
X655959Y795158D01*
X656103Y797543D01*
X656111Y798881D01*
X664911Y790080D01*
D02*
G37*
G36*
X685155Y790801D02*
X684926Y790555D01*
X684722Y790301D01*
X684542Y790037D01*
X684386Y789765D01*
X684255Y789484D01*
X684148Y789193D01*
X684066Y788894D01*
X684008Y788586D01*
X683975Y788269D01*
X683966Y787943D01*
X680501Y791408D01*
X680827Y791417D01*
X681144Y791450D01*
X681452Y791508D01*
X681751Y791590D01*
X682042Y791697D01*
X682323Y791828D01*
X682595Y791984D01*
X682859Y792164D01*
X683113Y792368D01*
X683359Y792597D01*
X685155Y790801D01*
D02*
G37*
G36*
X696694Y784048D02*
X696418Y783991D01*
X696126Y783894D01*
X695817Y783757D01*
X695491Y783581D01*
X695148Y783365D01*
X694789Y783109D01*
X694020Y782478D01*
X693611Y782103D01*
X693184Y781688D01*
X691149Y783245D01*
X691458Y783573D01*
X691717Y783889D01*
X691926Y784193D01*
X692086Y784486D01*
X692196Y784767D01*
X692257Y785036D01*
X692268Y785294D01*
X692229Y785540D01*
X692141Y785774D01*
X692002Y785997D01*
X696694Y784048D01*
D02*
G37*
G36*
X656500Y778804D02*
X656859Y778499D01*
X657218Y778230D01*
X657577Y777996D01*
X657937Y777799D01*
X658296Y777637D01*
X658655Y777511D01*
X659014Y777421D01*
X659373Y777367D01*
X659733Y777350D01*
X656141Y773757D01*
X656123Y774117D01*
X656069Y774476D01*
X655979Y774835D01*
X655853Y775194D01*
X655692Y775554D01*
X655494Y775913D01*
X655260Y776272D01*
X654991Y776631D01*
X654686Y776990D01*
X654344Y777350D01*
X656141Y779146D01*
X656500Y778804D01*
D02*
G37*
G36*
X673885Y770299D02*
X673961Y770083D01*
X674088Y769892D01*
X674266Y769727D01*
X674494Y769587D01*
X674774Y769473D01*
X675104Y769384D01*
X675485Y769321D01*
X675917Y769283D01*
X676400Y769270D01*
Y766730D01*
X675917Y766717D01*
X675485Y766679D01*
X675104Y766616D01*
X674774Y766527D01*
X674494Y766413D01*
X674266Y766273D01*
X674088Y766108D01*
X673961Y765917D01*
X673885Y765701D01*
X673859Y765460D01*
Y770540D01*
X673885Y770299D01*
D02*
G37*
%LPC*%
G36*
X609256Y775382D02*
X607404D01*
X605616Y774903D01*
X604012Y773977D01*
X602703Y772668D01*
X601777Y771064D01*
X601298Y769276D01*
Y767424D01*
X601777Y765636D01*
X602703Y764032D01*
X604012Y762723D01*
X605616Y761797D01*
X607404Y761318D01*
X609256D01*
X611044Y761797D01*
X612648Y762723D01*
X613957Y764032D01*
X614883Y765636D01*
X615266Y767068D01*
X615258Y767067D01*
X614841Y767029D01*
X614455Y766966D01*
X614101Y766877D01*
X613779Y766762D01*
X613487Y766623D01*
X613228Y766458D01*
X612999Y766267D01*
X612802Y766051D01*
X612637Y765810D01*
Y770890D01*
X612802Y770649D01*
X612999Y770433D01*
X613228Y770242D01*
X613487Y770077D01*
X613779Y769938D01*
X614101Y769823D01*
X614455Y769734D01*
X614841Y769671D01*
X615258Y769633D01*
X615266Y769632D01*
X614883Y771064D01*
X613957Y772668D01*
X612648Y773977D01*
X611044Y774903D01*
X609256Y775382D01*
D02*
G37*
G36*
X589610Y755214D02*
X587612D01*
X585765Y754449D01*
X584352Y753036D01*
X583587Y751189D01*
Y749191D01*
X584352Y747344D01*
X585765Y745931D01*
X587612Y745166D01*
X589610D01*
X591457Y745931D01*
X592870Y747344D01*
X593635Y749191D01*
Y751189D01*
X592870Y753036D01*
X591457Y754449D01*
X589610Y755214D01*
D02*
G37*
%LPD*%
G36*
X405533Y737571D02*
X405702Y737344D01*
X405905Y737144D01*
X406143Y736970D01*
X406417Y736823D01*
X406725Y736703D01*
X407069Y736609D01*
X407447Y736543D01*
X407861Y736503D01*
X408309Y736489D01*
X407981Y733949D01*
X407533Y733937D01*
X407113Y733903D01*
X406721Y733844D01*
X406358Y733763D01*
X406023Y733658D01*
X405716Y733530D01*
X405437Y733378D01*
X405187Y733204D01*
X404965Y733006D01*
X404771Y732784D01*
X405400Y737825D01*
X405533Y737571D01*
D02*
G37*
G36*
X410754Y735899D02*
X410990Y735713D01*
X411228Y735558D01*
X411467Y735435D01*
X411708Y735343D01*
X411951Y735283D01*
X412195Y735254D01*
X412441Y735257D01*
X412688Y735291D01*
X412937Y735356D01*
X410575Y731408D01*
X410518Y731667D01*
X410440Y731925D01*
X410342Y732183D01*
X410222Y732441D01*
X410081Y732698D01*
X409920Y732955D01*
X409738Y733212D01*
X409535Y733468D01*
X409066Y733979D01*
X410520Y736117D01*
X410754Y735899D01*
D02*
G37*
G36*
X628220Y711417D02*
X627258Y712355D01*
X625453Y713933D01*
X624611Y714574D01*
X623809Y715117D01*
X623047Y715561D01*
X622324Y715906D01*
X621702Y716131D01*
X621420Y716030D01*
X621131Y715889D01*
X620873Y715723D01*
X620648Y715531D01*
X620454Y715314D01*
X620292Y715071D01*
X620221Y720150D01*
X620390Y719911D01*
X620590Y719697D01*
X620821Y719508D01*
X621083Y719344D01*
X621376Y719205D01*
X621668Y719103D01*
X622312Y719338D01*
X623031Y719686D01*
X623787Y720133D01*
X624580Y720680D01*
X625410Y721327D01*
X627181Y722918D01*
X628122Y723863D01*
X628220Y711417D01*
D02*
G37*
G36*
X506712Y734527D02*
X506583Y734442D01*
X506468Y734332D01*
X506369Y734198D01*
X506286Y734040D01*
X506217Y733858D01*
X506164Y733651D01*
X506125Y733420D01*
X506103Y733164D01*
X506095Y732884D01*
X504571D01*
X504563Y733164D01*
X504540Y733420D01*
X504502Y733651D01*
X504449Y733858D01*
X504380Y734040D01*
X504297Y734198D01*
X504198Y734332D01*
X504083Y734442D01*
X503954Y734527D01*
X503809Y734588D01*
X506857D01*
X506712Y734527D01*
D02*
G37*
G36*
X506095Y728461D02*
X506112Y728187D01*
X506163Y727904D01*
X506247Y727613D01*
X506365Y727313D01*
X506517Y727004D01*
X506703Y726687D01*
X506923Y726361D01*
X507176Y726027D01*
X507784Y725333D01*
X502809Y725511D01*
X503144Y725830D01*
X503708Y726457D01*
X503937Y726763D01*
X504131Y727066D01*
X504289Y727365D01*
X504412Y727659D01*
X504501Y727949D01*
X504553Y728235D01*
X504571Y728516D01*
X506095Y728461D01*
D02*
G37*
G36*
X491918Y714860D02*
X491695Y715094D01*
X491460Y715303D01*
X491211Y715487D01*
X490951Y715647D01*
X490677Y715783D01*
X490390Y715893D01*
X490091Y715980D01*
X489779Y716041D01*
X489455Y716078D01*
X489117Y716090D01*
X489265Y718630D01*
X489599Y718642D01*
X489924Y718675D01*
X490239Y718731D01*
X490544Y718810D01*
X490841Y718911D01*
X491128Y719034D01*
X491406Y719180D01*
X491674Y719349D01*
X491934Y719539D01*
X492183Y719753D01*
X491918Y714860D01*
D02*
G37*
G36*
X485886Y719679D02*
X486074Y719459D01*
X486295Y719265D01*
X486549Y719096D01*
X486835Y718954D01*
X487153Y718837D01*
X487504Y718747D01*
X487888Y718682D01*
X488303Y718643D01*
X488752Y718630D01*
X488652Y716090D01*
X488204Y716078D01*
X487786Y716041D01*
X487398Y715979D01*
X487041Y715892D01*
X486715Y715780D01*
X486418Y715643D01*
X486153Y715482D01*
X485917Y715295D01*
X485712Y715084D01*
X485537Y714848D01*
X485730Y719925D01*
X485886Y719679D01*
D02*
G37*
D12*
X358648Y769620D02*
X363220Y765048D01*
Y727202D02*
Y765048D01*
X628679Y836054D02*
X680442D01*
X685662Y830834D01*
X738632D01*
X690258Y797700D02*
X732904D01*
X738124Y792480D01*
X680466Y787908D02*
X690258Y797700D01*
X575056Y827278D02*
Y828167D01*
X583438Y836549D01*
Y837438D01*
X527438Y839922D02*
X553511D01*
X613609Y820984D02*
X628679Y836054D01*
X373162Y810804D02*
X381508Y819150D01*
X365000Y800000D02*
X373162Y808162D01*
Y810804D01*
X400812Y735838D02*
X401431Y735219D01*
X409622D02*
X412813Y732028D01*
X401431Y735219D02*
X409622D01*
X412813Y732028D02*
X414020D01*
X410584Y847416D02*
X410620Y847380D01*
X423382D01*
X423418Y847344D01*
X573108Y814578D02*
X617220D01*
X551828Y835858D02*
X573108Y814578D01*
X517906Y830390D02*
X527438Y839922D01*
X553511D02*
X572449Y820984D01*
X613609D01*
X517906Y830072D02*
Y830390D01*
X532275Y835858D02*
X551828D01*
X526654Y830237D02*
X532275Y835858D01*
X535686Y829423D02*
X581887Y783222D01*
X535686Y829423D02*
Y829564D01*
X653316Y787286D02*
X665000Y798970D01*
X549698Y824311D02*
X586724Y787286D01*
X650268Y783222D02*
X665490Y768000D01*
X586724Y787286D02*
X653316D01*
X581887Y783222D02*
X650268D01*
X526539Y830237D02*
X526654D01*
X359000Y800000D02*
X365000D01*
X694573Y787573D02*
X696000Y789000D01*
X694573Y784873D02*
Y787573D01*
X677700Y768000D02*
X694573Y784873D01*
X665490Y768000D02*
X677700D01*
X634380Y768350D02*
X634520Y768490D01*
X608330Y768350D02*
X634380D01*
X615950Y717550D02*
X616020Y717620D01*
X634450D01*
X634520Y717690D01*
X481520Y717360D02*
X494357D01*
X481330Y717550D02*
X481520Y717360D01*
X494357D02*
X494547Y717171D01*
D14*
X505333Y723011D02*
Y739350D01*
X505206Y722884D02*
X505333Y723011D01*
D64*
X339300Y816400D02*
D03*
Y758600D02*
D03*
D65*
X344300Y744300D02*
D03*
Y830700D02*
D03*
D66*
X302500Y744300D02*
D03*
Y830700D02*
D03*
D67*
X665000Y824370D02*
D03*
Y798970D02*
D03*
X634520Y824370D02*
D03*
Y743090D02*
D03*
X665000Y717690D02*
D03*
X634520Y798970D02*
D03*
X665000Y743090D02*
D03*
X634520Y717690D02*
D03*
D68*
X802160Y746900D02*
D03*
Y772300D02*
D03*
Y848500D02*
D03*
Y797700D02*
D03*
Y823100D02*
D03*
D69*
X665000Y849770D02*
D03*
X634520D02*
D03*
X665000Y768490D02*
D03*
X634520D02*
D03*
D70*
X802160Y721500D02*
D03*
D71*
X715800Y845960D02*
D03*
X342500Y720000D02*
D03*
D72*
X358648Y769620D02*
D03*
X381508Y819150D02*
D03*
X363220Y727202D02*
D03*
X394000Y805000D02*
D03*
X388000D02*
D03*
Y800000D02*
D03*
X394000D02*
D03*
X359000D02*
D03*
X365000Y817500D02*
D03*
Y827500D02*
D03*
Y822500D02*
D03*
X370000Y745000D02*
D03*
Y755000D02*
D03*
X375000Y750000D02*
D03*
X370000D02*
D03*
X375000Y755000D02*
D03*
X370000Y827500D02*
D03*
Y822500D02*
D03*
Y817500D02*
D03*
X375000Y745000D02*
D03*
D73*
X738632Y830834D02*
D03*
X738124Y792480D02*
D03*
X517906Y830072D02*
D03*
X395224Y724154D02*
D03*
X414020Y732028D02*
D03*
X617220Y814578D02*
D03*
X680466Y787908D02*
D03*
X575056Y827278D02*
D03*
X777240Y811022D02*
D03*
X535686Y829564D02*
D03*
X549698Y824311D02*
D03*
X494000Y764000D02*
D03*
X425000Y820000D02*
D03*
X446000D02*
D03*
X392500Y762500D02*
D03*
X480750Y809750D02*
D03*
X492760Y802640D02*
D03*
X575818Y859282D02*
D03*
X598678Y859790D02*
D03*
X521970Y852170D02*
D03*
X505460D02*
D03*
X499110Y835660D02*
D03*
X560850Y733500D02*
D03*
X381000Y729996D02*
D03*
X466090Y734060D02*
D03*
X588611Y750190D02*
D03*
X533662Y714949D02*
D03*
X477520Y735330D02*
D03*
X486285Y732534D02*
D03*
X413372Y714634D02*
D03*
X436750Y723000D02*
D03*
X612394Y853694D02*
D03*
X410584Y847416D02*
D03*
X773430Y760730D02*
D03*
X391160Y847090D02*
D03*
X526539Y830123D02*
D03*
X533567Y750598D02*
D03*
X551640Y755721D02*
D03*
X570098Y736352D02*
D03*
X494547Y717171D02*
D03*
D74*
X610616Y800100D02*
D03*
X710692Y812546D02*
D03*
X505206Y722884D02*
D03*
X419000Y777000D02*
D03*
X433000D02*
D03*
X822000Y849000D02*
D03*
X820000Y824000D02*
D03*
Y798000D02*
D03*
Y747000D02*
D03*
Y772000D02*
D03*
Y721000D02*
D03*
X735000Y717000D02*
D03*
X687000D02*
D03*
X686000Y750000D02*
D03*
D75*
X537850Y781000D02*
D03*
X526850D02*
D03*
X515850D02*
D03*
X537850Y792000D02*
D03*
X526850D02*
D03*
X515850D02*
D03*
X537850Y803000D02*
D03*
X526850D02*
D03*
X515850D02*
D03*
D76*
X423418Y847344D02*
D03*
X696000Y789000D02*
D03*
X608330Y768350D02*
D03*
X400812Y735838D02*
D03*
X583438Y837438D02*
D03*
X481330Y717550D02*
D03*
X615950D02*
D03*
X505333Y739350D02*
D03*
M02*
