G04*
G04 #@! TF.GenerationSoftware,Altium Limited,Altium Designer,25.8.1 (18)*
G04*
G04 Layer_Color=255*
%FSLAX44Y44*%
%MOMM*%
G71*
G04*
G04 #@! TF.SameCoordinates,A26C5E1A-1E18-4250-965A-FF083EC1348B*
G04*
G04*
G04 #@! TF.FilePolarity,Positive*
G04*
G01*
G75*
%ADD63R,1.7780X1.7780*%
%ADD64C,1.7780*%
%ADD65C,0.6500*%
%ADD66O,2.1000X1.0000*%
G04:AMPARAMS|DCode=67|XSize=1.8mm|YSize=1mm|CornerRadius=0.25mm|HoleSize=0mm|Usage=FLASHONLY|Rotation=0.000|XOffset=0mm|YOffset=0mm|HoleType=Round|Shape=RoundedRectangle|*
%AMROUNDEDRECTD67*
21,1,1.8000,0.5000,0,0,0.0*
21,1,1.3000,1.0000,0,0,0.0*
1,1,0.5000,0.6500,-0.2500*
1,1,0.5000,-0.6500,-0.2500*
1,1,0.5000,-0.6500,0.2500*
1,1,0.5000,0.6500,0.2500*
%
%ADD67ROUNDEDRECTD67*%
%ADD68C,2.0000*%
%ADD69C,1.6500*%
%ADD70R,1.6500X1.6500*%
%ADD75C,1.0000*%
D63*
X619760Y768350D02*
D03*
X661670Y849630D02*
D03*
X619760D02*
D03*
X661670Y768350D02*
D03*
D64*
X619760Y717550D02*
D03*
Y742950D02*
D03*
X661670Y798830D02*
D03*
Y824230D02*
D03*
X619760Y798830D02*
D03*
Y824230D02*
D03*
X661670Y717550D02*
D03*
Y742950D02*
D03*
D65*
X339300Y816400D02*
D03*
Y758600D02*
D03*
D66*
X344300Y744300D02*
D03*
Y830700D02*
D03*
D67*
X302500Y744300D02*
D03*
Y830700D02*
D03*
D68*
X735330Y722630D02*
D03*
X342500Y720000D02*
D03*
D69*
X802160Y746900D02*
D03*
Y772300D02*
D03*
Y848500D02*
D03*
Y797700D02*
D03*
Y823100D02*
D03*
D70*
Y721500D02*
D03*
D75*
X696000Y789000D02*
D03*
X583438Y837438D02*
D03*
X598170Y717550D02*
D03*
X505333Y739350D02*
D03*
X400812Y735838D02*
D03*
X481330Y717550D02*
D03*
X597470Y768350D02*
D03*
X423418Y847344D02*
D03*
M02*
