G04*
G04 #@! TF.GenerationSoftware,Altium Limited,Altium Designer,25.8.1 (18)*
G04*
G04 Layer_Color=255*
%FSLAX44Y44*%
%MOMM*%
G71*
G04*
G04 #@! TF.SameCoordinates,A26C5E1A-1E18-4250-965A-FF083EC1348B*
G04*
G04*
G04 #@! TF.FilePolarity,Positive*
G04*
G01*
G75*
%ADD19R,1.4000X0.9000*%
%ADD20R,0.6500X1.2500*%
%ADD21R,0.7000X0.6000*%
%ADD22R,0.7620X0.7620*%
%ADD23R,1.1684X0.7620*%
%ADD24R,0.8500X1.5000*%
%ADD25O,0.2500X1.0000*%
%ADD26O,1.0000X0.2500*%
%ADD27R,1.3000X1.1000*%
%ADD28R,1.1500X0.3000*%
%ADD29R,1.1500X0.6000*%
%ADD30R,1.5000X0.8500*%
%ADD31R,1.1000X0.6000*%
%AMCUSTOMSHAPE53*
4,1,5,-1.6250,-1.6250,-1.6250,0.8125,-0.8125,1.6250,1.6250,1.6250,1.6250,-1.6250,-1.6250,-1.6250,0.0*%
%ADD53CUSTOMSHAPE53*%

%ADD63R,1.7780X1.7780*%
%ADD64C,1.7780*%
%ADD65C,0.6500*%
%ADD66O,2.1000X1.0000*%
G04:AMPARAMS|DCode=67|XSize=1.8mm|YSize=1mm|CornerRadius=0.25mm|HoleSize=0mm|Usage=FLASHONLY|Rotation=0.000|XOffset=0mm|YOffset=0mm|HoleType=Round|Shape=RoundedRectangle|*
%AMROUNDEDRECTD67*
21,1,1.8000,0.5000,0,0,0.0*
21,1,1.3000,1.0000,0,0,0.0*
1,1,0.5000,0.6500,-0.2500*
1,1,0.5000,-0.6500,-0.2500*
1,1,0.5000,-0.6500,0.2500*
1,1,0.5000,0.6500,0.2500*
%
%ADD67ROUNDEDRECTD67*%
%ADD68C,2.0000*%
%ADD69C,1.6500*%
%ADD70R,1.6500X1.6500*%
D19*
X759800Y811530D02*
D03*
X738800Y802030D02*
D03*
Y821030D02*
D03*
Y751230D02*
D03*
Y770230D02*
D03*
X759800Y760730D02*
D03*
D20*
X560850Y746000D02*
D03*
X570250D02*
D03*
X551450D02*
D03*
Y721000D02*
D03*
X570250D02*
D03*
D21*
X585100Y775000D02*
D03*
X565100Y784500D02*
D03*
Y765500D02*
D03*
Y841500D02*
D03*
Y822500D02*
D03*
X585100Y832000D02*
D03*
D22*
X392948Y771006D02*
D03*
X373644Y793866D02*
D03*
Y771006D02*
D03*
D23*
X390662Y793866D02*
D03*
D24*
X496100Y751000D02*
D03*
X513600Y751000D02*
D03*
X734200Y843280D02*
D03*
X751700Y843280D02*
D03*
X466250Y718500D02*
D03*
X483750Y718500D02*
D03*
X496100Y732250D02*
D03*
X513600Y732250D02*
D03*
X380860Y716026D02*
D03*
X363360Y716026D02*
D03*
X551040Y853440D02*
D03*
X533540Y853440D02*
D03*
X496710Y853440D02*
D03*
X514210Y853440D02*
D03*
D25*
X536850Y815250D02*
D03*
X531850D02*
D03*
X526850D02*
D03*
X521850D02*
D03*
Y768750D02*
D03*
X526850D02*
D03*
X531850D02*
D03*
X536850D02*
D03*
X541850D02*
D03*
Y815250D02*
D03*
X516850D02*
D03*
X511850Y768750D02*
D03*
X516850D02*
D03*
X511850Y815250D02*
D03*
D26*
X503600Y797000D02*
D03*
X550100Y787000D02*
D03*
X503600Y807000D02*
D03*
Y802000D02*
D03*
X550100Y777000D02*
D03*
Y782000D02*
D03*
Y792000D02*
D03*
Y797000D02*
D03*
Y802000D02*
D03*
Y807000D02*
D03*
X503600Y792000D02*
D03*
Y787000D02*
D03*
Y782000D02*
D03*
Y777000D02*
D03*
D27*
X698500Y716280D02*
D03*
Y734060D02*
D03*
X460250Y819610D02*
D03*
Y837390D02*
D03*
X698500Y823506D02*
D03*
Y841286D02*
D03*
D28*
X350050Y805000D02*
D03*
Y800000D02*
D03*
Y795000D02*
D03*
Y770000D02*
D03*
Y775000D02*
D03*
Y780000D02*
D03*
Y790000D02*
D03*
Y785000D02*
D03*
D29*
Y763500D02*
D03*
Y811500D02*
D03*
Y755500D02*
D03*
Y819500D02*
D03*
D30*
X588600Y740250D02*
D03*
Y722750D02*
D03*
X410958Y819434D02*
D03*
Y836934D02*
D03*
X395478Y752208D02*
D03*
Y734708D02*
D03*
X477500Y763750D02*
D03*
Y746250D02*
D03*
X455000D02*
D03*
Y763750D02*
D03*
X447250Y732000D02*
D03*
Y714500D02*
D03*
X426500Y714750D02*
D03*
Y732250D02*
D03*
X391160Y836790D02*
D03*
X391160Y819290D02*
D03*
X480750Y837500D02*
D03*
X480750Y820000D02*
D03*
X533600Y725250D02*
D03*
X533600Y742750D02*
D03*
X698500Y790080D02*
D03*
X698500Y807580D02*
D03*
X698500Y772020D02*
D03*
X698500Y754520D02*
D03*
D31*
X471000Y787500D02*
D03*
X444000D02*
D03*
Y797500D02*
D03*
X471000D02*
D03*
D53*
X526850Y792000D02*
D03*
D63*
X619760Y768350D02*
D03*
X661670Y849630D02*
D03*
X619760D02*
D03*
X661670Y768350D02*
D03*
D64*
X619760Y717550D02*
D03*
Y742950D02*
D03*
X661670Y798830D02*
D03*
Y824230D02*
D03*
X619760Y798830D02*
D03*
Y824230D02*
D03*
X661670Y717550D02*
D03*
Y742950D02*
D03*
D65*
X339300Y816400D02*
D03*
Y758600D02*
D03*
D66*
X344300Y744300D02*
D03*
Y830700D02*
D03*
D67*
X302500Y744300D02*
D03*
Y830700D02*
D03*
D68*
X735330Y722630D02*
D03*
X342500Y720000D02*
D03*
D69*
X802160Y746900D02*
D03*
Y772300D02*
D03*
Y848500D02*
D03*
Y797700D02*
D03*
Y823100D02*
D03*
D70*
Y721500D02*
D03*
M02*
