G04*
G04 #@! TF.GenerationSoftware,Altium Limited,Altium Designer,25.8.1 (18)*
G04*
G04 Layer_Physical_Order=1*
G04 Layer_Color=255*
%FSLAX44Y44*%
%MOMM*%
G71*
G04*
G04 #@! TF.SameCoordinates,A26C5E1A-1E18-4250-965A-FF083EC1348B*
G04*
G04*
G04 #@! TF.FilePolarity,Positive*
G04*
G01*
G75*
%ADD12C,0.2540*%
%ADD19R,1.4000X0.9000*%
%ADD20R,0.6500X1.2500*%
%ADD21R,0.7000X0.6000*%
%ADD22R,0.7620X0.7620*%
%ADD23R,1.1684X0.7620*%
%ADD24R,0.8500X1.5000*%
%ADD25O,0.2500X1.0000*%
%ADD26O,1.0000X0.2500*%
%ADD27R,1.3000X1.1000*%
%ADD28R,1.1500X0.3000*%
%ADD29R,1.1500X0.6000*%
%ADD30R,1.5000X0.8500*%
%ADD31R,1.1000X0.6000*%
%AMCUSTOMSHAPE53*
4,1,5,-1.6250,-1.6250,-1.6250,0.8125,-0.8125,1.6250,1.6250,1.6250,1.6250,-1.6250,-1.6250,-1.6250,0.0*%
%ADD53CUSTOMSHAPE53*%

%ADD54C,0.4572*%
%ADD55C,0.2286*%
%ADD56C,0.3048*%
%ADD57C,0.5080*%
%ADD58C,0.4992*%
%ADD59C,0.5000*%
%ADD60R,1.1684X1.6944*%
%ADD61R,0.9686X1.5308*%
%ADD62R,1.0000X1.5000*%
%ADD63R,1.7780X1.7780*%
%ADD64C,1.7780*%
%ADD65C,0.6500*%
%ADD66O,2.1000X1.0000*%
G04:AMPARAMS|DCode=67|XSize=1.8mm|YSize=1mm|CornerRadius=0.25mm|HoleSize=0mm|Usage=FLASHONLY|Rotation=0.000|XOffset=0mm|YOffset=0mm|HoleType=Round|Shape=RoundedRectangle|*
%AMROUNDEDRECTD67*
21,1,1.8000,0.5000,0,0,0.0*
21,1,1.3000,1.0000,0,0,0.0*
1,1,0.5000,0.6500,-0.2500*
1,1,0.5000,-0.6500,-0.2500*
1,1,0.5000,-0.6500,0.2500*
1,1,0.5000,0.6500,0.2500*
%
%ADD67ROUNDEDRECTD67*%
%ADD68C,2.0000*%
%ADD69C,1.6500*%
%ADD70R,1.6500X1.6500*%
%ADD71C,0.7000*%
%ADD72C,0.5000*%
%ADD73C,0.3500*%
%ADD74C,0.7112*%
G36*
X610900Y847230D02*
X610875Y847471D01*
X610799Y847687D01*
X610672Y847878D01*
X610494Y848043D01*
X610266Y848183D01*
X609986Y848297D01*
X609656Y848386D01*
X609275Y848449D01*
X608843Y848487D01*
X608360Y848500D01*
Y851040D01*
X608843Y851053D01*
X609275Y851091D01*
X609656Y851154D01*
X609986Y851243D01*
X610266Y851357D01*
X610494Y851497D01*
X610672Y851662D01*
X610799Y851853D01*
X610875Y852069D01*
X610900Y852310D01*
Y847230D01*
D02*
G37*
G36*
X555277Y849203D02*
X555331Y848844D01*
X555421Y848485D01*
X555547Y848126D01*
X555709Y847767D01*
X555906Y847407D01*
X556140Y847048D01*
X556409Y846689D01*
X556714Y846330D01*
X557056Y845971D01*
X555260Y844174D01*
X554900Y844516D01*
X554541Y844821D01*
X554182Y845090D01*
X553823Y845324D01*
X553464Y845521D01*
X553104Y845683D01*
X552745Y845809D01*
X552386Y845899D01*
X552027Y845953D01*
X551667Y845971D01*
X555260Y849563D01*
X555277Y849203D01*
D02*
G37*
G36*
X537777Y849203D02*
X537831Y848844D01*
X537921Y848485D01*
X538047Y848126D01*
X538209Y847766D01*
X538406Y847407D01*
X538640Y847048D01*
X538909Y846689D01*
X539214Y846330D01*
X539556Y845971D01*
X537760Y844174D01*
X537400Y844516D01*
X537041Y844821D01*
X536682Y845090D01*
X536323Y845324D01*
X535964Y845521D01*
X535604Y845683D01*
X535245Y845809D01*
X534886Y845899D01*
X534527Y845953D01*
X534167Y845971D01*
X537760Y849563D01*
X537777Y849203D01*
D02*
G37*
G36*
X532913Y845971D02*
X532553Y845953D01*
X532194Y845899D01*
X531835Y845809D01*
X531476Y845683D01*
X531116Y845521D01*
X530757Y845324D01*
X530398Y845090D01*
X530039Y844821D01*
X529680Y844516D01*
X529320Y844174D01*
X527524Y845971D01*
X527866Y846330D01*
X528171Y846689D01*
X528440Y847048D01*
X528674Y847407D01*
X528871Y847766D01*
X529033Y848126D01*
X529159Y848485D01*
X529249Y848844D01*
X529302Y849203D01*
X529320Y849563D01*
X532913Y845971D01*
D02*
G37*
G36*
X514355Y845971D02*
X515620D01*
X515379Y845945D01*
X515163Y845869D01*
X514972Y845742D01*
X514807Y845564D01*
X514668Y845335D01*
X514553Y845056D01*
X514515Y844913D01*
X514539Y844825D01*
X514645Y844533D01*
X514775Y844253D01*
X514928Y843983D01*
X515105Y843724D01*
X515306Y843476D01*
X515530Y843240D01*
X510630D01*
X510854Y843476D01*
X511055Y843724D01*
X511232Y843983D01*
X511385Y844253D01*
X511515Y844533D01*
X511621Y844825D01*
X511645Y844913D01*
X511607Y845056D01*
X511493Y845335D01*
X511353Y845564D01*
X511188Y845742D01*
X510997Y845869D01*
X510781Y845945D01*
X510540Y845971D01*
X511805D01*
X511810Y846102D01*
X514350D01*
X514355Y845971D01*
D02*
G37*
G36*
X656403Y840770D02*
X656043Y840752D01*
X655684Y840699D01*
X655325Y840609D01*
X654966Y840483D01*
X654606Y840322D01*
X654247Y840124D01*
X653888Y839890D01*
X653529Y839621D01*
X653170Y839316D01*
X652811Y838974D01*
X651014Y840770D01*
X651356Y841130D01*
X651661Y841489D01*
X651930Y841848D01*
X652164Y842207D01*
X652362Y842567D01*
X652523Y842926D01*
X652649Y843285D01*
X652739Y843644D01*
X652793Y844003D01*
X652811Y844363D01*
X656403Y840770D01*
D02*
G37*
G36*
X561631Y838960D02*
X561605Y839201D01*
X561529Y839417D01*
X561402Y839608D01*
X561224Y839773D01*
X560995Y839912D01*
X560716Y840027D01*
X560386Y840116D01*
X560005Y840179D01*
X559573Y840217D01*
X559090Y840230D01*
Y842770D01*
X559573Y842783D01*
X560005Y842821D01*
X560386Y842884D01*
X560716Y842973D01*
X560995Y843087D01*
X561224Y843227D01*
X561402Y843392D01*
X561529Y843583D01*
X561605Y843799D01*
X561631Y844040D01*
Y838960D01*
D02*
G37*
G36*
X695623Y835816D02*
X695263Y835798D01*
X694904Y835745D01*
X694545Y835655D01*
X694186Y835529D01*
X693827Y835367D01*
X693467Y835170D01*
X693108Y834936D01*
X692749Y834667D01*
X692390Y834362D01*
X692030Y834020D01*
X690234Y835816D01*
X690576Y836176D01*
X690881Y836535D01*
X691150Y836894D01*
X691384Y837253D01*
X691581Y837613D01*
X691743Y837972D01*
X691869Y838331D01*
X691959Y838690D01*
X692012Y839049D01*
X692030Y839409D01*
X695623Y835816D01*
D02*
G37*
G36*
X538937Y832454D02*
X538633Y832511D01*
X538336Y832536D01*
X538044Y832528D01*
X537758Y832489D01*
X537477Y832417D01*
X537203Y832313D01*
X536934Y832177D01*
X536671Y832009D01*
X536413Y831808D01*
X536162Y831576D01*
X534810Y833816D01*
X535035Y834054D01*
X535244Y834301D01*
X535437Y834557D01*
X535614Y834822D01*
X535774Y835097D01*
X535918Y835380D01*
X536045Y835672D01*
X536157Y835973D01*
X536251Y836284D01*
X536330Y836603D01*
X538937Y832454D01*
D02*
G37*
G36*
X673632Y831459D02*
X673323Y831091D01*
X673010Y830600D01*
X672692Y829986D01*
X672369Y829249D01*
X671709Y827405D01*
X671031Y825069D01*
X670334Y822240D01*
X663833Y832853D01*
X665011Y832587D01*
X666115Y832399D01*
X667144Y832288D01*
X668100Y832256D01*
X668981Y832301D01*
X669788Y832423D01*
X670520Y832624D01*
X671178Y832902D01*
X671762Y833258D01*
X672272Y833692D01*
X673632Y831459D01*
D02*
G37*
G36*
X526599Y833527D02*
X526283Y833442D01*
X525975Y833342D01*
X525676Y833225D01*
X525385Y833093D01*
X525104Y832946D01*
X524831Y832783D01*
X524567Y832605D01*
X524313Y832411D01*
X524066Y832201D01*
X523829Y831976D01*
X521543Y833282D01*
X521776Y833535D01*
X521977Y833792D01*
X522144Y834055D01*
X522278Y834323D01*
X522380Y834596D01*
X522449Y834875D01*
X522484Y835159D01*
X522487Y835448D01*
X522457Y835743D01*
X522394Y836043D01*
X526599Y833527D01*
D02*
G37*
G36*
X553312Y834006D02*
X553383Y833907D01*
X553479Y833820D01*
X553599Y833745D01*
X553743Y833681D01*
X553912Y833629D01*
X554106Y833589D01*
X554324Y833560D01*
X554566Y833542D01*
X554833Y833537D01*
X554792Y830997D01*
X554398Y830993D01*
X553164Y830911D01*
X552941Y830874D01*
X552753Y830830D01*
X552599Y830779D01*
X552480Y830721D01*
X552396Y830656D01*
X553265Y834116D01*
X553312Y834006D01*
D02*
G37*
G36*
X588595Y834299D02*
X588671Y834083D01*
X588798Y833892D01*
X588976Y833727D01*
X589204Y833587D01*
X589484Y833473D01*
X589814Y833384D01*
X590195Y833321D01*
X590627Y833283D01*
X591110Y833270D01*
Y830730D01*
X590627Y830717D01*
X590195Y830679D01*
X589814Y830616D01*
X589484Y830527D01*
X589204Y830413D01*
X588976Y830273D01*
X588798Y830108D01*
X588671Y829917D01*
X588595Y829701D01*
X588569Y829460D01*
Y834540D01*
X588595Y834299D01*
D02*
G37*
G36*
X549875Y829620D02*
X549549Y829611D01*
X549232Y829578D01*
X548924Y829520D01*
X548625Y829438D01*
X548334Y829331D01*
X548053Y829200D01*
X547781Y829044D01*
X547517Y828864D01*
X547262Y828660D01*
X547017Y828431D01*
X545221Y830227D01*
X545450Y830472D01*
X545654Y830727D01*
X545834Y830991D01*
X545990Y831263D01*
X546121Y831544D01*
X546228Y831835D01*
X546310Y832134D01*
X546368Y832442D01*
X546401Y832759D01*
X546410Y833085D01*
X549875Y829620D01*
D02*
G37*
G36*
X561990Y826924D02*
X562349Y826619D01*
X562708Y826350D01*
X563067Y826116D01*
X563427Y825919D01*
X563786Y825757D01*
X564145Y825631D01*
X564504Y825541D01*
X564863Y825488D01*
X565223Y825470D01*
X561631Y821878D01*
X561613Y822237D01*
X561559Y822596D01*
X561469Y822955D01*
X561343Y823314D01*
X561181Y823673D01*
X560984Y824033D01*
X560750Y824392D01*
X560481Y824751D01*
X560176Y825110D01*
X559834Y825470D01*
X561631Y827266D01*
X561990Y826924D01*
D02*
G37*
G36*
X582847Y821659D02*
X582624Y821892D01*
X582388Y822101D01*
X582139Y822285D01*
X581878Y822445D01*
X581604Y822580D01*
X581317Y822691D01*
X581018Y822776D01*
X580706Y822838D01*
X580381Y822875D01*
X580044Y822887D01*
X580185Y825427D01*
X580519Y825438D01*
X580843Y825472D01*
X581158Y825528D01*
X581464Y825607D01*
X581760Y825708D01*
X582047Y825832D01*
X582324Y825978D01*
X582593Y826147D01*
X582851Y826338D01*
X583101Y826552D01*
X582847Y821659D01*
D02*
G37*
G36*
X588953Y823414D02*
X588970Y823099D01*
X589014Y822794D01*
X589085Y822496D01*
X589182Y822207D01*
X589305Y821926D01*
X589455Y821654D01*
X589632Y821390D01*
X589836Y821134D01*
X590065Y820887D01*
X588156Y819204D01*
X587913Y819432D01*
X587659Y819637D01*
X587397Y819821D01*
X587125Y819982D01*
X586844Y820121D01*
X586554Y820237D01*
X586255Y820331D01*
X585946Y820403D01*
X585628Y820453D01*
X585300Y820480D01*
X588962Y823736D01*
X588953Y823414D01*
D02*
G37*
G36*
X627060Y829512D02*
X628848Y827927D01*
X629684Y827283D01*
X630482Y826738D01*
X631241Y826292D01*
X631962Y825946D01*
X632644Y825698D01*
X633288Y825549D01*
X633893Y825500D01*
Y822960D01*
X633288Y822911D01*
X632644Y822762D01*
X631962Y822514D01*
X631241Y822168D01*
X630482Y821722D01*
X629684Y821177D01*
X628848Y820533D01*
X627060Y818948D01*
X626109Y818007D01*
Y830453D01*
X627060Y829512D01*
D02*
G37*
G36*
X539862Y820935D02*
X539526Y820581D01*
X539225Y820226D01*
X538960Y819871D01*
X538730Y819516D01*
X538535Y819160D01*
X538376Y818803D01*
X538253Y818446D01*
X538164Y818088D01*
X538111Y817729D01*
X538093Y817370D01*
X536374Y820149D01*
X538185Y822850D01*
X539862Y820935D01*
D02*
G37*
G36*
X383690Y816967D02*
X383669Y817141D01*
X383603Y817296D01*
X383494Y817433D01*
X383341Y817551D01*
X383145Y817652D01*
X382905Y817734D01*
X382621Y817798D01*
X382294Y817843D01*
X381923Y817871D01*
X381508Y817880D01*
Y820420D01*
X381923Y820429D01*
X382621Y820502D01*
X382905Y820566D01*
X383145Y820648D01*
X383341Y820749D01*
X383494Y820867D01*
X383603Y821004D01*
X383669Y821159D01*
X383690Y821332D01*
Y816967D01*
D02*
G37*
G36*
X700799Y818011D02*
X700583Y817935D01*
X700392Y817808D01*
X700227Y817630D01*
X700088Y817402D01*
X699973Y817122D01*
X699884Y816792D01*
X699821Y816411D01*
X699783Y815979D01*
X699770Y815497D01*
X697230D01*
X697217Y815979D01*
X697179Y816411D01*
X697116Y816792D01*
X697027Y817122D01*
X696913Y817402D01*
X696773Y817630D01*
X696608Y817808D01*
X696417Y817935D01*
X696201Y818011D01*
X695960Y818036D01*
X701040D01*
X700799Y818011D01*
D02*
G37*
G36*
X418478Y823388D02*
X418631Y823151D01*
X418885Y822941D01*
X419240Y822760D01*
X419697Y822606D01*
X420256Y822480D01*
X420917Y822383D01*
X421679Y822313D01*
X423507Y822257D01*
Y817177D01*
X422542Y817157D01*
X420917Y817000D01*
X420256Y816863D01*
X419697Y816686D01*
X419240Y816470D01*
X418885Y816215D01*
X418631Y815921D01*
X418478Y815587D01*
X418428Y815214D01*
Y823653D01*
X418478Y823388D01*
D02*
G37*
G36*
X570271Y812890D02*
X570034Y813114D01*
X569786Y813315D01*
X569527Y813492D01*
X569257Y813645D01*
X568977Y813775D01*
X568685Y813881D01*
X568382Y813964D01*
X568069Y814023D01*
X567744Y814058D01*
X567408Y814070D01*
Y816610D01*
X567744Y816622D01*
X568069Y816657D01*
X568382Y816716D01*
X568685Y816799D01*
X568977Y816905D01*
X569257Y817035D01*
X569527Y817188D01*
X569786Y817365D01*
X570034Y817566D01*
X570271Y817790D01*
Y812890D01*
D02*
G37*
G36*
X699783Y813857D02*
X699821Y813425D01*
X699884Y813044D01*
X699973Y812714D01*
X700088Y812434D01*
X700227Y812206D01*
X700392Y812028D01*
X700583Y811901D01*
X700799Y811825D01*
X701040Y811799D01*
X695960D01*
X696201Y811825D01*
X696417Y811901D01*
X696608Y812028D01*
X696773Y812206D01*
X696913Y812434D01*
X697027Y812714D01*
X697116Y813044D01*
X697179Y813425D01*
X697217Y813857D01*
X697230Y814340D01*
X699770D01*
X699783Y813857D01*
D02*
G37*
G36*
X408111Y815214D02*
X404520Y811623D01*
X400928Y815215D01*
X403489Y817775D01*
X408111Y815214D01*
D02*
G37*
G36*
X355819Y814301D02*
X355967Y814149D01*
X356214Y814016D01*
X356560Y813900D01*
X357005Y813802D01*
X357549Y813722D01*
X358933Y813616D01*
X360713Y813580D01*
Y808500D01*
X355770Y808531D01*
Y814470D01*
X355819Y814301D01*
D02*
G37*
G36*
X608526Y811216D02*
X608774Y811015D01*
X609033Y810838D01*
X609303Y810685D01*
X609583Y810555D01*
X609875Y810449D01*
X610178Y810366D01*
X610491Y810307D01*
X610816Y810272D01*
X611152Y810260D01*
Y807720D01*
X610816Y807708D01*
X610491Y807673D01*
X610178Y807614D01*
X609875Y807531D01*
X609583Y807425D01*
X609303Y807295D01*
X609033Y807142D01*
X608774Y806965D01*
X608526Y806764D01*
X608289Y806540D01*
Y811440D01*
X608526Y811216D01*
D02*
G37*
G36*
X582507Y807501D02*
X582181Y807493D01*
X581864Y807459D01*
X581556Y807401D01*
X581257Y807319D01*
X580967Y807212D01*
X580685Y807081D01*
X580413Y806926D01*
X580149Y806746D01*
X579895Y806541D01*
X579649Y806312D01*
X577853Y808108D01*
X578082Y808354D01*
X578287Y808608D01*
X578467Y808872D01*
X578622Y809144D01*
X578754Y809426D01*
X578860Y809716D01*
X578942Y810015D01*
X579000Y810323D01*
X579034Y810640D01*
X579043Y810966D01*
X582507Y807501D01*
D02*
G37*
G36*
X355795Y801432D02*
X355871Y801398D01*
X355998Y801368D01*
X356176Y801342D01*
X356684Y801302D01*
X358310Y801270D01*
Y798730D01*
X357827Y798728D01*
X355871Y798602D01*
X355795Y798568D01*
X355770Y798531D01*
Y801469D01*
X355795Y801432D01*
D02*
G37*
G36*
X584165Y799140D02*
X583839Y799131D01*
X583522Y799098D01*
X583214Y799040D01*
X582915Y798958D01*
X582624Y798851D01*
X582343Y798720D01*
X582071Y798564D01*
X581807Y798384D01*
X581553Y798180D01*
X581307Y797951D01*
X579511Y799747D01*
X579740Y799993D01*
X579944Y800247D01*
X580124Y800511D01*
X580280Y800783D01*
X580411Y801064D01*
X580518Y801355D01*
X580600Y801654D01*
X580658Y801962D01*
X580691Y802279D01*
X580700Y802605D01*
X584165Y799140D01*
D02*
G37*
G36*
X355785Y796196D02*
X355831Y796128D01*
X355908Y796069D01*
X356016Y796017D01*
X356154Y795974D01*
X356324Y795938D01*
X356524Y795910D01*
X357016Y795879D01*
X357309Y795875D01*
Y793589D01*
X355770Y793531D01*
Y796271D01*
X355785Y796196D01*
D02*
G37*
G36*
X612978Y793083D02*
X612122Y794055D01*
X610488Y795694D01*
X609708Y796360D01*
X608953Y796923D01*
X608224Y797384D01*
X607520Y797742D01*
X606841Y797998D01*
X606187Y798152D01*
X605558Y798203D01*
X605744Y800743D01*
X606320Y800790D01*
X606949Y800933D01*
X607630Y801171D01*
X608364Y801504D01*
X609151Y801931D01*
X609991Y802454D01*
X611829Y803785D01*
X612827Y804593D01*
X613878Y805496D01*
X612978Y793083D01*
D02*
G37*
G36*
X344330Y788531D02*
X342715Y788500D01*
Y790786D01*
X343022Y790791D01*
X343539Y790828D01*
X343749Y790862D01*
X343927Y790904D01*
X344072Y790956D01*
X344185Y791018D01*
X344266Y791088D01*
X344314Y791169D01*
X344330Y791258D01*
Y788531D01*
D02*
G37*
G36*
X377454Y787801D02*
X375168D01*
X375157Y788235D01*
X375122Y788624D01*
X375065Y788967D01*
X374985Y789264D01*
X374882Y789515D01*
X374757Y789721D01*
X374608Y789881D01*
X374436Y789995D01*
X374242Y790064D01*
X374025Y790087D01*
X377424D01*
X377454Y787801D01*
D02*
G37*
G36*
X373046Y790064D02*
X372851Y789995D01*
X372680Y789881D01*
X372532Y789721D01*
X372406Y789515D01*
X372303Y789264D01*
X372223Y788967D01*
X372166Y788624D01*
X372131Y788235D01*
X372120Y787801D01*
X369834D01*
X369865Y790087D01*
X373263D01*
X373046Y790064D01*
D02*
G37*
G36*
X609299Y792119D02*
X609332Y791802D01*
X609390Y791494D01*
X609472Y791195D01*
X609579Y790904D01*
X609710Y790623D01*
X609866Y790351D01*
X610046Y790087D01*
X610250Y789833D01*
X610479Y789587D01*
X608683Y787791D01*
X608438Y788020D01*
X608183Y788224D01*
X607919Y788404D01*
X607647Y788560D01*
X607366Y788691D01*
X607075Y788798D01*
X606776Y788880D01*
X606468Y788938D01*
X606151Y788971D01*
X605825Y788980D01*
X609290Y792445D01*
X609299Y792119D01*
D02*
G37*
G36*
X691031Y787394D02*
X691005Y787636D01*
X690929Y787852D01*
X690802Y788042D01*
X690624Y788207D01*
X690396Y788347D01*
X690116Y788461D01*
X689786Y788550D01*
X689405Y788614D01*
X688973Y788652D01*
X688491Y788664D01*
Y791205D01*
X688973Y791217D01*
X689405Y791255D01*
X689786Y791319D01*
X690116Y791408D01*
X690396Y791522D01*
X690624Y791662D01*
X690802Y791827D01*
X690929Y792017D01*
X691005Y792233D01*
X691031Y792475D01*
Y787394D01*
D02*
G37*
G36*
X355787Y786267D02*
X355839Y786166D01*
X355926Y786077D01*
X356047Y786000D01*
X356204Y785934D01*
X356395Y785881D01*
X356620Y785839D01*
X356881Y785810D01*
X357176Y785792D01*
X357506Y785786D01*
Y783500D01*
X355770Y783531D01*
Y786380D01*
X355787Y786267D01*
D02*
G37*
G36*
X700799Y785835D02*
X700583Y785759D01*
X700392Y785632D01*
X700227Y785454D01*
X700088Y785226D01*
X699973Y784946D01*
X699884Y784616D01*
X699821Y784235D01*
X699783Y783803D01*
X699770Y783320D01*
X697230D01*
X697217Y783803D01*
X697179Y784235D01*
X697116Y784616D01*
X697027Y784946D01*
X696913Y785226D01*
X696773Y785454D01*
X696608Y785632D01*
X696417Y785759D01*
X696201Y785835D01*
X695960Y785861D01*
X701040D01*
X700799Y785835D01*
D02*
G37*
G36*
X568595Y786979D02*
X568671Y786763D01*
X568798Y786572D01*
X568976Y786407D01*
X569080Y786344D01*
X569178Y786392D01*
X569439Y786552D01*
X569688Y786736D01*
X569924Y786945D01*
X570148Y787178D01*
X570209Y786000D01*
X570627Y785963D01*
X571110Y785950D01*
Y783410D01*
X570627Y783397D01*
X570344Y783372D01*
X570400Y782285D01*
X570150Y782498D01*
X569892Y782690D01*
X569624Y782859D01*
X569347Y783005D01*
X569179Y783077D01*
X568976Y782953D01*
X568798Y782788D01*
X568671Y782597D01*
X568595Y782381D01*
X568569Y782140D01*
Y783280D01*
X568458Y783309D01*
X568143Y783365D01*
X567818Y783399D01*
X567485Y783410D01*
X567344Y785950D01*
X567681Y785962D01*
X568006Y785999D01*
X568318Y786061D01*
X568569Y786133D01*
Y787220D01*
X568595Y786979D01*
D02*
G37*
G36*
X495533Y783818D02*
X495781Y783703D01*
X496088Y783601D01*
X496454Y783513D01*
X496877Y783439D01*
X497899Y783331D01*
X499155Y783277D01*
X499870Y783270D01*
Y780730D01*
X499155Y780723D01*
X496877Y780561D01*
X496454Y780487D01*
X496088Y780399D01*
X495781Y780297D01*
X495533Y780182D01*
X495342Y780054D01*
Y783946D01*
X495533Y783818D01*
D02*
G37*
G36*
X344330Y781469D02*
Y778742D01*
X344314Y778831D01*
X344266Y778912D01*
X344185Y778982D01*
X344072Y779044D01*
X343927Y779096D01*
X343749Y779138D01*
X343539Y779172D01*
X343297Y779195D01*
X342715Y779214D01*
Y781500D01*
X344330Y781469D01*
D02*
G37*
G36*
X357506Y779214D02*
X357176Y779208D01*
X356620Y779161D01*
X356395Y779119D01*
X356204Y779065D01*
X356047Y779000D01*
X355926Y778923D01*
X355839Y778834D01*
X355787Y778733D01*
X355770Y778620D01*
Y781469D01*
X357506Y781500D01*
Y779214D01*
D02*
G37*
G36*
X699783Y778297D02*
X699821Y777865D01*
X699884Y777484D01*
X699973Y777154D01*
X700088Y776874D01*
X700227Y776646D01*
X700392Y776468D01*
X700583Y776341D01*
X700799Y776265D01*
X701040Y776239D01*
X695960D01*
X696201Y776265D01*
X696417Y776341D01*
X696608Y776468D01*
X696773Y776646D01*
X696913Y776874D01*
X697027Y777154D01*
X697116Y777484D01*
X697179Y777865D01*
X697217Y778297D01*
X697230Y778780D01*
X699770D01*
X699783Y778297D01*
D02*
G37*
G36*
X377424Y774786D02*
X374025D01*
X374242Y774809D01*
X374436Y774877D01*
X374608Y774992D01*
X374757Y775152D01*
X374882Y775357D01*
X374985Y775609D01*
X375065Y775906D01*
X375122Y776249D01*
X375157Y776637D01*
X375168Y777072D01*
X377454D01*
X377424Y774786D01*
D02*
G37*
G36*
X372131Y776637D02*
X372166Y776249D01*
X372223Y775906D01*
X372303Y775609D01*
X372406Y775357D01*
X372532Y775152D01*
X372680Y774992D01*
X372851Y774877D01*
X373046Y774809D01*
X373263Y774786D01*
X369865D01*
X369834Y777072D01*
X372120D01*
X372131Y776637D01*
D02*
G37*
G36*
X590366Y777970D02*
X590024Y777610D01*
X589719Y777251D01*
X589450Y776892D01*
X589216Y776533D01*
X589019Y776173D01*
X588857Y775814D01*
X588731Y775455D01*
X588641Y775096D01*
X588587Y774737D01*
X588569Y774377D01*
X584977Y777970D01*
X585337Y777988D01*
X585696Y778041D01*
X586055Y778131D01*
X586414Y778257D01*
X586773Y778419D01*
X587133Y778616D01*
X587492Y778850D01*
X587851Y779119D01*
X588210Y779424D01*
X588569Y779766D01*
X590366Y777970D01*
D02*
G37*
G36*
X501456Y775757D02*
X501246Y775739D01*
X501019Y775685D01*
X500778Y775595D01*
X500520Y775469D01*
X500247Y775308D01*
X499958Y775110D01*
X499654Y774877D01*
X498998Y774302D01*
X498647Y773961D01*
X497175Y776083D01*
X498701Y777476D01*
X501456Y775757D01*
D02*
G37*
G36*
X648553Y774502D02*
X648562Y774175D01*
X648588Y773853D01*
X648631Y773536D01*
X648691Y773223D01*
X648769Y772915D01*
X648864Y772612D01*
X648976Y772314D01*
X649105Y772020D01*
X649252Y771731D01*
X649416Y771447D01*
X644663Y772641D01*
X644920Y772809D01*
X645149Y772996D01*
X645352Y773203D01*
X645527Y773429D01*
X645676Y773674D01*
X645797Y773940D01*
X645892Y774224D01*
X645959Y774528D01*
X646000Y774852D01*
X646013Y775195D01*
X648553Y774502D01*
D02*
G37*
G36*
X732190Y776154D02*
X732549Y775849D01*
X732908Y775580D01*
X733267Y775346D01*
X733626Y775148D01*
X733986Y774987D01*
X734345Y774861D01*
X734704Y774771D01*
X735063Y774717D01*
X735423Y774699D01*
X731831Y771107D01*
X731813Y771467D01*
X731759Y771826D01*
X731669Y772185D01*
X731543Y772544D01*
X731382Y772904D01*
X731184Y773263D01*
X730950Y773622D01*
X730681Y773981D01*
X730376Y774340D01*
X730034Y774699D01*
X731831Y776496D01*
X732190Y776154D01*
D02*
G37*
G36*
X745795Y774485D02*
X745871Y774293D01*
X745998Y774124D01*
X746176Y773977D01*
X746404Y773852D01*
X746684Y773751D01*
X747014Y773672D01*
X747395Y773615D01*
X747827Y773581D01*
X748309Y773570D01*
Y771030D01*
X747827Y771017D01*
X747395Y770979D01*
X747014Y770916D01*
X746684Y770827D01*
X746404Y770713D01*
X746176Y770573D01*
X745998Y770408D01*
X745871Y770217D01*
X745795Y770001D01*
X745770Y769760D01*
Y774699D01*
X745795Y774485D01*
D02*
G37*
G36*
X355795Y771394D02*
X355871Y771327D01*
X355998Y771268D01*
X356176Y771216D01*
X356404Y771173D01*
X356684Y771137D01*
X357395Y771089D01*
X358310Y771074D01*
Y768534D01*
X355770Y768531D01*
Y771469D01*
X355795Y771394D01*
D02*
G37*
G36*
X796268Y766525D02*
X795401Y767381D01*
X793765Y768823D01*
X792995Y769408D01*
X792258Y769904D01*
X791553Y770309D01*
X790881Y770625D01*
X790241Y770850D01*
X789633Y770985D01*
X789058Y771030D01*
Y773570D01*
X789633Y773615D01*
X790241Y773750D01*
X790881Y773976D01*
X791553Y774291D01*
X792258Y774696D01*
X792995Y775192D01*
X793765Y775778D01*
X795401Y777219D01*
X796268Y778075D01*
Y766525D01*
D02*
G37*
G36*
X470031Y759530D02*
X469980Y759850D01*
X469827Y760135D01*
X469573Y760387D01*
X469218Y760605D01*
X468760Y760790D01*
X468202Y760941D01*
X467541Y761059D01*
X466779Y761143D01*
X466222Y761163D01*
X464959Y761059D01*
X464298Y760941D01*
X463740Y760790D01*
X463282Y760605D01*
X462927Y760387D01*
X462673Y760135D01*
X462520Y759850D01*
X462469Y759530D01*
Y767970D01*
X462520Y767651D01*
X462673Y767365D01*
X462927Y767113D01*
X463282Y766895D01*
X463740Y766710D01*
X464298Y766559D01*
X464959Y766441D01*
X465721Y766357D01*
X466278Y766337D01*
X467541Y766441D01*
X468202Y766559D01*
X468760Y766710D01*
X469218Y766895D01*
X469573Y767113D01*
X469827Y767365D01*
X469980Y767651D01*
X470031Y767970D01*
Y759530D01*
D02*
G37*
G36*
X570366Y768469D02*
X570024Y768110D01*
X569719Y767751D01*
X569450Y767392D01*
X569216Y767033D01*
X569019Y766674D01*
X568857Y766314D01*
X568731Y765955D01*
X568641Y765596D01*
X568587Y765237D01*
X568569Y764877D01*
X564977Y768469D01*
X565337Y768487D01*
X565696Y768541D01*
X566055Y768631D01*
X566414Y768757D01*
X566773Y768919D01*
X567133Y769116D01*
X567492Y769350D01*
X567851Y769619D01*
X568210Y769924D01*
X568569Y770266D01*
X570366Y768469D01*
D02*
G37*
G36*
X396449Y767182D02*
X396201Y767047D01*
X395981Y766822D01*
X395791Y766506D01*
X395630Y766101D01*
X395498Y765606D01*
X395396Y765020D01*
X395323Y764345D01*
X395264Y762724D01*
X390184D01*
X390174Y763579D01*
X390022Y765606D01*
X389930Y766101D01*
X389818Y766506D01*
X389686Y766822D01*
X389534Y767047D01*
X389361Y767182D01*
X389169Y767227D01*
X396727D01*
X396449Y767182D01*
D02*
G37*
G36*
X834340Y703630D02*
X791579D01*
X791053Y704900D01*
X794961Y708807D01*
X795077Y708852D01*
X795690Y709435D01*
X796264Y709922D01*
X796825Y710343D01*
X797375Y710701D01*
X797911Y710995D01*
X798432Y711230D01*
X798940Y711408D01*
X799436Y711532D01*
X799924Y711605D01*
X800489Y711633D01*
X800685Y711726D01*
X811934D01*
Y731274D01*
X792386D01*
Y720025D01*
X792293Y719829D01*
X792265Y719264D01*
X792192Y718776D01*
X792068Y718280D01*
X791890Y717772D01*
X791655Y717251D01*
X791360Y716715D01*
X791003Y716165D01*
X790582Y715604D01*
X790094Y715030D01*
X789512Y714417D01*
X789467Y714301D01*
X786021Y710855D01*
X740523D01*
X740182Y712125D01*
X742406Y713409D01*
X744551Y715554D01*
X746069Y718182D01*
X746854Y721113D01*
Y724147D01*
X746069Y727078D01*
X744551Y729706D01*
X742406Y731852D01*
X739778Y733369D01*
X736847Y734154D01*
X733813D01*
X730882Y733369D01*
X728254Y731852D01*
X726108Y729706D01*
X724591Y727078D01*
X723806Y724147D01*
Y721113D01*
X724591Y718182D01*
X726108Y715554D01*
X728254Y713409D01*
X730478Y712125D01*
X730137Y710855D01*
X706524D01*
Y717879D01*
X706617Y718075D01*
X706631Y718353D01*
X706661Y718553D01*
X706713Y718761D01*
X706790Y718982D01*
X706896Y719216D01*
X707032Y719465D01*
X707203Y719727D01*
X707408Y720001D01*
X707652Y720287D01*
X707962Y720613D01*
X708024Y720775D01*
X709808Y722560D01*
X709808Y722560D01*
X710426Y723484D01*
X710643Y724574D01*
X710643Y724574D01*
Y740717D01*
X710643Y740717D01*
X710426Y741807D01*
X709808Y742732D01*
X709808Y742732D01*
X707579Y744961D01*
Y747589D01*
X707650Y747760D01*
X707645Y747770D01*
X707650Y747780D01*
X707619Y750320D01*
X707579Y750414D01*
Y751540D01*
X707579Y751540D01*
X707524Y751815D01*
Y760294D01*
X689476D01*
Y748746D01*
X701721D01*
X701732Y748705D01*
X701772Y748467D01*
X701800Y748149D01*
X701811Y747717D01*
X701881Y747559D01*
Y743781D01*
X701881Y743781D01*
X702098Y742691D01*
X702323Y742354D01*
X701645Y741084D01*
X690476D01*
Y737069D01*
X690435Y737058D01*
X690197Y737018D01*
X689879Y736990D01*
X689447Y736979D01*
X689289Y736909D01*
X688264D01*
X668524Y756648D01*
X668498Y756666D01*
X668883Y757936D01*
X672084D01*
Y778764D01*
X662646D01*
X662521Y780034D01*
X663268Y780183D01*
X664193Y780800D01*
X670478Y787086D01*
X688289D01*
X688447Y787015D01*
X688879Y787004D01*
X689197Y786976D01*
X689435Y786936D01*
X689476Y786925D01*
Y784306D01*
X695491D01*
X695502Y784265D01*
X695542Y784027D01*
X695570Y783709D01*
X695581Y783277D01*
X695651Y783119D01*
Y778981D01*
X695581Y778823D01*
X695570Y778391D01*
X695542Y778073D01*
X695502Y777835D01*
X695491Y777794D01*
X689476D01*
Y766246D01*
X707524D01*
Y777794D01*
X701509D01*
X701498Y777835D01*
X701458Y778073D01*
X701430Y778391D01*
X701419Y778823D01*
X701349Y778981D01*
Y783119D01*
X701419Y783277D01*
X701430Y783709D01*
X701458Y784027D01*
X701498Y784265D01*
X701509Y784306D01*
X707524D01*
Y795854D01*
X689476D01*
Y792944D01*
X689435Y792933D01*
X689197Y792893D01*
X688879Y792865D01*
X688447Y792853D01*
X688289Y792783D01*
X671474D01*
X670839Y793883D01*
X671374Y794810D01*
X672084Y797459D01*
Y800201D01*
X671374Y802850D01*
X670003Y805224D01*
X668422Y806806D01*
X668422Y808076D01*
X668533Y808359D01*
X668742Y808500D01*
X689303Y829060D01*
X690476Y828574D01*
Y816482D01*
X695491D01*
X695502Y816441D01*
X695542Y816203D01*
X695570Y815885D01*
X695581Y815453D01*
X695651Y815295D01*
Y814541D01*
X695581Y814383D01*
X695570Y813951D01*
X695542Y813633D01*
X695502Y813395D01*
X695491Y813354D01*
X689476D01*
Y801806D01*
X707524D01*
Y813354D01*
X701509D01*
X701498Y813395D01*
X701458Y813633D01*
X701430Y813951D01*
X701419Y814383D01*
X701349Y814541D01*
Y815295D01*
X701419Y815453D01*
X701430Y815885D01*
X701458Y816203D01*
X701498Y816441D01*
X701509Y816482D01*
X706524D01*
Y830530D01*
X692432D01*
X691946Y831703D01*
X693005Y832762D01*
X693167Y832824D01*
X693493Y833134D01*
X693779Y833378D01*
X694053Y833583D01*
X694316Y833754D01*
X694564Y833890D01*
X694798Y833996D01*
X695019Y834073D01*
X695227Y834125D01*
X695427Y834155D01*
X695705Y834169D01*
X695901Y834262D01*
X706524D01*
Y843525D01*
X707697Y844011D01*
X714225Y837484D01*
Y762147D01*
X714225Y762146D01*
X714442Y761056D01*
X715059Y760132D01*
X725976Y749216D01*
X725976Y749216D01*
X726900Y748598D01*
X727990Y748381D01*
X729089D01*
X729247Y748311D01*
X729679Y748300D01*
X729997Y748272D01*
X730235Y748232D01*
X730276Y748221D01*
Y745206D01*
X741755D01*
X742030Y745151D01*
X742030Y745151D01*
X745656D01*
X745750Y745111D01*
X748290Y745080D01*
X748300Y745085D01*
X748309Y745080D01*
X748481Y745151D01*
X788643D01*
X788739Y745096D01*
X788788Y745108D01*
X788833Y745085D01*
X789322Y745047D01*
X789716Y744957D01*
X790153Y744792D01*
X790634Y744542D01*
X791157Y744199D01*
X791716Y743757D01*
X792290Y743230D01*
X793581Y741805D01*
X794251Y740947D01*
X794342Y740895D01*
X796159Y739079D01*
X798387Y737792D01*
X800873Y737126D01*
X803447D01*
X805933Y737792D01*
X808161Y739079D01*
X809981Y740899D01*
X811268Y743127D01*
X811934Y745613D01*
Y748187D01*
X811268Y750673D01*
X809981Y752901D01*
X808161Y754721D01*
X805933Y756008D01*
X803447Y756674D01*
X800873D01*
X798387Y756008D01*
X796237Y754767D01*
X796109Y754735D01*
X794138Y753275D01*
X792439Y752171D01*
X791715Y751763D01*
X791052Y751433D01*
X790471Y751190D01*
X789980Y751031D01*
X789591Y750947D01*
X789177Y750914D01*
X789049Y750849D01*
X748511D01*
X748353Y750919D01*
X747921Y750930D01*
X747603Y750958D01*
X747365Y750998D01*
X747324Y751009D01*
Y757254D01*
X730276D01*
Y754439D01*
X729006Y754243D01*
X719922Y763326D01*
Y780919D01*
X721096Y781405D01*
X728776Y773725D01*
X728839Y773563D01*
X729148Y773237D01*
X729392Y772951D01*
X729597Y772677D01*
X729768Y772414D01*
X729904Y772167D01*
X730010Y771932D01*
X730087Y771711D01*
X730139Y771503D01*
X730169Y771303D01*
X730183Y771025D01*
X730276Y770829D01*
Y764206D01*
X747324D01*
Y769291D01*
X747365Y769302D01*
X747603Y769342D01*
X747921Y769370D01*
X748353Y769381D01*
X748511Y769451D01*
X788800D01*
X788930Y769386D01*
X789389Y769350D01*
X789786Y769261D01*
X790255Y769096D01*
X790790Y768845D01*
X791385Y768503D01*
X792035Y768066D01*
X792719Y767546D01*
X794276Y766174D01*
X795109Y765351D01*
X795408Y765230D01*
X796159Y764479D01*
X798387Y763192D01*
X800873Y762526D01*
X803447D01*
X805933Y763192D01*
X808161Y764479D01*
X809981Y766299D01*
X811268Y768527D01*
X811934Y771013D01*
Y773587D01*
X811268Y776073D01*
X809981Y778301D01*
X808161Y780121D01*
X805933Y781408D01*
X803447Y782074D01*
X800873D01*
X798387Y781408D01*
X796159Y780121D01*
X795408Y779370D01*
X795109Y779249D01*
X794276Y778426D01*
X792719Y777054D01*
X792035Y776534D01*
X791386Y776098D01*
X790790Y775755D01*
X790255Y775504D01*
X789786Y775339D01*
X789389Y775251D01*
X788930Y775215D01*
X788800Y775149D01*
X748507D01*
X748348Y775219D01*
X747911Y775229D01*
X747581Y775255D01*
X747328Y775293D01*
X747324Y775294D01*
Y776254D01*
X745999D01*
X745770Y776349D01*
X745675Y776310D01*
X745576Y776338D01*
X745426Y776254D01*
X735701D01*
X735505Y776347D01*
X735227Y776361D01*
X735027Y776391D01*
X734819Y776443D01*
X734598Y776520D01*
X734364Y776626D01*
X734115Y776762D01*
X733854Y776933D01*
X733579Y777138D01*
X733293Y777382D01*
X732967Y777691D01*
X732805Y777754D01*
X723986Y786572D01*
Y840347D01*
X723986Y840347D01*
X723770Y841437D01*
X723152Y842361D01*
X709855Y855658D01*
X708931Y856276D01*
X707841Y856493D01*
X707840Y856493D01*
X687415D01*
X687415Y856493D01*
X686325Y856276D01*
X685401Y855658D01*
X685401Y855658D01*
X673257Y843515D01*
X672084Y844001D01*
Y860044D01*
X651256D01*
Y844641D01*
X651163Y844445D01*
X651149Y844167D01*
X651119Y843967D01*
X651067Y843759D01*
X650990Y843538D01*
X650884Y843304D01*
X650748Y843055D01*
X650577Y842794D01*
X650372Y842519D01*
X650128Y842233D01*
X649818Y841907D01*
X649756Y841745D01*
X646774Y838763D01*
X631256D01*
X630174Y839216D01*
Y860044D01*
X609346D01*
Y852779D01*
X609305Y852768D01*
X609067Y852728D01*
X608749Y852700D01*
X608317Y852689D01*
X608159Y852619D01*
X607060D01*
X607060Y852619D01*
X605970Y852402D01*
X605046Y851784D01*
X597721Y844459D01*
X597103Y843535D01*
X596886Y842445D01*
X596886Y842445D01*
Y840505D01*
X591394Y835013D01*
X590124Y835210D01*
Y836524D01*
X580076D01*
Y827476D01*
X579001Y827006D01*
X575074D01*
X571772Y830308D01*
X570848Y830926D01*
X569757Y831143D01*
X569757Y831143D01*
X567317D01*
X562657Y835803D01*
X563143Y836976D01*
X570124D01*
Y846024D01*
X560076D01*
Y846024D01*
X558932Y846327D01*
X558314Y846945D01*
X558251Y847107D01*
X557942Y847433D01*
X557698Y847719D01*
X557493Y847993D01*
X557322Y848256D01*
X557186Y848503D01*
X557080Y848738D01*
X557003Y848959D01*
X556951Y849167D01*
X556921Y849367D01*
X556907Y849645D01*
X556814Y849841D01*
Y862464D01*
X545266D01*
Y845001D01*
X542758D01*
X540814Y846945D01*
X540751Y847107D01*
X540442Y847433D01*
X540198Y847719D01*
X539993Y847993D01*
X539822Y848256D01*
X539686Y848503D01*
X539580Y848738D01*
X539503Y848959D01*
X539451Y849167D01*
X539421Y849367D01*
X539407Y849645D01*
X539314Y849841D01*
Y862464D01*
X527766D01*
Y849841D01*
X527673Y849645D01*
X527659Y849367D01*
X527629Y849167D01*
X527577Y848959D01*
X527500Y848738D01*
X527394Y848504D01*
X527258Y848255D01*
X527088Y847993D01*
X526882Y847719D01*
X526638Y847433D01*
X526329Y847107D01*
X526266Y846945D01*
X525488Y846166D01*
X523267D01*
X523266Y846166D01*
X522176Y845949D01*
X521252Y845332D01*
X521252Y845332D01*
X519984Y845860D01*
Y862464D01*
X508436D01*
Y844416D01*
X508436Y844416D01*
X508436D01*
X508639Y843146D01*
X508056Y841739D01*
Y839741D01*
X508821Y837894D01*
X510234Y836481D01*
X511410Y835994D01*
X511755Y834543D01*
X509836Y832623D01*
X509218Y831699D01*
X509001Y830609D01*
X509001Y830609D01*
Y815250D01*
X509022Y815147D01*
Y811500D01*
X509194Y810631D01*
X508777Y810073D01*
X508219Y809656D01*
X507350Y809828D01*
X499850D01*
X498768Y809613D01*
X497850Y809000D01*
X497237Y808082D01*
X497022Y807000D01*
X497237Y805918D01*
X497607Y805365D01*
X497761Y804500D01*
X497607Y803635D01*
X497237Y803082D01*
X497022Y802000D01*
X497237Y800918D01*
X497850Y800000D01*
X497184Y798918D01*
X496758Y798281D01*
X496504Y797000D01*
X496758Y795720D01*
X496804Y795651D01*
X496827Y795574D01*
X496400Y793969D01*
X496348Y793935D01*
X490744D01*
X488541Y796138D01*
X487659Y796728D01*
X486817Y796895D01*
Y803910D01*
X459632D01*
X459622Y803925D01*
X454264Y809282D01*
X453382Y809872D01*
X452341Y810079D01*
X425514D01*
X424473Y809872D01*
X423591Y809282D01*
X401180Y786871D01*
X398817D01*
X398536Y788024D01*
X398536Y788141D01*
Y799708D01*
X382788D01*
Y788141D01*
X382788Y788024D01*
X382507Y786871D01*
X379937D01*
X379207Y787686D01*
X379103Y787823D01*
X379073Y790109D01*
X379030Y790208D01*
Y791199D01*
X378978Y791462D01*
Y799200D01*
X368310D01*
Y791462D01*
X368258Y791199D01*
Y790208D01*
X368215Y790109D01*
X368185Y787823D01*
X368059Y787680D01*
X367288Y786935D01*
X361367D01*
Y793392D01*
X361367Y793392D01*
X361160Y794433D01*
X360571Y795315D01*
X360276Y795610D01*
X360574Y797108D01*
X360854Y797225D01*
X361776Y798145D01*
X362274Y799349D01*
Y800651D01*
X361776Y801855D01*
X360854Y802775D01*
X359651Y803274D01*
X358349D01*
X357324Y804224D01*
Y805971D01*
X358225Y806866D01*
X360519Y806852D01*
X360817Y806792D01*
X383071D01*
X383719Y806921D01*
X400325D01*
X401894Y807233D01*
X403223Y808122D01*
X405463Y810361D01*
X405473Y810368D01*
X405686Y810456D01*
X405686Y810456D01*
X405687Y810457D01*
X408889Y813660D01*
X418068D01*
X418205Y813580D01*
X418319Y813610D01*
X418428Y813565D01*
X418657Y813660D01*
X419982D01*
Y814855D01*
X420062Y814992D01*
X420068Y815034D01*
X420080Y815043D01*
X420301Y815147D01*
X420674Y815265D01*
X421165Y815367D01*
X422638Y815509D01*
X422710Y815511D01*
X424001Y814976D01*
X425999D01*
X427846Y815741D01*
X429259Y817154D01*
X430024Y819001D01*
Y820999D01*
X429259Y822846D01*
X427846Y824259D01*
X425999Y825024D01*
X424001D01*
X422154Y824259D01*
X421853Y823958D01*
X421779Y823960D01*
X421113Y824021D01*
X420558Y824103D01*
X420143Y824197D01*
X419982Y824251D01*
Y825208D01*
X418657D01*
X418428Y825303D01*
X418277Y825241D01*
X418117Y825274D01*
X418018Y825208D01*
X401934D01*
Y819059D01*
X401454Y818694D01*
X400184Y819324D01*
Y825064D01*
X382136D01*
Y822424D01*
X380857D01*
X379653Y821926D01*
X378732Y821005D01*
X378234Y819801D01*
Y818499D01*
X378732Y817295D01*
X379653Y816375D01*
X379713Y816350D01*
X379461Y815080D01*
X361236D01*
X360964Y815134D01*
X360746Y815229D01*
X359013Y815264D01*
X357832Y815355D01*
Y817362D01*
X357570Y817345D01*
X357020Y817258D01*
X356570Y817151D01*
X356219Y817025D01*
X355970Y816880D01*
X355820Y816715D01*
X355770Y816531D01*
Y822469D01*
X357832Y822482D01*
Y824532D01*
X354565D01*
X354134Y825802D01*
X354453Y826047D01*
X355499Y827410D01*
X356156Y828997D01*
X356380Y830700D01*
X356156Y832403D01*
X355499Y833990D01*
X354453Y835353D01*
X353090Y836399D01*
X351503Y837056D01*
X349800Y837280D01*
X338800D01*
X337097Y837056D01*
X335510Y836399D01*
X334147Y835353D01*
X333101Y833990D01*
X332444Y832403D01*
X332220Y830700D01*
X332444Y828997D01*
X333101Y827410D01*
X334147Y826047D01*
X335510Y825001D01*
X337097Y824344D01*
X338800Y824120D01*
X342268D01*
Y821713D01*
X340998Y820864D01*
X340250Y821174D01*
X338350D01*
X336596Y820447D01*
X335253Y819104D01*
X334526Y817350D01*
Y815450D01*
X335253Y813696D01*
X336596Y812353D01*
X338350Y811626D01*
X340250D01*
X341506Y812146D01*
X342776Y811465D01*
Y801976D01*
Y792437D01*
X342690Y792435D01*
X342355Y792291D01*
X341674Y792155D01*
X340792Y791566D01*
X339453Y790227D01*
X338864Y789344D01*
X338657Y788304D01*
Y781696D01*
X338864Y780656D01*
X339453Y779773D01*
X340792Y778434D01*
X341674Y777845D01*
X342334Y777713D01*
X342662Y777565D01*
X342776Y777562D01*
Y771976D01*
Y763535D01*
X341506Y762854D01*
X340250Y763374D01*
X338350D01*
X336596Y762647D01*
X335253Y761304D01*
X334526Y759550D01*
Y757650D01*
X335253Y755896D01*
X336596Y754553D01*
X338350Y753826D01*
X340250D01*
X340998Y754136D01*
X342268Y753287D01*
Y750880D01*
X338800D01*
X337097Y750656D01*
X335510Y749999D01*
X334147Y748953D01*
X333101Y747590D01*
X332444Y746003D01*
X332220Y744300D01*
X332444Y742597D01*
X333101Y741010D01*
X334147Y739647D01*
X335510Y738601D01*
X337097Y737944D01*
X338800Y737720D01*
X349800D01*
X351503Y737944D01*
X353090Y738601D01*
X354453Y739647D01*
X355499Y741010D01*
X356156Y742597D01*
X356380Y744300D01*
X356156Y746003D01*
X355499Y747590D01*
X354453Y748953D01*
X354134Y749198D01*
X354565Y750468D01*
X357832D01*
Y754217D01*
X357827Y754217D01*
X357395Y754179D01*
X357014Y754116D01*
X356684Y754027D01*
X356404Y753913D01*
X356176Y753773D01*
X355998Y753608D01*
X355871Y753417D01*
X355795Y753201D01*
X355770Y752960D01*
Y758040D01*
X355795Y757799D01*
X355871Y757583D01*
X355998Y757392D01*
X356176Y757227D01*
X356404Y757087D01*
X356684Y756973D01*
X357014Y756884D01*
X357395Y756821D01*
X357827Y756783D01*
X357832Y756783D01*
Y757968D01*
X358733Y758863D01*
X360840Y758850D01*
X360845Y758852D01*
X360849Y758850D01*
X360960Y758896D01*
X362004D01*
X362442Y758604D01*
X364028Y758288D01*
X369263D01*
X369605Y758356D01*
X385339D01*
X386454Y757982D01*
Y756657D01*
X386359Y756428D01*
X386397Y756335D01*
X386370Y756239D01*
X386454Y756087D01*
Y746434D01*
X404502D01*
Y757982D01*
X398279D01*
X398120Y758068D01*
X397831Y758099D01*
X397776Y758118D01*
X397729Y758149D01*
X397643Y758242D01*
X397519Y758445D01*
X397380Y758785D01*
X397250Y759268D01*
X397147Y759887D01*
X397095Y760466D01*
X397524Y761501D01*
Y763499D01*
X397132Y764445D01*
X397721Y765672D01*
X398282D01*
Y766997D01*
X398377Y767227D01*
X398324Y767355D01*
X398356Y767490D01*
X398282Y767610D01*
Y776340D01*
X387614D01*
Y767674D01*
X387562Y767602D01*
X386955Y766937D01*
X386386Y766644D01*
X378978D01*
Y773411D01*
X379030Y773673D01*
Y774665D01*
X379073Y774764D01*
X379103Y777050D01*
X379207Y777187D01*
X379937Y778002D01*
X403727D01*
X404768Y778209D01*
X405650Y778798D01*
X428061Y801210D01*
X436976D01*
Y792976D01*
X436976D01*
Y792024D01*
X436976D01*
Y782976D01*
X451024D01*
Y783612D01*
X463976D01*
Y782976D01*
X478024D01*
Y783612D01*
X486817D01*
Y784088D01*
X487946Y784977D01*
X489002Y784799D01*
X489450Y783600D01*
X485835Y779985D01*
X449594D01*
X448009Y779670D01*
X446664Y778772D01*
X440506Y772613D01*
X439608Y771269D01*
X439292Y769683D01*
Y741426D01*
X439246Y741319D01*
X439236Y740389D01*
X439151Y738851D01*
X439085Y738291D01*
X439006Y737850D01*
X438986Y737774D01*
X438226D01*
Y736708D01*
X438020Y736631D01*
X437617Y736530D01*
X437094Y736444D01*
X436935Y736432D01*
X436711Y736459D01*
X436184Y736559D01*
X435801Y736671D01*
X435571Y736771D01*
X435562Y736776D01*
X435524Y736840D01*
Y738024D01*
X434199D01*
X433969Y738119D01*
X433852Y738070D01*
X433728Y738101D01*
X433599Y738024D01*
X417476D01*
Y737336D01*
X416206Y736561D01*
X415019Y737052D01*
X413021D01*
X411174Y736287D01*
X409761Y734874D01*
X408996Y733027D01*
Y731029D01*
X409761Y729182D01*
X411174Y727769D01*
X413021Y727004D01*
X415019D01*
X416206Y727495D01*
X417476Y726720D01*
Y726476D01*
X433577D01*
X433690Y726405D01*
X433834Y726437D01*
X433969Y726381D01*
X434199Y726476D01*
X435524D01*
Y727542D01*
X435730Y727619D01*
X436133Y727720D01*
X436656Y727806D01*
X436815Y727818D01*
X437039Y727791D01*
X437566Y727691D01*
X437949Y727579D01*
X438179Y727479D01*
X438188Y727474D01*
X438226Y727410D01*
Y726226D01*
X439551D01*
X439781Y726131D01*
X439898Y726180D01*
X440022Y726149D01*
X440151Y726226D01*
X455914D01*
X457202Y724938D01*
X457242Y724833D01*
X457893Y724148D01*
X458442Y723503D01*
X458917Y722869D01*
X459321Y722248D01*
X459655Y721640D01*
X459922Y721047D01*
X460125Y720467D01*
X460267Y719899D01*
X460351Y719340D01*
X460383Y718703D01*
X460476Y718507D01*
Y709476D01*
X472024D01*
Y727524D01*
X469493D01*
X469297Y727617D01*
X468660Y727649D01*
X468101Y727733D01*
X467533Y727875D01*
X466953Y728078D01*
X466360Y728345D01*
X465752Y728679D01*
X465131Y729082D01*
X464497Y729558D01*
X463852Y730106D01*
X463167Y730758D01*
X463062Y730798D01*
X460286Y733574D01*
X458941Y734472D01*
X457593Y734741D01*
X457376Y734834D01*
X456274Y734847D01*
Y737774D01*
X448847D01*
X448689Y737860D01*
X448163Y738883D01*
X448117Y739072D01*
X448345Y739495D01*
X448918Y739968D01*
X464532D01*
Y752532D01*
X447580D01*
Y757976D01*
X462089D01*
X462210Y757902D01*
X462343Y757933D01*
X462469Y757881D01*
X462699Y757976D01*
X464024D01*
Y759125D01*
X464028Y759128D01*
X464266Y759224D01*
X464659Y759330D01*
X465172Y759421D01*
X466260Y759511D01*
X466659Y759497D01*
X467306Y759425D01*
X467841Y759330D01*
X468234Y759224D01*
X468472Y759128D01*
X468476Y759125D01*
Y757976D01*
X469801D01*
X470031Y757881D01*
X470157Y757933D01*
X470290Y757902D01*
X470411Y757976D01*
X484599D01*
X484728Y757899D01*
X484851Y757930D01*
X484969Y757881D01*
X485199Y757976D01*
X486524D01*
Y759160D01*
X486562Y759224D01*
X486571Y759229D01*
X486801Y759329D01*
X487184Y759441D01*
X487687Y759537D01*
X488953Y759649D01*
X489332Y759489D01*
X490231Y758471D01*
X490231Y758459D01*
X490246Y758422D01*
Y752710D01*
X490326Y752310D01*
Y741976D01*
X489818Y741782D01*
Y734220D01*
X490078Y734099D01*
X490370Y733993D01*
X490639Y733919D01*
X490966Y734007D01*
X491245Y734122D01*
X491474Y734261D01*
X491652Y734426D01*
X491779Y734617D01*
X491855Y734833D01*
X491880Y735074D01*
Y729994D01*
X491855Y730235D01*
X491779Y730451D01*
X491652Y730642D01*
X491474Y730807D01*
X491245Y730947D01*
X490966Y731061D01*
X490639Y731149D01*
X490370Y731075D01*
X490078Y730969D01*
X489818Y730849D01*
Y728672D01*
X489524Y727524D01*
X477976D01*
Y709476D01*
X489524D01*
Y712941D01*
X489531Y712962D01*
X489617Y713124D01*
X489692Y713224D01*
X490857Y713576D01*
X490913Y713523D01*
X491199Y713413D01*
X491701Y712912D01*
X493547Y712147D01*
X495546D01*
X497392Y712912D01*
X497397Y712917D01*
X497467Y712930D01*
X497702Y713085D01*
X497898Y713198D01*
X498094Y713296D01*
X498292Y713381D01*
X498494Y713451D01*
X498699Y713509D01*
X498909Y713554D01*
X499125Y713587D01*
X499349Y713607D01*
X499630Y713615D01*
X499786Y713685D01*
X513585D01*
X513585Y713685D01*
X514675Y713902D01*
X515600Y714520D01*
X522658Y721578D01*
X522658Y721578D01*
X522798Y721787D01*
X524068Y721402D01*
Y718968D01*
X532180D01*
X532204Y719034D01*
X532286Y719337D01*
X532322Y719525D01*
X532278Y719786D01*
X532189Y720116D01*
X532075Y720396D01*
X531935Y720624D01*
X531770Y720802D01*
X531580Y720929D01*
X531364Y721005D01*
X531123Y721031D01*
X536203D01*
X535961Y721005D01*
X535745Y720929D01*
X535555Y720802D01*
X535390Y720624D01*
X535250Y720396D01*
X535136Y720116D01*
X535047Y719786D01*
X535003Y719525D01*
X535039Y719337D01*
X535121Y719034D01*
X535145Y718968D01*
X543132D01*
Y731532D01*
X524763D01*
X524068Y731532D01*
X523493Y732564D01*
Y736525D01*
X524576Y736976D01*
X524763Y736976D01*
X542624D01*
Y748524D01*
X539289D01*
X538584Y749580D01*
X538591Y749599D01*
Y751597D01*
X537827Y753444D01*
X536413Y754857D01*
X534567Y755622D01*
X532568D01*
X530722Y754857D01*
X529308Y753444D01*
X528543Y751597D01*
Y749599D01*
X528551Y749580D01*
X527846Y748524D01*
X524763D01*
X524576Y748524D01*
X523493Y748975D01*
Y759657D01*
X523493Y759657D01*
X523276Y760748D01*
X523032Y761112D01*
X522957Y762080D01*
X523416Y762710D01*
X523485Y762757D01*
X524350Y762911D01*
X525215Y762757D01*
X525768Y762387D01*
X526850Y762172D01*
X527932Y762387D01*
X528485Y762757D01*
X529350Y762911D01*
X530215Y762757D01*
X530768Y762387D01*
X531850Y762172D01*
X532932Y762387D01*
X533485Y762757D01*
X534350Y762911D01*
X535215Y762757D01*
X535768Y762387D01*
X536850Y762172D01*
X537932Y762387D01*
X538485Y762757D01*
X539350Y762911D01*
X540215Y762757D01*
X540768Y762387D01*
X541850Y762172D01*
X542932Y762387D01*
X543850Y763000D01*
X544463Y763918D01*
X544678Y765000D01*
Y772500D01*
X544506Y773369D01*
X544923Y773927D01*
X545481Y774344D01*
X546350Y774172D01*
X553850D01*
X554932Y774387D01*
X554944Y774395D01*
X556214Y773716D01*
Y761395D01*
X556421Y760355D01*
X557010Y759473D01*
X561027Y755455D01*
X560541Y754282D01*
X556958D01*
X556664Y754721D01*
Y756720D01*
X555899Y758567D01*
X554486Y759980D01*
X552639Y760745D01*
X550641D01*
X548794Y759980D01*
X547381Y758567D01*
X546616Y756720D01*
Y754721D01*
X546881Y754081D01*
X546676Y753774D01*
X546676D01*
Y752449D01*
X546581Y752220D01*
X546655Y752040D01*
X546623Y751848D01*
X546676Y751774D01*
Y738226D01*
X555568D01*
Y737718D01*
X559427D01*
X559474Y737888D01*
X559527Y738169D01*
X559466Y738536D01*
X559377Y738866D01*
X559263Y739146D01*
X559123Y739374D01*
X558958Y739552D01*
X558767Y739679D01*
X558551Y739755D01*
X558310Y739781D01*
X563390D01*
X563149Y739755D01*
X562933Y739679D01*
X562742Y739552D01*
X562577Y739374D01*
X562438Y739146D01*
X562323Y738866D01*
X562234Y738536D01*
X562173Y738169D01*
X562226Y737888D01*
X562272Y737718D01*
X564829D01*
X565074Y737351D01*
Y735352D01*
X565839Y733506D01*
X567253Y732093D01*
X569099Y731328D01*
X571098D01*
X572944Y732093D01*
X574357Y733506D01*
X575122Y735352D01*
Y737351D01*
X574861Y737982D01*
X575024Y738226D01*
X575024D01*
Y739551D01*
X575119Y739781D01*
X575044Y739962D01*
X575076Y740156D01*
X575024Y740228D01*
Y752923D01*
X589898D01*
X595115Y747705D01*
X594629Y746532D01*
X590528D01*
X590495Y746491D01*
X590318Y746232D01*
X590165Y745962D01*
X590035Y745682D01*
X589936Y745410D01*
X589943Y745384D01*
X590057Y745105D01*
X590197Y744876D01*
X590362Y744698D01*
X590553Y744571D01*
X590769Y744495D01*
X591010Y744470D01*
X589754D01*
X589752Y744449D01*
X589740Y744113D01*
X587200D01*
X587188Y744449D01*
X587186Y744470D01*
X585930D01*
X586171Y744495D01*
X586387Y744571D01*
X586578Y744698D01*
X586743Y744876D01*
X586882Y745105D01*
X586997Y745384D01*
X587004Y745410D01*
X586905Y745682D01*
X586775Y745962D01*
X586622Y746232D01*
X586445Y746491D01*
X586411Y746532D01*
X579068D01*
Y733968D01*
X598132D01*
Y743029D01*
X599305Y743515D01*
X601477Y741344D01*
X601479Y741335D01*
X602068Y740452D01*
X613050Y729470D01*
X613932Y728881D01*
X614973Y728674D01*
X616131D01*
X616298Y727404D01*
X615740Y727254D01*
X613366Y725883D01*
X612663Y725181D01*
X612379Y725073D01*
X611624Y724362D01*
X610913Y723758D01*
X610218Y723235D01*
X609540Y722790D01*
X608881Y722421D01*
X608243Y722127D01*
X607625Y721904D01*
X607026Y721749D01*
X606444Y721658D01*
X605787Y721623D01*
X605685Y721575D01*
X598519D01*
X597624Y722470D01*
Y728524D01*
X581479D01*
X581334Y728606D01*
X581230Y728578D01*
X581130Y728619D01*
X580901Y728524D01*
X579576D01*
Y727318D01*
X579494Y727173D01*
X579487Y727117D01*
X579336Y727039D01*
X579030Y726934D01*
X578619Y726840D01*
X577331Y726704D01*
X577263Y726706D01*
X576595Y726762D01*
X576046Y726849D01*
X575623Y726958D01*
X575333Y727072D01*
X575174Y727164D01*
X575131Y727202D01*
X575109Y727400D01*
X575024Y727555D01*
Y728774D01*
X573699D01*
X573470Y728869D01*
X573381Y728832D01*
X573289Y728859D01*
X573134Y728774D01*
X565476D01*
Y713226D01*
X575024D01*
Y717847D01*
X575110Y718005D01*
X575135Y718246D01*
X575139Y718258D01*
X575146Y718267D01*
X575202Y718320D01*
X575360Y718416D01*
X575644Y718532D01*
X576061Y718644D01*
X576604Y718735D01*
X577267Y718793D01*
X577356Y718796D01*
X578028Y718746D01*
X578591Y718666D01*
X579030Y718566D01*
X579336Y718461D01*
X579487Y718383D01*
X579494Y718327D01*
X579576Y718182D01*
Y716976D01*
X580901D01*
X581130Y716881D01*
X581230Y716922D01*
X581334Y716894D01*
X581479Y716976D01*
X592130D01*
X594163Y714943D01*
X595423Y714101D01*
X596910Y713805D01*
X605610D01*
X605711Y713757D01*
X606373Y713722D01*
X606954Y713629D01*
X607546Y713472D01*
X608153Y713247D01*
X608776Y712950D01*
X609416Y712578D01*
X610071Y712128D01*
X610742Y711597D01*
X611424Y710985D01*
X612147Y710262D01*
X612443Y710139D01*
X613366Y709217D01*
X615740Y707846D01*
X618389Y707136D01*
X621131D01*
X623780Y707846D01*
X626154Y709217D01*
X628093Y711156D01*
X629464Y713530D01*
X630174Y716179D01*
Y718921D01*
X629464Y721570D01*
X628093Y723944D01*
X626154Y725883D01*
X623780Y727254D01*
X623222Y727404D01*
X623389Y728674D01*
X645478D01*
X649047Y725105D01*
X649090Y724967D01*
X649363Y724641D01*
X649579Y724291D01*
X649813Y723794D01*
X650050Y723157D01*
X650279Y722383D01*
X650488Y721509D01*
X651035Y717998D01*
X651172Y716611D01*
X651256Y716455D01*
Y716179D01*
X651966Y713530D01*
X653337Y711156D01*
X655276Y709217D01*
X657650Y707846D01*
X660299Y707136D01*
X663041D01*
X665690Y707846D01*
X668064Y709217D01*
X670003Y711156D01*
X671374Y713530D01*
X672084Y716179D01*
Y718018D01*
X673354Y718544D01*
X686999Y704900D01*
X686472Y703630D01*
X278942D01*
Y864566D01*
X834340D01*
Y703630D01*
D02*
G37*
G36*
X355820Y766301D02*
X355973Y766149D01*
X356227Y766016D01*
X356582Y765900D01*
X357039Y765802D01*
X357598Y765722D01*
X359021Y765616D01*
X360849Y765580D01*
Y760500D01*
X355770Y760530D01*
Y766469D01*
X355820Y766301D01*
D02*
G37*
G36*
X485020Y767674D02*
X485173Y767410D01*
X485427Y767177D01*
X485782Y766975D01*
X486240Y766804D01*
X486798Y766664D01*
X487459Y766555D01*
X488221Y766477D01*
X490050Y766415D01*
Y761335D01*
X489084Y761317D01*
X487459Y761173D01*
X486798Y761046D01*
X486240Y760884D01*
X485782Y760685D01*
X485427Y760451D01*
X485173Y760180D01*
X485020Y759873D01*
X484969Y759530D01*
Y767970D01*
X485020Y767674D01*
D02*
G37*
G36*
X513133Y760527D02*
X513171Y760095D01*
X513234Y759714D01*
X513323Y759384D01*
X513438Y759105D01*
X513577Y758876D01*
X513742Y758698D01*
X513933Y758571D01*
X514149Y758495D01*
X514390Y758470D01*
X509380D01*
X509608Y758495D01*
X509812Y758571D01*
X509992Y758698D01*
X510148Y758876D01*
X510280Y759105D01*
X510388Y759384D01*
X510472Y759714D01*
X510532Y760095D01*
X510568Y760527D01*
X510580Y761010D01*
X513120D01*
X513133Y760527D01*
D02*
G37*
G36*
X496951Y762212D02*
X497013Y761427D01*
X497117Y760734D01*
X497263Y760133D01*
X497450Y759625D01*
X497679Y759209D01*
X497950Y758885D01*
X498262Y758654D01*
X498615Y758516D01*
X499011Y758469D01*
X491880D01*
X491850Y763090D01*
X496930D01*
X496951Y762212D01*
D02*
G37*
G36*
X395433Y760542D02*
X395509Y759679D01*
X395636Y758917D01*
X395814Y758256D01*
X396042Y757698D01*
X396322Y757240D01*
X396652Y756885D01*
X397033Y756631D01*
X397465Y756478D01*
X397947Y756428D01*
X388008D01*
X388449Y756478D01*
X388843Y756631D01*
X389191Y756885D01*
X389493Y757240D01*
X389748Y757698D01*
X389956Y758256D01*
X390119Y758917D01*
X390235Y759679D01*
X390304Y760542D01*
X390327Y761507D01*
X395407D01*
X395433Y760542D01*
D02*
G37*
G36*
X554091Y754978D02*
X554231Y753071D01*
X554296Y752765D01*
X554371Y752526D01*
X554459Y752356D01*
X554558Y752254D01*
X554669Y752220D01*
X548231D01*
X548378Y752254D01*
X548509Y752356D01*
X548625Y752526D01*
X548726Y752765D01*
X548811Y753071D01*
X548881Y753446D01*
X548935Y753888D01*
X548997Y754978D01*
X549005Y755626D01*
X554085D01*
X554091Y754978D01*
D02*
G37*
G36*
X731831Y748690D02*
X731805Y748931D01*
X731729Y749147D01*
X731602Y749338D01*
X731424Y749503D01*
X731196Y749642D01*
X730916Y749757D01*
X730586Y749846D01*
X730205Y749909D01*
X729773Y749947D01*
X729290Y749960D01*
Y752500D01*
X729773Y752513D01*
X730205Y752551D01*
X730586Y752614D01*
X730916Y752703D01*
X731196Y752818D01*
X731424Y752957D01*
X731602Y753122D01*
X731729Y753313D01*
X731805Y753529D01*
X731831Y753770D01*
Y748690D01*
D02*
G37*
G36*
X706000Y747760D02*
X703460D01*
X703447Y748243D01*
X703409Y748675D01*
X703346Y749056D01*
X703257Y749386D01*
X703142Y749666D01*
X703003Y749894D01*
X702838Y750072D01*
X702647Y750199D01*
X702431Y750275D01*
X702190Y750301D01*
X705969D01*
X706000Y747760D01*
D02*
G37*
G36*
X536134Y749895D02*
X536220Y748739D01*
X536295Y748270D01*
X536392Y747873D01*
X536510Y747548D01*
X536649Y747295D01*
X536810Y747114D01*
X536992Y747006D01*
X537196Y746970D01*
X529972D01*
X530175Y747006D01*
X530358Y747114D01*
X530518Y747295D01*
X530658Y747548D01*
X530776Y747873D01*
X530872Y748270D01*
X530947Y748739D01*
X531001Y749281D01*
X531044Y750582D01*
X536124D01*
X536134Y749895D01*
D02*
G37*
G36*
X745795Y750299D02*
X745871Y750083D01*
X745998Y749892D01*
X746176Y749727D01*
X746404Y749587D01*
X746684Y749473D01*
X747014Y749384D01*
X747395Y749321D01*
X747827Y749283D01*
X748309Y749270D01*
Y746730D01*
X745770Y746760D01*
Y750540D01*
X745795Y750299D01*
D02*
G37*
G36*
X795551Y741962D02*
X794844Y742868D01*
X793462Y744394D01*
X792787Y745014D01*
X792122Y745538D01*
X791469Y745967D01*
X790826Y746301D01*
X790194Y746539D01*
X789573Y746682D01*
X788962Y746730D01*
X789308Y749270D01*
X789830Y749311D01*
X790409Y749436D01*
X791045Y749642D01*
X791738Y749932D01*
X792488Y750305D01*
X793295Y750760D01*
X795079Y751919D01*
X797091Y753409D01*
X795551Y741962D01*
D02*
G37*
G36*
X653014Y740923D02*
X652821Y741620D01*
X652586Y742245D01*
X652309Y742796D01*
X651990Y743274D01*
X651630Y743678D01*
X651227Y744008D01*
X650782Y744265D01*
X650296Y744449D01*
X649767Y744559D01*
X649197Y744596D01*
Y747136D01*
X649888Y747164D01*
X650581Y747247D01*
X651273Y747385D01*
X651966Y747579D01*
X652660Y747828D01*
X653354Y748133D01*
X654048Y748493D01*
X654743Y748908D01*
X655438Y749379D01*
X656133Y749905D01*
X653014Y740923D01*
D02*
G37*
G36*
X462487Y745263D02*
X462541Y744904D01*
X462631Y744545D01*
X462757Y744186D01*
X462919Y743827D01*
X463116Y743467D01*
X463350Y743108D01*
X463619Y742749D01*
X463924Y742390D01*
X464266Y742030D01*
X462469Y740235D01*
X462110Y740576D01*
X461751Y740881D01*
X461392Y741151D01*
X461033Y741384D01*
X460673Y741581D01*
X460314Y741743D01*
X459955Y741869D01*
X459596Y741959D01*
X459237Y742013D01*
X458877Y742030D01*
X462469Y745623D01*
X462487Y745263D01*
D02*
G37*
G36*
X515899Y743505D02*
X515683Y743429D01*
X515492Y743302D01*
X515327Y743124D01*
X515187Y742896D01*
X515073Y742616D01*
X514984Y742286D01*
X514921Y741905D01*
X514896Y741625D01*
X514921Y741345D01*
X514984Y740964D01*
X515073Y740634D01*
X515187Y740355D01*
X515327Y740126D01*
X515492Y739948D01*
X515683Y739821D01*
X515899Y739745D01*
X516140Y739719D01*
X511060D01*
X511301Y739745D01*
X511517Y739821D01*
X511708Y739948D01*
X511873Y740126D01*
X512012Y740355D01*
X512127Y740634D01*
X512216Y740964D01*
X512279Y741345D01*
X512304Y741625D01*
X512279Y741905D01*
X512216Y742286D01*
X512127Y742616D01*
X512012Y742896D01*
X511873Y743124D01*
X511708Y743302D01*
X511517Y743429D01*
X511301Y743505D01*
X511060Y743531D01*
X516140D01*
X515899Y743505D01*
D02*
G37*
G36*
X573326Y739747D02*
X573198Y739646D01*
X573084Y739479D01*
X572986Y739244D01*
X572903Y738942D01*
X572835Y738573D01*
X572782Y738138D01*
X572722Y737065D01*
X572714Y736427D01*
X567634D01*
X567628Y737065D01*
X567483Y738942D01*
X567417Y739244D01*
X567338Y739479D01*
X567248Y739646D01*
X567145Y739747D01*
X567030Y739781D01*
X573470D01*
X573326Y739747D01*
D02*
G37*
G36*
X627224Y747944D02*
X627933Y747247D01*
X628648Y746633D01*
X629369Y746100D01*
X630096Y745649D01*
X630829Y745281D01*
X631569Y744994D01*
X632315Y744789D01*
X633067Y744666D01*
X633825Y744625D01*
X633499Y740053D01*
X632770Y740016D01*
X632028Y739903D01*
X631275Y739716D01*
X630510Y739454D01*
X629732Y739116D01*
X628943Y738704D01*
X628142Y738217D01*
X627329Y737655D01*
X626503Y737018D01*
X625666Y736305D01*
X626521Y748722D01*
X627224Y747944D01*
D02*
G37*
G36*
X446001Y740334D02*
X446078Y739471D01*
X446205Y738709D01*
X446382Y738048D01*
X446611Y737489D01*
X446890Y737032D01*
X447221Y736677D01*
X447602Y736423D01*
X448033Y736270D01*
X448516Y736219D01*
X439781D01*
X439992Y736270D01*
X440182Y736423D01*
X440349Y736677D01*
X440494Y737032D01*
X440617Y737489D01*
X440718Y738048D01*
X440796Y738709D01*
X440885Y740334D01*
X440896Y741300D01*
X445976D01*
X446001Y740334D01*
D02*
G37*
G36*
X419030Y733311D02*
X419046Y733310D01*
X419381Y733298D01*
Y730758D01*
X419046Y730746D01*
X419030Y730744D01*
Y729488D01*
X419005Y729729D01*
X418929Y729945D01*
X418802Y730136D01*
X418624Y730301D01*
X418396Y730441D01*
X418116Y730555D01*
X418087Y730563D01*
X417813Y730463D01*
X417533Y730333D01*
X417263Y730180D01*
X417004Y730003D01*
X416756Y729802D01*
X416520Y729578D01*
Y730757D01*
X416491Y730758D01*
Y733298D01*
X416520Y733299D01*
Y734478D01*
X416756Y734254D01*
X417004Y734053D01*
X417263Y733876D01*
X417533Y733723D01*
X417813Y733593D01*
X418087Y733493D01*
X418116Y733501D01*
X418396Y733615D01*
X418624Y733755D01*
X418802Y733920D01*
X418929Y734111D01*
X419005Y734327D01*
X419030Y734568D01*
Y733311D01*
D02*
G37*
G36*
X692030Y731520D02*
X692005Y731761D01*
X691929Y731977D01*
X691802Y732168D01*
X691624Y732333D01*
X691395Y732473D01*
X691116Y732587D01*
X690786Y732676D01*
X690405Y732739D01*
X689973Y732777D01*
X689491Y732790D01*
Y735330D01*
X689973Y735343D01*
X690405Y735381D01*
X690786Y735444D01*
X691116Y735533D01*
X691395Y735648D01*
X691624Y735787D01*
X691802Y735952D01*
X691929Y736143D01*
X692005Y736359D01*
X692030Y736600D01*
Y731520D01*
D02*
G37*
G36*
X454746Y733262D02*
X454825Y733246D01*
X454957Y733231D01*
X455379Y733208D01*
X457356Y733184D01*
Y728104D01*
X454720Y728008D01*
Y733280D01*
X454746Y733262D01*
D02*
G37*
G36*
X434020Y736127D02*
X434173Y735820D01*
X434427Y735549D01*
X434782Y735315D01*
X435239Y735116D01*
X435798Y734954D01*
X436459Y734827D01*
X436901Y734775D01*
X437291Y734805D01*
X437952Y734914D01*
X438511Y735054D01*
X438968Y735225D01*
X439323Y735427D01*
X439577Y735660D01*
X439730Y735924D01*
X439781Y736219D01*
Y727781D01*
X439730Y728123D01*
X439577Y728430D01*
X439323Y728701D01*
X438968Y728935D01*
X438511Y729134D01*
X437952Y729296D01*
X437291Y729423D01*
X436849Y729475D01*
X436459Y729445D01*
X435798Y729336D01*
X435239Y729196D01*
X434782Y729025D01*
X434427Y728823D01*
X434173Y728590D01*
X434020Y728326D01*
X433969Y728030D01*
Y736469D01*
X434020Y736127D01*
D02*
G37*
G36*
X511424Y724781D02*
X511359Y724763D01*
X511263Y724709D01*
X511136Y724619D01*
X510978Y724493D01*
X510430Y724001D01*
X509112Y722482D01*
X508898Y722184D01*
X508558Y721636D01*
X508431Y721385D01*
X506848Y726038D01*
X507110Y725921D01*
X507372Y725844D01*
X507634Y725807D01*
X507895Y725809D01*
X508156Y725851D01*
X508417Y725932D01*
X508678Y726053D01*
X508819Y726140D01*
X509362Y726759D01*
X509380Y726824D01*
X511424Y724781D01*
D02*
G37*
G36*
X462749Y728879D02*
X463467Y728269D01*
X464186Y727730D01*
X464904Y727263D01*
X465623Y726868D01*
X466341Y726544D01*
X467059Y726293D01*
X467778Y726113D01*
X468496Y726005D01*
X469215Y725969D01*
X462030Y718785D01*
X461995Y719504D01*
X461887Y720222D01*
X461707Y720941D01*
X461456Y721659D01*
X461133Y722377D01*
X460737Y723096D01*
X460270Y723814D01*
X459731Y724533D01*
X459121Y725251D01*
X458438Y725969D01*
X462030Y729562D01*
X462749Y728879D01*
D02*
G37*
G36*
X573515Y726805D02*
X573652Y726433D01*
X573881Y726106D01*
X574201Y725822D01*
X574613Y725582D01*
X575116Y725385D01*
X575710Y725233D01*
X576396Y725123D01*
X577173Y725058D01*
X577345Y725053D01*
X577427Y725055D01*
X578890Y725210D01*
X579485Y725345D01*
X579987Y725519D01*
X580399Y725732D01*
X580719Y725984D01*
X580948Y726273D01*
X581085Y726602D01*
X581130Y726970D01*
Y718531D01*
X581085Y718898D01*
X580948Y719227D01*
X580719Y719517D01*
X580399Y719768D01*
X579987Y719981D01*
X579485Y720155D01*
X578890Y720290D01*
X578204Y720387D01*
X577427Y720445D01*
X577362Y720446D01*
X577173Y720441D01*
X576396Y720373D01*
X575710Y720258D01*
X575116Y720098D01*
X574613Y719893D01*
X574201Y719641D01*
X573881Y719344D01*
X573652Y719001D01*
X573515Y718612D01*
X573470Y718178D01*
Y727220D01*
X573515Y726805D01*
D02*
G37*
G36*
X706766Y721749D02*
X706424Y721390D01*
X706119Y721031D01*
X705850Y720672D01*
X705616Y720313D01*
X705418Y719954D01*
X705257Y719594D01*
X705131Y719235D01*
X705041Y718876D01*
X704987Y718517D01*
X704969Y718157D01*
X701377Y721749D01*
X701737Y721768D01*
X702096Y721821D01*
X702455Y721911D01*
X702814Y722037D01*
X703173Y722199D01*
X703533Y722396D01*
X703892Y722630D01*
X704251Y722899D01*
X704610Y723204D01*
X704969Y723546D01*
X706766Y721749D01*
D02*
G37*
G36*
X652287Y727402D02*
X652854Y727060D01*
X653513Y726775D01*
X654265Y726547D01*
X655109Y726377D01*
X656046Y726265D01*
X657075Y726210D01*
X658196Y726212D01*
X660717Y726389D01*
X652814Y716774D01*
X652672Y718206D01*
X652107Y721828D01*
X651873Y722810D01*
X651615Y723678D01*
X651335Y724434D01*
X651031Y725078D01*
X650705Y725608D01*
X650355Y726026D01*
X651812Y727802D01*
X652287Y727402D01*
D02*
G37*
G36*
X487995Y719469D02*
X488071Y719253D01*
X488198Y719063D01*
X488376Y718898D01*
X488605Y718758D01*
X488884Y718644D01*
X489214Y718555D01*
X489595Y718492D01*
X489752Y718478D01*
X489845Y718488D01*
X490159Y718547D01*
X490462Y718630D01*
X490753Y718736D01*
X491034Y718866D01*
X491304Y719019D01*
X491562Y719196D01*
X491810Y719397D01*
X492047Y719621D01*
Y714721D01*
X491810Y714945D01*
X491562Y715145D01*
X491304Y715322D01*
X491034Y715476D01*
X490753Y715606D01*
X490462Y715712D01*
X490159Y715795D01*
X489845Y715854D01*
X489752Y715864D01*
X489595Y715850D01*
X489214Y715786D01*
X488884Y715697D01*
X488605Y715583D01*
X488376Y715443D01*
X488198Y715278D01*
X488071Y715088D01*
X487995Y714872D01*
X487970Y714631D01*
Y719711D01*
X487995Y719469D01*
D02*
G37*
G36*
X497636Y718874D02*
X497840Y718650D01*
X498061Y718451D01*
X498299Y718280D01*
X498554Y718134D01*
X498827Y718015D01*
X499117Y717923D01*
X499423Y717857D01*
X499747Y717817D01*
X500089Y717804D01*
X499582Y715264D01*
X499252Y715254D01*
X498929Y715226D01*
X498612Y715178D01*
X498301Y715111D01*
X497995Y715025D01*
X497696Y714919D01*
X497403Y714795D01*
X497115Y714651D01*
X496834Y714489D01*
X496559Y714307D01*
X497450Y719125D01*
X497636Y718874D01*
D02*
G37*
G36*
X613314Y711428D02*
X612559Y712183D01*
X611805Y712859D01*
X611051Y713456D01*
X610299Y713973D01*
X609547Y714410D01*
X608796Y714768D01*
X608046Y715046D01*
X607296Y715245D01*
X606547Y715364D01*
X605799Y715404D01*
X605873Y719976D01*
X606615Y720015D01*
X607361Y720132D01*
X608113Y720327D01*
X608869Y720599D01*
X609630Y720950D01*
X610396Y721379D01*
X611167Y721885D01*
X611943Y722470D01*
X612724Y723132D01*
X613510Y723872D01*
X613314Y711428D01*
D02*
G37*
G36*
X800406Y713280D02*
X799760Y713248D01*
X799113Y713151D01*
X798467Y712990D01*
X797820Y712763D01*
X797173Y712472D01*
X796527Y712117D01*
X795880Y711696D01*
X795234Y711211D01*
X794587Y710662D01*
X793941Y710048D01*
X790708Y713280D01*
X791322Y713927D01*
X791871Y714574D01*
X792356Y715220D01*
X792777Y715867D01*
X793132Y716513D01*
X793423Y717160D01*
X793650Y717807D01*
X793811Y718453D01*
X793908Y719100D01*
X793941Y719746D01*
X800406Y713280D01*
D02*
G37*
%LPC*%
G36*
X803514Y858782D02*
X800806D01*
X798191Y858081D01*
X795999Y856816D01*
X797677Y855139D01*
X795521Y852983D01*
X793844Y854661D01*
X792579Y852469D01*
X791878Y849854D01*
Y847146D01*
X792579Y844531D01*
X793844Y842339D01*
X795521Y844017D01*
X797677Y841861D01*
X795999Y840184D01*
X798191Y838919D01*
X800806Y838218D01*
X803514D01*
X806129Y838919D01*
X808321Y840184D01*
X806643Y841861D01*
X808799Y844017D01*
X810476Y842339D01*
X811741Y844531D01*
X812442Y847146D01*
Y849854D01*
X811741Y852469D01*
X810476Y854661D01*
X808799Y852983D01*
X806643Y855139D01*
X808321Y856816D01*
X806129Y858081D01*
X803514Y858782D01*
D02*
G37*
G36*
X757982Y852812D02*
X745418D01*
Y833748D01*
X757982D01*
Y841743D01*
X757977Y841743D01*
X757545Y841705D01*
X757164Y841642D01*
X756834Y841553D01*
X756554Y841439D01*
X756326Y841299D01*
X756148Y841134D01*
X756021Y840943D01*
X755945Y840727D01*
X755919Y840486D01*
Y845566D01*
X755945Y845325D01*
X756021Y845109D01*
X756148Y844918D01*
X756326Y844753D01*
X756554Y844613D01*
X756834Y844499D01*
X757164Y844410D01*
X757545Y844347D01*
X757977Y844309D01*
X757982Y844309D01*
Y852812D01*
D02*
G37*
G36*
X401426Y843216D02*
X400216Y843072D01*
X392643D01*
X392619Y843005D01*
X392536Y842702D01*
X392501Y842515D01*
X392544Y842254D01*
X392633Y841924D01*
X392747Y841645D01*
X392887Y841416D01*
X393052Y841238D01*
X393243Y841111D01*
X393459Y841035D01*
X393700Y841010D01*
X388620D01*
X388861Y841035D01*
X389077Y841111D01*
X389268Y841238D01*
X389433Y841416D01*
X389572Y841645D01*
X389687Y841924D01*
X389776Y842254D01*
X389819Y842515D01*
X389784Y842702D01*
X389701Y843005D01*
X389677Y843072D01*
X381628D01*
Y830508D01*
X400216D01*
X400692Y830508D01*
X401902Y830652D01*
X420490D01*
Y843216D01*
X412011D01*
X411960Y843028D01*
X411909Y842755D01*
X411968Y842398D01*
X412057Y842068D01*
X412172Y841788D01*
X412311Y841560D01*
X412476Y841382D01*
X412667Y841255D01*
X412883Y841179D01*
X413124Y841153D01*
X408044D01*
X408285Y841179D01*
X408501Y841255D01*
X408692Y841382D01*
X408857Y841560D01*
X408997Y841788D01*
X409111Y842068D01*
X409200Y842398D01*
X409259Y842755D01*
X409208Y843028D01*
X409157Y843216D01*
X401902D01*
X401431Y843216D01*
X401426D01*
D02*
G37*
G36*
X502484Y862464D02*
X490936D01*
Y844416D01*
X490936D01*
X490883Y843421D01*
X489774Y843274D01*
X489537Y843274D01*
X471726D01*
Y840236D01*
X471609Y840216D01*
X471335Y840192D01*
X470951Y840182D01*
X470788Y840109D01*
X469212D01*
X469049Y840182D01*
X468665Y840192D01*
X468391Y840216D01*
X468274Y840236D01*
Y844414D01*
X452226D01*
Y830366D01*
X468274D01*
Y834544D01*
X468391Y834564D01*
X468665Y834588D01*
X469049Y834598D01*
X469212Y834671D01*
X470788D01*
X470951Y834598D01*
X471335Y834588D01*
X471609Y834564D01*
X471726Y834544D01*
Y831726D01*
X489774D01*
Y837634D01*
X491026Y837891D01*
X491044Y837891D01*
X492454Y836481D01*
X494301Y835716D01*
X496299D01*
X498146Y836481D01*
X499559Y837894D01*
X500324Y839741D01*
Y841739D01*
X499741Y843146D01*
X500307Y844256D01*
X500485Y844416D01*
X502484D01*
Y862464D01*
D02*
G37*
G36*
X309000Y837303D02*
X296000D01*
X294430Y836991D01*
X293099Y836101D01*
X292209Y834770D01*
X291897Y833200D01*
Y828200D01*
X292209Y826630D01*
X293099Y825299D01*
X294430Y824409D01*
X296000Y824097D01*
X309000D01*
X310570Y824409D01*
X311901Y825299D01*
X312791Y826630D01*
X313103Y828200D01*
Y833200D01*
X312791Y834770D01*
X311901Y836101D01*
X310570Y836991D01*
X309000Y837303D01*
D02*
G37*
G36*
X468274Y826634D02*
X452226D01*
Y825216D01*
X452140Y825058D01*
X452109Y824768D01*
X452090Y824714D01*
X452058Y824666D01*
X451966Y824581D01*
X451763Y824457D01*
X451423Y824317D01*
X450940Y824187D01*
X450321Y824084D01*
X449571Y824018D01*
X449099Y824006D01*
X448846Y824259D01*
X446999Y825024D01*
X445001D01*
X443154Y824259D01*
X441741Y822846D01*
X440976Y820999D01*
Y819001D01*
X441741Y817154D01*
X443154Y815741D01*
X445001Y814976D01*
X446999D01*
X448603Y815640D01*
X448657Y815616D01*
X449571Y815592D01*
X450321Y815526D01*
X450940Y815423D01*
X451423Y815293D01*
X451763Y815153D01*
X451966Y815029D01*
X452058Y814944D01*
X452090Y814896D01*
X452109Y814842D01*
X452140Y814552D01*
X452226Y814394D01*
Y812586D01*
X468274D01*
Y826634D01*
D02*
G37*
G36*
X490282Y826282D02*
X471218D01*
Y813718D01*
X479249D01*
X479291Y813835D01*
X479374Y814138D01*
X479405Y814302D01*
X479366Y814536D01*
X479277Y814866D01*
X479162Y815145D01*
X479023Y815374D01*
X478858Y815552D01*
X478667Y815679D01*
X478451Y815755D01*
X478210Y815780D01*
X483290D01*
X483049Y815755D01*
X482833Y815679D01*
X482642Y815552D01*
X482477Y815374D01*
X482337Y815145D01*
X482223Y814866D01*
X482134Y814536D01*
X482095Y814302D01*
X482126Y814138D01*
X482209Y813835D01*
X482251Y813718D01*
X490282D01*
Y826282D01*
D02*
G37*
G36*
X735059Y862274D02*
X733061D01*
X731214Y861509D01*
X729801Y860096D01*
X729036Y858249D01*
Y856251D01*
X729801Y854404D01*
X730303Y853902D01*
X730412Y853616D01*
X730048Y852469D01*
X729977Y852407D01*
X729821Y852310D01*
X729808Y852304D01*
X728426D01*
Y834256D01*
X735945D01*
X735951Y834250D01*
Y828241D01*
X735881Y828083D01*
X735870Y827651D01*
X735842Y827333D01*
X735802Y827095D01*
X735791Y827054D01*
X730276D01*
Y815006D01*
X731926D01*
X732675Y813736D01*
X732166Y812505D01*
Y810507D01*
X732656Y809324D01*
X731877Y808054D01*
X730276D01*
Y796006D01*
X747324D01*
Y798651D01*
X747335Y798671D01*
X747396Y798696D01*
X747614Y798755D01*
X747928Y798807D01*
X748333Y798843D01*
X748861Y798857D01*
X749007Y798922D01*
X792386D01*
Y796413D01*
X793052Y793927D01*
X794339Y791699D01*
X796159Y789879D01*
X798387Y788592D01*
X800873Y787926D01*
X803447D01*
X805933Y788592D01*
X808161Y789879D01*
X809981Y791699D01*
X811268Y793927D01*
X811934Y796413D01*
Y798987D01*
X811268Y801473D01*
X809981Y803701D01*
X808161Y805521D01*
X805933Y806808D01*
X803447Y807474D01*
X800873D01*
X798387Y806808D01*
X796159Y805521D01*
X795475Y804837D01*
X795379Y804901D01*
X794190Y805138D01*
X768832D01*
Y809739D01*
X768827Y809739D01*
X768395Y809701D01*
X768014Y809638D01*
X767684Y809549D01*
X767404Y809435D01*
X767176Y809295D01*
X766998Y809130D01*
X766871Y808939D01*
X766795Y808723D01*
X766769Y808482D01*
Y813562D01*
X766795Y813321D01*
X766871Y813105D01*
X766998Y812914D01*
X767176Y812749D01*
X767404Y812609D01*
X767684Y812495D01*
X768014Y812406D01*
X768395Y812343D01*
X768827Y812305D01*
X768832Y812305D01*
Y818062D01*
X750768D01*
Y805138D01*
X749007D01*
X748861Y805203D01*
X748333Y805217D01*
X747928Y805253D01*
X747614Y805305D01*
X747396Y805364D01*
X747335Y805388D01*
X747324Y805409D01*
Y808054D01*
X742502D01*
X741724Y809324D01*
X742214Y810507D01*
Y812505D01*
X741704Y813736D01*
X742454Y815006D01*
X747324D01*
Y820091D01*
X747365Y820102D01*
X747603Y820142D01*
X747921Y820170D01*
X748353Y820181D01*
X748511Y820251D01*
X788800D01*
X788930Y820185D01*
X789389Y820150D01*
X789786Y820061D01*
X790255Y819896D01*
X790790Y819645D01*
X791385Y819303D01*
X792035Y818866D01*
X792719Y818346D01*
X794276Y816974D01*
X795109Y816151D01*
X795408Y816030D01*
X796159Y815279D01*
X798387Y813992D01*
X800873Y813326D01*
X803447D01*
X805933Y813992D01*
X808161Y815279D01*
X809981Y817099D01*
X811268Y819327D01*
X811934Y821813D01*
Y824387D01*
X811268Y826873D01*
X809981Y829101D01*
X808161Y830921D01*
X805933Y832208D01*
X803447Y832874D01*
X800873D01*
X798387Y832208D01*
X796159Y830921D01*
X795408Y830170D01*
X795109Y830049D01*
X794276Y829226D01*
X792719Y827854D01*
X792035Y827334D01*
X791386Y826898D01*
X790790Y826555D01*
X790255Y826304D01*
X789786Y826139D01*
X789389Y826051D01*
X788930Y826015D01*
X788800Y825949D01*
X748507D01*
X748348Y826019D01*
X747911Y826029D01*
X747581Y826055D01*
X747328Y826093D01*
X747324Y826094D01*
Y827054D01*
X745999D01*
X745770Y827149D01*
X745675Y827110D01*
X745576Y827138D01*
X745426Y827054D01*
X741809D01*
X741798Y827095D01*
X741758Y827333D01*
X741730Y827651D01*
X741719Y828083D01*
X741649Y828241D01*
Y835430D01*
X741649Y835430D01*
X741432Y836520D01*
X740814Y837444D01*
X740814Y837444D01*
X739974Y838285D01*
Y852304D01*
X738312D01*
X738299Y852310D01*
X738143Y852407D01*
X738072Y852469D01*
X737708Y853616D01*
X737817Y853902D01*
X738319Y854404D01*
X739084Y856251D01*
Y858249D01*
X738319Y860096D01*
X736906Y861509D01*
X735059Y862274D01*
D02*
G37*
G36*
X768832Y767262D02*
X750768D01*
Y754198D01*
X768832D01*
Y759393D01*
X768729Y759413D01*
X768598Y759427D01*
X768395Y759409D01*
X768014Y759346D01*
X767684Y759257D01*
X767404Y759143D01*
X767176Y759003D01*
X766998Y758838D01*
X766871Y758647D01*
X766795Y758431D01*
X766769Y758190D01*
Y763270D01*
X766795Y763029D01*
X766871Y762813D01*
X766998Y762622D01*
X767176Y762457D01*
X767404Y762318D01*
X767684Y762203D01*
X768014Y762114D01*
X768395Y762051D01*
X768598Y762033D01*
X768729Y762047D01*
X768832Y762067D01*
Y767262D01*
D02*
G37*
G36*
X487032Y752532D02*
X467968D01*
Y739968D01*
X476191D01*
X476203Y740031D01*
X476219Y740180D01*
X476199Y740405D01*
X476136Y740786D01*
X476047Y741116D01*
X475933Y741395D01*
X475793Y741624D01*
X475628Y741802D01*
X475437Y741929D01*
X475221Y742005D01*
X474980Y742030D01*
X480060D01*
X479819Y742005D01*
X479603Y741929D01*
X479412Y741802D01*
X479247Y741624D01*
X479108Y741395D01*
X478993Y741116D01*
X478904Y740786D01*
X478841Y740405D01*
X478821Y740180D01*
X478837Y740031D01*
X478849Y739968D01*
X487032D01*
Y752532D01*
D02*
G37*
G36*
X309000Y750903D02*
X296000D01*
X294430Y750591D01*
X293099Y749701D01*
X292209Y748370D01*
X291897Y746800D01*
Y741800D01*
X292209Y740230D01*
X293099Y738899D01*
X294430Y738009D01*
X296000Y737697D01*
X309000D01*
X310570Y738009D01*
X311901Y738899D01*
X312791Y740230D01*
X313103Y741800D01*
Y746800D01*
X312791Y748370D01*
X311901Y749701D01*
X310570Y750591D01*
X309000Y750903D01*
D02*
G37*
G36*
X405010Y740990D02*
X385946D01*
Y728426D01*
X393816D01*
X393848Y728542D01*
X393905Y728845D01*
X393903Y728863D01*
X393840Y729244D01*
X393751Y729574D01*
X393637Y729854D01*
X393497Y730082D01*
X393332Y730260D01*
X393141Y730387D01*
X392925Y730463D01*
X392684Y730489D01*
X397764D01*
X397523Y730463D01*
X397307Y730387D01*
X397116Y730260D01*
X396951Y730082D01*
X396811Y729854D01*
X396697Y729574D01*
X396608Y729244D01*
X396545Y728863D01*
X396543Y728845D01*
X396600Y728542D01*
X396632Y728426D01*
X405010D01*
Y740990D01*
D02*
G37*
G36*
X387142Y725558D02*
X382367D01*
X382317Y725295D01*
X382311Y725235D01*
X382321Y725121D01*
X382384Y724740D01*
X382473Y724410D01*
X382588Y724130D01*
X382727Y723902D01*
X382892Y723724D01*
X383083Y723597D01*
X383299Y723521D01*
X383540Y723495D01*
X378460D01*
X378701Y723521D01*
X378917Y723597D01*
X379108Y723724D01*
X379273Y723902D01*
X379412Y724130D01*
X379527Y724410D01*
X379616Y724740D01*
X379679Y725121D01*
X379689Y725235D01*
X379683Y725295D01*
X379633Y725558D01*
X374578D01*
Y706494D01*
X387142D01*
Y725558D01*
D02*
G37*
G36*
X436032Y721032D02*
X416968D01*
Y716290D01*
X417165Y716199D01*
X417457Y716093D01*
X417751Y716012D01*
X417786Y716018D01*
X418116Y716107D01*
X418396Y716221D01*
X418624Y716361D01*
X418802Y716526D01*
X418929Y716717D01*
X419005Y716933D01*
X419030Y717174D01*
Y712094D01*
X419005Y712335D01*
X418929Y712551D01*
X418802Y712742D01*
X418624Y712907D01*
X418396Y713046D01*
X418116Y713161D01*
X417786Y713250D01*
X417751Y713255D01*
X417457Y713175D01*
X417165Y713069D01*
X416968Y712978D01*
Y708468D01*
X436032D01*
Y713217D01*
X436027Y713217D01*
X435595Y713179D01*
X435214Y713116D01*
X434884Y713027D01*
X434604Y712913D01*
X434376Y712773D01*
X434198Y712608D01*
X434071Y712417D01*
X433995Y712201D01*
X433969Y711960D01*
Y717040D01*
X433995Y716799D01*
X434071Y716583D01*
X434198Y716392D01*
X434376Y716227D01*
X434604Y716087D01*
X434884Y715973D01*
X435214Y715884D01*
X435595Y715821D01*
X436027Y715783D01*
X436032Y715783D01*
Y721032D01*
D02*
G37*
G36*
X556224Y728774D02*
X546676D01*
Y713226D01*
X556224D01*
Y728774D01*
D02*
G37*
G36*
X456782Y720782D02*
X437718D01*
Y715783D01*
X437723Y715783D01*
X438155Y715821D01*
X438536Y715884D01*
X438866Y715973D01*
X439146Y716087D01*
X439374Y716227D01*
X439552Y716392D01*
X439679Y716583D01*
X439755Y716799D01*
X439781Y717040D01*
Y711960D01*
X439755Y712201D01*
X439679Y712417D01*
X439552Y712608D01*
X439374Y712773D01*
X439146Y712913D01*
X438866Y713027D01*
X438536Y713116D01*
X438155Y713179D01*
X437723Y713217D01*
X437718Y713217D01*
Y708218D01*
X456782D01*
Y720782D01*
D02*
G37*
G36*
X344017Y731524D02*
X340983D01*
X338052Y730739D01*
X335424Y729221D01*
X333279Y727076D01*
X331761Y724448D01*
X330976Y721517D01*
Y718483D01*
X331761Y715552D01*
X333279Y712924D01*
X335424Y710779D01*
X338052Y709261D01*
X340983Y708476D01*
X344017D01*
X346948Y709261D01*
X349576Y710779D01*
X351721Y712924D01*
X353239Y715552D01*
X354024Y718483D01*
Y721517D01*
X353239Y724448D01*
X351721Y727076D01*
X349576Y729221D01*
X346948Y730739D01*
X344017Y731524D01*
D02*
G37*
G36*
X363871Y730476D02*
X362569D01*
X361365Y729977D01*
X360444Y729057D01*
X359946Y727853D01*
Y726551D01*
X360042Y726320D01*
X359299Y725050D01*
X357586D01*
Y707002D01*
X369134D01*
Y725050D01*
X367141D01*
X366398Y726320D01*
X366494Y726551D01*
Y727853D01*
X365995Y729057D01*
X365075Y729977D01*
X363871Y730476D01*
D02*
G37*
%LPD*%
G36*
X496575Y845971D02*
X497840D01*
X497599Y845945D01*
X497383Y845869D01*
X497192Y845742D01*
X497027Y845564D01*
X496888Y845335D01*
X496773Y845056D01*
X496735Y844913D01*
X496759Y844825D01*
X496865Y844533D01*
X496995Y844253D01*
X497148Y843983D01*
X497325Y843724D01*
X497526Y843476D01*
X497750Y843240D01*
X492850D01*
X493074Y843476D01*
X493275Y843724D01*
X493452Y843983D01*
X493605Y844253D01*
X493735Y844533D01*
X493841Y844825D01*
X493865Y844913D01*
X493827Y845056D01*
X493713Y845335D01*
X493573Y845564D01*
X493408Y845742D01*
X493217Y845869D01*
X493001Y845945D01*
X492760Y845971D01*
X494025D01*
X494030Y846102D01*
X496570D01*
X496575Y845971D01*
D02*
G37*
G36*
X473280Y835104D02*
X473258Y835321D01*
X473189Y835515D01*
X473075Y835687D01*
X472915Y835835D01*
X472709Y835961D01*
X472458Y836064D01*
X472160Y836144D01*
X471817Y836201D01*
X471429Y836236D01*
X470994Y836247D01*
Y838533D01*
X471429Y838544D01*
X471817Y838579D01*
X472160Y838636D01*
X472458Y838716D01*
X472709Y838819D01*
X472915Y838944D01*
X473075Y839093D01*
X473189Y839265D01*
X473258Y839459D01*
X473280Y839676D01*
Y835104D01*
D02*
G37*
G36*
X466742Y839459D02*
X466811Y839265D01*
X466925Y839093D01*
X467085Y838944D01*
X467291Y838819D01*
X467542Y838716D01*
X467840Y838636D01*
X468183Y838579D01*
X468571Y838544D01*
X469006Y838533D01*
Y836247D01*
X468571Y836236D01*
X468183Y836201D01*
X467840Y836144D01*
X467542Y836064D01*
X467291Y835961D01*
X467085Y835835D01*
X466925Y835687D01*
X466811Y835515D01*
X466742Y835321D01*
X466720Y835104D01*
Y839676D01*
X466742Y839459D01*
D02*
G37*
G36*
X453781Y814725D02*
X453730Y815208D01*
X453577Y815639D01*
X453323Y816020D01*
X452968Y816351D01*
X452510Y816630D01*
X451952Y816859D01*
X451291Y817036D01*
X450529Y817163D01*
X449666Y817240D01*
X448700Y817265D01*
Y822345D01*
X449666Y822370D01*
X450529Y822447D01*
X451291Y822574D01*
X451952Y822751D01*
X452510Y822980D01*
X452968Y823259D01*
X453323Y823590D01*
X453577Y823971D01*
X453730Y824402D01*
X453781Y824885D01*
Y814725D01*
D02*
G37*
G36*
X736286Y854514D02*
X736085Y854266D01*
X735908Y854007D01*
X735755Y853737D01*
X735625Y853457D01*
X735519Y853165D01*
X735436Y852862D01*
X735377Y852549D01*
X735371Y852489D01*
X735381Y852375D01*
X735444Y851994D01*
X735533Y851664D01*
X735648Y851385D01*
X735787Y851156D01*
X735952Y850978D01*
X736143Y850851D01*
X736359Y850775D01*
X736600Y850750D01*
X731520D01*
X731761Y850775D01*
X731977Y850851D01*
X732168Y850978D01*
X732333Y851156D01*
X732473Y851385D01*
X732587Y851664D01*
X732676Y851994D01*
X732739Y852375D01*
X732749Y852489D01*
X732743Y852549D01*
X732684Y852862D01*
X732601Y853165D01*
X732495Y853457D01*
X732365Y853737D01*
X732212Y854007D01*
X732035Y854266D01*
X731834Y854514D01*
X731610Y854751D01*
X736510D01*
X736286Y854514D01*
D02*
G37*
G36*
X740083Y827557D02*
X740121Y827125D01*
X740184Y826744D01*
X740273Y826414D01*
X740387Y826134D01*
X740527Y825906D01*
X740692Y825728D01*
X740883Y825601D01*
X741099Y825525D01*
X741340Y825499D01*
X736260D01*
X736501Y825525D01*
X736717Y825601D01*
X736908Y825728D01*
X737073Y825906D01*
X737213Y826134D01*
X737327Y826414D01*
X737416Y826744D01*
X737479Y827125D01*
X737517Y827557D01*
X737530Y828039D01*
X740070D01*
X740083Y827557D01*
D02*
G37*
G36*
X745795Y825285D02*
X745871Y825093D01*
X745998Y824923D01*
X746176Y824777D01*
X746404Y824652D01*
X746684Y824551D01*
X747014Y824472D01*
X747395Y824415D01*
X747827Y824381D01*
X748309Y824370D01*
Y821830D01*
X747827Y821817D01*
X747395Y821779D01*
X747014Y821716D01*
X746684Y821627D01*
X746404Y821513D01*
X746176Y821373D01*
X745998Y821208D01*
X745871Y821017D01*
X745795Y820801D01*
X745770Y820560D01*
Y825499D01*
X745795Y825285D01*
D02*
G37*
G36*
X796268Y817325D02*
X795401Y818181D01*
X793765Y819623D01*
X792995Y820208D01*
X792258Y820704D01*
X791553Y821109D01*
X790881Y821425D01*
X790241Y821650D01*
X789633Y821785D01*
X789058Y821830D01*
Y824370D01*
X789633Y824415D01*
X790241Y824550D01*
X790881Y824775D01*
X791553Y825091D01*
X792258Y825496D01*
X792995Y825992D01*
X793765Y826578D01*
X795401Y828019D01*
X796268Y828875D01*
Y817325D01*
D02*
G37*
G36*
X738728Y809007D02*
X739640D01*
X739464Y808816D01*
X739306Y808606D01*
X739167Y808378D01*
X739047Y808131D01*
X738945Y807865D01*
X738914Y807758D01*
X738958Y807597D01*
X739095Y807262D01*
X739262Y806987D01*
X739461Y806774D01*
X739689Y806621D01*
X739948Y806530D01*
X740238Y806499D01*
X738720D01*
X738714Y806255D01*
X735666D01*
X735659Y806499D01*
X734142D01*
X734431Y806530D01*
X734690Y806621D01*
X734919Y806774D01*
X735117Y806987D01*
X735285Y807262D01*
X735422Y807597D01*
X735465Y807758D01*
X735434Y807865D01*
X735332Y808131D01*
X735212Y808378D01*
X735073Y808606D01*
X734916Y808816D01*
X734740Y809007D01*
X735651D01*
X735666Y809548D01*
X738714D01*
X738728Y809007D01*
D02*
G37*
G36*
X745800Y804788D02*
X745891Y804529D01*
X746044Y804301D01*
X746257Y804103D01*
X746532Y803935D01*
X746867Y803798D01*
X747263Y803691D01*
X747720Y803615D01*
X748238Y803569D01*
X748818Y803554D01*
Y800506D01*
X748238Y800491D01*
X747720Y800445D01*
X747263Y800369D01*
X746867Y800262D01*
X746532Y800125D01*
X746257Y799957D01*
X746044Y799759D01*
X745891Y799531D01*
X745800Y799272D01*
X745770Y798982D01*
Y805078D01*
X745800Y804788D01*
D02*
G37*
G36*
X364503Y725553D02*
X364541Y725121D01*
X364604Y724740D01*
X364693Y724410D01*
X364808Y724130D01*
X364947Y723902D01*
X365112Y723724D01*
X365303Y723597D01*
X365519Y723521D01*
X365760Y723495D01*
X360680D01*
X360921Y723521D01*
X361137Y723597D01*
X361328Y723724D01*
X361493Y723902D01*
X361632Y724130D01*
X361747Y724410D01*
X361836Y724740D01*
X361899Y725121D01*
X361937Y725553D01*
X361950Y726036D01*
X364490D01*
X364503Y725553D01*
D02*
G37*
D12*
X553830Y797000D02*
X568541D01*
X552017Y823044D02*
X559721Y815340D01*
X568541Y797000D02*
X582542Y811001D01*
X559721Y815340D02*
X572770D01*
X603882Y799473D02*
X619117D01*
X605790Y792480D02*
X617604Y780666D01*
X599496Y766883D02*
X610632Y755747D01*
X595432Y816426D02*
X614920Y835914D01*
X595432Y784832D02*
Y816426D01*
X599496Y766883D02*
Y795087D01*
X603882Y799473D01*
X585600Y775000D02*
X595432Y784832D01*
X640136Y767013D02*
X652515Y754634D01*
X613396Y808990D02*
X614920Y810514D01*
X605790Y808990D02*
X613396D01*
X666728Y810514D02*
X697500Y841286D01*
X646430Y769620D02*
X647283Y770473D01*
Y775695D02*
X654403Y782815D01*
X647283Y770473D02*
Y775695D01*
X662178Y782815D02*
X669298Y789934D01*
X617604Y780666D02*
X629175D01*
X652515Y754634D02*
X666510D01*
X639316Y755747D02*
X649197Y745866D01*
X658754D02*
X661670Y742950D01*
X649197Y745866D02*
X658754D01*
X629175Y780666D02*
X640136Y769705D01*
X610632Y755747D02*
X639316D01*
X640136Y767013D02*
Y769705D01*
X369500Y755500D02*
X370000Y755000D01*
X350050Y755500D02*
X369500D01*
X698500Y716280D02*
X699500D01*
X707794Y724574D01*
Y740717D01*
X704730Y743781D02*
X707794Y740717D01*
X704730Y743781D02*
Y751540D01*
X701750Y754520D02*
X704730Y751540D01*
X698500Y754520D02*
X701750D01*
X619117Y799473D02*
X619760Y798830D01*
X666510Y754634D02*
X687084Y734060D01*
X698500D01*
X550100Y792000D02*
X573560D01*
X523266Y843317D02*
X526668D01*
X511850Y830609D02*
X519374Y838133D01*
X614920Y835914D02*
X647954D01*
X511850Y815250D02*
Y830609D01*
X669298Y789934D02*
X698354D01*
X654403Y782815D02*
X662178D01*
X565100Y784500D02*
X565280Y784680D01*
X572590D02*
X572770Y784860D01*
X565280Y784680D02*
X572590D01*
X578806Y781995D02*
X590494Y793683D01*
X566137Y828294D02*
X569757D01*
X526850Y824060D02*
X538648Y835858D01*
X585470Y823686D02*
Y823976D01*
X538648Y835858D02*
X539750D01*
X565600Y765500D02*
X578806Y778706D01*
X585470Y823686D02*
X590494Y818662D01*
X540175Y823044D02*
X552017D01*
X541578Y842152D02*
X552279D01*
X533540Y850190D02*
X541578Y842152D01*
X578806Y778706D02*
Y781995D01*
X536870Y819739D02*
X540175Y823044D01*
X519374Y839425D02*
X523266Y843317D01*
X554833Y832267D02*
X564600Y822500D01*
X552279Y842152D02*
X566137Y828294D01*
X550763Y832267D02*
X554833D01*
X549910Y833120D02*
X550763Y832267D01*
X544176Y827386D02*
X549910Y833120D01*
X531850Y820467D02*
X538770Y827386D01*
X544176D01*
X519374Y838133D02*
Y839425D01*
X590494Y793683D02*
Y818662D01*
X573894Y824157D02*
X585289D01*
X569757Y828294D02*
X573894Y824157D01*
X521850Y815250D02*
Y831793D01*
X525780Y835723D02*
Y836930D01*
X521850Y831793D02*
X525780Y835723D01*
X526668Y843317D02*
X533540Y850190D01*
X585289Y824157D02*
X585470Y823976D01*
X513080Y852310D02*
X514210Y853440D01*
X513080Y840740D02*
Y852310D01*
X573560Y792000D02*
X584200Y802640D01*
X614920Y810514D02*
X666728D01*
X698354Y789934D02*
X698500Y790080D01*
X645146Y824230D02*
X658862Y837946D01*
X671717D01*
X736300Y770230D02*
X738800D01*
X721138Y785392D02*
Y840347D01*
Y785392D02*
X736300Y770230D01*
X671717Y837946D02*
X687415Y853644D01*
X619760Y824230D02*
X645146D01*
X707841Y853644D02*
X721138Y840347D01*
X687415Y853644D02*
X707841D01*
X599735Y839325D02*
Y842445D01*
X619620Y849770D02*
X619760Y849630D01*
X607060Y849770D02*
X619620D01*
X599735Y842445D02*
X607060Y849770D01*
X592410Y832000D02*
X599735Y839325D01*
X585100Y832000D02*
X592410D01*
X647954Y835914D02*
X661670Y849630D01*
X706157Y849580D02*
X717074Y838664D01*
X727990Y751230D02*
X738800D01*
X717074Y762146D02*
Y838664D01*
X664606Y824230D02*
X689956Y849580D01*
X717074Y762146D02*
X727990Y751230D01*
X661670Y824230D02*
X664606D01*
X689956Y849580D02*
X706157D01*
X585100Y775000D02*
X585600D01*
X697500Y841286D02*
X698500D01*
Y772020D02*
Y790080D01*
X698500Y807580D02*
Y823506D01*
X588470Y740380D02*
Y749475D01*
Y740380D02*
X588600Y740250D01*
X740870Y772300D02*
X802160D01*
X738800Y770230D02*
X740870Y772300D01*
X801060Y748000D02*
X802160Y746900D01*
X742030Y748000D02*
X801060D01*
X738800Y751230D02*
X742030Y748000D01*
X526850Y815250D02*
Y824060D01*
X536870Y818980D02*
Y819739D01*
X531850Y818980D02*
Y820467D01*
X495300Y852030D02*
X496710Y853440D01*
X495300Y840740D02*
Y852030D01*
X533540Y850190D02*
Y853440D01*
X557190Y842988D02*
X558678Y841500D01*
X557190Y842988D02*
Y844040D01*
X551040Y850190D02*
X557190Y844040D01*
X551040Y850190D02*
Y853440D01*
X558678Y841500D02*
X565100D01*
X734060Y843420D02*
Y857250D01*
Y843420D02*
X734200Y843280D01*
Y840030D02*
Y843280D01*
Y840030D02*
X738800Y835430D01*
Y821030D02*
Y835430D01*
X740870Y823100D02*
X802160D01*
X738800Y821030D02*
X740870Y823100D01*
X564600Y822500D02*
X565100D01*
X513600Y729000D02*
Y732250D01*
X508359Y723759D02*
X513600Y729000D01*
X506081Y723759D02*
X508359D01*
X505206Y722884D02*
X506081Y723759D01*
X511850Y752750D02*
Y768750D01*
X751954Y843026D02*
X763778D01*
X751700Y843280D02*
X751954Y843026D01*
X358464Y769804D02*
X358648Y769620D01*
X350050Y770000D02*
X350246Y769804D01*
X358464D01*
X391020Y819150D02*
X391160Y819290D01*
X381508Y819150D02*
X391020D01*
X395224Y724154D02*
Y734454D01*
X395478Y734708D01*
X414020Y732028D02*
X426278D01*
X426500Y732250D01*
X495183Y716534D02*
X513585D01*
X520644Y723593D01*
X494547Y717171D02*
X495183Y716534D01*
X485079Y717171D02*
X494547D01*
X760308Y811022D02*
X777240D01*
X759800Y811530D02*
X760308Y811022D01*
X495606Y797000D02*
X503600D01*
X493613Y798993D02*
Y801787D01*
Y798993D02*
X495606Y797000D01*
X492760Y802640D02*
X493613Y801787D01*
X520644Y723593D02*
Y759657D01*
X516870Y763431D02*
Y768730D01*
Y763431D02*
X520644Y759657D01*
X516850Y768750D02*
X516870Y768730D01*
X513600Y732250D02*
Y751000D01*
X511850Y752750D02*
X513600Y751000D01*
X363220Y716166D02*
Y727202D01*
Y716166D02*
X363360Y716026D01*
X497590Y774700D02*
X499890Y777000D01*
X350050Y800000D02*
X359000D01*
X458250Y746250D02*
X465237Y739263D01*
X455000Y746250D02*
X458250D01*
X364816Y817684D02*
X365000Y817500D01*
X480750Y820000D02*
X480750Y820000D01*
X426750Y714500D02*
X447250D01*
X560850Y733500D02*
Y746000D01*
X465237Y734913D02*
Y739263D01*
X480750Y809750D02*
Y820000D01*
X465237Y734913D02*
X466090Y734060D01*
X533662Y714949D02*
Y725188D01*
X533600Y725250D02*
X533662Y725188D01*
X477520Y735330D02*
Y746230D01*
X477500Y746250D02*
X477520Y746230D01*
X486285Y732534D02*
X495816D01*
X496100Y732250D01*
X426500Y714750D02*
X426750Y714500D01*
X413372Y714634D02*
X426384D01*
X426500Y714750D01*
X381000Y716166D02*
Y729996D01*
X380860Y716026D02*
X381000Y716166D01*
X410584Y837308D02*
Y847416D01*
Y837308D02*
X410958Y836934D01*
X759800Y760730D02*
X773430D01*
X391160Y836790D02*
X391160Y836790D01*
Y847090D01*
X493710Y782000D02*
X499870D01*
X496570Y774700D02*
X497590D01*
X499890Y777000D02*
X503600D01*
X483750Y718500D02*
X485079Y717171D01*
X565100Y765500D02*
X565600D01*
D19*
X759800Y811530D02*
D03*
X738800Y802030D02*
D03*
Y821030D02*
D03*
Y751230D02*
D03*
Y770230D02*
D03*
X759800Y760730D02*
D03*
D20*
X560850Y746000D02*
D03*
X570250D02*
D03*
X551450D02*
D03*
Y721000D02*
D03*
X570250D02*
D03*
D21*
X585100Y775000D02*
D03*
X565100Y784500D02*
D03*
Y765500D02*
D03*
Y841500D02*
D03*
Y822500D02*
D03*
X585100Y832000D02*
D03*
D22*
X392948Y771006D02*
D03*
X373644Y793866D02*
D03*
Y771006D02*
D03*
D23*
X390662Y793866D02*
D03*
D24*
X496100Y751000D02*
D03*
X513600Y751000D02*
D03*
X734200Y843280D02*
D03*
X751700Y843280D02*
D03*
X466250Y718500D02*
D03*
X483750Y718500D02*
D03*
X496100Y732250D02*
D03*
X513600Y732250D02*
D03*
X380860Y716026D02*
D03*
X363360Y716026D02*
D03*
X551040Y853440D02*
D03*
X533540Y853440D02*
D03*
X496710Y853440D02*
D03*
X514210Y853440D02*
D03*
D25*
X536850Y815250D02*
D03*
X531850D02*
D03*
X526850D02*
D03*
X521850D02*
D03*
Y768750D02*
D03*
X526850D02*
D03*
X531850D02*
D03*
X536850D02*
D03*
X541850D02*
D03*
Y815250D02*
D03*
X516850D02*
D03*
X511850Y768750D02*
D03*
X516850D02*
D03*
X511850Y815250D02*
D03*
D26*
X503600Y797000D02*
D03*
X550100Y787000D02*
D03*
X503600Y807000D02*
D03*
Y802000D02*
D03*
X550100Y777000D02*
D03*
Y782000D02*
D03*
Y792000D02*
D03*
Y797000D02*
D03*
Y802000D02*
D03*
Y807000D02*
D03*
X503600Y792000D02*
D03*
Y787000D02*
D03*
Y782000D02*
D03*
Y777000D02*
D03*
D27*
X698500Y716280D02*
D03*
Y734060D02*
D03*
X460250Y819610D02*
D03*
Y837390D02*
D03*
X698500Y823506D02*
D03*
Y841286D02*
D03*
D28*
X350050Y805000D02*
D03*
Y800000D02*
D03*
Y795000D02*
D03*
Y770000D02*
D03*
Y775000D02*
D03*
Y780000D02*
D03*
Y790000D02*
D03*
Y785000D02*
D03*
D29*
Y763500D02*
D03*
Y811500D02*
D03*
Y755500D02*
D03*
Y819500D02*
D03*
D30*
X588600Y740250D02*
D03*
Y722750D02*
D03*
X410958Y819434D02*
D03*
Y836934D02*
D03*
X395478Y752208D02*
D03*
Y734708D02*
D03*
X477500Y763750D02*
D03*
Y746250D02*
D03*
X455000D02*
D03*
Y763750D02*
D03*
X447250Y732000D02*
D03*
Y714500D02*
D03*
X426500Y714750D02*
D03*
Y732250D02*
D03*
X391160Y836790D02*
D03*
X391160Y819290D02*
D03*
X480750Y837500D02*
D03*
X480750Y820000D02*
D03*
X533600Y725250D02*
D03*
X533600Y742750D02*
D03*
X698500Y790080D02*
D03*
X698500Y807580D02*
D03*
X698500Y772020D02*
D03*
X698500Y754520D02*
D03*
D31*
X471000Y787500D02*
D03*
X444000D02*
D03*
Y797500D02*
D03*
X471000D02*
D03*
D53*
X526850Y792000D02*
D03*
D54*
X620371Y742339D02*
X644320D01*
X596910Y717690D02*
X619620D01*
X619760Y717550D01*
X591850Y722750D02*
X596910Y717690D01*
X588600Y722750D02*
X591850D01*
X787630Y706970D02*
X802160Y721500D01*
X667142Y730250D02*
X690422Y706970D01*
X787630D01*
X644320Y742339D02*
X656410Y730250D01*
X667142D01*
X619760Y742950D02*
X620371Y742339D01*
X570250Y721000D02*
Y721786D01*
X571214Y722750D02*
X588600D01*
X570250Y721786D02*
X571214Y722750D01*
D55*
X558933Y761395D02*
X564686Y755642D01*
X591024D02*
X603991Y742675D01*
X614973Y731393D02*
X646604D01*
X660447Y717550D02*
X661670D01*
X603991Y742375D02*
X614973Y731393D01*
X564686Y755642D02*
X591024D01*
X603991Y742375D02*
Y742675D01*
X646604Y731393D02*
X660447Y717550D01*
X558933Y761395D02*
Y782457D01*
X555472Y785917D02*
X558933Y782457D01*
X554991Y785917D02*
X555472D01*
X553908Y787000D02*
X554991Y785917D01*
X550100Y787000D02*
X553908D01*
X357506Y784643D02*
X357934Y784215D01*
X350050Y785000D02*
X350407Y784643D01*
X370977Y785554D02*
Y791199D01*
X369638Y784215D02*
X370977Y785554D01*
X357934Y784215D02*
X369638D01*
X350407Y784643D02*
X357506D01*
X357934Y780785D02*
X369252D01*
X357506Y780357D02*
X357934Y780785D01*
X350050Y780000D02*
X350407Y780357D01*
X357506D01*
X369252Y780785D02*
X370977Y779060D01*
X341376Y788304D02*
X342715Y789643D01*
X349693D01*
X342715Y780357D02*
X348890D01*
X341376Y781696D02*
X342715Y780357D01*
X341376Y781696D02*
Y788304D01*
X350050Y795000D02*
X350318Y794732D01*
X357309D02*
X358648Y793392D01*
X357309Y785268D02*
X358648Y786608D01*
X350318Y794732D02*
X357309D01*
X358648Y786608D02*
Y793392D01*
X348890Y780357D02*
X349247Y780000D01*
X349693Y789643D02*
X350050Y790000D01*
X370977Y773673D02*
Y779060D01*
Y773673D02*
X373644Y771006D01*
X370977Y791199D02*
X373644Y793866D01*
X425514Y807359D02*
X452341D01*
X376531Y780721D02*
X403727D01*
X452341Y807359D02*
X457699Y802002D01*
X403727Y780721D02*
X426935Y803929D01*
X450920D01*
X376311Y784372D02*
X376531Y784152D01*
X454350Y790785D02*
X457699Y794133D01*
X454268Y795554D02*
Y800581D01*
X450920Y803929D02*
X454268Y800581D01*
X448357Y789446D02*
X449696Y790785D01*
X446500Y787500D02*
X448357Y789357D01*
Y789446D01*
X444000Y787500D02*
X446500D01*
X449696Y790785D02*
X454350D01*
X402306Y784152D02*
X425514Y807359D01*
X457699Y794133D02*
Y802002D01*
X376531Y784152D02*
X402306D01*
X376311Y784372D02*
Y791199D01*
X373644Y793866D02*
X376311Y791199D01*
X448357Y795554D02*
Y795643D01*
X446500Y797500D02*
X448357Y795643D01*
X444000Y797500D02*
X446500D01*
X448357Y795554D02*
X449696Y794215D01*
X452929D01*
X454268Y795554D01*
X376311Y780501D02*
X376531Y780721D01*
X376311Y773673D02*
Y780501D01*
X373644Y771006D02*
X376311Y773673D01*
X480640Y837390D02*
X480750Y837500D01*
X460250Y837390D02*
X480640D01*
X475357Y795554D02*
Y795643D01*
X473500Y797500D02*
X475357Y795643D01*
Y795554D02*
X476696Y794215D01*
X489618Y791215D02*
X497448D01*
X486618Y794215D02*
X489618Y791215D01*
X476696Y794215D02*
X486618D01*
X471000Y797500D02*
X473500D01*
X498192Y791959D02*
X503559D01*
X503600Y792000D01*
X497448Y791215D02*
X498192Y791959D01*
X488197Y787785D02*
X497448D01*
X471000Y787500D02*
X473500D01*
X475357Y789357D01*
Y789446D01*
X476696Y790785D01*
X485197D02*
X488197Y787785D01*
X503559Y787041D02*
X503600Y787000D01*
X498192Y787041D02*
X503559D01*
X476696Y790785D02*
X485197D01*
X497448Y787785D02*
X498192Y787041D01*
D56*
X737190Y803640D02*
Y811506D01*
Y803640D02*
X738800Y802030D01*
X794190D02*
X798520Y797700D01*
X802160D01*
X738800Y802030D02*
X794190D01*
D57*
X424717Y819717D02*
X425000Y820000D01*
X411241Y819717D02*
X424717D01*
X410958Y819434D02*
X411241Y819717D01*
X407708Y819434D02*
X410958D01*
X405998Y817724D02*
X407708Y819434D01*
X405998Y816693D02*
Y817724D01*
X402724Y813419D02*
X405998Y816693D01*
X383071Y810936D02*
X383111Y810976D01*
X360817Y810936D02*
X383071D01*
X360713Y811040D02*
X360817Y810936D01*
X350510Y811040D02*
X360713D01*
X350050Y811500D02*
X350510Y811040D01*
X445146Y732000D02*
X445400D01*
X369263Y762432D02*
X369331Y762500D01*
X392500D01*
X363420Y763040D02*
X364028Y762432D01*
X369263D01*
X350510Y763040D02*
X363420D01*
X350050Y763500D02*
X350510Y763040D01*
X426500Y732250D02*
X426625Y732125D01*
X443436Y769683D02*
X449594Y775842D01*
X487552D01*
X426625Y732125D02*
X443375D01*
X443436Y733710D02*
X445146Y732000D01*
X443436Y733710D02*
Y769683D01*
X487552Y775842D02*
X493710Y782000D01*
X494367Y764367D02*
Y772497D01*
X477500Y763750D02*
X477625Y763875D01*
X493875D01*
X494390Y752710D02*
Y763090D01*
X494367Y772497D02*
X496570Y774700D01*
X494000Y764000D02*
X494367Y764367D01*
X493875Y763875D02*
X494000Y764000D01*
X494390Y752710D02*
X496100Y751000D01*
X494000Y763480D02*
X494390Y763090D01*
X494000Y763480D02*
Y764000D01*
X446195Y819805D02*
X460055D01*
X446000Y820000D02*
X446195Y819805D01*
X460055D02*
X460250Y819610D01*
X392500Y762500D02*
X392867Y762133D01*
Y753918D02*
Y762133D01*
Y753918D02*
X393768D01*
X392724Y770782D02*
X392948Y771006D01*
X392724Y762724D02*
Y770782D01*
X393768Y753918D02*
X395478Y752208D01*
X392500Y762500D02*
X392724Y762724D01*
X533584Y742766D02*
X533600Y742750D01*
X533567Y750598D02*
X533584Y750582D01*
Y742766D02*
Y750582D01*
X551545Y755626D02*
X551640Y755721D01*
X551450Y746000D02*
X551545Y746095D01*
Y755626D01*
X570174Y736427D02*
Y745924D01*
X570250Y746000D01*
X570098Y736352D02*
X570174Y736427D01*
X443375Y732125D02*
X443500Y732250D01*
X455000Y763750D02*
X477500D01*
X457356Y730644D02*
X466250Y721750D01*
X448606Y730644D02*
X457356D01*
X466250Y718500D02*
Y721750D01*
D58*
X400325Y811020D02*
X402724Y813419D01*
X383155Y811020D02*
X400325D01*
X383111Y810976D02*
X383155Y811020D01*
D59*
X365000Y822103D02*
Y822500D01*
X350050Y819500D02*
X350550Y820000D01*
X362897D02*
X365000Y822103D01*
X350550Y820000D02*
X362897D01*
D60*
X390662Y798528D02*
D03*
D61*
X372657Y750154D02*
D03*
D62*
X367500Y822500D02*
D03*
D63*
X619760Y768350D02*
D03*
X661670Y849630D02*
D03*
X619760D02*
D03*
X661670Y768350D02*
D03*
D64*
X619760Y717550D02*
D03*
Y742950D02*
D03*
X661670Y798830D02*
D03*
Y824230D02*
D03*
X619760Y798830D02*
D03*
Y824230D02*
D03*
X661670Y717550D02*
D03*
Y742950D02*
D03*
D65*
X339300Y816400D02*
D03*
Y758600D02*
D03*
D66*
X344300Y744300D02*
D03*
Y830700D02*
D03*
D67*
X302500Y744300D02*
D03*
Y830700D02*
D03*
D68*
X735330Y722630D02*
D03*
X342500Y720000D02*
D03*
D69*
X802160Y746900D02*
D03*
Y772300D02*
D03*
Y848500D02*
D03*
Y797700D02*
D03*
Y823100D02*
D03*
D70*
Y721500D02*
D03*
D71*
X582542Y811001D02*
D03*
X572770Y815340D02*
D03*
X605790Y792480D02*
D03*
Y808990D02*
D03*
X646430Y769620D02*
D03*
X584200Y802640D02*
D03*
X572770Y784860D02*
D03*
X539750Y835858D02*
D03*
X549910Y833120D02*
D03*
X585470Y823976D02*
D03*
X525780Y836930D02*
D03*
X513080Y840740D02*
D03*
X588470Y749475D02*
D03*
X737190Y811506D02*
D03*
X495300Y840740D02*
D03*
X734060Y857250D02*
D03*
X763778Y843026D02*
D03*
X395224Y724154D02*
D03*
X414020Y732028D02*
D03*
X777240Y811022D02*
D03*
X494000Y764000D02*
D03*
X425000Y820000D02*
D03*
X446000D02*
D03*
X392500Y762500D02*
D03*
X480750Y809750D02*
D03*
X492760Y802640D02*
D03*
X477520Y859790D02*
D03*
X565150Y858520D02*
D03*
X459740Y859790D02*
D03*
X468630Y850900D02*
D03*
Y859790D02*
D03*
X560850Y733500D02*
D03*
X381000Y729996D02*
D03*
X466090Y734060D02*
D03*
X533662Y714949D02*
D03*
X477520Y735330D02*
D03*
X486285Y732534D02*
D03*
X413372Y714634D02*
D03*
X436750Y723000D02*
D03*
X586740Y858520D02*
D03*
X410584Y847416D02*
D03*
X773430Y760730D02*
D03*
X391160Y847090D02*
D03*
X533567Y750598D02*
D03*
X551640Y755721D02*
D03*
X570098Y736352D02*
D03*
X494547Y717171D02*
D03*
D72*
X537850Y781000D02*
D03*
X526850D02*
D03*
X515850D02*
D03*
X537850Y792000D02*
D03*
X526850D02*
D03*
X515850D02*
D03*
X537850Y803000D02*
D03*
X526850D02*
D03*
X515850D02*
D03*
D73*
X358648Y769620D02*
D03*
X381508Y819150D02*
D03*
X363220Y727202D02*
D03*
X394000Y805000D02*
D03*
X388000D02*
D03*
Y800000D02*
D03*
X394000D02*
D03*
X359000D02*
D03*
X365000Y817500D02*
D03*
Y827500D02*
D03*
Y822500D02*
D03*
X370000Y745000D02*
D03*
Y755000D02*
D03*
X375000Y750000D02*
D03*
X370000D02*
D03*
X375000Y755000D02*
D03*
X370000Y827500D02*
D03*
Y822500D02*
D03*
Y817500D02*
D03*
X375000Y745000D02*
D03*
D74*
X459740Y850900D02*
D03*
X575310Y858520D02*
D03*
X505206Y722884D02*
D03*
X419000Y777000D02*
D03*
X433000D02*
D03*
X822000Y849000D02*
D03*
X820000Y824000D02*
D03*
Y798000D02*
D03*
Y747000D02*
D03*
Y772000D02*
D03*
X407670Y803910D02*
D03*
X645160Y709930D02*
D03*
X638810Y722630D02*
D03*
X633730Y709930D02*
D03*
M02*
