G04*
G04 #@! TF.GenerationSoftware,Altium Limited,Altium Designer,25.8.1 (18)*
G04*
G04 Layer_Color=16711935*
%FSLAX44Y44*%
%MOMM*%
G71*
G04*
G04 #@! TF.SameCoordinates,A26C5E1A-1E18-4250-965A-FF083EC1348B*
G04*
G04*
G04 #@! TF.FilePolarity,Positive*
G04*
G01*
G75*
%ADD11C,0.2000*%
%ADD78C,0.1000*%
%ADD81C,0.0846*%
D11*
X363500Y820000D02*
G03*
X363500Y820000I-1000J0D01*
G01*
D78*
X737300Y800030D02*
X742800D01*
X737300D02*
Y804030D01*
X742800D01*
X737300Y819030D02*
X742800D01*
X737300D02*
Y823030D01*
X742800D01*
X755800Y809530D02*
X761300D01*
Y813530D01*
X755800D02*
X761300D01*
X755800Y809530D02*
X755800Y797030D01*
X755800Y809530D02*
Y813530D01*
X755800Y826030D01*
X742800D02*
X755800D01*
X742800Y823030D02*
Y826030D01*
Y819030D02*
Y823030D01*
Y797030D02*
Y819030D01*
Y797030D02*
X755800D01*
X575330Y725500D02*
Y741500D01*
X546370Y725500D02*
X575330D01*
X546370D02*
Y741500D01*
X575330D01*
X565930D02*
X575330Y732100D01*
X276500Y703500D02*
Y742800D01*
Y832200D02*
X350000D01*
X276500Y742800D02*
Y832200D01*
Y742800D02*
X350000D01*
Y832200D01*
X771160Y863500D02*
X833160D01*
X771160Y706500D02*
Y863500D01*
X833160Y706500D02*
Y863500D01*
X771160Y706500D02*
X833160D01*
X737300Y749230D02*
X742800D01*
X737300D02*
Y753230D01*
X742800D01*
X737300Y768230D02*
X742800D01*
X737300D02*
Y772230D01*
X742800D01*
X755800Y758730D02*
X761300D01*
Y762730D01*
X755800D02*
X761300D01*
X755800Y758730D02*
X755800Y746230D01*
X755800Y758730D02*
Y762730D01*
X755800Y775230D01*
X742800D02*
X755800D01*
X742800Y772230D02*
Y775230D01*
Y768230D02*
Y772230D01*
Y746230D02*
Y768230D01*
Y746230D02*
X755800D01*
D81*
X277500Y733500D02*
X281563D01*
Y731469D01*
X280886Y730792D01*
X279531D01*
X278854Y731469D01*
Y733500D01*
X280886Y726729D02*
X281563Y727406D01*
Y728760D01*
X280886Y729437D01*
X278177D01*
X277500Y728760D01*
Y727406D01*
X278177Y726729D01*
X281563Y725375D02*
X277500D01*
Y723343D01*
X278177Y722666D01*
X278854D01*
X279531Y723343D01*
Y725375D01*
Y723343D01*
X280208Y722666D01*
X280886D01*
X281563Y723343D01*
Y725375D01*
Y714541D02*
Y717249D01*
X277500D01*
Y714541D01*
X279531Y717249D02*
Y715895D01*
X281563Y713187D02*
X277500D01*
Y711155D01*
X278177Y710478D01*
X280886D01*
X281563Y711155D01*
Y713187D01*
X280886Y706415D02*
X281563Y707093D01*
Y708447D01*
X280886Y709124D01*
X278177D01*
X277500Y708447D01*
Y707093D01*
X278177Y706415D01*
X279531D01*
Y707770D01*
X281563Y702353D02*
Y705061D01*
X277500D01*
Y702353D01*
X279531Y705061D02*
Y703707D01*
M02*
