M48
;Layer_Color=9474304
;FILE_FORMAT=4:4
METRIC,LZ
;TYPE=PLATED
T01F00S00C0.2000
T02F00S00C0.4000
T04F00S00C1.0922
T05F00S00C1.1000
;TYPE=NON_PLATED
T06F00S00C0.6500
T08F00S00C2.0000
%
T01
X0051585Y00781
Y00792
X0052685
X0053785
Y00781
X0052685
X00374836Y00772492
X00364241Y0077249
X00364404Y00782459
X00357639Y00779925
X00357716Y00789975
X00360864Y00758812
X00355346Y00752856
X00348488
X00361188Y0074041
X0036576Y00740664
X00374142Y0074168
X00379222Y00757428
X00375033Y00797434
X00364269Y00797716
X00360682Y0081285
X00353516Y00818532
X00369316Y00818388
X00373634Y00822452
X00377952Y00818388
X00377996Y00812547
X0051585Y00803
X0052685
X0053785
T02
X00413372Y00714634
X0041021Y0072771
X0043688Y007239
X0046609Y0073406
X0047752Y0073533
X00486285Y00732534
X00494547Y00717171
X00533662Y00714949
X00533567Y00750598
X0055164Y00755721
X0056085Y007335
X00570098Y00736352
X00588611Y0075019
X00505603Y00765857
X0049055Y0076868
X0077343Y0076073
X00395224
X00393621Y00773272
X0039116Y00724154
X00381Y00729996
X0039116Y0084709
X00410584Y00847416
X00412242Y0080899
X00402778Y00803961
X00460502Y00810585
X0048075Y0080975
X0049276Y0080264
X0049911Y0083566
X0050546Y0085217
X0052197
X0051943Y00838962
X00526539Y00830123
X00534843Y00829999
X00551673Y00826669
X0057531Y00820674
X00598932Y00821436
X00599186Y00801878
X00616966Y00800354
X00613664Y00847598
X00598678Y0085979
X00575818Y00859282
X0056642Y00850646
X0077597Y0081153
T04
X0063452Y0071769
Y0074309
Y0076849
X00665
Y0074309
Y0071769
Y0079897
Y0082437
Y0084977
X0063452
Y0082437
Y0079897
T05
X0080216Y007215
Y007469
Y007723
Y007977
Y008231
Y008485
T06
X003629Y00821
T08
X003425Y0072
X007158Y0084596
M30
