G04*
G04 #@! TF.GenerationSoftware,Altium Limited,Altium Designer,24.9.1 (31)*
G04*
G04 Layer_Color=65535*
%FSLAX44Y44*%
%MOMM*%
G71*
G04*
G04 #@! TF.SameCoordinates,0DAEADC5-739E-474D-A028-FC833E2B39B4*
G04*
G04*
G04 #@! TF.FilePolarity,Positive*
G04*
G01*
G75*
%ADD10C,0.2500*%
%ADD11C,0.2540*%
%ADD12C,0.2000*%
%ADD13C,0.1270*%
%ADD14C,0.2032*%
%ADD15C,0.1524*%
%ADD16R,1.7780X0.4572*%
%ADD17R,0.4826X1.3208*%
%ADD18R,1.3208X0.4826*%
D10*
X495100Y817000D02*
G03*
X495100Y817000I-1250J0D01*
G01*
D11*
X437750Y787750D02*
G03*
X437750Y787750I-1000J0D01*
G01*
X437750Y798750D02*
G03*
X437750Y798750I-1000J0D01*
G01*
X652300Y704990D02*
Y781190D01*
Y704990D02*
X677700D01*
Y781190D01*
X652300D02*
X677700D01*
X621820Y862470D02*
X647220D01*
Y786270D02*
Y862470D01*
X621820Y786270D02*
X647220D01*
X621820D02*
Y862470D01*
X652300D02*
X652300Y786270D01*
X677700D01*
X677700Y862470D01*
X652300D02*
X677700D01*
X621820Y781190D02*
X621820Y704990D01*
X647220D01*
X647220Y781190D01*
X621820D02*
X647220D01*
D12*
X741800Y758730D02*
Y762730D01*
X756800Y745230D02*
Y752730D01*
X749300Y745230D02*
X756800D01*
Y768730D02*
Y776230D01*
X749300D02*
X756800D01*
X741800Y809530D02*
Y813530D01*
X756800Y796030D02*
Y803530D01*
X749300Y796030D02*
X756800D01*
Y819530D02*
Y827030D01*
X749300D02*
X756800D01*
X575330Y730750D02*
Y736250D01*
X546370Y730750D02*
X575330D01*
X546370D02*
Y736250D01*
X575330D01*
X575990Y739750D02*
Y752250D01*
X500350Y812250D02*
Y818500D01*
X506600D01*
X547100D02*
X553350D01*
Y812250D02*
Y818500D01*
Y765500D02*
Y771750D01*
X547100Y765500D02*
X553350D01*
X500350D02*
Y771750D01*
Y765500D02*
X506600D01*
X771160Y706500D02*
X833160D01*
Y863500D01*
X771160D02*
X833160D01*
X771160Y706500D02*
Y863500D01*
X441623Y782623D02*
Y804750D01*
X487750Y782623D02*
Y804750D01*
X441623D02*
X487750D01*
X441623Y782623D02*
X487750D01*
D13*
X359900Y739000D02*
X371500D01*
X301100D02*
X340900D01*
X278575Y739000D02*
X280700D01*
X371500Y739000D02*
Y752800D01*
X359900Y831000D02*
X371500D01*
X301100D02*
X340900D01*
X371500Y817200D02*
Y831000D01*
X278575D02*
X280700D01*
X753361Y848500D02*
X766061D01*
X745741Y845960D02*
Y851040D01*
X748281Y843420D02*
Y853580D01*
X750821Y840880D02*
Y856120D01*
X753361Y838340D02*
Y858660D01*
X715051Y739575D02*
Y732973D01*
X718352D01*
X719452Y734074D01*
Y735174D01*
X718352Y736274D01*
X715051D01*
X718352D01*
X719452Y737375D01*
Y738475D01*
X718352Y739575D01*
X715051D01*
X724954D02*
X722753D01*
X721653Y738475D01*
Y734074D01*
X722753Y732973D01*
X724954D01*
X726054Y734074D01*
Y738475D01*
X724954Y739575D01*
X731556D02*
X729355D01*
X728255Y738475D01*
Y734074D01*
X729355Y732973D01*
X731556D01*
X732656Y734074D01*
Y738475D01*
X731556Y739575D01*
X734857D02*
X739258D01*
X737057D01*
Y732973D01*
X741459D02*
X745860Y737375D01*
X752462Y738475D02*
X751361Y739575D01*
X749161D01*
X748060Y738475D01*
Y734074D01*
X749161Y732973D01*
X751361D01*
X752462Y734074D01*
X754662Y739575D02*
X759063D01*
X756863D01*
Y732973D01*
X765665Y738475D02*
X764565Y739575D01*
X762365D01*
X761264Y738475D01*
Y737375D01*
X762365Y736274D01*
X764565D01*
X765665Y735174D01*
Y734074D01*
X764565Y732973D01*
X762365D01*
X761264Y734074D01*
X700792Y787815D02*
X696391D01*
Y781213D01*
X700792D01*
X696391Y784514D02*
X698591D01*
X702992Y781213D02*
Y787815D01*
X707394Y781213D01*
Y787815D01*
X709594Y781213D02*
Y785614D01*
X711795Y787815D01*
X713996Y785614D01*
Y781213D01*
Y784514D01*
X709594D01*
X716196Y781213D02*
X720598Y785614D01*
X722798Y781213D02*
Y787815D01*
X726099D01*
X727199Y786715D01*
Y784514D01*
X726099Y783414D01*
X722798D01*
X724999D02*
X727199Y781213D01*
X729400Y787815D02*
X733801D01*
X731601D01*
Y781213D01*
X740403Y786715D02*
X739303Y787815D01*
X737102D01*
X736002Y786715D01*
Y785614D01*
X737102Y784514D01*
X739303D01*
X740403Y783414D01*
Y782313D01*
X739303Y781213D01*
X737102D01*
X736002Y782313D01*
X742604Y781213D02*
X747005Y785614D01*
X752506Y781213D02*
Y787815D01*
X749206Y784514D01*
X753607D01*
X755807Y786715D02*
X756908Y787815D01*
X759108D01*
X760209Y786715D01*
Y785614D01*
X759108Y784514D01*
X760209Y783414D01*
Y782313D01*
X759108Y781213D01*
X756908D01*
X755807Y782313D01*
Y783414D01*
X756908Y784514D01*
X755807Y785614D01*
Y786715D01*
X756908Y784514D02*
X759108D01*
X766811Y787815D02*
X762409D01*
Y784514D01*
X764610Y785614D01*
X765710D01*
X766811Y784514D01*
Y782313D01*
X765710Y781213D01*
X763510D01*
X762409Y782313D01*
X291364Y846212D02*
X286286D01*
Y838594D01*
X291364D01*
X286286Y842403D02*
X288825D01*
X293904Y838594D02*
Y846212D01*
X297712D01*
X298982Y844942D01*
Y842403D01*
X297712Y841133D01*
X293904D01*
X301521Y846212D02*
Y838594D01*
X305330D01*
X306599Y839864D01*
Y841133D01*
X305330Y842403D01*
X301521D01*
X305330D01*
X306599Y843672D01*
Y844942D01*
X305330Y846212D01*
X301521D01*
X316756D02*
Y838594D01*
Y842403D01*
X321834D01*
Y846212D01*
Y838594D01*
X324374Y846212D02*
Y838594D01*
X326913Y841133D01*
X329452Y838594D01*
Y846212D01*
X339609Y838594D02*
Y846212D01*
X342148Y843672D01*
X344687Y846212D01*
Y838594D01*
X352305Y846212D02*
X347226D01*
Y838594D01*
X352305D01*
X347226Y842403D02*
X349766D01*
X689383Y720896D02*
X684981Y724040D01*
Y719324D01*
X689383Y720896D02*
X682780D01*
X689383Y716589D02*
X689068Y717532D01*
X688439Y717846D01*
X687811D01*
X687182Y717532D01*
X686867Y716903D01*
X686553Y715645D01*
X686238Y714702D01*
X685610Y714073D01*
X684981Y713759D01*
X684038D01*
X683409Y714073D01*
X683094Y714388D01*
X682780Y715331D01*
Y716589D01*
X683094Y717532D01*
X683409Y717846D01*
X684038Y718161D01*
X684981D01*
X685610Y717846D01*
X686238Y717217D01*
X686553Y716274D01*
X686867Y715016D01*
X687182Y714388D01*
X687811Y714073D01*
X688439D01*
X689068Y714388D01*
X689383Y715331D01*
Y716589D01*
Y708508D02*
Y711652D01*
X686553Y711967D01*
X686867Y711652D01*
X687182Y710709D01*
Y709766D01*
X686867Y708823D01*
X686238Y708194D01*
X685295Y707879D01*
X684667D01*
X683723Y708194D01*
X683094Y708823D01*
X682780Y709766D01*
Y710709D01*
X683094Y711652D01*
X683409Y711967D01*
X684038Y712281D01*
X689383Y779920D02*
X682780D01*
X689383D02*
Y777090D01*
X689068Y776147D01*
X688754Y775833D01*
X688125Y775518D01*
X687496D01*
X686867Y775833D01*
X686553Y776147D01*
X686238Y777090D01*
Y779920D01*
Y777719D02*
X682780Y775518D01*
X689383Y771840D02*
X682780D01*
X689383Y774041D02*
Y769639D01*
X688439Y764451D02*
X689068Y765080D01*
X689383Y766023D01*
Y767281D01*
X689068Y768224D01*
X688439Y768853D01*
X687811D01*
X687182Y768538D01*
X686867Y768224D01*
X686553Y767595D01*
X685924Y765709D01*
X685610Y765080D01*
X685295Y764765D01*
X684667Y764451D01*
X683723D01*
X683094Y765080D01*
X682780Y766023D01*
Y767281D01*
X683094Y768224D01*
X683723Y768853D01*
X616993Y858383D02*
Y862470D01*
X610390D01*
Y858383D01*
X613848Y862470D02*
Y859955D01*
X616993Y857282D02*
X610390D01*
X616993D02*
X610390Y852881D01*
X616993D02*
X610390D01*
Y846027D02*
X616993Y848542D01*
X610390Y851057D01*
X612591Y850114D02*
Y846970D01*
X615723Y824370D02*
X609120D01*
X615723D02*
Y821540D01*
X615408Y820597D01*
X615094Y820283D01*
X614465Y819968D01*
X613836D01*
X613207Y820283D01*
X612893Y820597D01*
X612579Y821540D01*
Y824370D01*
Y822169D02*
X609120Y819968D01*
X615723Y816290D02*
X609120D01*
X615723Y818491D02*
Y814089D01*
X614779Y808901D02*
X615408Y809530D01*
X615723Y810473D01*
Y811731D01*
X615408Y812674D01*
X614779Y813303D01*
X614151D01*
X613522Y812988D01*
X613207Y812674D01*
X612893Y812045D01*
X612264Y810159D01*
X611950Y809530D01*
X611635Y809215D01*
X611007Y808901D01*
X610063D01*
X609434Y809530D01*
X609120Y810473D01*
Y811731D01*
X609434Y812674D01*
X610063Y813303D01*
X608177Y807423D02*
X615723Y803022D01*
Y799437D02*
X611321Y802581D01*
Y797865D01*
X615723Y799437D02*
X609120D01*
X615723Y795130D02*
X615408Y796073D01*
X614779Y796388D01*
X614151D01*
X613522Y796073D01*
X613207Y795444D01*
X612893Y794187D01*
X612579Y793244D01*
X611950Y792615D01*
X611321Y792300D01*
X610378D01*
X609749Y792615D01*
X609434Y792929D01*
X609120Y793872D01*
Y795130D01*
X609434Y796073D01*
X609749Y796388D01*
X610378Y796702D01*
X611321D01*
X611950Y796388D01*
X612579Y795759D01*
X612893Y794816D01*
X613207Y793558D01*
X613522Y792929D01*
X614151Y792615D01*
X614779D01*
X615408Y792929D01*
X615723Y793872D01*
Y795130D01*
Y787050D02*
Y790194D01*
X612893Y790508D01*
X613207Y790194D01*
X613522Y789251D01*
Y788307D01*
X613207Y787364D01*
X612579Y786735D01*
X611635Y786421D01*
X611007D01*
X610063Y786735D01*
X609434Y787364D01*
X609120Y788307D01*
Y789251D01*
X609434Y790194D01*
X609749Y790508D01*
X610378Y790823D01*
X687811Y798064D02*
X688439Y798378D01*
X689068Y799007D01*
X689383Y799636D01*
Y800894D01*
X689068Y801522D01*
X688439Y802151D01*
X687811Y802466D01*
X686867Y802780D01*
X685295D01*
X684352Y802466D01*
X683723Y802151D01*
X683094Y801522D01*
X682780Y800894D01*
Y799636D01*
X683094Y799007D01*
X683723Y798378D01*
X684352Y798064D01*
X689383Y794008D02*
X682780D01*
X689383Y796209D02*
Y791807D01*
X688439Y786619D02*
X689068Y787248D01*
X689383Y788192D01*
Y789449D01*
X689068Y790392D01*
X688439Y791021D01*
X687811D01*
X687182Y790707D01*
X686867Y790392D01*
X686553Y789763D01*
X685924Y787877D01*
X685610Y787248D01*
X685295Y786934D01*
X684667Y786619D01*
X683723D01*
X683094Y787248D01*
X682780Y788192D01*
Y789449D01*
X683094Y790392D01*
X683723Y791021D01*
X689383Y862470D02*
X682780D01*
X689383D02*
Y859640D01*
X689068Y858697D01*
X688754Y858383D01*
X688125Y858068D01*
X687496D01*
X686867Y858383D01*
X686553Y858697D01*
X686238Y859640D01*
Y862470D02*
Y859640D01*
X685924Y858697D01*
X685610Y858383D01*
X684981Y858068D01*
X684038D01*
X683409Y858383D01*
X683094Y858697D01*
X682780Y859640D01*
Y862470D01*
X689383Y854704D02*
X689068Y855333D01*
X688439Y855962D01*
X687811Y856276D01*
X686867Y856591D01*
X685295D01*
X684352Y856276D01*
X683723Y855962D01*
X683094Y855333D01*
X682780Y854704D01*
Y853447D01*
X683094Y852818D01*
X683723Y852189D01*
X684352Y851874D01*
X685295Y851560D01*
X686867D01*
X687811Y851874D01*
X688439Y852189D01*
X689068Y852818D01*
X689383Y853447D01*
Y854704D01*
Y848133D02*
X689068Y848762D01*
X688439Y849391D01*
X687811Y849705D01*
X686867Y850020D01*
X685295D01*
X684352Y849705D01*
X683723Y849391D01*
X683094Y848762D01*
X682780Y848133D01*
Y846875D01*
X683094Y846246D01*
X683723Y845618D01*
X684352Y845303D01*
X685295Y844989D01*
X686867D01*
X687811Y845303D01*
X688439Y845618D01*
X689068Y846246D01*
X689383Y846875D01*
Y848133D01*
Y841247D02*
X682780D01*
X689383Y843448D02*
Y839047D01*
X614779Y731370D02*
X609120D01*
X611950Y734200D02*
Y728541D01*
X615723Y725963D02*
Y722504D01*
X613207Y724390D01*
Y723447D01*
X612893Y722818D01*
X612579Y722504D01*
X611635Y722190D01*
X611007D01*
X610063Y722504D01*
X609434Y723133D01*
X609120Y724076D01*
Y725019D01*
X609434Y725963D01*
X609749Y726277D01*
X610378Y726591D01*
X609749Y720397D02*
X609434Y720712D01*
X609120Y720397D01*
X609434Y720083D01*
X609749Y720397D01*
X615723Y718008D02*
Y714549D01*
X613207Y716436D01*
Y715493D01*
X612893Y714864D01*
X612579Y714549D01*
X611635Y714235D01*
X611007D01*
X610063Y714549D01*
X609434Y715178D01*
X609120Y716122D01*
Y717065D01*
X609434Y718008D01*
X609749Y718322D01*
X610378Y718637D01*
X615723Y712757D02*
X609120Y710242D01*
X615723Y707727D02*
X609120Y710242D01*
X615723Y779920D02*
X609120Y777405D01*
X615723Y774890D02*
X609120Y777405D01*
X615723Y774041D02*
X609120D01*
X615723D02*
Y771211D01*
X615408Y770268D01*
X615094Y769953D01*
X614465Y769639D01*
X613836D01*
X613207Y769953D01*
X612893Y770268D01*
X612579Y771211D01*
Y774041D02*
Y771211D01*
X612264Y770268D01*
X611950Y769953D01*
X611321Y769639D01*
X610378D01*
X609749Y769953D01*
X609434Y770268D01*
X609120Y771211D01*
Y774041D01*
X615723Y768161D02*
X611007D01*
X610063Y767847D01*
X609434Y767218D01*
X609120Y766275D01*
Y765646D01*
X609434Y764703D01*
X610063Y764074D01*
X611007Y763759D01*
X615723D01*
X614779Y757534D02*
X615408Y758163D01*
X615723Y759106D01*
Y760364D01*
X615408Y761307D01*
X614779Y761936D01*
X614151D01*
X613522Y761621D01*
X613207Y761307D01*
X612893Y760678D01*
X612264Y758792D01*
X611950Y758163D01*
X611635Y757849D01*
X611007Y757534D01*
X610063D01*
X609434Y758163D01*
X609120Y759106D01*
Y760364D01*
X609434Y761307D01*
X610063Y761936D01*
X288746Y715801D02*
Y711400D01*
X290947Y709199D01*
X293147Y711400D01*
Y715801D01*
X295348Y709199D02*
Y710299D01*
X296448D01*
Y709199D01*
X295348D01*
X300849D02*
X303050D01*
X301950D01*
Y715801D01*
X300849Y714701D01*
X306351Y709199D02*
Y710299D01*
X307451D01*
Y709199D01*
X306351D01*
X311853Y714701D02*
X312953Y715801D01*
X315154D01*
X316254Y714701D01*
Y713600D01*
X315154Y712500D01*
X314053D01*
X315154D01*
X316254Y711400D01*
Y710299D01*
X315154Y709199D01*
X312953D01*
X311853Y710299D01*
X290687Y860801D02*
X286286D01*
Y854199D01*
X290687D01*
X286286Y857500D02*
X288487D01*
X297289Y859701D02*
X296189Y860801D01*
X293988D01*
X292888Y859701D01*
Y858600D01*
X293988Y857500D01*
X296189D01*
X297289Y856400D01*
Y855299D01*
X296189Y854199D01*
X293988D01*
X292888Y855299D01*
X299490Y854199D02*
Y860801D01*
X302791D01*
X303891Y859701D01*
Y857500D01*
X302791Y856400D01*
X299490D01*
X306092Y859701D02*
X307192Y860801D01*
X309393D01*
X310493Y859701D01*
Y858600D01*
X309393Y857500D01*
X308292D01*
X309393D01*
X310493Y856400D01*
Y855299D01*
X309393Y854199D01*
X307192D01*
X306092Y855299D01*
X317095Y854199D02*
X312694D01*
X317095Y858600D01*
Y859701D01*
X315994Y860801D01*
X313794D01*
X312694Y859701D01*
X325897Y854199D02*
X330299Y858600D01*
X339101Y860801D02*
Y855299D01*
X340201Y854199D01*
X342402D01*
X343502Y855299D01*
Y860801D01*
X345703Y854199D02*
Y858600D01*
X347903Y860801D01*
X350104Y858600D01*
Y854199D01*
Y857500D01*
X345703D01*
X352305Y854199D02*
Y860801D01*
X355606D01*
X356706Y859701D01*
Y857500D01*
X355606Y856400D01*
X352305D01*
X354505D02*
X356706Y854199D01*
X358907Y860801D02*
X363308D01*
X361107D01*
Y854199D01*
X708747Y795529D02*
Y802131D01*
X712048D01*
X713149Y801031D01*
Y798830D01*
X712048Y797730D01*
X708747D01*
X710948D02*
X713149Y795529D01*
X715349Y802131D02*
X719751Y795529D01*
Y802131D02*
X715349Y795529D01*
X721951Y802131D02*
Y795529D01*
X725252D01*
X726352Y796629D01*
Y801031D01*
X725252Y802131D01*
X721951D01*
X708747Y826261D02*
X713149D01*
X710948D01*
Y819659D01*
X715349Y826261D02*
X719751Y819659D01*
Y826261D02*
X715349Y819659D01*
X721951Y826261D02*
Y819659D01*
X725252D01*
X726352Y820759D01*
Y825161D01*
X725252Y826261D01*
X721951D01*
X748899Y715659D02*
Y722261D01*
X752200D01*
X753300Y721161D01*
Y718960D01*
X752200Y717860D01*
X748899D01*
X755501Y722261D02*
Y715659D01*
X757701Y717860D01*
X759902Y715659D01*
Y722261D01*
X762103Y715659D02*
Y722261D01*
X765404D01*
X766504Y721161D01*
Y718960D01*
X765404Y717860D01*
X762103D01*
X764303D02*
X766504Y715659D01*
X717552Y815339D02*
Y807721D01*
X721361D01*
X722630Y808991D01*
Y814069D01*
X721361Y815339D01*
X717552D01*
X725170Y814069D02*
X726439Y815339D01*
X728978D01*
X730248Y814069D01*
Y812800D01*
X728978Y811530D01*
X727709D01*
X728978D01*
X730248Y810260D01*
Y808991D01*
X728978Y807721D01*
X726439D01*
X725170Y808991D01*
X716282Y764539D02*
Y756921D01*
X720091D01*
X721360Y758191D01*
Y763269D01*
X720091Y764539D01*
X716282D01*
X728978Y756921D02*
X723900D01*
X728978Y762000D01*
Y763269D01*
X727708Y764539D01*
X725169D01*
X723900Y763269D01*
X687523Y744613D02*
X685322D01*
X686423D01*
Y739111D01*
X685322Y738011D01*
X684222D01*
X683121Y739111D01*
X689723Y738011D02*
Y744613D01*
X693024D01*
X694125Y743513D01*
Y741312D01*
X693024Y740212D01*
X689723D01*
X699626Y738011D02*
Y744613D01*
X696325Y741312D01*
X700726D01*
X521099Y750949D02*
Y757551D01*
X524399D01*
X525500Y756451D01*
Y754250D01*
X524399Y753150D01*
X521099D01*
X523299D02*
X525500Y750949D01*
X532102D02*
X527700D01*
X532102Y755350D01*
Y756451D01*
X531001Y757551D01*
X528801D01*
X527700Y756451D01*
X603703Y839101D02*
X601502D01*
X602603D01*
Y833599D01*
X601502Y832499D01*
X600402D01*
X599301Y833599D01*
X605903Y832499D02*
Y839101D01*
X609204D01*
X610305Y838001D01*
Y835800D01*
X609204Y834700D01*
X605903D01*
X612505Y838001D02*
X613606Y839101D01*
X615806D01*
X616907Y838001D01*
Y836900D01*
X615806Y835800D01*
X614706D01*
X615806D01*
X616907Y834700D01*
Y833599D01*
X615806Y832499D01*
X613606D01*
X612505Y833599D01*
X686761Y826655D02*
X684560D01*
X685660D01*
Y821153D01*
X684560Y820053D01*
X683460D01*
X682359Y821153D01*
X688961Y820053D02*
Y826655D01*
X692262D01*
X693363Y825555D01*
Y823354D01*
X692262Y822254D01*
X688961D01*
X699965Y820053D02*
X695563D01*
X699965Y824454D01*
Y825555D01*
X698864Y826655D01*
X696664D01*
X695563Y825555D01*
X605819Y746899D02*
X603619D01*
X604719D01*
Y741397D01*
X603619Y740297D01*
X602518D01*
X601418Y741397D01*
X608020Y740297D02*
Y746899D01*
X611321D01*
X612421Y745799D01*
Y743598D01*
X611321Y742498D01*
X608020D01*
X614622Y740297D02*
X616822D01*
X615722D01*
Y746899D01*
X614622Y745799D01*
X731755Y719637D02*
X729554D01*
X730655D01*
Y714135D01*
X729554Y713035D01*
X728454D01*
X727354Y714135D01*
X738357Y713035D02*
X733956D01*
X738357Y717436D01*
Y718536D01*
X737257Y719637D01*
X735056D01*
X733956Y718536D01*
X580598Y755051D02*
Y749549D01*
X581699Y748449D01*
X583899D01*
X585000Y749549D01*
Y755051D01*
X587200Y753951D02*
X588301Y755051D01*
X590501D01*
X591602Y753951D01*
Y752850D01*
X590501Y751750D01*
X589401D01*
X590501D01*
X591602Y750650D01*
Y749549D01*
X590501Y748449D01*
X588301D01*
X587200Y749549D01*
X588000Y714701D02*
X586899Y715801D01*
X584699D01*
X583599Y714701D01*
Y710299D01*
X584699Y709199D01*
X586899D01*
X588000Y710299D01*
X590200Y714701D02*
X591301Y715801D01*
X593501D01*
X594602Y714701D01*
Y713600D01*
X593501Y712500D01*
X594602Y711400D01*
Y710299D01*
X593501Y709199D01*
X591301D01*
X590200Y710299D01*
Y711400D01*
X591301Y712500D01*
X590200Y713600D01*
Y714701D01*
X591301Y712500D02*
X593501D01*
X532500Y716701D02*
X531399Y717801D01*
X529199D01*
X528098Y716701D01*
Y712299D01*
X529199Y711199D01*
X531399D01*
X532500Y712299D01*
X534700Y717801D02*
X539102D01*
Y716701D01*
X534700Y712299D01*
Y711199D01*
X484051Y847849D02*
X477449D01*
Y851150D01*
X478549Y852250D01*
X480750D01*
X481850Y851150D01*
Y847849D01*
Y850049D02*
X484051Y852250D01*
Y854451D02*
Y856651D01*
Y855551D01*
X477449D01*
X478549Y854451D01*
X497116Y823242D02*
X502618D01*
X503718Y824342D01*
Y826543D01*
X502618Y827643D01*
X497116D01*
X503718Y834245D02*
Y829844D01*
X499317Y834245D01*
X498216D01*
X497116Y833145D01*
Y830944D01*
X498216Y829844D01*
X426599Y810801D02*
X431000D01*
X428799D01*
Y804199D01*
X433201D02*
X435401D01*
X434301D01*
Y810801D01*
X433201Y809701D01*
X595631Y810130D02*
X602233D01*
Y806829D01*
X601133Y805729D01*
X598932D01*
X597832Y806829D01*
Y810130D01*
Y807930D02*
X595631Y805729D01*
Y803528D02*
Y801328D01*
Y802428D01*
X602233D01*
X601133Y803528D01*
Y798027D02*
X602233Y796927D01*
Y794726D01*
X601133Y793626D01*
X596731D01*
X595631Y794726D01*
Y796927D01*
X596731Y798027D01*
X601133D01*
X515289Y843019D02*
Y849621D01*
X518589D01*
X519690Y848521D01*
Y846320D01*
X518589Y845220D01*
X515289D01*
X517489D02*
X519690Y843019D01*
X521890Y849621D02*
X526292D01*
Y848521D01*
X521890Y844119D01*
Y843019D01*
X379221Y836508D02*
X372619D01*
Y839809D01*
X373719Y840910D01*
X375920D01*
X377020Y839809D01*
Y836508D01*
Y838709D02*
X379221Y840910D01*
X372619Y847512D02*
X373719Y845311D01*
X375920Y843110D01*
X378121D01*
X379221Y844211D01*
Y846411D01*
X378121Y847512D01*
X377020D01*
X375920Y846411D01*
Y843110D01*
X360766Y726949D02*
Y733551D01*
X364067D01*
X365168Y732451D01*
Y730250D01*
X364067Y729150D01*
X360766D01*
X362967D02*
X365168Y726949D01*
X371770Y733551D02*
X367368D01*
Y730250D01*
X369569Y731350D01*
X370669D01*
X371770Y730250D01*
Y728049D01*
X370669Y726949D01*
X368469D01*
X367368Y728049D01*
X502019Y713729D02*
Y720331D01*
X505320D01*
X506420Y719230D01*
Y717030D01*
X505320Y715929D01*
X502019D01*
X504220D02*
X506420Y713729D01*
X511922D02*
Y720331D01*
X508621Y717030D01*
X513022D01*
X470090Y729745D02*
Y736347D01*
X473391D01*
X474491Y735247D01*
Y733046D01*
X473391Y731946D01*
X470090D01*
X472291D02*
X474491Y729745D01*
X476692Y735247D02*
X477792Y736347D01*
X479993D01*
X481093Y735247D01*
Y734146D01*
X479993Y733046D01*
X478892D01*
X479993D01*
X481093Y731946D01*
Y730846D01*
X479993Y729745D01*
X477792D01*
X476692Y730846D01*
X596731Y782658D02*
X601133D01*
X602233Y783759D01*
Y785959D01*
X601133Y787059D01*
X596731D01*
X595631Y785959D01*
Y783759D01*
X597832Y784859D02*
X595631Y782658D01*
Y783759D02*
X596731Y782658D01*
X595631Y776056D02*
Y780458D01*
X600032Y776056D01*
X601133D01*
X602233Y777157D01*
Y779357D01*
X601133Y780458D01*
X596731Y821436D02*
X601133D01*
X602233Y822536D01*
Y824737D01*
X601133Y825837D01*
X596731D01*
X595631Y824737D01*
Y822536D01*
X597832Y823637D02*
X595631Y821436D01*
Y822536D02*
X596731Y821436D01*
X595631Y819235D02*
Y817035D01*
Y818135D01*
X602233D01*
X601133Y819235D01*
X456949Y853849D02*
X463551D01*
Y857150D01*
X462451Y858250D01*
X458049D01*
X456949Y857150D01*
Y853849D01*
X463551Y860451D02*
Y862651D01*
Y861551D01*
X456949D01*
X458049Y860451D01*
X423249Y744390D02*
X422149Y743289D01*
Y741089D01*
X423249Y739988D01*
X427651D01*
X428751Y741089D01*
Y743289D01*
X427651Y744390D01*
X422149Y750992D02*
X423249Y748791D01*
X425450Y746590D01*
X427651D01*
X428751Y747691D01*
Y749891D01*
X427651Y750992D01*
X426550D01*
X425450Y749891D01*
Y746590D01*
X438489Y744390D02*
X437389Y743289D01*
Y741089D01*
X438489Y739988D01*
X442891D01*
X443991Y741089D01*
Y743289D01*
X442891Y744390D01*
X437389Y750992D02*
Y746590D01*
X440690D01*
X439590Y748791D01*
Y749891D01*
X440690Y750992D01*
X442891D01*
X443991Y749891D01*
Y747691D01*
X442891Y746590D01*
X452572Y777041D02*
X451471Y778141D01*
X449271D01*
X448171Y777041D01*
Y772639D01*
X449271Y771539D01*
X451471D01*
X452572Y772639D01*
X458073Y771539D02*
Y778141D01*
X454772Y774840D01*
X459174D01*
X476194Y777041D02*
X475093Y778141D01*
X472893D01*
X471792Y777041D01*
Y772639D01*
X472893Y771539D01*
X475093D01*
X476194Y772639D01*
X478394Y777041D02*
X479495Y778141D01*
X481695D01*
X482796Y777041D01*
Y775940D01*
X481695Y774840D01*
X480595D01*
X481695D01*
X482796Y773740D01*
Y772639D01*
X481695Y771539D01*
X479495D01*
X478394Y772639D01*
X407294Y765627D02*
Y760125D01*
X408394Y759025D01*
X410595D01*
X411695Y760125D01*
Y765627D01*
X413896Y759025D02*
X416096D01*
X414996D01*
Y765627D01*
X413896Y764527D01*
X309880Y734821D02*
X307679D01*
X308780D01*
Y729319D01*
X307679Y728219D01*
X306579D01*
X305479Y729319D01*
X312081Y728219D02*
X314281D01*
X313181D01*
Y734821D01*
X312081Y733721D01*
X377425Y742423D02*
X376325Y741323D01*
Y739122D01*
X377425Y738022D01*
X381827D01*
X382927Y739122D01*
Y741323D01*
X381827Y742423D01*
X382927Y749025D02*
Y744623D01*
X378526Y749025D01*
X377425D01*
X376325Y747924D01*
Y745724D01*
X377425Y744623D01*
X425582Y827954D02*
X424482Y826853D01*
Y824653D01*
X425582Y823552D01*
X429983D01*
X431084Y824653D01*
Y826853D01*
X429983Y827954D01*
X431084Y830154D02*
Y832355D01*
Y831255D01*
X424482D01*
X425582Y830154D01*
D14*
X397105Y781524D02*
Y790668D01*
Y781524D02*
X399645Y778984D01*
X397105Y790668D02*
X427585D01*
Y778984D02*
Y790668D01*
X399645Y778984D02*
X427585D01*
D15*
X502056Y757604D02*
X502056Y744396D01*
X507644Y757604D02*
X507644Y744396D01*
X502056Y757604D02*
X507644Y757604D01*
X502056Y744396D02*
X507644D01*
X540966Y736540D02*
X540966Y731460D01*
X526234D02*
Y736540D01*
X581234Y734040D02*
X581234Y728960D01*
X595966D02*
Y734040D01*
X388112Y740918D02*
Y745998D01*
X402844D02*
X402844Y740918D01*
X384556Y825246D02*
X397764Y825246D01*
X384556Y830834D02*
X397764Y830834D01*
X384556Y830834D02*
X384556Y825246D01*
X397764Y825246D02*
Y830834D01*
X451360Y811736D02*
Y849074D01*
X469140Y811736D02*
Y849074D01*
X451360Y811736D02*
X469140D01*
X451360Y849074D02*
X469140D01*
X369316Y722630D02*
X369316Y709422D01*
X374904Y722630D02*
X374904Y709422D01*
X369316Y722630D02*
X374904Y722630D01*
X369316Y709422D02*
X374904D01*
X433866Y726040D02*
X433866Y720960D01*
X419134D02*
Y726040D01*
X454616Y725790D02*
X454616Y720710D01*
X439884D02*
Y725790D01*
X507644Y738854D02*
X507644Y725646D01*
X502056Y738854D02*
X502056Y725646D01*
X507644Y725646D01*
X502056Y738854D02*
X507644D01*
X484866Y757540D02*
X484866Y752460D01*
X470134D02*
Y757540D01*
X472206Y725104D02*
X472206Y711896D01*
X477794Y725104D02*
X477794Y711896D01*
X472206Y725104D02*
X477794Y725104D01*
X472206Y711896D02*
X477794D01*
X462366Y757540D02*
X462366Y752460D01*
X447634D02*
Y757540D01*
X560100Y848000D02*
X560100Y816000D01*
X590100Y816000D01*
X560100Y848000D02*
X590100D01*
Y816000D02*
Y848000D01*
X560100Y791000D02*
X560100Y759000D01*
X590100Y759000D01*
X560100Y791000D02*
X590100D01*
Y759000D02*
Y791000D01*
X474146Y831544D02*
X487354Y831544D01*
X474146Y825956D02*
X487354Y825956D01*
X487354Y831544D02*
X487354Y825956D01*
X474146Y825956D02*
Y831544D01*
X545084Y852424D02*
X545084Y839216D01*
X539496Y852424D02*
X539496Y839216D01*
X545084Y839216D01*
X539496Y852424D02*
X545084D01*
X576894Y809604D02*
X576894Y796396D01*
X571306Y809604D02*
X571306Y796396D01*
X576894Y796396D01*
X571306Y809604D02*
X576894D01*
X418324Y825644D02*
Y830724D01*
X403592D02*
X403592Y825644D01*
D16*
X460253Y846783D02*
D03*
D17*
X574221Y803000D02*
D03*
X542417Y845823D02*
D03*
X504723Y751014D02*
D03*
X371974Y716027D02*
D03*
X504977Y732249D02*
D03*
X474873Y718507D02*
D03*
D18*
X391160Y827899D02*
D03*
X480749Y828872D02*
D03*
M02*
