G04*
G04 #@! TF.GenerationSoftware,Altium Limited,Altium Designer,24.9.1 (31)*
G04*
G04 Layer_Color=255*
%FSLAX44Y44*%
%MOMM*%
G71*
G04*
G04 #@! TF.SameCoordinates,0DAEADC5-739E-474D-A028-FC833E2B39B4*
G04*
G04*
G04 #@! TF.FilePolarity,Positive*
G04*
G01*
G75*
%ADD19R,1.4000X0.9000*%
%ADD20R,0.7620X0.7620*%
%ADD21R,1.1684X0.7620*%
%ADD22R,0.7000X0.3000*%
%ADD23R,0.6500X1.2500*%
%ADD24O,1.0000X0.2500*%
%ADD25O,0.2500X1.0000*%
%ADD26R,0.8500X1.5000*%
%ADD27R,1.5000X0.8500*%
%ADD28R,1.3000X1.1000*%
%ADD29R,1.1000X0.6000*%
%ADD30R,0.7000X0.6000*%
%AMCUSTOMSHAPE51*
4,1,5,-1.6250,-1.6250,-1.6250,0.8125,-0.8125,1.6250,1.6250,1.6250,1.6250,-1.6250,-1.6250,-1.6250,0.0*%
%ADD51CUSTOMSHAPE51*%

%ADD59O,1.4000X0.8000*%
%ADD60O,0.6500X0.9500*%
%ADD61C,0.6500*%
%ADD62C,1.6500*%
%ADD63R,1.6500X1.6500*%
%ADD64C,1.7780*%
%ADD65R,1.7780X1.7780*%
%ADD66C,2.0000*%
D19*
X738800Y770230D02*
D03*
Y751230D02*
D03*
X759800Y760730D02*
D03*
X738800Y821030D02*
D03*
Y802030D02*
D03*
X759800Y811530D02*
D03*
D20*
X421997Y796256D02*
D03*
Y773396D02*
D03*
X402693Y796256D02*
D03*
D21*
X404979Y773396D02*
D03*
D22*
X369500Y757500D02*
D03*
Y762500D02*
D03*
Y767500D02*
D03*
Y777500D02*
D03*
X369500Y782500D02*
D03*
Y787500D02*
D03*
X369500Y792500D02*
D03*
Y802500D02*
D03*
Y807500D02*
D03*
X352500Y815000D02*
D03*
Y810000D02*
D03*
Y805000D02*
D03*
X352500Y795000D02*
D03*
X352500Y790000D02*
D03*
Y785000D02*
D03*
Y780000D02*
D03*
Y770000D02*
D03*
Y765000D02*
D03*
Y760000D02*
D03*
X369500Y812500D02*
D03*
X352500Y800000D02*
D03*
X369500Y797500D02*
D03*
X352500Y775000D02*
D03*
X369500Y772500D02*
D03*
D23*
X570250Y746000D02*
D03*
X560850D02*
D03*
X551450D02*
D03*
Y721000D02*
D03*
X570250D02*
D03*
D24*
X503600Y807000D02*
D03*
Y802000D02*
D03*
X550100Y777000D02*
D03*
Y782000D02*
D03*
Y792000D02*
D03*
Y797000D02*
D03*
Y802000D02*
D03*
Y807000D02*
D03*
X503600Y797000D02*
D03*
Y792000D02*
D03*
Y787000D02*
D03*
Y782000D02*
D03*
Y777000D02*
D03*
X550100Y787000D02*
D03*
D25*
X521850Y768750D02*
D03*
X526850D02*
D03*
X531850D02*
D03*
X536850D02*
D03*
X541850D02*
D03*
Y815250D02*
D03*
X516850D02*
D03*
X511850Y768750D02*
D03*
X516850D02*
D03*
X536850Y815250D02*
D03*
X531850D02*
D03*
X526850D02*
D03*
X521850D02*
D03*
X511850D02*
D03*
D26*
X496100Y751000D02*
D03*
X513600Y751000D02*
D03*
X363360Y716026D02*
D03*
X380860Y716026D02*
D03*
X513600Y732250D02*
D03*
X496100Y732250D02*
D03*
X466250Y718500D02*
D03*
X483750Y718500D02*
D03*
X551040Y845820D02*
D03*
X533540Y845820D02*
D03*
X582850Y803000D02*
D03*
X565350Y803000D02*
D03*
D27*
X533600Y742750D02*
D03*
X533600Y725250D02*
D03*
X588600Y722750D02*
D03*
Y740250D02*
D03*
X395478Y734708D02*
D03*
Y752208D02*
D03*
X391160Y819290D02*
D03*
X391160Y836790D02*
D03*
X426500Y732250D02*
D03*
Y714750D02*
D03*
X447250Y732000D02*
D03*
Y714500D02*
D03*
X477500Y763750D02*
D03*
Y746250D02*
D03*
X455000Y763750D02*
D03*
Y746250D02*
D03*
X480750Y837500D02*
D03*
X480750Y820000D02*
D03*
X410958Y836934D02*
D03*
Y819434D02*
D03*
D28*
X460250Y819610D02*
D03*
Y837390D02*
D03*
D29*
X478250Y788750D02*
D03*
X451250D02*
D03*
Y798750D02*
D03*
X478250D02*
D03*
D30*
X565100Y841500D02*
D03*
X585100Y832000D02*
D03*
X565100Y822500D02*
D03*
Y784500D02*
D03*
X585100Y775000D02*
D03*
X565100Y765500D02*
D03*
D51*
X526850Y792000D02*
D03*
D59*
X290900Y740100D02*
D03*
Y829900D02*
D03*
X350400Y826300D02*
D03*
Y743700D02*
D03*
D60*
X362900Y749000D02*
D03*
D61*
Y821000D02*
D03*
D62*
X802160Y823100D02*
D03*
Y797700D02*
D03*
Y772300D02*
D03*
Y746900D02*
D03*
Y848500D02*
D03*
D63*
Y721500D02*
D03*
D64*
X634520Y824370D02*
D03*
X665000Y743090D02*
D03*
Y717690D02*
D03*
X634520Y798970D02*
D03*
X665000Y824370D02*
D03*
Y798970D02*
D03*
X634520Y743090D02*
D03*
Y717690D02*
D03*
D65*
X665000Y768490D02*
D03*
X634520Y849770D02*
D03*
X665000D02*
D03*
X634520Y768490D02*
D03*
D66*
X715800Y845960D02*
D03*
X342500Y720000D02*
D03*
M02*
