G04*
G04 #@! TF.GenerationSoftware,Altium Limited,Altium Designer,24.9.1 (31)*
G04*
G04 Layer_Color=8421504*
%FSLAX44Y44*%
%MOMM*%
G71*
G04*
G04 #@! TF.SameCoordinates,22B4A0D8-32B4-4856-A8F8-6707C093DBDE*
G04*
G04*
G04 #@! TF.FilePolarity,Positive*
G04*
G01*
G75*
%ADD19R,0.7620X0.7620*%
%ADD20R,1.1684X0.7620*%
%ADD21R,0.7000X0.3000*%
%ADD22R,0.6500X1.2500*%
%ADD23O,1.0000X0.2500*%
%ADD24O,0.2500X1.0000*%
%ADD25R,0.8500X1.5000*%
%ADD26R,1.5000X0.8500*%
%ADD27R,1.3000X1.1000*%
%ADD28R,1.1000X0.6000*%
%ADD29R,0.7000X0.6000*%
G36*
X543100Y775750D02*
X510600Y775750D01*
X510600Y800125D01*
X518725Y808250D01*
X543100D01*
Y775750D01*
D02*
G37*
D19*
X421997Y796256D02*
D03*
Y773396D02*
D03*
X402693Y796256D02*
D03*
D20*
X404979Y773396D02*
D03*
D21*
X369500Y757500D02*
D03*
Y762500D02*
D03*
Y767500D02*
D03*
Y777500D02*
D03*
X369500Y782500D02*
D03*
Y787500D02*
D03*
X369500Y792500D02*
D03*
Y802500D02*
D03*
Y807500D02*
D03*
X352500Y815000D02*
D03*
Y810000D02*
D03*
Y805000D02*
D03*
X352500Y795000D02*
D03*
X352500Y790000D02*
D03*
Y785000D02*
D03*
Y780000D02*
D03*
Y770000D02*
D03*
Y765000D02*
D03*
Y760000D02*
D03*
X369500Y812500D02*
D03*
X352500Y800000D02*
D03*
X369500Y797500D02*
D03*
X352500Y775000D02*
D03*
X369500Y772500D02*
D03*
D22*
X570250Y746000D02*
D03*
X560850D02*
D03*
X551450D02*
D03*
Y721000D02*
D03*
X570250D02*
D03*
D23*
X503600Y807000D02*
D03*
Y802000D02*
D03*
X550100Y777000D02*
D03*
Y782000D02*
D03*
Y792000D02*
D03*
Y797000D02*
D03*
Y802000D02*
D03*
Y807000D02*
D03*
X503600Y797000D02*
D03*
Y792000D02*
D03*
Y787000D02*
D03*
Y782000D02*
D03*
Y777000D02*
D03*
X550100Y787000D02*
D03*
D24*
X521850Y768750D02*
D03*
X526850D02*
D03*
X531850D02*
D03*
X536850D02*
D03*
X541850D02*
D03*
Y815250D02*
D03*
X516850D02*
D03*
X511850Y768750D02*
D03*
X516850D02*
D03*
X536850Y815250D02*
D03*
X531850D02*
D03*
X526850D02*
D03*
X521850D02*
D03*
X511850D02*
D03*
D25*
X496100Y751000D02*
D03*
X513600Y751000D02*
D03*
X383859Y835746D02*
D03*
X401359Y835746D02*
D03*
X384470Y743090D02*
D03*
X401970Y743090D02*
D03*
X513600Y732250D02*
D03*
X496100Y732250D02*
D03*
X466250Y718500D02*
D03*
X483750Y718500D02*
D03*
X551040Y845820D02*
D03*
X533540Y845820D02*
D03*
X582850Y803000D02*
D03*
X565350Y803000D02*
D03*
D26*
X533600Y742750D02*
D03*
X533600Y725250D02*
D03*
X588600Y722750D02*
D03*
Y740250D02*
D03*
X439000Y837500D02*
D03*
Y820000D02*
D03*
X426500Y732250D02*
D03*
Y714750D02*
D03*
X447250Y732000D02*
D03*
Y714500D02*
D03*
X477500Y763750D02*
D03*
Y746250D02*
D03*
X455000Y763750D02*
D03*
Y746250D02*
D03*
X480750Y837500D02*
D03*
X480750Y820000D02*
D03*
X418000Y837500D02*
D03*
Y820000D02*
D03*
D27*
X460250Y819610D02*
D03*
Y837390D02*
D03*
D28*
X478250Y788750D02*
D03*
X451250D02*
D03*
Y798750D02*
D03*
X478250D02*
D03*
D29*
X565100Y841500D02*
D03*
X585100Y832000D02*
D03*
X565100Y822500D02*
D03*
Y784500D02*
D03*
X585100Y775000D02*
D03*
X565100Y765500D02*
D03*
M02*
