G04*
G04 #@! TF.GenerationSoftware,Altium Limited,Altium Designer,24.9.1 (31)*
G04*
G04 Layer_Color=16711935*
%FSLAX44Y44*%
%MOMM*%
G71*
G04*
G04 #@! TF.SameCoordinates,22B4A0D8-32B4-4856-A8F8-6707C093DBDE*
G04*
G04*
G04 #@! TF.FilePolarity,Positive*
G04*
G01*
G75*
%ADD11C,0.2540*%
%ADD12C,0.1270*%
%ADD71C,0.1000*%
D11*
X281150Y808500D02*
X287244D01*
Y805453D01*
X286228Y804437D01*
X284197D01*
X283181Y805453D01*
Y808500D01*
X286228Y798343D02*
X287244Y799359D01*
Y801390D01*
X286228Y802406D01*
X282166D01*
X281150Y801390D01*
Y799359D01*
X282166Y798343D01*
X287244Y796312D02*
X281150D01*
Y793265D01*
X282166Y792249D01*
X283181D01*
X284197Y793265D01*
Y796312D01*
Y793265D01*
X285213Y792249D01*
X286228D01*
X287244Y793265D01*
Y796312D01*
X280134Y790218D02*
Y786155D01*
X287244Y780061D02*
Y784124D01*
X281150D01*
Y780061D01*
X284197Y784124D02*
Y782093D01*
X287244Y778030D02*
X281150D01*
Y774983D01*
X282166Y773967D01*
X286228D01*
X287244Y774983D01*
Y778030D01*
X286228Y767873D02*
X287244Y768889D01*
Y770920D01*
X286228Y771936D01*
X282166D01*
X281150Y770920D01*
Y768889D01*
X282166Y767873D01*
X284197D01*
Y769904D01*
X287244Y761779D02*
Y765842D01*
X281150D01*
Y761779D01*
X284197Y765842D02*
Y763811D01*
D12*
X275400Y730000D02*
Y840000D01*
X267000Y739000D02*
Y831000D01*
Y739000D02*
X371500D01*
Y831000D01*
X267000D02*
X371500D01*
D71*
X575330Y725500D02*
Y741500D01*
X546370Y725500D02*
X575330D01*
X546370D02*
Y741500D01*
X575330D01*
X565930D02*
X575330Y732100D01*
X771160Y863500D02*
X833160D01*
X771160Y706500D02*
Y863500D01*
X833160Y706500D02*
Y863500D01*
X771160Y706500D02*
X833160D01*
M02*
