G04*
G04 #@! TF.GenerationSoftware,Altium Limited,Altium Designer,24.9.1 (31)*
G04*
G04 Layer_Physical_Order=2*
G04 Layer_Color=16711680*
%FSLAX44Y44*%
%MOMM*%
G71*
G04*
G04 #@! TF.SameCoordinates,22B4A0D8-32B4-4856-A8F8-6707C093DBDE*
G04*
G04*
G04 #@! TF.FilePolarity,Positive*
G04*
G01*
G75*
%ADD11C,0.2540*%
%ADD15C,0.1524*%
%ADD51C,0.2286*%
%ADD56O,1.4000X0.8000*%
%ADD57O,0.6500X0.9500*%
%ADD58C,0.6500*%
%ADD59C,1.6500*%
%ADD60R,1.6500X1.6500*%
%ADD61C,1.7780*%
%ADD62R,1.7780X1.7780*%
%ADD63C,2.0000*%
%ADD64C,0.7000*%
%ADD65C,0.3500*%
%ADD66C,0.5000*%
%ADD67C,1.0000*%
G36*
X569075Y852968D02*
X569330Y852774D01*
X569596Y852603D01*
X569871Y852454D01*
X570156Y852328D01*
X570451Y852226D01*
X570756Y852146D01*
X571070Y852089D01*
X571395Y852054D01*
X571729Y852043D01*
X571828Y849503D01*
X571491Y849491D01*
X571167Y849454D01*
X570854Y849394D01*
X570554Y849309D01*
X570266Y849199D01*
X569990Y849066D01*
X569726Y848908D01*
X569474Y848726D01*
X569234Y848519D01*
X569007Y848288D01*
X568829Y853185D01*
X569075Y852968D01*
D02*
G37*
G36*
X586309Y848251D02*
X586137Y848489D01*
X585935Y848702D01*
X585702Y848890D01*
X585438Y849052D01*
X585143Y849190D01*
X584818Y849303D01*
X584462Y849390D01*
X584075Y849453D01*
X583657Y849491D01*
X583209Y849503D01*
X583142Y852043D01*
X583591Y852056D01*
X584007Y852094D01*
X584391Y852159D01*
X584743Y852249D01*
X585063Y852365D01*
X585351Y852506D01*
X585606Y852673D01*
X585830Y852867D01*
X586021Y853085D01*
X586180Y853330D01*
X586309Y848251D01*
D02*
G37*
G36*
X834114Y703770D02*
X277990D01*
Y746125D01*
X284899D01*
X285189Y745916D01*
X285570Y745125D01*
X285452Y744915D01*
X285182Y744736D01*
X285003Y744627D01*
X284981Y744596D01*
X284943Y744587D01*
X284770Y744469D01*
X284749Y744436D01*
X284712Y744427D01*
X284546Y744299D01*
X284527Y744266D01*
X284490Y744254D01*
X284331Y744118D01*
X284313Y744083D01*
X284277Y744070D01*
X284125Y743925D01*
X284119Y743912D01*
X284100Y743899D01*
X284088Y743881D01*
X284075Y743875D01*
X283930Y743723D01*
X283917Y743687D01*
X283882Y743669D01*
X283746Y743510D01*
X283734Y743473D01*
X283701Y743454D01*
X283573Y743288D01*
X283563Y743251D01*
X283531Y743230D01*
X283412Y743057D01*
X283405Y743019D01*
X283373Y742997D01*
X283264Y742818D01*
X283258Y742780D01*
X283228Y742756D01*
X283128Y742572D01*
X283124Y742533D01*
X283095Y742508D01*
X283005Y742319D01*
X283003Y742280D01*
X282976Y742253D01*
X282896Y742059D01*
Y742021D01*
X282870Y741993D01*
X282800Y741795D01*
X282802Y741756D01*
X282778Y741726D01*
X282718Y741525D01*
X282722Y741487D01*
X282700Y741456D01*
X282651Y741253D01*
X282657Y741214D01*
X282636Y741182D01*
X282598Y740976D01*
X282606Y740938D01*
X282586Y740905D01*
X282559Y740698D01*
X282569Y740660D01*
X282551Y740626D01*
X282535Y740417D01*
X282547Y740380D01*
X282531Y740345D01*
X282526Y740136D01*
X282531Y740122D01*
X282527Y740100D01*
X282531Y740078D01*
X282526Y740064D01*
X282531Y739855D01*
X282547Y739819D01*
X282535Y739783D01*
X282551Y739574D01*
X282569Y739539D01*
X282559Y739502D01*
X282586Y739295D01*
X282606Y739261D01*
X282598Y739224D01*
X282636Y739018D01*
X282657Y738986D01*
X282651Y738947D01*
X282700Y738744D01*
X282722Y738713D01*
X282718Y738675D01*
X282778Y738474D01*
X282802Y738444D01*
X282800Y738405D01*
X282870Y738207D01*
X282896Y738179D01*
Y738141D01*
X282976Y737947D01*
X283003Y737920D01*
X283005Y737881D01*
X283095Y737692D01*
X283124Y737666D01*
X283128Y737628D01*
X283228Y737444D01*
X283258Y737420D01*
X283264Y737382D01*
X283373Y737203D01*
X283405Y737180D01*
X283412Y737143D01*
X283531Y736970D01*
X283563Y736949D01*
X283573Y736912D01*
X283701Y736746D01*
X283734Y736727D01*
X283746Y736690D01*
X283882Y736531D01*
X283916Y736513D01*
X283930Y736477D01*
X284075Y736325D01*
X284088Y736319D01*
X284100Y736301D01*
X284119Y736288D01*
X284125Y736274D01*
X284277Y736130D01*
X284313Y736116D01*
X284331Y736082D01*
X284490Y735946D01*
X284527Y735934D01*
X284546Y735901D01*
X284712Y735773D01*
X284749Y735763D01*
X284770Y735731D01*
X284943Y735612D01*
X284981Y735604D01*
X285003Y735573D01*
X285182Y735464D01*
X285220Y735458D01*
X285244Y735428D01*
X285428Y735328D01*
X285466Y735324D01*
X285492Y735295D01*
X285681Y735205D01*
X285720Y735203D01*
X285747Y735176D01*
X285941Y735096D01*
X285979D01*
X286008Y735070D01*
X286205Y735000D01*
X286243Y735002D01*
X286273Y734978D01*
X286474Y734918D01*
X286513Y734922D01*
X286544Y734900D01*
X286747Y734851D01*
X286786Y734857D01*
X286818Y734836D01*
X287024Y734798D01*
X287062Y734806D01*
X287095Y734786D01*
X287302Y734759D01*
X287340Y734769D01*
X287374Y734752D01*
X287583Y734735D01*
X287619Y734747D01*
X287655Y734731D01*
X287864Y734726D01*
X287878Y734731D01*
X287894Y734728D01*
X287900Y734725D01*
X293900D01*
X293906Y734728D01*
X293922Y734731D01*
X293936Y734726D01*
X294145Y734731D01*
X294181Y734747D01*
X294217Y734735D01*
X294426Y734752D01*
X294460Y734769D01*
X294498Y734759D01*
X294705Y734786D01*
X294739Y734806D01*
X294776Y734798D01*
X294982Y734836D01*
X295014Y734857D01*
X295053Y734851D01*
X295256Y734900D01*
X295287Y734922D01*
X295326Y734918D01*
X295527Y734978D01*
X295557Y735002D01*
X295595Y735000D01*
X295792Y735070D01*
X295821Y735096D01*
X295860D01*
X296053Y735176D01*
X296080Y735203D01*
X296119Y735205D01*
X296308Y735295D01*
X296334Y735324D01*
X296372Y735328D01*
X296556Y735428D01*
X296580Y735458D01*
X296618Y735464D01*
X296797Y735573D01*
X296819Y735604D01*
X296857Y735612D01*
X297030Y735731D01*
X297051Y735763D01*
X297088Y735773D01*
X297254Y735901D01*
X297273Y735934D01*
X297310Y735946D01*
X297469Y736082D01*
X297487Y736116D01*
X297523Y736130D01*
X297675Y736274D01*
X297681Y736288D01*
X297700Y736301D01*
X297712Y736319D01*
X297726Y736325D01*
X297870Y736477D01*
X297883Y736513D01*
X297918Y736531D01*
X298054Y736690D01*
X298066Y736727D01*
X298099Y736746D01*
X298227Y736912D01*
X298237Y736949D01*
X298269Y736970D01*
X298388Y737143D01*
X298396Y737180D01*
X298427Y737203D01*
X298536Y737382D01*
X298542Y737420D01*
X298572Y737444D01*
X298672Y737628D01*
X298676Y737666D01*
X298705Y737692D01*
X298795Y737881D01*
X298797Y737920D01*
X298824Y737947D01*
X298904Y738140D01*
Y738179D01*
X298930Y738208D01*
X299000Y738405D01*
X298998Y738444D01*
X299022Y738473D01*
X299082Y738674D01*
X299078Y738713D01*
X299100Y738744D01*
X299149Y738948D01*
X299143Y738986D01*
X299164Y739018D01*
X299202Y739224D01*
X299194Y739261D01*
X299214Y739295D01*
X299241Y739502D01*
X299231Y739540D01*
X299249Y739574D01*
X299265Y739783D01*
X299253Y739819D01*
X299269Y739855D01*
X299274Y740064D01*
X299269Y740078D01*
X299273Y740100D01*
X299269Y740122D01*
X299274Y740136D01*
X299269Y740345D01*
X299253Y740380D01*
X299265Y740417D01*
X299249Y740626D01*
X299231Y740660D01*
X299241Y740698D01*
X299214Y740905D01*
X299194Y740939D01*
X299202Y740976D01*
X299164Y741182D01*
X299143Y741214D01*
X299149Y741252D01*
X299100Y741456D01*
X299078Y741487D01*
X299082Y741526D01*
X299022Y741727D01*
X298998Y741757D01*
X299000Y741795D01*
X298930Y741992D01*
X298904Y742021D01*
Y742059D01*
X298824Y742253D01*
X298797Y742280D01*
X298795Y742319D01*
X298705Y742508D01*
X298676Y742533D01*
X298672Y742572D01*
X298572Y742756D01*
X298542Y742780D01*
X298536Y742818D01*
X298427Y742997D01*
X298396Y743019D01*
X298388Y743057D01*
X298269Y743230D01*
X298237Y743251D01*
X298227Y743288D01*
X298099Y743454D01*
X298066Y743473D01*
X298054Y743510D01*
X297918Y743669D01*
X297884Y743687D01*
X297870Y743723D01*
X297726Y743875D01*
X297712Y743881D01*
X297700Y743899D01*
X297681Y743912D01*
X297675Y743926D01*
X297523Y744070D01*
X297487Y744083D01*
X297469Y744118D01*
X297310Y744254D01*
X297273Y744266D01*
X297254Y744299D01*
X297088Y744427D01*
X297051Y744437D01*
X297030Y744469D01*
X296857Y744587D01*
X296819Y744596D01*
X296797Y744627D01*
X296618Y744736D01*
X296348Y744915D01*
X296230Y745125D01*
X296612Y745916D01*
X296901Y746125D01*
X341506D01*
X341706Y746021D01*
X341870Y745848D01*
X342218Y745126D01*
X342222Y745087D01*
X342200Y745056D01*
X342151Y744852D01*
X342157Y744814D01*
X342136Y744782D01*
X342098Y744576D01*
X342106Y744538D01*
X342086Y744505D01*
X342059Y744297D01*
X342069Y744260D01*
X342052Y744226D01*
X342035Y744017D01*
X342047Y743980D01*
X342031Y743945D01*
X342026Y743736D01*
X342031Y743722D01*
X342027Y743700D01*
X342031Y743678D01*
X342026Y743664D01*
X342031Y743455D01*
X342047Y743419D01*
X342035Y743383D01*
X342052Y743174D01*
X342069Y743140D01*
X342059Y743102D01*
X342086Y742895D01*
X342106Y742861D01*
X342098Y742823D01*
X342136Y742617D01*
X342157Y742586D01*
X342151Y742548D01*
X342200Y742344D01*
X342222Y742313D01*
X342218Y742274D01*
X342278Y742073D01*
X342302Y742044D01*
X342300Y742005D01*
X342370Y741808D01*
X342396Y741779D01*
Y741740D01*
X342476Y741547D01*
X342503Y741520D01*
X342505Y741481D01*
X342595Y741292D01*
X342624Y741266D01*
X342628Y741228D01*
X342728Y741044D01*
X342758Y741020D01*
X342764Y740982D01*
X342873Y740803D01*
X342904Y740781D01*
X342912Y740743D01*
X343031Y740570D01*
X343063Y740549D01*
X343073Y740512D01*
X343201Y740346D01*
X343234Y740327D01*
X343246Y740290D01*
X343382Y740131D01*
X343416Y740113D01*
X343430Y740077D01*
X343574Y739925D01*
X343588Y739919D01*
X343601Y739901D01*
X343619Y739888D01*
X343625Y739874D01*
X343777Y739730D01*
X343813Y739716D01*
X343831Y739682D01*
X343990Y739546D01*
X344026Y739534D01*
X344046Y739501D01*
X344212Y739373D01*
X344249Y739363D01*
X344270Y739331D01*
X344443Y739212D01*
X344481Y739204D01*
X344503Y739173D01*
X344682Y739064D01*
X344720Y739058D01*
X344744Y739028D01*
X344928Y738928D01*
X344966Y738924D01*
X344992Y738895D01*
X345181Y738805D01*
X345220Y738803D01*
X345247Y738776D01*
X345440Y738696D01*
X345479D01*
X345508Y738670D01*
X345705Y738600D01*
X345744Y738602D01*
X345774Y738578D01*
X345974Y738518D01*
X346013Y738522D01*
X346044Y738500D01*
X346248Y738451D01*
X346286Y738457D01*
X346318Y738436D01*
X346524Y738398D01*
X346561Y738406D01*
X346595Y738386D01*
X346802Y738359D01*
X346840Y738369D01*
X346874Y738352D01*
X347083Y738335D01*
X347119Y738347D01*
X347155Y738331D01*
X347364Y738326D01*
X347378Y738331D01*
X347393Y738328D01*
X347400Y738325D01*
X353400D01*
X353407Y738328D01*
X353422Y738331D01*
X353436Y738326D01*
X353645Y738331D01*
X353680Y738347D01*
X353717Y738335D01*
X353926Y738352D01*
X353960Y738369D01*
X353997Y738359D01*
X354205Y738386D01*
X354239Y738406D01*
X354277Y738398D01*
X354482Y738436D01*
X354515Y738457D01*
X354552Y738451D01*
X354756Y738500D01*
X354787Y738522D01*
X354826Y738518D01*
X355027Y738578D01*
X355056Y738602D01*
X355095Y738600D01*
X355292Y738670D01*
X355321Y738696D01*
X355359D01*
X355553Y738776D01*
X355580Y738803D01*
X355619Y738805D01*
X355808Y738895D01*
X355834Y738924D01*
X355872Y738928D01*
X356056Y739028D01*
X356080Y739058D01*
X356118Y739064D01*
X356297Y739173D01*
X356319Y739204D01*
X356357Y739212D01*
X356530Y739331D01*
X356551Y739363D01*
X356588Y739373D01*
X356754Y739501D01*
X356773Y739534D01*
X356810Y739546D01*
X356969Y739682D01*
X356987Y739716D01*
X357023Y739730D01*
X357175Y739874D01*
X357181Y739888D01*
X357200Y739901D01*
X357212Y739919D01*
X357226Y739925D01*
X357370Y740077D01*
X357383Y740113D01*
X357418Y740131D01*
X357554Y740290D01*
X357566Y740327D01*
X357599Y740346D01*
X357727Y740512D01*
X357737Y740549D01*
X357769Y740570D01*
X357888Y740743D01*
X357896Y740780D01*
X357927Y740803D01*
X358036Y740982D01*
X358042Y741020D01*
X358072Y741044D01*
X358172Y741228D01*
X358176Y741266D01*
X358205Y741292D01*
X358295Y741481D01*
X358297Y741520D01*
X358324Y741547D01*
X358404Y741740D01*
Y741779D01*
X358430Y741808D01*
X358500Y742005D01*
X358498Y742043D01*
X358522Y742073D01*
X358582Y742274D01*
X358578Y742313D01*
X358601Y742344D01*
X358649Y742548D01*
X358643Y742586D01*
X358664Y742617D01*
X358702Y742823D01*
X358694Y742861D01*
X358714Y742895D01*
X358741Y743102D01*
X358731Y743140D01*
X358749Y743174D01*
X358765Y743383D01*
X358753Y743419D01*
X358769Y743455D01*
X358774Y743664D01*
X359603Y744141D01*
X359757Y744164D01*
X361136Y743242D01*
X362900Y742891D01*
X364664Y743242D01*
X366159Y744241D01*
X367158Y745736D01*
X367509Y747500D01*
Y750500D01*
X367158Y752264D01*
X366159Y753759D01*
X364664Y754758D01*
X362900Y755108D01*
X361136Y754758D01*
X359641Y753759D01*
X358642Y752264D01*
X358292Y750500D01*
Y748315D01*
X357344Y747659D01*
X356969Y747718D01*
X356810Y747854D01*
X356773Y747866D01*
X356754Y747899D01*
X356588Y748027D01*
X356551Y748036D01*
X356530Y748069D01*
X356357Y748187D01*
X356319Y748196D01*
X356297Y748227D01*
X356118Y748336D01*
X356080Y748342D01*
X356056Y748372D01*
X355872Y748472D01*
X355834Y748476D01*
X355807Y748505D01*
X355619Y748595D01*
X355580Y748597D01*
X355553Y748624D01*
X355359Y748704D01*
X355321D01*
X355292Y748730D01*
X355095Y748800D01*
X355056Y748798D01*
X355027Y748822D01*
X354826Y748882D01*
X354787Y748878D01*
X354756Y748900D01*
X354553Y748949D01*
X354515Y748943D01*
X354482Y748964D01*
X354276Y749002D01*
X354239Y748994D01*
X354205Y749014D01*
X353997Y749041D01*
X353960Y749031D01*
X353926Y749048D01*
X353717Y749065D01*
X353681Y749053D01*
X353645Y749069D01*
X353436Y749074D01*
X353422Y749069D01*
X353406Y749072D01*
X353400Y749075D01*
X347400D01*
X347393Y749072D01*
X347378Y749069D01*
X347364Y749074D01*
X347155Y749069D01*
X347119Y749053D01*
X347083Y749065D01*
X346874Y749048D01*
X346840Y749031D01*
X346802Y749041D01*
X346595Y749014D01*
X346562Y748994D01*
X346524Y749002D01*
X346318Y748964D01*
X346286Y748943D01*
X346247Y748949D01*
X346044Y748900D01*
X346013Y748878D01*
X345974Y748882D01*
X345774Y748822D01*
X345632Y748840D01*
X345024Y749175D01*
X344812Y749416D01*
X344775Y749499D01*
Y820501D01*
X344812Y820584D01*
X345024Y820824D01*
X345632Y821160D01*
X345774Y821178D01*
X345974Y821118D01*
X346013Y821122D01*
X346044Y821100D01*
X346247Y821051D01*
X346286Y821057D01*
X346318Y821036D01*
X346524Y820998D01*
X346562Y821006D01*
X346595Y820986D01*
X346802Y820959D01*
X346840Y820969D01*
X346874Y820952D01*
X347083Y820935D01*
X347119Y820947D01*
X347155Y820931D01*
X347364Y820926D01*
X347378Y820931D01*
X347393Y820928D01*
X347400Y820925D01*
X353400D01*
X353406Y820928D01*
X353422Y820931D01*
X353436Y820926D01*
X353645Y820931D01*
X353681Y820947D01*
X353717Y820935D01*
X353926Y820952D01*
X353960Y820969D01*
X353997Y820959D01*
X354205Y820986D01*
X354239Y821006D01*
X354276Y820998D01*
X354482Y821036D01*
X354515Y821057D01*
X354553Y821051D01*
X354756Y821100D01*
X354787Y821122D01*
X354826Y821118D01*
X355027Y821178D01*
X355056Y821202D01*
X355095Y821200D01*
X355292Y821270D01*
X355321Y821296D01*
X355359D01*
X355553Y821376D01*
X355580Y821403D01*
X355619Y821405D01*
X355807Y821495D01*
X355834Y821524D01*
X355872Y821528D01*
X356056Y821628D01*
X356080Y821658D01*
X356118Y821664D01*
X356297Y821773D01*
X356319Y821804D01*
X356357Y821812D01*
X356530Y821931D01*
X356551Y821963D01*
X356588Y821973D01*
X356754Y822101D01*
X356773Y822134D01*
X356810Y822146D01*
X356969Y822282D01*
X356987Y822316D01*
X357023Y822330D01*
X357175Y822474D01*
X357181Y822488D01*
X357200Y822501D01*
X357212Y822519D01*
X357226Y822525D01*
X357370Y822677D01*
X357619Y822746D01*
X357683Y822730D01*
X358320Y822201D01*
X358464Y821865D01*
X358292Y821000D01*
X358642Y819236D01*
X359641Y817741D01*
X361136Y816742D01*
X362900Y816391D01*
X364664Y816742D01*
X366159Y817741D01*
X367158Y819236D01*
X367509Y821000D01*
X367158Y822764D01*
X366159Y824259D01*
X364664Y825258D01*
X362900Y825609D01*
X361136Y825258D01*
X359641Y824259D01*
X359613Y824217D01*
X359541Y824182D01*
X358479Y824279D01*
X358522Y824673D01*
X358582Y824874D01*
X358578Y824913D01*
X358600Y824944D01*
X358649Y825147D01*
X358643Y825185D01*
X358664Y825218D01*
X358702Y825424D01*
X358694Y825461D01*
X358714Y825495D01*
X358741Y825702D01*
X358731Y825740D01*
X358749Y825774D01*
X358765Y825983D01*
X358753Y826019D01*
X358769Y826054D01*
X358774Y826264D01*
X358769Y826278D01*
X358773Y826300D01*
X358769Y826322D01*
X358774Y826336D01*
X358769Y826545D01*
X358753Y826581D01*
X358765Y826617D01*
X358749Y826826D01*
X358731Y826860D01*
X358741Y826898D01*
X358714Y827105D01*
X358694Y827139D01*
X358702Y827177D01*
X358664Y827382D01*
X358643Y827414D01*
X358649Y827452D01*
X358601Y827656D01*
X358578Y827687D01*
X358582Y827726D01*
X358522Y827927D01*
X358498Y827956D01*
X358500Y827995D01*
X358430Y828192D01*
X358404Y828221D01*
Y828260D01*
X358324Y828453D01*
X358297Y828480D01*
X358295Y828519D01*
X358205Y828708D01*
X358176Y828734D01*
X358172Y828772D01*
X358072Y828956D01*
X358042Y828980D01*
X358036Y829018D01*
X357927Y829197D01*
X357896Y829219D01*
X357888Y829257D01*
X357769Y829430D01*
X357737Y829451D01*
X357727Y829488D01*
X357599Y829654D01*
X357566Y829673D01*
X357554Y829710D01*
X357418Y829869D01*
X357384Y829887D01*
X357370Y829923D01*
X357226Y830075D01*
X357212Y830081D01*
X357200Y830099D01*
X357181Y830112D01*
X357175Y830125D01*
X357023Y830270D01*
X356987Y830283D01*
X356969Y830318D01*
X356810Y830454D01*
X356773Y830466D01*
X356754Y830499D01*
X356588Y830627D01*
X356551Y830637D01*
X356530Y830669D01*
X356357Y830788D01*
X356319Y830796D01*
X356297Y830827D01*
X356118Y830936D01*
X356080Y830942D01*
X356056Y830972D01*
X355872Y831072D01*
X355834Y831076D01*
X355808Y831105D01*
X355619Y831195D01*
X355580Y831197D01*
X355553Y831224D01*
X355359Y831304D01*
X355321D01*
X355292Y831330D01*
X355095Y831400D01*
X355056Y831398D01*
X355027Y831422D01*
X354826Y831482D01*
X354787Y831478D01*
X354756Y831500D01*
X354552Y831549D01*
X354515Y831543D01*
X354482Y831564D01*
X354276Y831602D01*
X354239Y831594D01*
X354205Y831614D01*
X353997Y831641D01*
X353960Y831631D01*
X353926Y831648D01*
X353717Y831665D01*
X353680Y831653D01*
X353645Y831669D01*
X353436Y831674D01*
X353422Y831669D01*
X353407Y831672D01*
X353400Y831675D01*
X347400D01*
X347393Y831672D01*
X347378Y831669D01*
X347364Y831674D01*
X347155Y831669D01*
X347119Y831653D01*
X347083Y831665D01*
X346874Y831648D01*
X346840Y831631D01*
X346803Y831641D01*
X346595Y831614D01*
X346562Y831594D01*
X346524Y831602D01*
X346318Y831564D01*
X346286Y831543D01*
X346248Y831549D01*
X346044Y831500D01*
X346013Y831478D01*
X345974Y831482D01*
X345774Y831422D01*
X345743Y831398D01*
X345705Y831400D01*
X345508Y831330D01*
X345479Y831304D01*
X345440D01*
X345247Y831224D01*
X345220Y831197D01*
X345181Y831195D01*
X344992Y831105D01*
X344966Y831076D01*
X344928Y831072D01*
X344744Y830972D01*
X344720Y830942D01*
X344682Y830936D01*
X344503Y830827D01*
X344481Y830796D01*
X344443Y830788D01*
X344270Y830669D01*
X344249Y830637D01*
X344212Y830627D01*
X344046Y830499D01*
X344027Y830466D01*
X343990Y830454D01*
X343831Y830318D01*
X343813Y830284D01*
X343777Y830270D01*
X343625Y830126D01*
X343619Y830112D01*
X343601Y830099D01*
X343588Y830081D01*
X343574Y830075D01*
X343430Y829923D01*
X343416Y829887D01*
X343382Y829869D01*
X343246Y829710D01*
X343234Y829673D01*
X343201Y829654D01*
X343073Y829488D01*
X343063Y829451D01*
X343031Y829430D01*
X342912Y829257D01*
X342904Y829219D01*
X342873Y829197D01*
X342764Y829018D01*
X342758Y828980D01*
X342728Y828956D01*
X342628Y828772D01*
X342624Y828734D01*
X342595Y828708D01*
X342505Y828519D01*
X342503Y828480D01*
X342476Y828453D01*
X342396Y828260D01*
Y828221D01*
X342370Y828192D01*
X342300Y827995D01*
X342302Y827956D01*
X342278Y827926D01*
X342218Y827726D01*
X342222Y827687D01*
X342200Y827656D01*
X342151Y827452D01*
X342157Y827414D01*
X342136Y827382D01*
X342098Y827177D01*
X342106Y827139D01*
X342086Y827105D01*
X342059Y826897D01*
X342069Y826860D01*
X342052Y826826D01*
X342035Y826617D01*
X342047Y826581D01*
X342031Y826545D01*
X342026Y826336D01*
X342031Y826322D01*
X342027Y826300D01*
X342031Y826278D01*
X342026Y826264D01*
X342031Y826055D01*
X342047Y826019D01*
X342035Y825983D01*
X342052Y825774D01*
X342069Y825740D01*
X342059Y825702D01*
X342086Y825495D01*
X342106Y825461D01*
X342098Y825424D01*
X342136Y825218D01*
X342157Y825185D01*
X342151Y825147D01*
X342200Y824944D01*
X342222Y824913D01*
X342218Y824874D01*
X341869Y824151D01*
X341706Y823979D01*
X341506Y823875D01*
X296901D01*
X296612Y824084D01*
X296230Y824875D01*
X296348Y825084D01*
X296618Y825264D01*
X296797Y825373D01*
X296819Y825404D01*
X296857Y825412D01*
X297030Y825531D01*
X297051Y825563D01*
X297088Y825573D01*
X297254Y825701D01*
X297273Y825734D01*
X297310Y825746D01*
X297469Y825882D01*
X297487Y825916D01*
X297523Y825930D01*
X297675Y826074D01*
X297681Y826088D01*
X297700Y826100D01*
X297712Y826119D01*
X297726Y826125D01*
X297870Y826277D01*
X297884Y826313D01*
X297918Y826331D01*
X298054Y826490D01*
X298066Y826527D01*
X298099Y826546D01*
X298227Y826712D01*
X298237Y826749D01*
X298269Y826770D01*
X298388Y826943D01*
X298396Y826981D01*
X298427Y827003D01*
X298536Y827182D01*
X298542Y827220D01*
X298572Y827244D01*
X298672Y827428D01*
X298676Y827466D01*
X298705Y827492D01*
X298795Y827681D01*
X298797Y827720D01*
X298824Y827747D01*
X298904Y827941D01*
Y827979D01*
X298930Y828008D01*
X299000Y828205D01*
X298998Y828243D01*
X299022Y828273D01*
X299082Y828474D01*
X299078Y828513D01*
X299100Y828544D01*
X299149Y828747D01*
X299143Y828786D01*
X299164Y828818D01*
X299202Y829024D01*
X299194Y829061D01*
X299214Y829094D01*
X299241Y829302D01*
X299231Y829340D01*
X299249Y829374D01*
X299265Y829583D01*
X299253Y829620D01*
X299269Y829655D01*
X299274Y829864D01*
X299269Y829878D01*
X299273Y829900D01*
X299269Y829922D01*
X299274Y829936D01*
X299269Y830145D01*
X299253Y830181D01*
X299265Y830217D01*
X299249Y830426D01*
X299231Y830460D01*
X299241Y830498D01*
X299214Y830705D01*
X299194Y830739D01*
X299202Y830776D01*
X299164Y830982D01*
X299143Y831014D01*
X299149Y831052D01*
X299100Y831256D01*
X299078Y831287D01*
X299082Y831326D01*
X299022Y831526D01*
X298998Y831556D01*
X299000Y831595D01*
X298930Y831792D01*
X298904Y831821D01*
Y831859D01*
X298824Y832053D01*
X298797Y832080D01*
X298795Y832119D01*
X298705Y832308D01*
X298676Y832334D01*
X298672Y832372D01*
X298572Y832556D01*
X298542Y832580D01*
X298536Y832618D01*
X298427Y832797D01*
X298396Y832820D01*
X298388Y832857D01*
X298269Y833030D01*
X298237Y833051D01*
X298227Y833088D01*
X298099Y833254D01*
X298066Y833273D01*
X298054Y833310D01*
X297918Y833469D01*
X297883Y833487D01*
X297870Y833523D01*
X297726Y833675D01*
X297712Y833681D01*
X297700Y833699D01*
X297681Y833712D01*
X297675Y833726D01*
X297523Y833870D01*
X297487Y833884D01*
X297469Y833918D01*
X297310Y834054D01*
X297273Y834066D01*
X297254Y834099D01*
X297088Y834227D01*
X297051Y834237D01*
X297030Y834269D01*
X296857Y834388D01*
X296819Y834396D01*
X296797Y834427D01*
X296618Y834536D01*
X296580Y834542D01*
X296556Y834572D01*
X296372Y834672D01*
X296334Y834676D01*
X296308Y834705D01*
X296119Y834795D01*
X296080Y834797D01*
X296053Y834824D01*
X295860Y834904D01*
X295821D01*
X295792Y834930D01*
X295595Y835000D01*
X295557Y834998D01*
X295527Y835022D01*
X295326Y835082D01*
X295287Y835078D01*
X295256Y835100D01*
X295053Y835149D01*
X295014Y835143D01*
X294982Y835164D01*
X294776Y835202D01*
X294739Y835194D01*
X294705Y835214D01*
X294498Y835241D01*
X294460Y835231D01*
X294426Y835248D01*
X294217Y835265D01*
X294181Y835253D01*
X294145Y835269D01*
X293936Y835274D01*
X293922Y835269D01*
X293906Y835272D01*
X293900Y835275D01*
X287900Y835275D01*
X287894Y835272D01*
X287878Y835269D01*
X287864Y835274D01*
X287655Y835269D01*
X287619Y835253D01*
X287583Y835265D01*
X287374Y835248D01*
X287340Y835231D01*
X287302Y835241D01*
X287095Y835214D01*
X287062Y835194D01*
X287024Y835202D01*
X286818Y835164D01*
X286786Y835143D01*
X286747Y835149D01*
X286544Y835100D01*
X286513Y835078D01*
X286474Y835082D01*
X286273Y835022D01*
X286243Y834998D01*
X286205Y835000D01*
X286008Y834930D01*
X285979Y834904D01*
X285941D01*
X285747Y834824D01*
X285720Y834797D01*
X285681Y834795D01*
X285492Y834705D01*
X285466Y834676D01*
X285428Y834672D01*
X285244Y834572D01*
X285220Y834542D01*
X285182Y834536D01*
X285003Y834427D01*
X284981Y834396D01*
X284943Y834388D01*
X284770Y834269D01*
X284749Y834237D01*
X284712Y834227D01*
X284546Y834099D01*
X284527Y834066D01*
X284490Y834054D01*
X284331Y833918D01*
X284313Y833884D01*
X284277Y833870D01*
X284125Y833726D01*
X284119Y833712D01*
X284100Y833699D01*
X284088Y833681D01*
X284075Y833675D01*
X283930Y833523D01*
X283916Y833487D01*
X283882Y833469D01*
X283746Y833310D01*
X283734Y833273D01*
X283701Y833254D01*
X283573Y833088D01*
X283563Y833051D01*
X283531Y833030D01*
X283412Y832857D01*
X283404Y832819D01*
X283373Y832797D01*
X283264Y832618D01*
X283258Y832580D01*
X283228Y832556D01*
X283128Y832372D01*
X283124Y832334D01*
X283095Y832308D01*
X283005Y832119D01*
X283003Y832080D01*
X282976Y832053D01*
X282896Y831859D01*
Y831821D01*
X282870Y831793D01*
X282800Y831595D01*
X282802Y831556D01*
X282778Y831526D01*
X282718Y831325D01*
X282722Y831287D01*
X282700Y831256D01*
X282651Y831053D01*
X282657Y831014D01*
X282636Y830982D01*
X282598Y830776D01*
X282606Y830739D01*
X282586Y830705D01*
X282559Y830498D01*
X282569Y830460D01*
X282551Y830426D01*
X282535Y830217D01*
X282547Y830180D01*
X282531Y830145D01*
X282526Y829936D01*
X282531Y829922D01*
X282527Y829900D01*
X282531Y829878D01*
X282526Y829864D01*
X282531Y829655D01*
X282547Y829620D01*
X282535Y829583D01*
X282551Y829374D01*
X282569Y829340D01*
X282559Y829302D01*
X282586Y829095D01*
X282606Y829061D01*
X282598Y829024D01*
X282636Y828818D01*
X282657Y828785D01*
X282651Y828747D01*
X282700Y828544D01*
X282722Y828513D01*
X282718Y828475D01*
X282778Y828274D01*
X282802Y828243D01*
X282800Y828205D01*
X282870Y828007D01*
X282896Y827979D01*
Y827941D01*
X282976Y827747D01*
X283003Y827720D01*
X283005Y827681D01*
X283095Y827492D01*
X283124Y827466D01*
X283128Y827428D01*
X283228Y827244D01*
X283258Y827220D01*
X283264Y827182D01*
X283373Y827003D01*
X283404Y826980D01*
X283412Y826943D01*
X283531Y826770D01*
X283563Y826749D01*
X283573Y826712D01*
X283701Y826546D01*
X283734Y826527D01*
X283746Y826490D01*
X283882Y826331D01*
X283917Y826313D01*
X283930Y826277D01*
X284075Y826125D01*
X284088Y826119D01*
X284100Y826100D01*
X284119Y826088D01*
X284125Y826075D01*
X284277Y825930D01*
X284313Y825917D01*
X284331Y825882D01*
X284490Y825746D01*
X284527Y825734D01*
X284546Y825701D01*
X284712Y825573D01*
X284749Y825563D01*
X284770Y825531D01*
X284943Y825412D01*
X284981Y825404D01*
X285003Y825373D01*
X285182Y825264D01*
X285452Y825084D01*
X285570Y824875D01*
X285189Y824084D01*
X284899Y823875D01*
X277990D01*
Y864452D01*
X612907D01*
X613111Y863452D01*
X612481Y863031D01*
X597167Y847718D01*
X596390Y848355D01*
X596456Y848454D01*
X596943Y850900D01*
X596456Y853346D01*
X595070Y855420D01*
X592996Y856806D01*
X590550Y857293D01*
X588104Y856806D01*
X586030Y855420D01*
X585300Y854329D01*
X585184Y854277D01*
X585136Y854154D01*
X585028Y854080D01*
X584922Y853917D01*
X584858Y853844D01*
X584777Y853773D01*
X584668Y853703D01*
X584524Y853631D01*
X584338Y853564D01*
X584106Y853505D01*
X583830Y853459D01*
X583508Y853429D01*
X583103Y853417D01*
X582982Y853363D01*
X571895D01*
X571776Y853417D01*
X571491Y853427D01*
X571265Y853450D01*
X571053Y853489D01*
X570852Y853542D01*
X570660Y853608D01*
X570475Y853690D01*
X570296Y853787D01*
X570120Y853900D01*
X569947Y854032D01*
X569739Y854215D01*
X569584Y854268D01*
X568281Y855139D01*
X566420Y855509D01*
X564559Y855139D01*
X562981Y854085D01*
X561927Y852507D01*
X561557Y850646D01*
X561927Y848785D01*
X562981Y847207D01*
X564559Y846153D01*
X566420Y845783D01*
X568281Y846153D01*
X569859Y847207D01*
X569917Y847294D01*
X569986Y847323D01*
X570174Y847514D01*
X570327Y847646D01*
X570483Y847759D01*
X570643Y847855D01*
X570810Y847935D01*
X570986Y848002D01*
X571173Y848055D01*
X571375Y848094D01*
X571593Y848119D01*
X571878Y848129D01*
X571880Y848130D01*
X571882Y848129D01*
X571999Y848183D01*
X583049D01*
X583171Y848129D01*
X583577Y848118D01*
X583904Y848088D01*
X584187Y848042D01*
X584428Y847983D01*
X584626Y847914D01*
X584784Y847841D01*
X584907Y847765D01*
X585002Y847688D01*
X585077Y847609D01*
X585195Y847447D01*
X585308Y847377D01*
X585362Y847255D01*
X585473Y847212D01*
X586030Y846380D01*
X588104Y844994D01*
X590550Y844507D01*
X592996Y844994D01*
X593095Y845060D01*
X593732Y844283D01*
X591888Y842439D01*
X530763D01*
X529772Y842242D01*
X528932Y841680D01*
X528804Y841552D01*
X524958D01*
X524840Y841606D01*
X524554Y841616D01*
X524333Y841640D01*
X524126Y841679D01*
X523932Y841732D01*
X523748Y841799D01*
X523572Y841880D01*
X523402Y841977D01*
X523236Y842091D01*
X523073Y842223D01*
X522875Y842410D01*
X522829Y842428D01*
X521291Y843455D01*
X519430Y843825D01*
X517569Y843455D01*
X515991Y842401D01*
X514937Y840823D01*
X514567Y838962D01*
X514937Y837101D01*
X515991Y835523D01*
X517569Y834469D01*
X519430Y834099D01*
X521291Y834469D01*
X522829Y835496D01*
X522875Y835514D01*
X523073Y835701D01*
X523236Y835834D01*
X523402Y835947D01*
X523572Y836044D01*
X523748Y836125D01*
X523932Y836192D01*
X524126Y836245D01*
X524333Y836284D01*
X524554Y836308D01*
X524840Y836318D01*
X524958Y836372D01*
X526707D01*
X526955Y836205D01*
X527262Y835781D01*
X527328Y835372D01*
X526965Y835046D01*
X526914Y835036D01*
X526701Y835009D01*
X526426Y834995D01*
X526310Y834941D01*
X524678Y834616D01*
X523101Y833562D01*
X522046Y831984D01*
X521676Y830123D01*
X522046Y828262D01*
X522384Y827757D01*
X521912Y826874D01*
X417322Y826875D01*
X417322Y826875D01*
X416350Y826472D01*
X416350Y826472D01*
X408117Y818239D01*
X390652D01*
X390652Y818239D01*
X389680Y817836D01*
X389680Y817836D01*
X375859Y804015D01*
X366268Y804015D01*
X366268Y804015D01*
X365296Y803612D01*
X361232Y799548D01*
X360829Y798576D01*
X360829Y798576D01*
Y797052D01*
X360829Y797052D01*
X361065Y796482D01*
X361232Y796080D01*
X361232Y796080D01*
X363811Y793501D01*
X364783Y793098D01*
X364783Y793098D01*
X379470D01*
X380442Y793501D01*
X384256Y797315D01*
X408943Y797455D01*
X422172D01*
X422172Y797455D01*
X423144Y797858D01*
X423144Y797858D01*
X430362Y805075D01*
X468138D01*
X469110Y805478D01*
X477598Y813965D01*
X495229D01*
X501939Y807256D01*
X502910Y806853D01*
X502911Y806853D01*
X543455D01*
Y776329D01*
X490982D01*
X490010Y775926D01*
X490010Y775926D01*
X483469Y769385D01*
X389783D01*
X383242Y775926D01*
X382270Y776329D01*
X382270Y776329D01*
X362712D01*
X362712Y776329D01*
X361740Y775926D01*
X361184Y775722D01*
X360229Y776301D01*
Y778365D01*
X360484Y778747D01*
X360718Y779925D01*
X360484Y781104D01*
X359817Y782103D01*
X358817Y782770D01*
X357639Y783005D01*
X356461Y782770D01*
X355462Y782103D01*
X354794Y781104D01*
X354560Y779925D01*
X354794Y778747D01*
X355049Y778365D01*
Y771319D01*
X355247Y770328D01*
X355808Y769488D01*
X371580Y753715D01*
Y748618D01*
X371526Y748500D01*
X371516Y748214D01*
X371492Y747993D01*
X371453Y747786D01*
X371400Y747592D01*
X371333Y747408D01*
X371252Y747232D01*
X371155Y747062D01*
X371041Y746896D01*
X370909Y746733D01*
X370722Y746535D01*
X370704Y746489D01*
X369677Y744951D01*
X369307Y743090D01*
X369677Y741229D01*
X370731Y739651D01*
X372309Y738597D01*
X374170Y738227D01*
X376031Y738597D01*
X377609Y739651D01*
X378663Y741229D01*
X379034Y743090D01*
X378663Y744951D01*
X377636Y746489D01*
X377618Y746535D01*
X377431Y746733D01*
X377299Y746896D01*
X377185Y747062D01*
X377088Y747232D01*
X377007Y747408D01*
X376940Y747592D01*
X376887Y747786D01*
X376848Y747993D01*
X376824Y748214D01*
X376814Y748500D01*
X376760Y748618D01*
Y754788D01*
X376563Y755779D01*
X376001Y756619D01*
X367585Y765035D01*
X367968Y765959D01*
X378907D01*
X390188Y754678D01*
X391160Y754275D01*
X391160Y754275D01*
X480761Y754275D01*
X510838Y724198D01*
X511810Y723795D01*
X511810Y723795D01*
X612211D01*
X612514Y722795D01*
X611430Y722070D01*
X610044Y719996D01*
X609557Y717550D01*
X610044Y715104D01*
X611430Y713030D01*
X613504Y711644D01*
X615950Y711157D01*
X618396Y711644D01*
X620470Y713030D01*
X621160Y714062D01*
X621278Y714112D01*
X622248Y714419D01*
X622403Y714345D01*
X623077Y713952D01*
X623809Y713457D01*
X624583Y712868D01*
X626326Y711344D01*
X627261Y710432D01*
X627318Y710410D01*
X629396Y708815D01*
X631868Y707792D01*
X634520Y707442D01*
X637172Y707792D01*
X639644Y708815D01*
X641766Y710444D01*
X643395Y712566D01*
X644418Y715038D01*
X644768Y717690D01*
X644418Y720342D01*
X643395Y722814D01*
X643330Y722898D01*
X643772Y723795D01*
X651510D01*
X652482Y724198D01*
X652885Y725170D01*
Y747012D01*
X652885Y756662D01*
Y768010D01*
Y775432D01*
X653885Y775826D01*
X654244Y775439D01*
X654547Y775062D01*
X654778Y774734D01*
X654840Y774626D01*
Y773863D01*
X654796Y773757D01*
X654840Y773652D01*
Y773649D01*
X654814Y773538D01*
X654840Y773496D01*
Y758330D01*
X675160D01*
Y778650D01*
X659994D01*
X659952Y778676D01*
X659842Y778650D01*
X659838D01*
X659733Y778694D01*
X659627Y778650D01*
X658864D01*
X658756Y778712D01*
X658443Y778932D01*
X657588Y779659D01*
X657096Y780134D01*
X656968Y780184D01*
X647781Y789371D01*
X646941Y789933D01*
X645950Y790130D01*
X641244D01*
X640923Y791077D01*
X641766Y791724D01*
X643395Y793846D01*
X644418Y796318D01*
X644768Y798970D01*
X644418Y801622D01*
X643395Y804094D01*
X641766Y806216D01*
X639644Y807845D01*
X637172Y808868D01*
X634520Y809218D01*
X631868Y808868D01*
X629396Y807845D01*
X627274Y806216D01*
X625645Y804094D01*
X624622Y801622D01*
X624272Y798970D01*
X624622Y796318D01*
X625645Y793846D01*
X627274Y791724D01*
X628117Y791077D01*
X627796Y790130D01*
X578375D01*
X540584Y827921D01*
X540538Y828043D01*
X540344Y828252D01*
X540204Y828425D01*
X540085Y828599D01*
X539985Y828774D01*
X539902Y828952D01*
X539836Y829134D01*
X539784Y829322D01*
X539747Y829520D01*
X539725Y829729D01*
X539717Y830002D01*
X539697Y830046D01*
X539337Y831860D01*
X538943Y832449D01*
X539477Y833449D01*
X628020D01*
X628359Y832449D01*
X627274Y831616D01*
X625645Y829494D01*
X624622Y827022D01*
X624272Y824370D01*
X624622Y821718D01*
X625645Y819246D01*
X627274Y817124D01*
X628117Y816477D01*
X627796Y815530D01*
X566474D01*
X557413Y824591D01*
X557367Y824713D01*
X557173Y824922D01*
X557033Y825095D01*
X556914Y825269D01*
X556814Y825444D01*
X556732Y825621D01*
X556665Y825803D01*
X556613Y825992D01*
X556576Y826190D01*
X556554Y826398D01*
X556547Y826671D01*
X556527Y826716D01*
X556166Y828530D01*
X555112Y830108D01*
X553534Y831162D01*
X551673Y831532D01*
X549811Y831162D01*
X548234Y830108D01*
X547179Y828530D01*
X546809Y826669D01*
X547179Y824808D01*
X548234Y823230D01*
X549811Y822176D01*
X551625Y821815D01*
X551670Y821795D01*
X551943Y821787D01*
X552152Y821765D01*
X552349Y821728D01*
X552538Y821676D01*
X552720Y821609D01*
X552897Y821527D01*
X553072Y821427D01*
X553246Y821308D01*
X553420Y821169D01*
X553629Y820974D01*
X553750Y820928D01*
X563570Y811109D01*
X564410Y810547D01*
X565401Y810350D01*
X649957D01*
X653027Y807281D01*
X653061Y807176D01*
X653389Y806789D01*
X653641Y806385D01*
X653884Y805865D01*
X654107Y805229D01*
X654303Y804477D01*
X654465Y803613D01*
X654590Y802652D01*
X654728Y800352D01*
X654736Y799051D01*
X654757Y799002D01*
X654752Y798970D01*
X655101Y796318D01*
X656125Y793846D01*
X657754Y791724D01*
X659876Y790095D01*
X662348Y789072D01*
X665000Y788722D01*
X667652Y789072D01*
X670124Y790095D01*
X672246Y791724D01*
X673875Y793846D01*
X674899Y796318D01*
X675248Y798970D01*
X674899Y801622D01*
X673875Y804094D01*
X672246Y806216D01*
X670124Y807845D01*
X667652Y808868D01*
X665000Y809218D01*
X664968Y809213D01*
X664919Y809234D01*
X663618Y809241D01*
X661318Y809380D01*
X660357Y809505D01*
X659492Y809668D01*
X658741Y809863D01*
X658105Y810086D01*
X657585Y810329D01*
X657181Y810581D01*
X656794Y810910D01*
X656689Y810943D01*
X652861Y814771D01*
X652021Y815333D01*
X651030Y815530D01*
X641244D01*
X640923Y816477D01*
X641766Y817124D01*
X643395Y819246D01*
X644418Y821718D01*
X644768Y824370D01*
X644418Y827022D01*
X643395Y829494D01*
X641766Y831616D01*
X640681Y832449D01*
X641020Y833449D01*
X658500D01*
X658839Y832449D01*
X657754Y831616D01*
X656125Y829494D01*
X655101Y827022D01*
X654752Y824370D01*
X655101Y821718D01*
X656125Y819246D01*
X657754Y817124D01*
X659876Y815495D01*
X662348Y814472D01*
X665000Y814122D01*
X667652Y814472D01*
X670124Y815495D01*
X672246Y817124D01*
X673875Y819246D01*
X674899Y821718D01*
X675248Y824370D01*
X675109Y825424D01*
X676006Y825866D01*
X706003Y795869D01*
X706843Y795307D01*
X707834Y795110D01*
X788851D01*
X788951Y795060D01*
X789429Y795022D01*
X789862Y794926D01*
X790359Y794751D01*
X790918Y794489D01*
X791531Y794136D01*
X792195Y793690D01*
X792893Y793158D01*
X794463Y791775D01*
X795303Y790947D01*
X795360Y790923D01*
X795370Y790910D01*
X797359Y789384D01*
X799675Y788425D01*
X802160Y788098D01*
X804645Y788425D01*
X806961Y789384D01*
X808950Y790910D01*
X810476Y792899D01*
X811435Y795215D01*
X811762Y797700D01*
X811435Y800185D01*
X810476Y802501D01*
X808950Y804490D01*
X806961Y806016D01*
X804645Y806975D01*
X802160Y807302D01*
X799675Y806975D01*
X797359Y806016D01*
X795370Y804490D01*
X795360Y804477D01*
X795303Y804453D01*
X794463Y803625D01*
X792893Y802242D01*
X792195Y801710D01*
X791531Y801264D01*
X790917Y800911D01*
X790359Y800649D01*
X789862Y800474D01*
X789429Y800378D01*
X788951Y800340D01*
X788851Y800290D01*
X708907D01*
X671327Y837870D01*
X670487Y838431D01*
X669496Y838629D01*
X669541Y839610D01*
X675160D01*
Y856571D01*
X676084Y856954D01*
X711769Y821269D01*
X712609Y820707D01*
X713600Y820510D01*
X788851D01*
X788951Y820460D01*
X789429Y820422D01*
X789862Y820326D01*
X790359Y820151D01*
X790918Y819889D01*
X791531Y819536D01*
X792195Y819090D01*
X792893Y818558D01*
X794463Y817175D01*
X795303Y816347D01*
X795360Y816323D01*
X795370Y816310D01*
X797359Y814784D01*
X799675Y813825D01*
X802160Y813498D01*
X804645Y813825D01*
X806961Y814784D01*
X808950Y816310D01*
X810476Y818299D01*
X811435Y820615D01*
X811762Y823100D01*
X811435Y825585D01*
X810476Y827901D01*
X808950Y829890D01*
X806961Y831416D01*
X804645Y832375D01*
X802160Y832702D01*
X799675Y832375D01*
X797359Y831416D01*
X795370Y829890D01*
X795360Y829877D01*
X795303Y829853D01*
X794463Y829025D01*
X792893Y827642D01*
X792195Y827110D01*
X791531Y826664D01*
X790917Y826311D01*
X790359Y826049D01*
X789862Y825874D01*
X789429Y825778D01*
X788951Y825741D01*
X788851Y825690D01*
X714673D01*
X677331Y863031D01*
X676701Y863452D01*
X676905Y864452D01*
X834114D01*
Y703770D01*
D02*
G37*
G36*
X624360Y839610D02*
X624360D01*
X624315Y838629D01*
X596710D01*
X596327Y839553D01*
X615385Y858610D01*
X624360D01*
Y839610D01*
D02*
G37*
G36*
X522166Y841188D02*
X522414Y840987D01*
X522673Y840810D01*
X522943Y840657D01*
X523223Y840527D01*
X523515Y840421D01*
X523818Y840338D01*
X524131Y840279D01*
X524456Y840244D01*
X524791Y840232D01*
Y837692D01*
X524456Y837680D01*
X524131Y837645D01*
X523818Y837586D01*
X523515Y837503D01*
X523223Y837397D01*
X522943Y837267D01*
X522673Y837114D01*
X522414Y836937D01*
X522166Y836736D01*
X521930Y836512D01*
Y841412D01*
X522166Y841188D01*
D02*
G37*
G36*
X531193Y833094D02*
X530964Y832848D01*
X530760Y832593D01*
X530581Y832329D01*
X530427Y832057D01*
X530299Y831776D01*
X530196Y831486D01*
X530119Y831187D01*
X530066Y830880D01*
X530039Y830563D01*
X530038Y830238D01*
X526494Y833623D01*
X526821Y833639D01*
X527138Y833678D01*
X527447Y833742D01*
X527747Y833829D01*
X528037Y833939D01*
X528318Y834073D01*
X528590Y834231D01*
X528854Y834413D01*
X529108Y834617D01*
X529352Y834846D01*
X531193Y833094D01*
D02*
G37*
G36*
X294109Y833895D02*
X294318Y833878D01*
X294526Y833851D01*
X294732Y833813D01*
X294935Y833764D01*
X295136Y833704D01*
X295333Y833634D01*
X295527Y833554D01*
X295716Y833464D01*
X295900Y833364D01*
X296079Y833255D01*
X296251Y833136D01*
X296417Y833008D01*
X296576Y832872D01*
X296728Y832728D01*
X296873Y832577D01*
X297009Y832417D01*
X297136Y832251D01*
X297255Y832078D01*
X297364Y831900D01*
X297464Y831716D01*
X297554Y831527D01*
X297634Y831333D01*
X297704Y831136D01*
X297764Y830935D01*
X297813Y830732D01*
X297851Y830526D01*
X297878Y830318D01*
X297894Y830109D01*
X297900Y829900D01*
X297895Y829691D01*
X297878Y829482D01*
X297851Y829274D01*
X297813Y829068D01*
X297764Y828865D01*
X297704Y828664D01*
X297634Y828466D01*
X297554Y828273D01*
X297464Y828084D01*
X297364Y827900D01*
X297255Y827721D01*
X297136Y827549D01*
X297009Y827383D01*
X296873Y827223D01*
X296728Y827072D01*
X296576Y826927D01*
X296417Y826791D01*
X296251Y826664D01*
X296079Y826545D01*
X295900Y826436D01*
X295716Y826336D01*
X295527Y826246D01*
X295333Y826166D01*
X295136Y826096D01*
X294935Y826036D01*
X294732Y825987D01*
X294526Y825949D01*
X294318Y825922D01*
X294109Y825905D01*
X293900Y825900D01*
X287900D01*
X287691Y825905D01*
X287482Y825922D01*
X287274Y825949D01*
X287068Y825987D01*
X286865Y826036D01*
X286664Y826096D01*
X286467Y826166D01*
X286273Y826246D01*
X286084Y826336D01*
X285900Y826436D01*
X285721Y826545D01*
X285549Y826664D01*
X285383Y826791D01*
X285224Y826927D01*
X285072Y827072D01*
X284927Y827223D01*
X284791Y827383D01*
X284664Y827549D01*
X284545Y827721D01*
X284436Y827900D01*
X284336Y828084D01*
X284246Y828273D01*
X284166Y828466D01*
X284096Y828664D01*
X284036Y828865D01*
X283987Y829068D01*
X283949Y829274D01*
X283922Y829482D01*
X283906Y829691D01*
X283900Y829900D01*
X283906Y830109D01*
X283922Y830318D01*
X283949Y830526D01*
X283987Y830732D01*
X284036Y830935D01*
X284096Y831136D01*
X284166Y831333D01*
X284246Y831527D01*
X284336Y831716D01*
X284436Y831900D01*
X284545Y832078D01*
X284664Y832251D01*
X284792Y832417D01*
X284927Y832577D01*
X285072Y832728D01*
X285224Y832872D01*
X285383Y833008D01*
X285549Y833136D01*
X285721Y833255D01*
X285900Y833364D01*
X286084Y833464D01*
X286273Y833554D01*
X286467Y833634D01*
X286664Y833704D01*
X286865Y833764D01*
X287068Y833813D01*
X287274Y833851D01*
X287482Y833878D01*
X287691Y833895D01*
X287900Y833900D01*
X293900Y833900D01*
X294109Y833895D01*
D02*
G37*
G36*
X538352Y829638D02*
X538385Y829321D01*
X538443Y829013D01*
X538526Y828714D01*
X538632Y828423D01*
X538763Y828142D01*
X538919Y827869D01*
X539099Y827606D01*
X539304Y827351D01*
X539532Y827106D01*
X537736Y825310D01*
X537491Y825539D01*
X537236Y825743D01*
X536973Y825923D01*
X536700Y826079D01*
X536419Y826210D01*
X536129Y826317D01*
X535830Y826399D01*
X535521Y826457D01*
X535204Y826490D01*
X534878Y826499D01*
X538343Y829964D01*
X538352Y829638D01*
D02*
G37*
G36*
X353609Y830294D02*
X353818Y830278D01*
X354026Y830251D01*
X354232Y830212D01*
X354435Y830164D01*
X354636Y830104D01*
X354833Y830034D01*
X355027Y829954D01*
X355216Y829864D01*
X355400Y829764D01*
X355579Y829655D01*
X355751Y829536D01*
X355917Y829408D01*
X356077Y829273D01*
X356228Y829128D01*
X356373Y828977D01*
X356509Y828817D01*
X356636Y828651D01*
X356755Y828478D01*
X356864Y828300D01*
X356964Y828116D01*
X357054Y827927D01*
X357134Y827733D01*
X357204Y827536D01*
X357264Y827335D01*
X357313Y827132D01*
X357351Y826926D01*
X357378Y826718D01*
X357394Y826509D01*
X357400Y826300D01*
X357394Y826091D01*
X357378Y825882D01*
X357351Y825674D01*
X357313Y825468D01*
X357264Y825265D01*
X357204Y825064D01*
X357134Y824866D01*
X357054Y824673D01*
X356964Y824484D01*
X356864Y824300D01*
X356755Y824121D01*
X356636Y823949D01*
X356509Y823783D01*
X356373Y823623D01*
X356228Y823472D01*
X356077Y823327D01*
X355917Y823191D01*
X355751Y823064D01*
X355578Y822945D01*
X355400Y822836D01*
X355216Y822736D01*
X355027Y822646D01*
X354833Y822566D01*
X354636Y822496D01*
X354435Y822436D01*
X354232Y822387D01*
X354026Y822349D01*
X353818Y822322D01*
X353609Y822305D01*
X353400Y822300D01*
X347400D01*
X347191Y822305D01*
X346982Y822322D01*
X346774Y822349D01*
X346568Y822387D01*
X346365Y822436D01*
X346164Y822496D01*
X345966Y822566D01*
X345773Y822646D01*
X345584Y822736D01*
X345400Y822836D01*
X345221Y822945D01*
X345049Y823064D01*
X344883Y823191D01*
X344724Y823327D01*
X344572Y823472D01*
X344427Y823623D01*
X344291Y823783D01*
X344164Y823949D01*
X344045Y824121D01*
X343936Y824300D01*
X343836Y824484D01*
X343746Y824673D01*
X343666Y824866D01*
X343596Y825064D01*
X343536Y825265D01*
X343487Y825468D01*
X343449Y825674D01*
X343422Y825882D01*
X343405Y826091D01*
X343400Y826300D01*
X343405Y826509D01*
X343422Y826718D01*
X343449Y826926D01*
X343488Y827132D01*
X343536Y827335D01*
X343596Y827536D01*
X343666Y827733D01*
X343746Y827927D01*
X343836Y828116D01*
X343936Y828300D01*
X344045Y828478D01*
X344164Y828651D01*
X344291Y828817D01*
X344427Y828977D01*
X344572Y829128D01*
X344724Y829273D01*
X344883Y829408D01*
X345049Y829536D01*
X345221Y829655D01*
X345400Y829764D01*
X345584Y829864D01*
X345773Y829954D01*
X345966Y830034D01*
X346164Y830104D01*
X346365Y830164D01*
X346568Y830212D01*
X346774Y830251D01*
X346982Y830278D01*
X347191Y830294D01*
X347400Y830300D01*
X353400D01*
X353609Y830294D01*
D02*
G37*
G36*
X555181Y826308D02*
X555215Y825991D01*
X555272Y825683D01*
X555355Y825383D01*
X555462Y825093D01*
X555593Y824812D01*
X555748Y824539D01*
X555928Y824276D01*
X556133Y824021D01*
X556362Y823776D01*
X554566Y821980D01*
X554320Y822208D01*
X554066Y822413D01*
X553802Y822593D01*
X553530Y822749D01*
X553248Y822880D01*
X552958Y822987D01*
X552659Y823069D01*
X552351Y823127D01*
X552034Y823160D01*
X551708Y823169D01*
X555172Y826634D01*
X555181Y826308D01*
D02*
G37*
G36*
X796268Y817325D02*
X795401Y818181D01*
X793765Y819623D01*
X792995Y820208D01*
X792258Y820704D01*
X791553Y821109D01*
X790881Y821425D01*
X790241Y821650D01*
X789633Y821785D01*
X789058Y821830D01*
Y824370D01*
X789633Y824415D01*
X790241Y824550D01*
X790881Y824775D01*
X791553Y825091D01*
X792258Y825496D01*
X792995Y825992D01*
X793765Y826578D01*
X795401Y828019D01*
X796268Y828875D01*
Y817325D01*
D02*
G37*
G36*
X656367Y809469D02*
X656928Y809119D01*
X657585Y808811D01*
X658340Y808547D01*
X659192Y808325D01*
X660141Y808147D01*
X661188Y808011D01*
X663573Y807867D01*
X664911Y807860D01*
X656111Y799059D01*
X656103Y800397D01*
X655959Y802782D01*
X655824Y803829D01*
X655645Y804778D01*
X655423Y805630D01*
X655159Y806385D01*
X654851Y807042D01*
X654501Y807602D01*
X654109Y808065D01*
X655905Y809862D01*
X656367Y809469D01*
D02*
G37*
G36*
X796268Y791925D02*
X795401Y792781D01*
X793765Y794223D01*
X792995Y794808D01*
X792258Y795304D01*
X791553Y795709D01*
X790881Y796025D01*
X790241Y796250D01*
X789633Y796385D01*
X789058Y796430D01*
Y798970D01*
X789633Y799015D01*
X790241Y799150D01*
X790881Y799376D01*
X791553Y799691D01*
X792258Y800096D01*
X792995Y800592D01*
X793765Y801178D01*
X795401Y802619D01*
X796268Y803475D01*
Y791925D01*
D02*
G37*
G36*
X656664Y778640D02*
X657602Y777843D01*
X658016Y777553D01*
X658393Y777334D01*
X658734Y777188D01*
X659038Y777113D01*
X659306Y777110D01*
X659538Y777178D01*
X659733Y777319D01*
X656171Y773757D01*
X656312Y773952D01*
X656380Y774184D01*
X656377Y774452D01*
X656302Y774756D01*
X656156Y775097D01*
X655937Y775474D01*
X655647Y775888D01*
X655285Y776339D01*
X654344Y777350D01*
X656141Y779146D01*
X656664Y778640D01*
D02*
G37*
G36*
X525236Y825500D02*
X525591Y825353D01*
X527488D01*
X527843Y825500D01*
X533240D01*
X533895Y825229D01*
X534608D01*
X534841Y825125D01*
X535114Y825117D01*
X535322Y825096D01*
X535520Y825058D01*
X535709Y825007D01*
X535890Y824940D01*
X536068Y824857D01*
X536243Y824757D01*
X536417Y824638D01*
X536590Y824499D01*
X536799Y824304D01*
X536921Y824258D01*
X575471Y785709D01*
X576311Y785147D01*
X577302Y784950D01*
X644877D01*
X651510Y778318D01*
Y768559D01*
Y768010D01*
D01*
Y759387D01*
Y759364D01*
D01*
Y757568D01*
Y756662D01*
D01*
X651510Y749558D01*
Y749328D01*
D01*
Y747795D01*
Y747012D01*
D01*
Y725170D01*
X641408D01*
X640758Y725820D01*
X638442Y727158D01*
X635858Y727850D01*
X633182D01*
X630598Y727158D01*
X628282Y725820D01*
X627632Y725170D01*
X511810D01*
X481330Y755650D01*
X391160Y755650D01*
X379476Y767334D01*
X366014D01*
X361442Y771906D01*
Y773684D01*
X362712Y774954D01*
X382270D01*
X389214Y768010D01*
X484038D01*
X490982Y774954D01*
X544830D01*
Y808228D01*
X502910D01*
X495798Y815340D01*
X477028D01*
X468138Y806450D01*
X429792D01*
X422172Y798830D01*
X408940D01*
X383683Y798687D01*
X379470Y794473D01*
X364783D01*
X362204Y797052D01*
Y798576D01*
X366268Y802640D01*
X376428Y802640D01*
X390652Y816864D01*
X408686D01*
X417322Y825500D01*
X525236Y825500D01*
D02*
G37*
G36*
X375452Y748116D02*
X375487Y747791D01*
X375546Y747478D01*
X375629Y747175D01*
X375735Y746883D01*
X375865Y746603D01*
X376018Y746333D01*
X376195Y746074D01*
X376396Y745826D01*
X376620Y745590D01*
X371720D01*
X371944Y745826D01*
X372145Y746074D01*
X372322Y746333D01*
X372475Y746603D01*
X372605Y746883D01*
X372711Y747175D01*
X372794Y747478D01*
X372853Y747791D01*
X372888Y748116D01*
X372900Y748452D01*
X375440D01*
X375452Y748116D01*
D02*
G37*
G36*
X353609Y747694D02*
X353818Y747678D01*
X354026Y747651D01*
X354232Y747613D01*
X354435Y747564D01*
X354636Y747504D01*
X354833Y747434D01*
X355027Y747354D01*
X355216Y747264D01*
X355400Y747164D01*
X355578Y747055D01*
X355751Y746936D01*
X355917Y746808D01*
X356077Y746673D01*
X356228Y746528D01*
X356373Y746376D01*
X356509Y746217D01*
X356636Y746051D01*
X356755Y745879D01*
X356864Y745700D01*
X356964Y745516D01*
X357054Y745327D01*
X357134Y745133D01*
X357204Y744936D01*
X357264Y744735D01*
X357313Y744532D01*
X357351Y744326D01*
X357378Y744118D01*
X357394Y743909D01*
X357400Y743700D01*
X357394Y743491D01*
X357378Y743282D01*
X357351Y743074D01*
X357313Y742868D01*
X357264Y742665D01*
X357204Y742464D01*
X357134Y742266D01*
X357054Y742073D01*
X356964Y741884D01*
X356864Y741700D01*
X356755Y741521D01*
X356636Y741349D01*
X356509Y741183D01*
X356373Y741023D01*
X356228Y740872D01*
X356077Y740727D01*
X355917Y740591D01*
X355751Y740464D01*
X355579Y740345D01*
X355400Y740236D01*
X355216Y740136D01*
X355027Y740046D01*
X354833Y739966D01*
X354636Y739896D01*
X354435Y739836D01*
X354232Y739787D01*
X354026Y739749D01*
X353818Y739722D01*
X353609Y739705D01*
X353400Y739700D01*
X347400D01*
X347191Y739705D01*
X346982Y739722D01*
X346774Y739749D01*
X346568Y739787D01*
X346365Y739836D01*
X346164Y739896D01*
X345966Y739966D01*
X345773Y740046D01*
X345584Y740136D01*
X345400Y740236D01*
X345221Y740345D01*
X345049Y740464D01*
X344883Y740591D01*
X344724Y740727D01*
X344572Y740872D01*
X344427Y741023D01*
X344291Y741183D01*
X344164Y741349D01*
X344045Y741521D01*
X343936Y741700D01*
X343836Y741884D01*
X343746Y742073D01*
X343666Y742266D01*
X343596Y742464D01*
X343536Y742665D01*
X343488Y742868D01*
X343449Y743074D01*
X343422Y743282D01*
X343405Y743491D01*
X343400Y743700D01*
X343405Y743909D01*
X343422Y744118D01*
X343449Y744326D01*
X343487Y744532D01*
X343536Y744735D01*
X343596Y744936D01*
X343666Y745133D01*
X343746Y745327D01*
X343836Y745516D01*
X343936Y745700D01*
X344045Y745879D01*
X344164Y746051D01*
X344291Y746217D01*
X344427Y746376D01*
X344572Y746528D01*
X344724Y746673D01*
X344883Y746808D01*
X345049Y746936D01*
X345221Y747055D01*
X345400Y747164D01*
X345584Y747264D01*
X345773Y747354D01*
X345966Y747434D01*
X346164Y747504D01*
X346365Y747564D01*
X346568Y747613D01*
X346774Y747651D01*
X346982Y747678D01*
X347191Y747694D01*
X347400Y747700D01*
X353400D01*
X353609Y747694D01*
D02*
G37*
G36*
X294109Y744094D02*
X294318Y744078D01*
X294526Y744051D01*
X294732Y744013D01*
X294935Y743964D01*
X295136Y743904D01*
X295333Y743834D01*
X295527Y743754D01*
X295716Y743664D01*
X295900Y743564D01*
X296079Y743455D01*
X296251Y743336D01*
X296417Y743208D01*
X296576Y743073D01*
X296728Y742928D01*
X296873Y742776D01*
X297009Y742617D01*
X297136Y742451D01*
X297255Y742279D01*
X297364Y742100D01*
X297464Y741916D01*
X297554Y741727D01*
X297634Y741533D01*
X297704Y741336D01*
X297764Y741135D01*
X297813Y740932D01*
X297851Y740726D01*
X297878Y740518D01*
X297895Y740309D01*
X297900Y740100D01*
X297894Y739891D01*
X297878Y739682D01*
X297851Y739474D01*
X297813Y739268D01*
X297764Y739065D01*
X297704Y738864D01*
X297634Y738667D01*
X297554Y738473D01*
X297464Y738284D01*
X297364Y738100D01*
X297255Y737921D01*
X297136Y737749D01*
X297009Y737583D01*
X296873Y737423D01*
X296728Y737271D01*
X296576Y737127D01*
X296417Y736991D01*
X296251Y736864D01*
X296079Y736745D01*
X295900Y736636D01*
X295716Y736536D01*
X295527Y736446D01*
X295333Y736366D01*
X295136Y736296D01*
X294935Y736236D01*
X294732Y736187D01*
X294526Y736149D01*
X294318Y736122D01*
X294109Y736105D01*
X293900Y736100D01*
X287900D01*
X287691Y736105D01*
X287482Y736122D01*
X287274Y736149D01*
X287068Y736187D01*
X286865Y736236D01*
X286664Y736296D01*
X286467Y736366D01*
X286273Y736446D01*
X286084Y736536D01*
X285900Y736636D01*
X285721Y736745D01*
X285549Y736864D01*
X285383Y736991D01*
X285224Y737127D01*
X285072Y737271D01*
X284927Y737423D01*
X284792Y737583D01*
X284664Y737749D01*
X284545Y737921D01*
X284436Y738100D01*
X284336Y738284D01*
X284246Y738473D01*
X284166Y738667D01*
X284096Y738864D01*
X284036Y739065D01*
X283987Y739268D01*
X283949Y739474D01*
X283922Y739682D01*
X283906Y739891D01*
X283900Y740100D01*
X283906Y740309D01*
X283922Y740518D01*
X283949Y740726D01*
X283987Y740932D01*
X284036Y741135D01*
X284096Y741336D01*
X284166Y741533D01*
X284246Y741727D01*
X284336Y741916D01*
X284436Y742100D01*
X284545Y742279D01*
X284664Y742451D01*
X284791Y742617D01*
X284927Y742776D01*
X285072Y742928D01*
X285224Y743073D01*
X285383Y743208D01*
X285549Y743336D01*
X285721Y743455D01*
X285900Y743564D01*
X286084Y743664D01*
X286273Y743754D01*
X286467Y743834D01*
X286664Y743904D01*
X286865Y743964D01*
X287068Y744013D01*
X287274Y744051D01*
X287482Y744078D01*
X287691Y744094D01*
X287900Y744100D01*
X293900D01*
X294109Y744094D01*
D02*
G37*
G36*
X628220Y711417D02*
X627258Y712355D01*
X625453Y713933D01*
X624611Y714574D01*
X623809Y715117D01*
X623047Y715561D01*
X622324Y715906D01*
X621702Y716131D01*
X621420Y716030D01*
X621131Y715889D01*
X620873Y715723D01*
X620648Y715531D01*
X620454Y715314D01*
X620292Y715071D01*
X620221Y720150D01*
X620390Y719911D01*
X620590Y719697D01*
X620821Y719508D01*
X621083Y719344D01*
X621376Y719205D01*
X621668Y719103D01*
X622312Y719338D01*
X623031Y719686D01*
X623787Y720133D01*
X624580Y720680D01*
X625410Y721327D01*
X627181Y722918D01*
X628122Y723863D01*
X628220Y711417D01*
D02*
G37*
%LPC*%
G36*
X802160Y858871D02*
X799476Y858517D01*
X796975Y857481D01*
X795640Y856457D01*
X797243Y854853D01*
X795807Y853417D01*
X794203Y855020D01*
X793179Y853685D01*
X792143Y851184D01*
X791789Y848500D01*
X792143Y845816D01*
X793179Y843315D01*
X794203Y841980D01*
X795807Y843584D01*
X797243Y842147D01*
X795640Y840543D01*
X796975Y839519D01*
X799476Y838483D01*
X802160Y838129D01*
X804844Y838483D01*
X807345Y839519D01*
X808680Y840543D01*
X807076Y842147D01*
X808513Y843584D01*
X810117Y841980D01*
X811141Y843315D01*
X812177Y845816D01*
X812531Y848500D01*
X812177Y851184D01*
X811141Y853685D01*
X810117Y855020D01*
X808513Y853417D01*
X807076Y854853D01*
X808680Y856457D01*
X807345Y857481D01*
X804844Y858517D01*
X802160Y858871D01*
D02*
G37*
G36*
X715800Y857327D02*
X712858Y856940D01*
X710116Y855804D01*
X707762Y853998D01*
X705956Y851644D01*
X704820Y848902D01*
X704433Y845960D01*
X704820Y843018D01*
X705956Y840276D01*
X707762Y837922D01*
X710116Y836116D01*
X712858Y834980D01*
X715800Y834593D01*
X718742Y834980D01*
X721484Y836116D01*
X723838Y837922D01*
X725644Y840276D01*
X726780Y843018D01*
X727167Y845960D01*
X726780Y848902D01*
X725644Y851644D01*
X723838Y853998D01*
X721484Y855804D01*
X718742Y856940D01*
X715800Y857327D01*
D02*
G37*
G36*
X357716Y793054D02*
X356538Y792820D01*
X355539Y792152D01*
X354871Y791153D01*
X354637Y789975D01*
X354871Y788797D01*
X355539Y787798D01*
X356113Y787414D01*
X356162Y787356D01*
X356434Y786950D01*
X356929Y786454D01*
X357355Y785954D01*
X357405Y785928D01*
X357426Y785876D01*
X357566Y785818D01*
X360874Y782510D01*
X360926Y782377D01*
X361373Y781912D01*
X361452Y781821D01*
X361560Y781280D01*
X362227Y780281D01*
X363226Y779614D01*
X364404Y779379D01*
X365583Y779614D01*
X366582Y780281D01*
X367249Y781280D01*
X367483Y782459D01*
X367249Y783637D01*
X366582Y784636D01*
X365583Y785303D01*
X365071Y785405D01*
X364615Y785809D01*
X364501Y785922D01*
X364364Y785979D01*
X361068Y789274D01*
X361016Y789407D01*
X360779Y789653D01*
X360740Y789698D01*
X360795Y789975D01*
X360561Y791153D01*
X359893Y792152D01*
X358894Y792820D01*
X357716Y793054D01*
D02*
G37*
G36*
X802160Y781902D02*
X799675Y781575D01*
X797359Y780616D01*
X795370Y779090D01*
X793844Y777101D01*
X792885Y774785D01*
X792558Y772300D01*
X792885Y769815D01*
X793844Y767499D01*
X795370Y765510D01*
X797359Y763984D01*
X799675Y763025D01*
X802160Y762698D01*
X804645Y763025D01*
X806961Y763984D01*
X808950Y765510D01*
X810476Y767499D01*
X811435Y769815D01*
X811762Y772300D01*
X811435Y774785D01*
X810476Y777101D01*
X808950Y779090D01*
X806961Y780616D01*
X804645Y781575D01*
X802160Y781902D01*
D02*
G37*
G36*
Y756502D02*
X799675Y756175D01*
X797359Y755216D01*
X795370Y753690D01*
X793844Y751701D01*
X792885Y749385D01*
X792558Y746900D01*
X792885Y744415D01*
X793844Y742099D01*
X795370Y740110D01*
X797359Y738584D01*
X799675Y737625D01*
X802160Y737298D01*
X804645Y737625D01*
X806961Y738584D01*
X808950Y740110D01*
X810476Y742099D01*
X811435Y744415D01*
X811762Y746900D01*
X811435Y749385D01*
X810476Y751701D01*
X808950Y753690D01*
X806961Y755216D01*
X804645Y756175D01*
X802160Y756502D01*
D02*
G37*
G36*
X665000Y753338D02*
X662348Y752989D01*
X659876Y751965D01*
X657754Y750336D01*
X656125Y748214D01*
X655101Y745742D01*
X654752Y743090D01*
X655101Y740438D01*
X656125Y737966D01*
X657754Y735844D01*
X659876Y734215D01*
X662348Y733192D01*
X665000Y732842D01*
X667652Y733192D01*
X670124Y734215D01*
X672246Y735844D01*
X673875Y737966D01*
X674899Y740438D01*
X675248Y743090D01*
X674899Y745742D01*
X673875Y748214D01*
X672246Y750336D01*
X670124Y751965D01*
X667652Y752989D01*
X665000Y753338D01*
D02*
G37*
G36*
X410210Y732573D02*
X408349Y732203D01*
X406771Y731149D01*
X405717Y729571D01*
X405347Y727710D01*
X405432Y727281D01*
X405375Y727096D01*
X405399Y726843D01*
X405400Y726663D01*
X405384Y726495D01*
X405354Y726336D01*
X405307Y726181D01*
X405243Y726027D01*
X405160Y725870D01*
X405055Y725709D01*
X404924Y725543D01*
X404730Y725334D01*
X404705Y725266D01*
X404642Y725229D01*
X404621Y725149D01*
X401860Y722387D01*
X401735Y722339D01*
X401439Y722058D01*
X401183Y721843D01*
X400944Y721668D01*
X400723Y721530D01*
X400524Y721429D01*
X400347Y721359D01*
X400191Y721316D01*
X400054Y721295D01*
X399930Y721292D01*
X399725Y721312D01*
X399595Y721273D01*
X399466Y721313D01*
X399401Y721279D01*
X398780Y721403D01*
X396334Y720916D01*
X394260Y719530D01*
X392874Y717456D01*
X392387Y715010D01*
X392874Y712564D01*
X394260Y710490D01*
X396334Y709104D01*
X398780Y708617D01*
X401226Y709104D01*
X403300Y710490D01*
X404686Y712564D01*
X405173Y715010D01*
X404832Y716725D01*
X404859Y716813D01*
X404799Y716927D01*
X404815Y717055D01*
X404765Y717234D01*
X404756Y717313D01*
X404758Y717401D01*
X404777Y717509D01*
X404820Y717645D01*
X404895Y717812D01*
X405008Y718008D01*
X405165Y718231D01*
X405368Y718476D01*
X405644Y718770D01*
X405661Y718814D01*
X405702Y718836D01*
X405733Y718936D01*
X408603Y721805D01*
X408726Y721852D01*
X408935Y722048D01*
X409117Y722199D01*
X409303Y722332D01*
X409493Y722450D01*
X409688Y722554D01*
X409890Y722644D01*
X410100Y722720D01*
X410318Y722783D01*
X410547Y722833D01*
X410830Y722875D01*
X411063Y723016D01*
X412071Y723217D01*
X413649Y724271D01*
X414703Y725849D01*
X415073Y727710D01*
X414703Y729571D01*
X413649Y731149D01*
X412071Y732203D01*
X410210Y732573D01*
D02*
G37*
G36*
X481330Y723943D02*
X478884Y723456D01*
X476810Y722070D01*
X475424Y719996D01*
X474937Y717550D01*
X475424Y715104D01*
X476810Y713030D01*
X478884Y711644D01*
X481330Y711157D01*
X483776Y711644D01*
X485850Y713030D01*
X486366Y713801D01*
X486472Y713840D01*
X486528Y713962D01*
X486642Y714031D01*
X486762Y714193D01*
X486841Y714273D01*
X486939Y714351D01*
X487065Y714428D01*
X487226Y714502D01*
X487427Y714571D01*
X487670Y714630D01*
X487956Y714676D01*
X488284Y714705D01*
X488690Y714716D01*
X488812Y714771D01*
X488929D01*
X489037Y714718D01*
X489053Y714723D01*
X489067Y714717D01*
X489352Y714706D01*
X489568Y714682D01*
X489767Y714642D01*
X489951Y714589D01*
X490123Y714523D01*
X490285Y714443D01*
X490440Y714348D01*
X490591Y714235D01*
X490739Y714104D01*
X490923Y713912D01*
X491015Y713871D01*
X491107Y713732D01*
X492685Y712677D01*
X494547Y712307D01*
X496408Y712677D01*
X497985Y713732D01*
X499040Y715310D01*
X499410Y717171D01*
X499040Y719032D01*
X497985Y720610D01*
X496408Y721664D01*
X494547Y722034D01*
X492685Y721664D01*
X491483Y720860D01*
X491291Y720798D01*
X491079Y720617D01*
X490901Y720486D01*
X490720Y720373D01*
X490536Y720276D01*
X490347Y720195D01*
X490151Y720128D01*
X489947Y720076D01*
X489732Y720037D01*
X489505Y720014D01*
X489219Y720004D01*
X489100Y719950D01*
X488923D01*
X488806Y720004D01*
X488799Y720001D01*
X488792Y720004D01*
X488388Y720016D01*
X488066Y720046D01*
X487791Y720092D01*
X487562Y720152D01*
X487379Y720219D01*
X487238Y720289D01*
X487133Y720359D01*
X487055Y720427D01*
X486994Y720498D01*
X486891Y720661D01*
X486784Y720736D01*
X486738Y720859D01*
X486625Y720911D01*
X485850Y722070D01*
X483776Y723456D01*
X481330Y723943D01*
D02*
G37*
G36*
X811680Y731020D02*
X792640D01*
Y711980D01*
X811680D01*
Y731020D01*
D02*
G37*
G36*
X342500Y731367D02*
X339558Y730980D01*
X336816Y729844D01*
X334462Y728038D01*
X332656Y725684D01*
X331520Y722942D01*
X331133Y720000D01*
X331520Y717058D01*
X332656Y714316D01*
X334462Y711962D01*
X336816Y710156D01*
X339558Y709020D01*
X342500Y708633D01*
X345442Y709020D01*
X348184Y710156D01*
X350538Y711962D01*
X352344Y714316D01*
X353480Y717058D01*
X353867Y720000D01*
X353480Y722942D01*
X352344Y725684D01*
X350538Y728038D01*
X348184Y729844D01*
X345442Y730980D01*
X342500Y731367D01*
D02*
G37*
G36*
X665000Y727938D02*
X662348Y727589D01*
X659876Y726565D01*
X657754Y724936D01*
X656125Y722814D01*
X655101Y720342D01*
X654752Y717690D01*
X655101Y715038D01*
X656125Y712566D01*
X657754Y710444D01*
X659876Y708815D01*
X662348Y707792D01*
X665000Y707442D01*
X667652Y707792D01*
X670124Y708815D01*
X672246Y710444D01*
X673875Y712566D01*
X674899Y715038D01*
X675248Y717690D01*
X674899Y720342D01*
X673875Y722814D01*
X672246Y724936D01*
X670124Y726565D01*
X667652Y727589D01*
X665000Y727938D01*
D02*
G37*
%LPD*%
G36*
X359354Y789331D02*
X359364Y789277D01*
X359391Y789213D01*
X359433Y789137D01*
X359492Y789051D01*
X359566Y788953D01*
X359764Y788726D01*
X360026Y788454D01*
X358402Y786844D01*
X357147Y788320D01*
X359359Y789373D01*
X359354Y789331D01*
D02*
G37*
G36*
X363675Y784806D02*
X364316Y784238D01*
X364358Y784216D01*
X364387Y784209D01*
X362654Y782476D01*
X362647Y782505D01*
X362625Y782547D01*
X362589Y782601D01*
X362537Y782668D01*
X362389Y782839D01*
X361917Y783330D01*
X363533Y784946D01*
X363675Y784806D01*
D02*
G37*
G36*
X410624Y724235D02*
X410298Y724185D01*
X409981Y724116D01*
X409673Y724027D01*
X409375Y723919D01*
X409086Y723791D01*
X408807Y723643D01*
X408537Y723475D01*
X408277Y723288D01*
X408026Y723081D01*
X407785Y722854D01*
X405739Y724400D01*
X405970Y724649D01*
X406172Y724906D01*
X406345Y725170D01*
X406489Y725441D01*
X406604Y725720D01*
X406690Y726007D01*
X406747Y726301D01*
X406775Y726602D01*
X406774Y726910D01*
X406744Y727226D01*
X410624Y724235D01*
D02*
G37*
G36*
X404644Y719713D02*
X404336Y719387D01*
X404071Y719065D01*
X403849Y718750D01*
X403669Y718439D01*
X403533Y718134D01*
X403438Y717834D01*
X403387Y717540D01*
X403379Y717251D01*
X403413Y716967D01*
X403490Y716689D01*
X399590Y719944D01*
X399882Y719915D01*
X400179Y719924D01*
X400479Y719970D01*
X400782Y720053D01*
X401090Y720174D01*
X401401Y720333D01*
X401715Y720529D01*
X402033Y720762D01*
X402355Y721033D01*
X402681Y721342D01*
X404644Y719713D01*
D02*
G37*
G36*
X491918Y714860D02*
X491695Y715094D01*
X491460Y715303D01*
X491211Y715487D01*
X490951Y715647D01*
X490677Y715783D01*
X490390Y715893D01*
X490091Y715980D01*
X489779Y716041D01*
X489455Y716078D01*
X489117Y716090D01*
X489265Y718630D01*
X489599Y718642D01*
X489924Y718675D01*
X490239Y718731D01*
X490544Y718810D01*
X490841Y718911D01*
X491128Y719034D01*
X491406Y719180D01*
X491674Y719349D01*
X491934Y719539D01*
X492183Y719753D01*
X491918Y714860D01*
D02*
G37*
G36*
X485886Y719679D02*
X486074Y719459D01*
X486295Y719265D01*
X486549Y719096D01*
X486835Y718954D01*
X487153Y718837D01*
X487504Y718747D01*
X487888Y718682D01*
X488303Y718643D01*
X488752Y718630D01*
X488652Y716090D01*
X488204Y716078D01*
X487786Y716041D01*
X487398Y715979D01*
X487041Y715892D01*
X486715Y715780D01*
X486418Y715643D01*
X486153Y715482D01*
X485917Y715295D01*
X485712Y715084D01*
X485537Y714848D01*
X485730Y719925D01*
X485886Y719679D01*
D02*
G37*
%LPC*%
G36*
X645442Y779412D02*
X635536D01*
Y777161D01*
X633504D01*
Y779412D01*
X623598D01*
Y769506D01*
X625849D01*
Y767474D01*
X623598D01*
Y757568D01*
X633504D01*
Y759819D01*
X635536D01*
Y757568D01*
X645442D01*
Y767474D01*
X643191D01*
Y769506D01*
X645442D01*
Y779412D01*
D02*
G37*
G36*
X506552Y770627D02*
X504654D01*
X502901Y769901D01*
X501559Y768559D01*
X500833Y766806D01*
Y764908D01*
X501559Y763155D01*
X502001Y762713D01*
X502081Y762488D01*
X502647Y761859D01*
X502842Y761608D01*
X503011Y761362D01*
X503145Y761136D01*
X503246Y760932D01*
X503317Y760753D01*
X503363Y760598D01*
X503386Y760468D01*
X503397Y760274D01*
X503460Y760146D01*
Y759768D01*
X503396Y759624D01*
X503389Y759387D01*
X503374Y759226D01*
X503355Y759106D01*
X503335Y759033D01*
X503332Y759024D01*
X503327Y759013D01*
X501908Y758425D01*
X500145Y756662D01*
X499190Y754357D01*
Y751863D01*
X500145Y749558D01*
X501908Y747795D01*
X504213Y746840D01*
X506707D01*
X509012Y747795D01*
X510775Y749558D01*
X511730Y751863D01*
Y754357D01*
X510775Y756662D01*
X509012Y758425D01*
X507763Y758943D01*
X507752Y758954D01*
X507740Y758983D01*
X507733Y758990D01*
X507729Y759000D01*
X507709Y759079D01*
X507689Y759200D01*
X507674Y759364D01*
X507668Y759601D01*
X507603Y759745D01*
Y760114D01*
X507666Y760241D01*
X507678Y760438D01*
X507701Y760565D01*
X507745Y760713D01*
X507815Y760884D01*
X507915Y761077D01*
X508048Y761290D01*
X508205Y761506D01*
X508677Y762045D01*
X508965Y762328D01*
X509073Y762581D01*
X509647Y763155D01*
X510373Y764908D01*
Y766806D01*
X509647Y768559D01*
X508305Y769901D01*
X506552Y770627D01*
D02*
G37*
G36*
X589560Y754960D02*
X587662D01*
X585909Y754234D01*
X584567Y752892D01*
X583841Y751139D01*
Y749241D01*
X584567Y747488D01*
X585909Y746146D01*
X587662Y745420D01*
X589560D01*
X591313Y746146D01*
X592655Y747488D01*
X593381Y749241D01*
Y751139D01*
X592655Y752892D01*
X591313Y754234D01*
X589560Y754960D01*
D02*
G37*
G36*
X635858Y753250D02*
X633182D01*
X630598Y752558D01*
X628282Y751220D01*
X626390Y749328D01*
X625052Y747012D01*
X624360Y744428D01*
Y741752D01*
X625052Y739168D01*
X626390Y736852D01*
X628282Y734960D01*
X630598Y733622D01*
X633182Y732930D01*
X635858D01*
X638442Y733622D01*
X640758Y734960D01*
X642650Y736852D01*
X643988Y739168D01*
X644680Y741752D01*
Y744428D01*
X643988Y747012D01*
X642650Y749328D01*
X640758Y751220D01*
X638442Y752558D01*
X635858Y753250D01*
D02*
G37*
G36*
X561799Y738270D02*
X559901D01*
X558148Y737544D01*
X556806Y736202D01*
X556080Y734449D01*
Y732551D01*
X556806Y730798D01*
X558148Y729456D01*
X559901Y728730D01*
X561799D01*
X563552Y729456D01*
X564894Y730798D01*
X565620Y732551D01*
Y734449D01*
X564894Y736202D01*
X563552Y737544D01*
X561799Y738270D01*
D02*
G37*
%LPD*%
G36*
X508002Y763308D02*
X507677Y762989D01*
X507131Y762365D01*
X506908Y762059D01*
X506721Y761759D01*
X506567Y761463D01*
X506447Y761172D01*
X506362Y760885D01*
X506311Y760603D01*
X506294Y760326D01*
X504770Y760358D01*
X504753Y760631D01*
X504703Y760911D01*
X504620Y761199D01*
X504503Y761493D01*
X504353Y761794D01*
X504170Y762103D01*
X503953Y762419D01*
X503703Y762741D01*
X503103Y763408D01*
X508002Y763308D01*
D02*
G37*
G36*
X506294Y759564D02*
X506301Y759284D01*
X506324Y759028D01*
X506362Y758797D01*
X506415Y758589D01*
X506483Y758406D01*
X506567Y758246D01*
X506665Y758111D01*
X506779Y758000D01*
X506908Y757913D01*
X507052Y757850D01*
X504004Y757893D01*
X504150Y757952D01*
X504280Y758036D01*
X504395Y758144D01*
X504494Y758276D01*
X504578Y758433D01*
X504647Y758615D01*
X504701Y758821D01*
X504739Y759051D01*
X504762Y759306D01*
X504770Y759586D01*
X506294Y759564D01*
D02*
G37*
D11*
X530763Y839849D02*
X592961D01*
X614312Y861200D01*
X675500D01*
X713600Y823100D02*
X802160D01*
X675500Y861200D02*
X713600Y823100D01*
X565401Y812940D02*
X651030D01*
X532341Y836039D02*
X669496D01*
X707834Y797700D02*
X802160D01*
X526539Y830237D02*
X532341Y836039D01*
X519430Y838962D02*
X529876D01*
X651030Y812940D02*
X665000Y798970D01*
X669496Y836039D02*
X707834Y797700D01*
X398780Y715645D02*
X410210Y727075D01*
X398780Y715010D02*
Y715645D01*
X410210Y727075D02*
Y727710D01*
X398780Y715010D02*
X398780D01*
X566547Y850773D02*
X590423D01*
X590550Y850900D01*
X566420Y850646D02*
X566547Y850773D01*
X615950Y717550D02*
X616020Y717620D01*
X634450D01*
X634520Y717690D01*
X481520Y717360D02*
X494357D01*
X481330Y717550D02*
X481520Y717360D01*
X494357D02*
X494547Y717171D01*
X357639Y771319D02*
Y779925D01*
Y771319D02*
X374170Y754788D01*
Y743090D02*
Y754788D01*
X645950Y787540D02*
X665000Y768490D01*
X534843Y829999D02*
X577302Y787540D01*
X529876Y838962D02*
X530763Y839849D01*
X577302Y787540D02*
X645950D01*
X551673Y826669D02*
X565401Y812940D01*
D15*
X505532Y765785D02*
X505603Y765857D01*
X505532Y753182D02*
Y765785D01*
X505460Y753110D02*
X505532Y753182D01*
D51*
X357716Y789647D02*
X358173Y789189D01*
X357716Y789647D02*
Y789975D01*
X358173Y788690D02*
Y789189D01*
Y788690D02*
X364404Y782459D01*
D56*
X290900Y740100D02*
D03*
Y829900D02*
D03*
X350400Y826300D02*
D03*
Y743700D02*
D03*
D57*
X362900Y749000D02*
D03*
D58*
Y821000D02*
D03*
D59*
X802160Y823100D02*
D03*
Y797700D02*
D03*
Y772300D02*
D03*
Y746900D02*
D03*
Y848500D02*
D03*
D60*
Y721500D02*
D03*
D61*
X634520Y824370D02*
D03*
X665000Y743090D02*
D03*
Y717690D02*
D03*
X634520Y798970D02*
D03*
X665000Y824370D02*
D03*
Y798970D02*
D03*
X634520Y743090D02*
D03*
Y717690D02*
D03*
D62*
X665000Y768490D02*
D03*
X634520Y849770D02*
D03*
X665000D02*
D03*
X634520Y768490D02*
D03*
D63*
X715800Y845960D02*
D03*
X342500Y720000D02*
D03*
D64*
X551673Y826669D02*
D03*
X575310Y820674D02*
D03*
X599186Y801878D02*
D03*
X616966Y800354D02*
D03*
X519430Y838962D02*
D03*
X598932Y821436D02*
D03*
X613664Y847598D02*
D03*
X436880Y723900D02*
D03*
X401310Y822413D02*
D03*
X418045Y847584D02*
D03*
X438840Y847854D02*
D03*
X413372Y714634D02*
D03*
X486285Y732534D02*
D03*
X477520Y735330D02*
D03*
X533662Y714949D02*
D03*
X588611Y750190D02*
D03*
X466090Y734060D02*
D03*
X411796Y743092D02*
D03*
X533567Y750598D02*
D03*
X551640Y755721D02*
D03*
X570098Y736352D02*
D03*
X410210Y727710D02*
D03*
X490550Y768680D02*
D03*
X560850Y733500D02*
D03*
X494547Y717171D02*
D03*
X499110Y835660D02*
D03*
X505460Y852170D02*
D03*
X521970D02*
D03*
X598678Y859790D02*
D03*
X575818Y859282D02*
D03*
X566420Y850646D02*
D03*
X505603Y765857D02*
D03*
X460502Y810585D02*
D03*
X438882Y812186D02*
D03*
X418137Y812041D02*
D03*
X402778Y803961D02*
D03*
X492760Y802640D02*
D03*
X534843Y829999D02*
D03*
X526539Y830123D02*
D03*
X374170Y743090D02*
D03*
X393621Y773272D02*
D03*
X480750Y809750D02*
D03*
D65*
X379222Y757428D02*
D03*
X374836Y797536D02*
D03*
Y772492D02*
D03*
X377996Y812547D02*
D03*
X377952Y818388D02*
D03*
X373634Y822452D02*
D03*
X369316Y818388D02*
D03*
X353516Y818532D02*
D03*
X366522Y740410D02*
D03*
X361188D02*
D03*
X348488Y752856D02*
D03*
X355346D02*
D03*
X364269Y797716D02*
D03*
X357716Y789975D02*
D03*
X364241Y772490D02*
D03*
X360682Y812850D02*
D03*
X360864Y758812D02*
D03*
X357639Y779925D02*
D03*
X364404Y782459D02*
D03*
D66*
X515850Y803000D02*
D03*
X526850D02*
D03*
X537850D02*
D03*
X515850Y792000D02*
D03*
X526850D02*
D03*
X537850D02*
D03*
X515850Y781000D02*
D03*
X526850D02*
D03*
X537850D02*
D03*
D67*
X398780Y715010D02*
D03*
X590550Y850900D02*
D03*
X481330Y717550D02*
D03*
X615950D02*
D03*
X505460Y753110D02*
D03*
M02*
