G04*
G04 #@! TF.GenerationSoftware,Altium Limited,Altium Designer,24.9.1 (31)*
G04*
G04 Layer_Color=16711935*
%FSLAX44Y44*%
%MOMM*%
G71*
G04*
G04 #@! TF.SameCoordinates,0DAEADC5-739E-474D-A028-FC833E2B39B4*
G04*
G04*
G04 #@! TF.FilePolarity,Positive*
G04*
G01*
G75*
%ADD75C,0.0254*%
D75*
X524600Y719500D02*
Y748500D01*
X542600Y719500D02*
Y748500D01*
X524600Y748500D02*
X542600Y748500D01*
X524600Y719500D02*
X542600D01*
X597600Y717000D02*
Y746000D01*
X579600Y717000D02*
Y746000D01*
Y717000D02*
X597600D01*
X579600Y746000D02*
X597600D01*
X386478Y728958D02*
X404478D01*
X386478Y757958D02*
X404478D01*
Y728958D02*
Y757958D01*
X386478Y728958D02*
Y757958D01*
X417500Y709000D02*
Y738000D01*
X435500Y709000D02*
Y738000D01*
X417500D02*
X435500D01*
X417500Y709000D02*
X435500D01*
X438250Y708750D02*
Y737750D01*
X456250Y708750D02*
Y737750D01*
X438250D02*
X456250D01*
X438250Y708750D02*
X456250D01*
X468500Y740500D02*
Y769500D01*
X486500Y740500D02*
Y769500D01*
X468500D02*
X486500D01*
X468500Y740500D02*
X486500D01*
X446000D02*
Y769500D01*
X464000Y740500D02*
Y769500D01*
X446000D02*
X464000D01*
X446000Y740500D02*
X464000D01*
X401958Y842684D02*
X419958D01*
X401958Y813684D02*
X419958D01*
X401958D02*
Y842684D01*
X419958Y813684D02*
Y842684D01*
M02*
