G04*
G04 #@! TF.GenerationSoftware,Altium Limited,Altium Designer,24.9.1 (31)*
G04*
G04 Layer_Color=8388736*
%FSLAX44Y44*%
%MOMM*%
G71*
G04*
G04 #@! TF.SameCoordinates,0DAEADC5-739E-474D-A028-FC833E2B39B4*
G04*
G04*
G04 #@! TF.FilePolarity,Negative*
G04*
G01*
G75*
%ADD31R,1.4508X0.9508*%
%ADD32R,0.8128X0.8128*%
%ADD33R,1.2192X0.8128*%
%ADD34R,0.7508X0.3508*%
%ADD35R,0.7008X1.3008*%
%ADD36O,1.0508X0.3008*%
%ADD37O,0.3008X1.0508*%
%ADD38R,0.9500X1.6000*%
%ADD39R,1.6000X0.9500*%
%ADD40R,1.4016X1.2016*%
%ADD41R,1.1508X0.6508*%
%ADD42R,0.7508X0.6508*%
%ADD43O,1.5000X0.9000*%
%ADD44O,0.7008X1.0008*%
%ADD45C,0.7008*%
%ADD46C,1.7008*%
%ADD47R,1.7008X1.7008*%
%ADD48C,1.8288*%
%ADD49R,1.8288X1.8288*%
%ADD50C,2.0508*%
G36*
X353662Y831293D02*
X353923Y831273D01*
X354182Y831238D01*
X354440Y831191D01*
X354694Y831130D01*
X354945Y831055D01*
X355192Y830968D01*
X355434Y830868D01*
X355670Y830755D01*
X355900Y830630D01*
X356123Y830493D01*
X356339Y830345D01*
X356547Y830186D01*
X356746Y830016D01*
X356936Y829836D01*
X357116Y829646D01*
X357286Y829447D01*
X357445Y829239D01*
X357593Y829023D01*
X357730Y828800D01*
X357855Y828570D01*
X357968Y828334D01*
X358068Y828092D01*
X358155Y827845D01*
X358230Y827594D01*
X358291Y827339D01*
X358339Y827082D01*
X358373Y826823D01*
X358393Y826562D01*
X358400Y826300D01*
X358393Y826038D01*
X358373Y825777D01*
X358339Y825518D01*
X358291Y825260D01*
X358230Y825006D01*
X358155Y824755D01*
X358068Y824508D01*
X357968Y824266D01*
X357855Y824030D01*
X357730Y823800D01*
X357593Y823577D01*
X357445Y823361D01*
X357286Y823153D01*
X357116Y822954D01*
X356936Y822764D01*
X356746Y822584D01*
X356547Y822414D01*
X356339Y822255D01*
X356123Y822107D01*
X355900Y821970D01*
X355670Y821845D01*
X355434Y821732D01*
X355192Y821632D01*
X354945Y821545D01*
X354694Y821470D01*
X354440Y821409D01*
X354182Y821361D01*
X353923Y821327D01*
X353662Y821307D01*
X353400Y821300D01*
X347400D01*
X347138Y821307D01*
X346877Y821327D01*
X346618Y821361D01*
X346360Y821409D01*
X346106Y821470D01*
X345855Y821545D01*
X345608Y821632D01*
X345366Y821732D01*
X345130Y821845D01*
X344900Y821970D01*
X344677Y822107D01*
X344461Y822255D01*
X344253Y822414D01*
X344054Y822584D01*
X343865Y822764D01*
X343684Y822954D01*
X343514Y823153D01*
X343355Y823361D01*
X343207Y823577D01*
X343070Y823800D01*
X342945Y824030D01*
X342832Y824266D01*
X342732Y824508D01*
X342645Y824755D01*
X342570Y825006D01*
X342509Y825260D01*
X342462Y825518D01*
X342427Y825777D01*
X342407Y826038D01*
X342400Y826300D01*
X342407Y826562D01*
X342427Y826823D01*
X342462Y827082D01*
X342509Y827339D01*
X342570Y827594D01*
X342645Y827845D01*
X342732Y828092D01*
X342832Y828334D01*
X342945Y828570D01*
X343070Y828800D01*
X343207Y829023D01*
X343355Y829239D01*
X343514Y829447D01*
X343684Y829646D01*
X343865Y829836D01*
X344054Y830016D01*
X344253Y830186D01*
X344461Y830345D01*
X344677Y830493D01*
X344900Y830630D01*
X345130Y830755D01*
X345366Y830868D01*
X345608Y830968D01*
X345855Y831055D01*
X346106Y831130D01*
X346360Y831191D01*
X346618Y831238D01*
X346877Y831273D01*
X347138Y831293D01*
X347400Y831300D01*
X350400Y831300D01*
X353400Y831300D01*
X353662Y831293D01*
D02*
G37*
G36*
X294162Y834893D02*
X294423Y834873D01*
X294682Y834838D01*
X294940Y834791D01*
X295194Y834730D01*
X295445Y834655D01*
X295692Y834568D01*
X295934Y834468D01*
X296170Y834355D01*
X296400Y834230D01*
X296623Y834093D01*
X296839Y833945D01*
X297047Y833786D01*
X297246Y833616D01*
X297435Y833436D01*
X297616Y833246D01*
X297786Y833047D01*
X297945Y832839D01*
X298093Y832623D01*
X298230Y832400D01*
X298355Y832170D01*
X298468Y831934D01*
X298568Y831692D01*
X298655Y831445D01*
X298730Y831194D01*
X298791Y830939D01*
X298838Y830682D01*
X298873Y830423D01*
X298893Y830162D01*
X298900Y829900D01*
X298893Y829638D01*
X298873Y829377D01*
X298838Y829118D01*
X298791Y828860D01*
X298730Y828606D01*
X298655Y828355D01*
X298568Y828108D01*
X298468Y827866D01*
X298355Y827630D01*
X298230Y827400D01*
X298093Y827177D01*
X297945Y826961D01*
X297786Y826753D01*
X297616Y826554D01*
X297435Y826364D01*
X297246Y826184D01*
X297047Y826014D01*
X296839Y825855D01*
X296623Y825707D01*
X296400Y825570D01*
X296170Y825445D01*
X295934Y825332D01*
X295692Y825232D01*
X295445Y825145D01*
X295194Y825070D01*
X294940Y825009D01*
X294682Y824961D01*
X294423Y824927D01*
X294162Y824907D01*
X293900Y824900D01*
X287900D01*
X287638Y824907D01*
X287377Y824927D01*
X287118Y824961D01*
X286861Y825009D01*
X286606Y825070D01*
X286355Y825145D01*
X286108Y825232D01*
X285866Y825332D01*
X285630Y825445D01*
X285400Y825570D01*
X285177Y825707D01*
X284961Y825855D01*
X284753Y826014D01*
X284554Y826184D01*
X284364Y826364D01*
X284184Y826554D01*
X284014Y826753D01*
X283855Y826961D01*
X283707Y827177D01*
X283570Y827400D01*
X283445Y827630D01*
X283332Y827866D01*
X283232Y828108D01*
X283145Y828355D01*
X283070Y828606D01*
X283009Y828860D01*
X282962Y829118D01*
X282927Y829377D01*
X282907Y829638D01*
X282900Y829900D01*
X282907Y830162D01*
X282927Y830423D01*
X282962Y830682D01*
X283009Y830939D01*
X283070Y831194D01*
X283145Y831445D01*
X283232Y831692D01*
X283332Y831934D01*
X283445Y832170D01*
X283570Y832400D01*
X283707Y832623D01*
X283855Y832839D01*
X284014Y833047D01*
X284184Y833246D01*
X284364Y833436D01*
X284554Y833616D01*
X284753Y833786D01*
X284961Y833945D01*
X285177Y834093D01*
X285400Y834230D01*
X285630Y834355D01*
X285866Y834468D01*
X286108Y834568D01*
X286355Y834655D01*
X286606Y834730D01*
X286861Y834791D01*
X287118Y834838D01*
X287377Y834873D01*
X287638Y834893D01*
X287900Y834900D01*
X293900D01*
X294162Y834893D01*
D02*
G37*
G36*
X543166Y808497D02*
X543228Y808472D01*
X543281Y808431D01*
X543322Y808378D01*
X543348Y808316D01*
X543356Y808250D01*
Y775750D01*
X543348Y775684D01*
X543322Y775622D01*
X543281Y775569D01*
X543228Y775528D01*
X543166Y775503D01*
X543100Y775494D01*
X510600Y775494D01*
X510534Y775503D01*
X510472Y775528D01*
X510419Y775569D01*
X510378Y775622D01*
X510353Y775684D01*
X510344Y775750D01*
X510344Y800125D01*
X510353Y800191D01*
X510368Y800228D01*
X510378Y800253D01*
X510419Y800306D01*
X518544Y808431D01*
X518597Y808472D01*
X518641Y808490D01*
X518659Y808497D01*
X518725Y808506D01*
X543100D01*
X543166Y808497D01*
D02*
G37*
G36*
X353662Y748693D02*
X353923Y748672D01*
X354182Y748638D01*
X354440Y748591D01*
X354694Y748530D01*
X354945Y748455D01*
X355192Y748368D01*
X355434Y748268D01*
X355670Y748155D01*
X355900Y748030D01*
X356123Y747893D01*
X356339Y747745D01*
X356547Y747586D01*
X356746Y747416D01*
X356936Y747235D01*
X357116Y747046D01*
X357286Y746847D01*
X357445Y746639D01*
X357593Y746423D01*
X357730Y746200D01*
X357855Y745970D01*
X357968Y745734D01*
X358068Y745492D01*
X358155Y745245D01*
X358230Y744994D01*
X358291Y744740D01*
X358339Y744482D01*
X358373Y744223D01*
X358393Y743962D01*
X358400Y743700D01*
X358393Y743438D01*
X358373Y743177D01*
X358339Y742918D01*
X358291Y742660D01*
X358230Y742406D01*
X358155Y742155D01*
X358068Y741908D01*
X357968Y741666D01*
X357855Y741430D01*
X357730Y741200D01*
X357593Y740977D01*
X357445Y740761D01*
X357286Y740553D01*
X357116Y740354D01*
X356936Y740164D01*
X356746Y739984D01*
X356547Y739814D01*
X356339Y739655D01*
X356123Y739507D01*
X355900Y739370D01*
X355670Y739245D01*
X355434Y739132D01*
X355192Y739032D01*
X354945Y738945D01*
X354694Y738870D01*
X354440Y738809D01*
X354182Y738762D01*
X353923Y738727D01*
X353662Y738707D01*
X353400Y738700D01*
X347400D01*
X347138Y738707D01*
X346877Y738727D01*
X346618Y738762D01*
X346360Y738809D01*
X346106Y738870D01*
X345855Y738945D01*
X345608Y739032D01*
X345366Y739132D01*
X345130Y739245D01*
X344900Y739370D01*
X344677Y739507D01*
X344461Y739655D01*
X344253Y739814D01*
X344054Y739984D01*
X343865Y740164D01*
X343684Y740354D01*
X343514Y740553D01*
X343355Y740761D01*
X343207Y740977D01*
X343070Y741200D01*
X342945Y741430D01*
X342832Y741666D01*
X342732Y741908D01*
X342645Y742155D01*
X342570Y742406D01*
X342509Y742660D01*
X342462Y742918D01*
X342427Y743177D01*
X342407Y743438D01*
X342400Y743700D01*
X342407Y743962D01*
X342427Y744223D01*
X342462Y744482D01*
X342509Y744740D01*
X342570Y744994D01*
X342645Y745245D01*
X342732Y745492D01*
X342832Y745734D01*
X342945Y745970D01*
X343070Y746200D01*
X343207Y746423D01*
X343355Y746639D01*
X343514Y746847D01*
X343684Y747046D01*
X343865Y747235D01*
X344054Y747416D01*
X344253Y747586D01*
X344461Y747745D01*
X344677Y747893D01*
X344900Y748030D01*
X345130Y748155D01*
X345366Y748268D01*
X345608Y748368D01*
X345855Y748455D01*
X346106Y748530D01*
X346360Y748591D01*
X346618Y748638D01*
X346877Y748672D01*
X347138Y748693D01*
X347400Y748700D01*
X353400D01*
X353662Y748693D01*
D02*
G37*
G36*
X294162Y745093D02*
X294423Y745073D01*
X294682Y745038D01*
X294940Y744991D01*
X295194Y744930D01*
X295445Y744855D01*
X295692Y744768D01*
X295934Y744668D01*
X296170Y744555D01*
X296400Y744430D01*
X296623Y744293D01*
X296839Y744145D01*
X297047Y743986D01*
X297246Y743816D01*
X297435Y743635D01*
X297616Y743446D01*
X297786Y743247D01*
X297945Y743039D01*
X298093Y742823D01*
X298230Y742600D01*
X298355Y742370D01*
X298468Y742134D01*
X298568Y741892D01*
X298655Y741645D01*
X298730Y741394D01*
X298791Y741140D01*
X298838Y740882D01*
X298873Y740623D01*
X298893Y740362D01*
X298900Y740100D01*
X298893Y739838D01*
X298873Y739577D01*
X298838Y739318D01*
X298791Y739060D01*
X298730Y738806D01*
X298655Y738555D01*
X298568Y738308D01*
X298468Y738066D01*
X298355Y737830D01*
X298230Y737600D01*
X298093Y737377D01*
X297945Y737161D01*
X297786Y736953D01*
X297616Y736754D01*
X297435Y736564D01*
X297246Y736384D01*
X297047Y736214D01*
X296839Y736055D01*
X296623Y735907D01*
X296400Y735770D01*
X296170Y735645D01*
X295934Y735532D01*
X295692Y735432D01*
X295445Y735345D01*
X295194Y735270D01*
X294940Y735209D01*
X294682Y735162D01*
X294423Y735127D01*
X294162Y735107D01*
X293900Y735100D01*
X287900D01*
X287638Y735107D01*
X287377Y735127D01*
X287118Y735162D01*
X286861Y735209D01*
X286606Y735270D01*
X286355Y735345D01*
X286108Y735432D01*
X285866Y735532D01*
X285630Y735645D01*
X285400Y735770D01*
X285177Y735907D01*
X284961Y736055D01*
X284753Y736214D01*
X284554Y736384D01*
X284364Y736564D01*
X284184Y736754D01*
X284014Y736953D01*
X283855Y737161D01*
X283707Y737377D01*
X283570Y737600D01*
X283445Y737830D01*
X283332Y738066D01*
X283232Y738308D01*
X283145Y738555D01*
X283070Y738806D01*
X283009Y739060D01*
X282962Y739318D01*
X282927Y739577D01*
X282907Y739838D01*
X282900Y740100D01*
X282907Y740362D01*
X282927Y740623D01*
X282962Y740882D01*
X283009Y741140D01*
X283070Y741394D01*
X283145Y741645D01*
X283232Y741892D01*
X283332Y742134D01*
X283445Y742370D01*
X283570Y742600D01*
X283707Y742823D01*
X283855Y743039D01*
X284014Y743247D01*
X284184Y743446D01*
X284364Y743635D01*
X284554Y743816D01*
X284753Y743986D01*
X284961Y744145D01*
X285177Y744293D01*
X285400Y744430D01*
X285630Y744555D01*
X285866Y744668D01*
X286108Y744768D01*
X286355Y744855D01*
X286606Y744930D01*
X286861Y744991D01*
X287118Y745038D01*
X287377Y745073D01*
X287638Y745093D01*
X287900Y745100D01*
X293900D01*
X294162Y745093D01*
D02*
G37*
D31*
X738800Y770230D02*
D03*
Y751230D02*
D03*
X759800Y760730D02*
D03*
X738800Y821030D02*
D03*
Y802030D02*
D03*
X759800Y811530D02*
D03*
D32*
X421997Y796256D02*
D03*
Y773396D02*
D03*
X402693Y796256D02*
D03*
D33*
X404979Y773396D02*
D03*
D34*
X369500Y757500D02*
D03*
Y762500D02*
D03*
Y767500D02*
D03*
Y777500D02*
D03*
X369500Y782500D02*
D03*
Y787500D02*
D03*
X369500Y792500D02*
D03*
Y802500D02*
D03*
Y807500D02*
D03*
X352500Y815000D02*
D03*
Y810000D02*
D03*
Y805000D02*
D03*
X352500Y795000D02*
D03*
X352500Y790000D02*
D03*
Y785000D02*
D03*
Y780000D02*
D03*
Y770000D02*
D03*
Y765000D02*
D03*
Y760000D02*
D03*
X369500Y812500D02*
D03*
X352500Y800000D02*
D03*
X369500Y797500D02*
D03*
X352500Y775000D02*
D03*
X369500Y772500D02*
D03*
D35*
X570250Y746000D02*
D03*
X560850D02*
D03*
X551450D02*
D03*
Y721000D02*
D03*
X570250D02*
D03*
D36*
X503600Y807000D02*
D03*
Y802000D02*
D03*
X550100Y777000D02*
D03*
Y782000D02*
D03*
Y792000D02*
D03*
Y797000D02*
D03*
Y802000D02*
D03*
Y807000D02*
D03*
X503600Y797000D02*
D03*
Y792000D02*
D03*
Y787000D02*
D03*
Y782000D02*
D03*
Y777000D02*
D03*
X550100Y787000D02*
D03*
D37*
X521850Y768750D02*
D03*
X526850D02*
D03*
X531850D02*
D03*
X536850D02*
D03*
X541850D02*
D03*
Y815250D02*
D03*
X516850D02*
D03*
X511850Y768750D02*
D03*
X516850D02*
D03*
X536850Y815250D02*
D03*
X531850D02*
D03*
X526850D02*
D03*
X521850D02*
D03*
X511850D02*
D03*
D38*
X496100Y751000D02*
D03*
X513600Y751000D02*
D03*
X363360Y716026D02*
D03*
X380860Y716026D02*
D03*
X513600Y732250D02*
D03*
X496100Y732250D02*
D03*
X466250Y718500D02*
D03*
X483750Y718500D02*
D03*
X551040Y845820D02*
D03*
X533540Y845820D02*
D03*
X582850Y803000D02*
D03*
X565350Y803000D02*
D03*
D39*
X533600Y742750D02*
D03*
X533600Y725250D02*
D03*
X588600Y722750D02*
D03*
Y740250D02*
D03*
X395478Y734708D02*
D03*
Y752208D02*
D03*
X391160Y819290D02*
D03*
X391160Y836790D02*
D03*
X426500Y732250D02*
D03*
Y714750D02*
D03*
X447250Y732000D02*
D03*
Y714500D02*
D03*
X477500Y763750D02*
D03*
Y746250D02*
D03*
X455000Y763750D02*
D03*
Y746250D02*
D03*
X480750Y837500D02*
D03*
X480750Y820000D02*
D03*
X410958Y836934D02*
D03*
Y819434D02*
D03*
D40*
X460250Y819610D02*
D03*
Y837390D02*
D03*
D41*
X478250Y788750D02*
D03*
X451250D02*
D03*
Y798750D02*
D03*
X478250D02*
D03*
D42*
X565100Y841500D02*
D03*
X585100Y832000D02*
D03*
X565100Y822500D02*
D03*
Y784500D02*
D03*
X585100Y775000D02*
D03*
X565100Y765500D02*
D03*
D43*
X290900Y740100D02*
D03*
Y829900D02*
D03*
X350400Y826300D02*
D03*
Y743700D02*
D03*
D44*
X362900Y749000D02*
D03*
D45*
Y821000D02*
D03*
D46*
X802160Y823100D02*
D03*
Y797700D02*
D03*
Y772300D02*
D03*
Y746900D02*
D03*
Y848500D02*
D03*
D47*
Y721500D02*
D03*
D48*
X634520Y824370D02*
D03*
X665000Y743090D02*
D03*
Y717690D02*
D03*
X634520Y798970D02*
D03*
X665000Y824370D02*
D03*
Y798970D02*
D03*
X634520Y743090D02*
D03*
Y717690D02*
D03*
D49*
X665000Y768490D02*
D03*
X634520Y849770D02*
D03*
X665000D02*
D03*
X634520Y768490D02*
D03*
D50*
X715800Y845960D02*
D03*
X342500Y720000D02*
D03*
M02*
