G04*
G04 #@! TF.GenerationSoftware,Altium Limited,Altium Designer,24.9.1 (31)*
G04*
G04 Layer_Physical_Order=1*
G04 Layer_Color=255*
%FSLAX44Y44*%
%MOMM*%
G71*
G04*
G04 #@! TF.SameCoordinates,0DAEADC5-739E-474D-A028-FC833E2B39B4*
G04*
G04*
G04 #@! TF.FilePolarity,Positive*
G04*
G01*
G75*
%ADD11C,0.2540*%
%ADD15C,0.1524*%
%ADD19R,1.4000X0.9000*%
%ADD20R,0.7620X0.7620*%
%ADD21R,1.1684X0.7620*%
%ADD22R,0.7000X0.3000*%
%ADD23R,0.6500X1.2500*%
%ADD24O,1.0000X0.2500*%
%ADD25O,0.2500X1.0000*%
%ADD26R,0.8500X1.5000*%
%ADD27R,1.5000X0.8500*%
%ADD28R,1.3000X1.1000*%
%ADD29R,1.1000X0.6000*%
%ADD30R,0.7000X0.6000*%
%AMCUSTOMSHAPE51*
4,1,5,-1.6250,-1.6250,-1.6250,0.8125,-0.8125,1.6250,1.6250,1.6250,1.6250,-1.6250,-1.6250,-1.6250,0.0*%
%ADD51CUSTOMSHAPE51*%

%ADD52C,0.3048*%
%ADD53C,0.5080*%
%ADD54C,0.2286*%
%ADD55C,0.3000*%
%ADD56C,0.4572*%
%ADD57R,0.7620X1.4363*%
%ADD58R,0.7620X1.4176*%
%ADD59O,1.4000X0.8000*%
%ADD60O,0.6500X0.9500*%
%ADD61C,0.6500*%
%ADD62C,1.6500*%
%ADD63R,1.6500X1.6500*%
%ADD64C,1.7780*%
%ADD65R,1.7780X1.7780*%
%ADD66C,2.0000*%
%ADD67C,0.7000*%
%ADD68C,0.3500*%
%ADD69C,0.5000*%
G36*
X534856Y855347D02*
X534894Y854915D01*
X534957Y854534D01*
X535046Y854204D01*
X535160Y853924D01*
X535300Y853696D01*
X535465Y853518D01*
X535656Y853391D01*
X535872Y853315D01*
X536113Y853289D01*
X531033D01*
X531274Y853315D01*
X531490Y853391D01*
X531681Y853518D01*
X531846Y853696D01*
X531985Y853924D01*
X532100Y854204D01*
X532189Y854534D01*
X532252Y854915D01*
X532290Y855347D01*
X532303Y855829D01*
X534843D01*
X534856Y855347D01*
D02*
G37*
G36*
X563773Y855106D02*
X564027Y854902D01*
X564291Y854722D01*
X564563Y854566D01*
X564844Y854435D01*
X565135Y854328D01*
X565434Y854246D01*
X565742Y854188D01*
X566059Y854155D01*
X566385Y854146D01*
X562920Y850681D01*
X562911Y851007D01*
X562878Y851324D01*
X562820Y851632D01*
X562738Y851931D01*
X562631Y852222D01*
X562500Y852503D01*
X562344Y852775D01*
X562164Y853039D01*
X561960Y853294D01*
X561731Y853539D01*
X563527Y855335D01*
X563773Y855106D01*
D02*
G37*
G36*
X569929Y850285D02*
X569962Y849968D01*
X570020Y849660D01*
X570102Y849361D01*
X570209Y849070D01*
X570340Y848789D01*
X570496Y848517D01*
X570676Y848253D01*
X570880Y847999D01*
X571109Y847753D01*
X569313Y845957D01*
X569067Y846186D01*
X568813Y846390D01*
X568549Y846570D01*
X568277Y846726D01*
X567996Y846857D01*
X567705Y846964D01*
X567406Y847046D01*
X567098Y847104D01*
X566781Y847137D01*
X566455Y847146D01*
X569920Y850611D01*
X569929Y850285D01*
D02*
G37*
G36*
X529351Y842462D02*
X529325Y842703D01*
X529248Y842919D01*
X529120Y843110D01*
X528940Y843275D01*
X528708Y843415D01*
X528426Y843529D01*
X528091Y843618D01*
X527706Y843681D01*
X527269Y843719D01*
X526781Y843732D01*
Y846272D01*
X527269Y846285D01*
X527706Y846323D01*
X528091Y846386D01*
X528426Y846475D01*
X528708Y846590D01*
X528940Y846729D01*
X529120Y846894D01*
X529248Y847085D01*
X529325Y847301D01*
X529351Y847542D01*
Y842462D01*
D02*
G37*
G36*
X659733Y840910D02*
X659535Y841054D01*
X659302Y841126D01*
X659032D01*
X658727Y841054D01*
X658386Y840910D01*
X658008Y840695D01*
X657595Y840408D01*
X657146Y840048D01*
X656141Y839115D01*
X654344Y840910D01*
X654847Y841431D01*
X655638Y842365D01*
X655925Y842778D01*
X656141Y843156D01*
X656284Y843497D01*
X656356Y843802D01*
Y844072D01*
X656284Y844305D01*
X656141Y844503D01*
X659733Y840910D01*
D02*
G37*
G36*
X629253D02*
X629055Y841054D01*
X628822Y841126D01*
X628552D01*
X628247Y841054D01*
X627906Y840910D01*
X627528Y840695D01*
X627115Y840408D01*
X626666Y840048D01*
X625661Y839115D01*
X623864Y840910D01*
X624367Y841431D01*
X625158Y842365D01*
X625445Y842778D01*
X625661Y843156D01*
X625804Y843497D01*
X625876Y843802D01*
Y844072D01*
X625804Y844305D01*
X625661Y844503D01*
X629253Y840910D01*
D02*
G37*
G36*
X561631Y838960D02*
X561605Y839201D01*
X561529Y839417D01*
X561402Y839608D01*
X561224Y839773D01*
X560995Y839912D01*
X560716Y840027D01*
X560386Y840116D01*
X560005Y840179D01*
X559573Y840217D01*
X559090Y840230D01*
Y842770D01*
X559573Y842783D01*
X560005Y842821D01*
X560386Y842884D01*
X560716Y842973D01*
X560995Y843087D01*
X561224Y843227D01*
X561402Y843392D01*
X561529Y843583D01*
X561605Y843799D01*
X561631Y844040D01*
Y838960D01*
D02*
G37*
G36*
X555255Y843799D02*
X555332Y843583D01*
X555460Y843392D01*
X555640Y843227D01*
X555872Y843087D01*
X556154Y842973D01*
X556489Y842884D01*
X556874Y842821D01*
X557311Y842783D01*
X557799Y842770D01*
Y840230D01*
X557311Y840217D01*
X556874Y840179D01*
X556489Y840116D01*
X556154Y840027D01*
X555872Y839912D01*
X555640Y839773D01*
X555460Y839608D01*
X555332Y839417D01*
X555255Y839201D01*
X555229Y838960D01*
Y844040D01*
X555255Y843799D01*
D02*
G37*
G36*
X521656Y836226D02*
X521455Y835978D01*
X521278Y835719D01*
X521125Y835449D01*
X520995Y835169D01*
X520889Y834877D01*
X520806Y834574D01*
X520747Y834261D01*
X520712Y833936D01*
X520700Y833600D01*
X518160D01*
X518148Y833936D01*
X518113Y834261D01*
X518054Y834574D01*
X517971Y834877D01*
X517865Y835169D01*
X517735Y835449D01*
X517582Y835719D01*
X517405Y835978D01*
X517204Y836226D01*
X516980Y836462D01*
X521880D01*
X521656Y836226D01*
D02*
G37*
G36*
X539532Y832892D02*
X539304Y832646D01*
X539099Y832392D01*
X538919Y832128D01*
X538763Y831856D01*
X538632Y831575D01*
X538526Y831284D01*
X538443Y830985D01*
X538385Y830677D01*
X538352Y830360D01*
X538343Y830034D01*
X534878Y833499D01*
X535204Y833508D01*
X535521Y833541D01*
X535830Y833599D01*
X536129Y833681D01*
X536419Y833788D01*
X536700Y833919D01*
X536973Y834075D01*
X537236Y834255D01*
X537491Y834459D01*
X537736Y834688D01*
X539532Y832892D01*
D02*
G37*
G36*
X588565Y834299D02*
X588642Y834083D01*
X588770Y833892D01*
X588950Y833727D01*
X589182Y833587D01*
X589464Y833473D01*
X589799Y833384D01*
X590184Y833321D01*
X590621Y833283D01*
X591110Y833270D01*
Y830730D01*
X590621Y830717D01*
X590184Y830679D01*
X589799Y830616D01*
X589464Y830527D01*
X589182Y830413D01*
X588950Y830273D01*
X588770Y830108D01*
X588642Y829917D01*
X588565Y829701D01*
X588539Y829460D01*
Y834540D01*
X588565Y834299D01*
D02*
G37*
G36*
X294109Y833895D02*
X294318Y833878D01*
X294526Y833851D01*
X294732Y833813D01*
X294935Y833764D01*
X295136Y833704D01*
X295333Y833634D01*
X295527Y833554D01*
X295716Y833464D01*
X295900Y833364D01*
X296079Y833255D01*
X296251Y833136D01*
X296417Y833008D01*
X296576Y832872D01*
X296728Y832728D01*
X296873Y832577D01*
X297009Y832417D01*
X297136Y832251D01*
X297255Y832078D01*
X297364Y831900D01*
X297464Y831716D01*
X297554Y831527D01*
X297634Y831333D01*
X297704Y831136D01*
X297764Y830935D01*
X297813Y830732D01*
X297851Y830526D01*
X297878Y830318D01*
X297894Y830109D01*
X297900Y829900D01*
X297895Y829691D01*
X297878Y829482D01*
X297851Y829274D01*
X297813Y829068D01*
X297764Y828865D01*
X297704Y828664D01*
X297634Y828466D01*
X297554Y828273D01*
X297464Y828084D01*
X297364Y827900D01*
X297255Y827721D01*
X297136Y827549D01*
X297009Y827383D01*
X296873Y827223D01*
X296728Y827072D01*
X296576Y826927D01*
X296417Y826791D01*
X296251Y826664D01*
X296079Y826545D01*
X295900Y826436D01*
X295716Y826336D01*
X295527Y826246D01*
X295333Y826166D01*
X295136Y826096D01*
X294935Y826036D01*
X294732Y825987D01*
X294526Y825949D01*
X294318Y825922D01*
X294109Y825905D01*
X293900Y825900D01*
X287900D01*
X287691Y825905D01*
X287482Y825922D01*
X287274Y825949D01*
X287068Y825987D01*
X286865Y826036D01*
X286664Y826096D01*
X286467Y826166D01*
X286273Y826246D01*
X286084Y826336D01*
X285900Y826436D01*
X285721Y826545D01*
X285549Y826664D01*
X285383Y826791D01*
X285224Y826927D01*
X285072Y827072D01*
X284927Y827223D01*
X284791Y827383D01*
X284664Y827549D01*
X284545Y827721D01*
X284436Y827900D01*
X284336Y828084D01*
X284246Y828273D01*
X284166Y828466D01*
X284096Y828664D01*
X284036Y828865D01*
X283987Y829068D01*
X283949Y829274D01*
X283922Y829482D01*
X283906Y829691D01*
X283900Y829900D01*
X283906Y830109D01*
X283922Y830318D01*
X283949Y830526D01*
X283987Y830732D01*
X284036Y830935D01*
X284096Y831136D01*
X284166Y831333D01*
X284246Y831527D01*
X284336Y831716D01*
X284436Y831900D01*
X284545Y832078D01*
X284664Y832251D01*
X284792Y832417D01*
X284927Y832577D01*
X285072Y832728D01*
X285224Y832872D01*
X285383Y833008D01*
X285549Y833136D01*
X285721Y833255D01*
X285900Y833364D01*
X286084Y833464D01*
X286273Y833554D01*
X286467Y833634D01*
X286664Y833704D01*
X286865Y833764D01*
X287068Y833813D01*
X287274Y833851D01*
X287482Y833878D01*
X287691Y833895D01*
X287900Y833900D01*
X293900Y833900D01*
X294109Y833895D01*
D02*
G37*
G36*
X564814Y827523D02*
X564853Y827087D01*
X564916Y826702D01*
X565005Y826369D01*
X565119Y826086D01*
X565259Y825854D01*
X565424Y825674D01*
X565615Y825545D01*
X565830Y825466D01*
X566072Y825439D01*
X561631Y825470D01*
X561750Y825495D01*
X561858Y825571D01*
X561953Y825698D01*
X562035Y825876D01*
X562104Y826105D01*
X562161Y826384D01*
X562205Y826714D01*
X562256Y827527D01*
X562262Y828009D01*
X564802D01*
X564814Y827523D01*
D02*
G37*
G36*
X535054Y826505D02*
X534898Y826482D01*
X534729Y826432D01*
X534546Y826355D01*
X534350Y826250D01*
X534140Y826118D01*
X533918Y825958D01*
X533432Y825556D01*
X533169Y825314D01*
X532892Y825045D01*
X530952Y826697D01*
X531151Y826907D01*
X531322Y827112D01*
X531465Y827310D01*
X531579Y827503D01*
X531664Y827690D01*
X531721Y827870D01*
X531750Y828045D01*
X531750Y828213D01*
X531722Y828376D01*
X531665Y828532D01*
X535054Y826505D01*
D02*
G37*
G36*
X528982Y827579D02*
X528797Y827314D01*
X528633Y827041D01*
X528492Y826759D01*
X528372Y826469D01*
X528274Y826170D01*
X528198Y825863D01*
X528144Y825547D01*
X528111Y825223D01*
X528100Y824890D01*
X525560Y824663D01*
X525547Y825001D01*
X525510Y825325D01*
X525447Y825636D01*
X525359Y825934D01*
X525246Y826217D01*
X525108Y826487D01*
X524945Y826743D01*
X524757Y826985D01*
X524544Y827214D01*
X524305Y827429D01*
X529188Y827835D01*
X528982Y827579D01*
D02*
G37*
G36*
X549173Y824219D02*
X548936Y824443D01*
X548689Y824643D01*
X548430Y824820D01*
X548160Y824974D01*
X547879Y825104D01*
X547588Y825210D01*
X547285Y825293D01*
X546971Y825351D01*
X546647Y825387D01*
X546311Y825399D01*
Y827939D01*
X546647Y827951D01*
X546971Y827986D01*
X547285Y828045D01*
X547588Y828128D01*
X547879Y828234D01*
X548160Y828363D01*
X548430Y828517D01*
X548689Y828694D01*
X548936Y828895D01*
X549173Y829119D01*
Y824219D01*
D02*
G37*
G36*
X353609Y830294D02*
X353818Y830278D01*
X354026Y830251D01*
X354232Y830212D01*
X354435Y830164D01*
X354636Y830104D01*
X354833Y830034D01*
X355027Y829954D01*
X355216Y829864D01*
X355400Y829764D01*
X355579Y829655D01*
X355751Y829536D01*
X355917Y829408D01*
X356077Y829273D01*
X356228Y829128D01*
X356373Y828977D01*
X356509Y828817D01*
X356636Y828651D01*
X356755Y828478D01*
X356864Y828300D01*
X356964Y828116D01*
X357054Y827927D01*
X357134Y827733D01*
X357204Y827536D01*
X357264Y827335D01*
X357313Y827132D01*
X357351Y826926D01*
X357378Y826718D01*
X357394Y826509D01*
X357400Y826300D01*
X357394Y826091D01*
X357378Y825882D01*
X357351Y825674D01*
X357313Y825468D01*
X357264Y825265D01*
X357204Y825064D01*
X357134Y824866D01*
X357054Y824673D01*
X356964Y824484D01*
X356864Y824300D01*
X356755Y824121D01*
X356636Y823949D01*
X356509Y823783D01*
X356373Y823623D01*
X356228Y823472D01*
X356077Y823327D01*
X355917Y823191D01*
X355751Y823064D01*
X355578Y822945D01*
X355400Y822836D01*
X355216Y822736D01*
X355027Y822646D01*
X354833Y822566D01*
X354636Y822496D01*
X354435Y822436D01*
X354232Y822387D01*
X354026Y822349D01*
X353818Y822322D01*
X353609Y822305D01*
X353400Y822300D01*
X350400Y822300D01*
X347400Y822300D01*
X347191Y822305D01*
X346982Y822322D01*
X346774Y822349D01*
X346568Y822387D01*
X346365Y822436D01*
X346164Y822496D01*
X345966Y822566D01*
X345773Y822646D01*
X345584Y822736D01*
X345400Y822836D01*
X345221Y822945D01*
X345049Y823064D01*
X344883Y823191D01*
X344724Y823327D01*
X344572Y823472D01*
X344427Y823623D01*
X344291Y823783D01*
X344164Y823949D01*
X344045Y824121D01*
X343936Y824300D01*
X343836Y824484D01*
X343746Y824673D01*
X343666Y824866D01*
X343596Y825064D01*
X343536Y825265D01*
X343487Y825468D01*
X343449Y825674D01*
X343422Y825882D01*
X343405Y826091D01*
X343400Y826300D01*
X343405Y826509D01*
X343422Y826718D01*
X343449Y826926D01*
X343488Y827132D01*
X343536Y827335D01*
X343596Y827536D01*
X343666Y827733D01*
X343746Y827927D01*
X343836Y828116D01*
X343936Y828300D01*
X344045Y828478D01*
X344164Y828651D01*
X344291Y828817D01*
X344427Y828977D01*
X344572Y829128D01*
X344724Y829273D01*
X344883Y829408D01*
X345049Y829536D01*
X345221Y829655D01*
X345400Y829764D01*
X345584Y829864D01*
X345773Y829954D01*
X345966Y830034D01*
X346164Y830104D01*
X346365Y830164D01*
X346568Y830212D01*
X346774Y830251D01*
X346982Y830278D01*
X347191Y830294D01*
X347400Y830300D01*
X353400D01*
X353609Y830294D01*
D02*
G37*
G36*
X358325Y822190D02*
X358464Y821865D01*
X358292Y821000D01*
X358633Y819283D01*
X358389Y818992D01*
X357910Y818532D01*
X346968D01*
Y811468D01*
X347730D01*
Y797770D01*
X347730D01*
Y792230D01*
X347730D01*
Y787230D01*
Y777770D01*
X347730D01*
Y772230D01*
X347730D01*
Y763532D01*
X346968D01*
Y756468D01*
X358032D01*
Y758728D01*
X358027Y758728D01*
X356071Y758602D01*
X355995Y758568D01*
X355970Y758530D01*
Y761469D01*
X355995Y761432D01*
X356071Y761398D01*
X356198Y761368D01*
X356376Y761342D01*
X356884Y761302D01*
X358032Y761279D01*
Y763532D01*
X357270D01*
Y772176D01*
X360426D01*
X361610Y770991D01*
X362064Y770313D01*
X363063Y769645D01*
X364241Y769411D01*
X364730Y769009D01*
Y761032D01*
X363968D01*
Y758772D01*
X363973Y758772D01*
X365929Y758898D01*
X366005Y758932D01*
X366031Y758969D01*
Y756030D01*
X366005Y756068D01*
X365929Y756102D01*
X365802Y756132D01*
X365624Y756158D01*
X365116Y756198D01*
X363968Y756221D01*
Y755684D01*
X363195Y755050D01*
X362900Y755108D01*
X361136Y754758D01*
X359641Y753759D01*
X358642Y752264D01*
X358292Y750500D01*
Y748315D01*
X357344Y747659D01*
X356969Y747718D01*
X356810Y747854D01*
X356773Y747866D01*
X356754Y747899D01*
X356588Y748027D01*
X356551Y748036D01*
X356530Y748069D01*
X356357Y748187D01*
X356319Y748196D01*
X356297Y748227D01*
X356118Y748336D01*
X356080Y748342D01*
X356056Y748372D01*
X355872Y748472D01*
X355834Y748476D01*
X355807Y748505D01*
X355619Y748595D01*
X355580Y748597D01*
X355553Y748624D01*
X355359Y748704D01*
X355321D01*
X355292Y748730D01*
X355095Y748800D01*
X355056Y748798D01*
X355027Y748822D01*
X354826Y748882D01*
X354787Y748878D01*
X354756Y748900D01*
X354553Y748949D01*
X354515Y748943D01*
X354482Y748964D01*
X354276Y749002D01*
X354239Y748994D01*
X354205Y749014D01*
X353997Y749041D01*
X353960Y749031D01*
X353926Y749048D01*
X353717Y749065D01*
X353681Y749053D01*
X353645Y749069D01*
X353436Y749074D01*
X353422Y749069D01*
X353406Y749072D01*
X353400Y749075D01*
X347400D01*
X347393Y749072D01*
X347378Y749069D01*
X347364Y749074D01*
X347155Y749069D01*
X347119Y749053D01*
X347083Y749065D01*
X346874Y749048D01*
X346840Y749031D01*
X346802Y749041D01*
X346595Y749014D01*
X346562Y748994D01*
X346524Y749002D01*
X346318Y748964D01*
X346286Y748943D01*
X346247Y748949D01*
X346044Y748900D01*
X346013Y748878D01*
X345974Y748882D01*
X345774Y748822D01*
X345632Y748840D01*
X345024Y749175D01*
X344812Y749416D01*
X344775Y749499D01*
Y820501D01*
X344812Y820584D01*
X345024Y820824D01*
X345632Y821160D01*
X345774Y821178D01*
X345974Y821118D01*
X346013Y821122D01*
X346044Y821100D01*
X346247Y821051D01*
X346286Y821057D01*
X346318Y821036D01*
X346524Y820998D01*
X346562Y821006D01*
X346595Y820986D01*
X346802Y820959D01*
X346840Y820969D01*
X346874Y820952D01*
X347083Y820935D01*
X347119Y820947D01*
X347155Y820931D01*
X347364Y820926D01*
X347378Y820931D01*
X347393Y820928D01*
X347400Y820925D01*
X350400Y820925D01*
X353400Y820925D01*
X353406Y820928D01*
X353422Y820931D01*
X353436Y820926D01*
X353645Y820931D01*
X353681Y820947D01*
X353717Y820935D01*
X353926Y820952D01*
X353960Y820969D01*
X353997Y820959D01*
X354205Y820986D01*
X354239Y821006D01*
X354276Y820998D01*
X354482Y821036D01*
X354515Y821057D01*
X354553Y821051D01*
X354756Y821100D01*
X354787Y821122D01*
X354826Y821118D01*
X355027Y821178D01*
X355056Y821202D01*
X355095Y821200D01*
X355292Y821270D01*
X355321Y821296D01*
X355359D01*
X355553Y821376D01*
X355580Y821403D01*
X355619Y821405D01*
X355807Y821495D01*
X355834Y821524D01*
X355872Y821528D01*
X356056Y821628D01*
X356080Y821658D01*
X356118Y821664D01*
X356297Y821773D01*
X356319Y821804D01*
X356357Y821812D01*
X356530Y821931D01*
X356551Y821963D01*
X356588Y821973D01*
X356754Y822101D01*
X356773Y822134D01*
X356810Y822146D01*
X356969Y822282D01*
X356987Y822316D01*
X357023Y822330D01*
X357175Y822474D01*
X357181Y822488D01*
X357200Y822501D01*
X357212Y822519D01*
X357226Y822525D01*
X357370Y822677D01*
X357619Y822746D01*
X358325Y822190D01*
D02*
G37*
G36*
X642020Y829310D02*
X642730Y828593D01*
X643438Y827961D01*
X644144Y827412D01*
X644847Y826948D01*
X645548Y826569D01*
X646247Y826274D01*
X646944Y826063D01*
X647639Y825936D01*
X648331Y825894D01*
Y822846D01*
X647639Y822804D01*
X646944Y822677D01*
X646247Y822467D01*
X645548Y822171D01*
X644847Y821792D01*
X644144Y821328D01*
X643438Y820780D01*
X642730Y820147D01*
X642020Y819430D01*
X641308Y818629D01*
Y830111D01*
X642020Y829310D01*
D02*
G37*
G36*
X567399Y819535D02*
X567183Y819458D01*
X566992Y819330D01*
X566827Y819150D01*
X566688Y818918D01*
X566573Y818636D01*
X566484Y818301D01*
X566421Y817916D01*
X566383Y817479D01*
X566370Y816991D01*
X563830D01*
X563817Y817479D01*
X563779Y817916D01*
X563716Y818301D01*
X563627Y818636D01*
X563512Y818918D01*
X563373Y819150D01*
X563208Y819330D01*
X563017Y819458D01*
X562801Y819535D01*
X562560Y819561D01*
X567640D01*
X567399Y819535D01*
D02*
G37*
G36*
X355995Y816388D02*
X356071Y816315D01*
X356198Y816250D01*
X356375Y816195D01*
X356603Y816147D01*
X356882Y816109D01*
X357591Y816057D01*
X358503Y816040D01*
Y813500D01*
X355970Y813530D01*
Y816469D01*
X355995Y816388D01*
D02*
G37*
G36*
X673621Y821796D02*
X673504Y819649D01*
X673546Y818687D01*
X673656Y817799D01*
X673833Y816985D01*
X674077Y816245D01*
X674389Y815580D01*
X674767Y814989D01*
X675213Y814472D01*
X672734Y812640D01*
X672292Y813023D01*
X671749Y813385D01*
X671106Y813727D01*
X670362Y814049D01*
X669517Y814351D01*
X668572Y814634D01*
X666381Y815138D01*
X663787Y815563D01*
X673781Y822981D01*
X673621Y821796D01*
D02*
G37*
G36*
X387229Y815073D02*
X387013Y814995D01*
X386822Y814865D01*
X386657Y814685D01*
X386517Y814453D01*
X386403Y814171D01*
X386314Y813837D01*
X386251Y813453D01*
X386213Y813017D01*
X386200Y812531D01*
X383660D01*
X383690Y815070D01*
X387470Y815101D01*
X387229Y815073D01*
D02*
G37*
G36*
X366031Y811030D02*
X366005Y811073D01*
X365929Y811111D01*
X365802Y811144D01*
X365624Y811173D01*
X365396Y811198D01*
X364405Y811245D01*
X363490Y811254D01*
Y813793D01*
X363973Y813795D01*
X365929Y813906D01*
X366005Y813936D01*
X366031Y813969D01*
Y811030D01*
D02*
G37*
G36*
X566383Y812527D02*
X566421Y812095D01*
X566484Y811714D01*
X566573Y811384D01*
X566688Y811105D01*
X566827Y810876D01*
X566992Y810698D01*
X567183Y810571D01*
X567399Y810495D01*
X567640Y810470D01*
X562560D01*
X562801Y810495D01*
X563017Y810571D01*
X563208Y810698D01*
X563373Y810876D01*
X563512Y811105D01*
X563627Y811384D01*
X563716Y811714D01*
X563779Y812095D01*
X563817Y812527D01*
X563830Y813009D01*
X566370D01*
X566383Y812527D01*
D02*
G37*
G36*
X355995Y801432D02*
X356071Y801398D01*
X356198Y801368D01*
X356376Y801342D01*
X356884Y801302D01*
X358509Y801270D01*
Y798730D01*
X358027Y798728D01*
X356071Y798602D01*
X355995Y798568D01*
X355970Y798531D01*
Y801469D01*
X355995Y801432D01*
D02*
G37*
G36*
X372990Y798925D02*
X373051Y798886D01*
X373152Y798851D01*
X373294Y798821D01*
X373477Y798795D01*
X373965Y798758D01*
X375000Y798737D01*
Y796197D01*
X374614Y796195D01*
X373051Y796090D01*
X372990Y796062D01*
X372970Y796031D01*
Y798969D01*
X372990Y798925D01*
D02*
G37*
G36*
X366031Y796031D02*
X366014Y796089D01*
X365964Y796141D01*
X365882Y796187D01*
X365766Y796227D01*
X365617Y796261D01*
X365435Y796289D01*
X364972Y796326D01*
X364377Y796338D01*
Y798878D01*
X364691Y798879D01*
X366014Y798952D01*
X366031Y798969D01*
Y796031D01*
D02*
G37*
G36*
X576075Y837328D02*
Y828343D01*
X576272Y827352D01*
X576834Y826512D01*
X587050Y816295D01*
Y811770D01*
X577330D01*
Y800270D01*
X577280Y800020D01*
Y795604D01*
X577256Y795547D01*
X577225Y793007D01*
X577229Y792999D01*
X577225Y792990D01*
X577229Y792981D01*
X571337Y787090D01*
X571268D01*
X571145Y787144D01*
X570699Y787156D01*
X570356Y787186D01*
X570088Y787230D01*
X569900Y787280D01*
X569870Y787292D01*
Y788770D01*
X560330D01*
Y785594D01*
X559330Y785180D01*
X557107Y787403D01*
X556738Y787649D01*
X555861Y788526D01*
X555667Y788817D01*
X555544Y788899D01*
Y790101D01*
X555667Y790183D01*
X556224Y791017D01*
X556419Y792000D01*
X556224Y792983D01*
X555667Y793817D01*
X555544Y793899D01*
Y795101D01*
X555667Y795183D01*
X556224Y796017D01*
X556419Y797000D01*
X556224Y797983D01*
X555667Y798817D01*
X555544Y798899D01*
Y800101D01*
X555667Y800183D01*
X556224Y801017D01*
X556419Y802000D01*
X556224Y802983D01*
X555667Y803817D01*
X555544Y803899D01*
Y805101D01*
X555667Y805183D01*
X556224Y806017D01*
X556419Y807000D01*
X556224Y807983D01*
X555667Y808817D01*
X554833Y809374D01*
X553850Y809569D01*
X546350D01*
X545367Y809374D01*
X544705Y809505D01*
X544565Y809715D01*
X544356Y809855D01*
X544224Y810517D01*
X544419Y811500D01*
Y819000D01*
X544224Y819983D01*
X543667Y820817D01*
X543497Y820930D01*
X543363Y822210D01*
X545232Y824079D01*
X546144D01*
X546263Y824025D01*
X546548Y824015D01*
X546769Y823991D01*
X546977Y823952D01*
X547171Y823899D01*
X547355Y823832D01*
X547531Y823750D01*
X547701Y823654D01*
X547867Y823540D01*
X548030Y823408D01*
X548228Y823221D01*
X548274Y823203D01*
X549811Y822176D01*
X551673Y821805D01*
X553534Y822176D01*
X555112Y823230D01*
X556166Y824808D01*
X556536Y826669D01*
X556166Y828530D01*
X555112Y830108D01*
X553534Y831162D01*
X551673Y831532D01*
X549811Y831162D01*
X548274Y830134D01*
X548228Y830117D01*
X548030Y829929D01*
X547867Y829797D01*
X547701Y829684D01*
X547531Y829587D01*
X547355Y829506D01*
X547171Y829439D01*
X546977Y829386D01*
X546769Y829347D01*
X546548Y829323D01*
X546263Y829313D01*
X546144Y829258D01*
X544159D01*
X543168Y829061D01*
X542328Y828500D01*
X536229Y822401D01*
X535667Y821561D01*
X535409Y821553D01*
X534440Y822440D01*
Y824606D01*
X534757Y824868D01*
X534908Y824977D01*
X535042Y825061D01*
X535140Y825114D01*
X535193Y825136D01*
X535252Y825145D01*
X535281Y825162D01*
X535288Y825164D01*
X535297Y825172D01*
X535316Y825183D01*
X535389Y825172D01*
X535521Y825270D01*
X536704Y825506D01*
X538282Y826560D01*
X539337Y828138D01*
X539697Y829952D01*
X539717Y829996D01*
X539725Y830269D01*
X539747Y830478D01*
X539784Y830676D01*
X539836Y830864D01*
X539902Y831046D01*
X539985Y831224D01*
X540085Y831398D01*
X540204Y831572D01*
X540344Y831746D01*
X540538Y831955D01*
X540584Y832077D01*
X541267Y832760D01*
X556419D01*
X560942Y828237D01*
Y828155D01*
X560887Y828028D01*
X560881Y827579D01*
X560836Y826848D01*
X560826Y826770D01*
X560330D01*
Y825655D01*
X560256Y825479D01*
X560314Y825336D01*
X560286Y825185D01*
X560330Y825120D01*
Y818230D01*
X562308D01*
X562320Y818200D01*
X562370Y818012D01*
X562414Y817744D01*
X562444Y817402D01*
X562456Y816955D01*
X562510Y816833D01*
Y813168D01*
X562456Y813046D01*
X562444Y812606D01*
X562415Y812269D01*
X562371Y812006D01*
X562322Y811825D01*
X562301Y811774D01*
X562293Y811770D01*
X559830D01*
Y794230D01*
X570870D01*
Y811770D01*
X567907D01*
X567899Y811774D01*
X567878Y811825D01*
X567829Y812006D01*
X567785Y812269D01*
X567756Y812606D01*
X567744Y813046D01*
X567690Y813168D01*
Y816833D01*
X567744Y816955D01*
X567756Y817402D01*
X567786Y817744D01*
X567830Y818012D01*
X567880Y818200D01*
X567892Y818230D01*
X569870D01*
Y826770D01*
X566325D01*
X566311Y826805D01*
X566262Y826992D01*
X566217Y827259D01*
X566188Y827600D01*
X566176Y828045D01*
X566122Y828168D01*
Y829310D01*
X565924Y830301D01*
X565363Y831141D01*
X560235Y836269D01*
X560689Y837230D01*
X569870D01*
Y842227D01*
X570794Y842610D01*
X576075Y837328D01*
D02*
G37*
G36*
X582169Y795533D02*
X581953Y795455D01*
X581762Y795325D01*
X581597Y795145D01*
X581457Y794913D01*
X581343Y794631D01*
X581254Y794297D01*
X581191Y793913D01*
X581153Y793477D01*
X581140Y792990D01*
X578600D01*
X578630Y795530D01*
X582410Y795561D01*
X582169Y795533D01*
D02*
G37*
G36*
X375509Y791460D02*
X375027Y791456D01*
X373605Y791353D01*
X373376Y791305D01*
X373198Y791249D01*
X373071Y791185D01*
X372995Y791112D01*
X372970Y791030D01*
Y793969D01*
X372995Y793975D01*
X373071Y793980D01*
X374214Y793997D01*
X375509Y794000D01*
Y791460D01*
D02*
G37*
G36*
X355987Y791405D02*
X356039Y791347D01*
X356126Y791297D01*
X356247Y791253D01*
X356403Y791215D01*
X356468Y791205D01*
X356475Y791209D01*
X356475Y791204D01*
X356594Y791185D01*
X356819Y791161D01*
X357374Y791134D01*
X357704Y791131D01*
Y788845D01*
X357374Y788841D01*
X356458Y788770D01*
X356457Y788759D01*
X356441Y788769D01*
X356403Y788766D01*
X356247Y788731D01*
X356126Y788691D01*
X356039Y788643D01*
X355987Y788590D01*
X355970Y788530D01*
Y788832D01*
X355330Y788845D01*
X355352Y791131D01*
X355551Y791131D01*
X355970Y791155D01*
Y791469D01*
X355987Y791405D01*
D02*
G37*
G36*
X643417Y797543D02*
X643561Y795158D01*
X643697Y794111D01*
X643875Y793162D01*
X644097Y792310D01*
X644361Y791555D01*
X644669Y790898D01*
X645019Y790338D01*
X645412Y789875D01*
X643615Y788079D01*
X643152Y788471D01*
X642592Y788821D01*
X641935Y789129D01*
X641180Y789393D01*
X640328Y789615D01*
X639379Y789793D01*
X638332Y789929D01*
X635947Y790073D01*
X634609Y790080D01*
X643410Y798881D01*
X643417Y797543D01*
D02*
G37*
G36*
X366031Y786030D02*
X366008Y786093D01*
X365939Y786148D01*
X365825Y786197D01*
X365665Y786239D01*
X365459Y786275D01*
X365208Y786305D01*
X364567Y786344D01*
X363745Y786357D01*
Y788643D01*
X364179Y788646D01*
X365459Y788725D01*
X365665Y788761D01*
X365825Y788803D01*
X365939Y788852D01*
X366008Y788907D01*
X366031Y788969D01*
Y786030D01*
D02*
G37*
G36*
X372958Y788767D02*
X373012Y788666D01*
X373101Y788577D01*
X373225Y788500D01*
X373384Y788434D01*
X373578Y788381D01*
X373808Y788339D01*
X374072Y788310D01*
X374372Y788292D01*
X374706Y788286D01*
Y786000D01*
X372970Y786030D01*
X372939Y788880D01*
X372958Y788767D01*
D02*
G37*
G36*
X355992Y786407D02*
X356061Y786352D01*
X356175Y786303D01*
X356335Y786261D01*
X356541Y786225D01*
X356792Y786195D01*
X357433Y786156D01*
X358256Y786143D01*
Y783857D01*
X357821Y783854D01*
X356541Y783775D01*
X356335Y783739D01*
X356175Y783697D01*
X356061Y783648D01*
X355992Y783593D01*
X355970Y783530D01*
Y786469D01*
X355992Y786407D01*
D02*
G37*
G36*
X568565Y786799D02*
X568642Y786583D01*
X568770Y786392D01*
X568950Y786227D01*
X569182Y786087D01*
X569464Y785973D01*
X569799Y785884D01*
X570184Y785821D01*
X570621Y785783D01*
X571110Y785770D01*
Y783230D01*
X570621Y783217D01*
X570184Y783179D01*
X569799Y783116D01*
X569464Y783027D01*
X569182Y782913D01*
X568950Y782773D01*
X568770Y782608D01*
X568642Y782417D01*
X568565Y782201D01*
X568539Y781960D01*
Y787040D01*
X568565Y786799D01*
D02*
G37*
G36*
X374706Y781714D02*
X374372Y781708D01*
X373808Y781661D01*
X373578Y781619D01*
X373384Y781565D01*
X373225Y781500D01*
X373101Y781423D01*
X373012Y781334D01*
X372958Y781233D01*
X372939Y781120D01*
X372970Y783969D01*
X372987Y783975D01*
X373039Y783980D01*
X373247Y783989D01*
X374706Y784000D01*
Y781714D01*
D02*
G37*
G36*
X366031Y783640D02*
X366221Y783629D01*
X366761Y783622D01*
X366797Y781336D01*
X366598Y781335D01*
X366031Y781299D01*
Y781030D01*
X366015Y781089D01*
X365966Y781141D01*
X365886Y781186D01*
X365774Y781226D01*
X365671Y781250D01*
X365668Y781248D01*
X365668Y781251D01*
X365629Y781260D01*
X365452Y781287D01*
X365244Y781309D01*
X364730Y781333D01*
X364425Y781336D01*
Y783622D01*
X364730Y783626D01*
X365452Y783678D01*
X365629Y783709D01*
X365774Y783747D01*
X365886Y783792D01*
X365966Y783845D01*
X366015Y783904D01*
X366031Y783969D01*
Y783640D01*
D02*
G37*
G36*
X495533Y783818D02*
X495781Y783703D01*
X496088Y783601D01*
X496454Y783513D01*
X496877Y783439D01*
X497899Y783331D01*
X499155Y783277D01*
X499870Y783270D01*
Y780730D01*
X499155Y780723D01*
X496877Y780561D01*
X496454Y780487D01*
X496088Y780399D01*
X495781Y780297D01*
X495533Y780182D01*
X495342Y780054D01*
Y783946D01*
X495533Y783818D01*
D02*
G37*
G36*
X355986Y781424D02*
X356035Y781384D01*
X356116Y781349D01*
X356231Y781318D01*
X356378Y781292D01*
X356557Y781271D01*
X357014Y781242D01*
X357602Y781233D01*
Y778693D01*
X357292Y778691D01*
X356116Y778613D01*
X356035Y778589D01*
X355986Y778561D01*
X355970Y778530D01*
Y781469D01*
X355986Y781424D01*
D02*
G37*
G36*
X590366Y777970D02*
X589860Y777446D01*
X589063Y776508D01*
X588773Y776094D01*
X588554Y775717D01*
X588408Y775376D01*
X588333Y775071D01*
X588330Y774804D01*
X588398Y774572D01*
X588539Y774377D01*
X584977Y777939D01*
X585172Y777798D01*
X585404Y777730D01*
X585672Y777733D01*
X585976Y777808D01*
X586317Y777954D01*
X586694Y778173D01*
X587108Y778463D01*
X587559Y778826D01*
X588569Y779766D01*
X590366Y777970D01*
D02*
G37*
G36*
X498382Y777488D02*
X498971Y777879D01*
X501219Y775787D01*
X501019Y775923D01*
X500785Y775989D01*
X500518Y775987D01*
X500216Y775915D01*
X499881Y775774D01*
X499512Y775564D01*
X499347Y775449D01*
X499329Y775408D01*
X499265Y775232D01*
X499210Y775044D01*
X499163Y774844D01*
X499093Y774407D01*
X498615Y774885D01*
X498202Y774518D01*
X497697Y774031D01*
X495956Y775882D01*
X495977Y775893D01*
X496060Y775945D01*
X496958Y776542D01*
X496277Y777223D01*
X496502Y777254D01*
X496914Y777340D01*
X497102Y777395D01*
X497278Y777459D01*
X497441Y777530D01*
X497592Y777610D01*
X497731Y777698D01*
X497858Y777794D01*
X497972Y777898D01*
X498382Y777488D01*
D02*
G37*
G36*
X732456Y776251D02*
X733576Y775303D01*
X734072Y774958D01*
X734525Y774699D01*
X734934Y774527D01*
X735301Y774441D01*
X735624D01*
X735904Y774527D01*
X736141Y774699D01*
X731831Y770389D01*
X732003Y770626D01*
X732089Y770906D01*
Y771229D01*
X732003Y771596D01*
X731831Y772005D01*
X731572Y772458D01*
X731227Y772954D01*
X730796Y773493D01*
X729675Y774699D01*
X731831Y776855D01*
X732456Y776251D01*
D02*
G37*
G36*
X510637Y769603D02*
X510753Y769624D01*
X510883Y769659D01*
X510984Y769698D01*
X511056Y769741D01*
Y767759D01*
X510984Y767802D01*
X510883Y767841D01*
X510753Y767876D01*
X510637Y767897D01*
Y767226D01*
X510621Y767371D01*
X510575Y767500D01*
X510497Y767615D01*
X510388Y767714D01*
X510248Y767797D01*
X510078Y767866D01*
X509875Y767919D01*
X509642Y767958D01*
X509378Y767980D01*
X509350Y767981D01*
X509169Y767769D01*
X509074Y767639D01*
X508998Y767517D01*
X508941Y767404D01*
X508902Y767299D01*
X508882Y767203D01*
X508881Y767115D01*
X508899Y767036D01*
X507456Y768827D01*
X507529Y768792D01*
X507609Y768775D01*
X507696Y768776D01*
X507789Y768796D01*
X507889Y768833D01*
X507995Y768888D01*
X508108Y768961D01*
X508228Y769053D01*
X508354Y769162D01*
X508487Y769289D01*
X509026Y768750D01*
Y769512D01*
X509103Y769513D01*
X509378Y769520D01*
X509642Y769542D01*
X509875Y769581D01*
X510078Y769634D01*
X510248Y769703D01*
X510388Y769786D01*
X510497Y769885D01*
X510575Y770000D01*
X510621Y770129D01*
X510637Y770274D01*
Y769603D01*
D02*
G37*
G36*
X570366Y768469D02*
X569860Y767946D01*
X569063Y767008D01*
X568773Y766594D01*
X568554Y766217D01*
X568408Y765876D01*
X568333Y765572D01*
X568330Y765304D01*
X568398Y765072D01*
X568539Y764877D01*
X564977Y768439D01*
X565172Y768298D01*
X565404Y768230D01*
X565672Y768233D01*
X565976Y768308D01*
X566317Y768454D01*
X566694Y768673D01*
X567108Y768963D01*
X567559Y769325D01*
X568569Y770266D01*
X570366Y768469D01*
D02*
G37*
G36*
X745770Y774024D02*
X745862Y773764D01*
X746016Y773536D01*
X746232Y773338D01*
X746509Y773170D01*
X746847Y773033D01*
X747247Y772926D01*
X747709Y772850D01*
X748233Y772804D01*
X748818Y772789D01*
Y769741D01*
X748233Y769726D01*
X747709Y769680D01*
X747247Y769604D01*
X746847Y769497D01*
X746509Y769360D01*
X746232Y769192D01*
X746016Y768994D01*
X745862Y768766D01*
X745770Y768507D01*
X745739Y768217D01*
Y774313D01*
X745770Y774024D01*
D02*
G37*
G36*
X470031Y759530D02*
X469980Y759850D01*
X469827Y760135D01*
X469573Y760387D01*
X469218Y760605D01*
X468760Y760790D01*
X468202Y760941D01*
X467541Y761059D01*
X466779Y761143D01*
X466222Y761163D01*
X464959Y761059D01*
X464298Y760941D01*
X463740Y760790D01*
X463282Y760605D01*
X462927Y760387D01*
X462673Y760135D01*
X462520Y759850D01*
X462469Y759530D01*
Y767970D01*
X462520Y767651D01*
X462673Y767365D01*
X462927Y767113D01*
X463282Y766895D01*
X463740Y766710D01*
X464298Y766559D01*
X464959Y766441D01*
X465721Y766357D01*
X466278Y766337D01*
X467541Y766441D01*
X468202Y766559D01*
X468760Y766710D01*
X469218Y766895D01*
X469573Y767113D01*
X469827Y767365D01*
X469980Y767651D01*
X470031Y767970D01*
Y759530D01*
D02*
G37*
G36*
X797039Y765832D02*
X796074Y766574D01*
X793441Y768334D01*
X792652Y768764D01*
X791907Y769116D01*
X791206Y769389D01*
X790549Y769585D01*
X789936Y769702D01*
X789367Y769741D01*
X788975Y772789D01*
X789616Y772834D01*
X790262Y772969D01*
X790913Y773194D01*
X791568Y773509D01*
X792227Y773914D01*
X792891Y774409D01*
X793559Y774995D01*
X794232Y775670D01*
X794909Y776435D01*
X795590Y777290D01*
X797039Y765832D01*
D02*
G37*
G36*
X834114Y703770D02*
X277990D01*
Y746125D01*
X284899D01*
X285189Y745916D01*
X285570Y745125D01*
X285452Y744915D01*
X285182Y744736D01*
X285003Y744627D01*
X284981Y744596D01*
X284943Y744587D01*
X284770Y744469D01*
X284749Y744436D01*
X284712Y744427D01*
X284546Y744299D01*
X284527Y744266D01*
X284490Y744254D01*
X284331Y744118D01*
X284313Y744083D01*
X284277Y744070D01*
X284125Y743925D01*
X284119Y743912D01*
X284100Y743899D01*
X284088Y743881D01*
X284075Y743875D01*
X283930Y743723D01*
X283917Y743687D01*
X283882Y743669D01*
X283746Y743510D01*
X283734Y743473D01*
X283701Y743454D01*
X283573Y743288D01*
X283563Y743251D01*
X283531Y743230D01*
X283412Y743057D01*
X283405Y743019D01*
X283373Y742997D01*
X283264Y742818D01*
X283258Y742780D01*
X283228Y742756D01*
X283128Y742572D01*
X283124Y742533D01*
X283095Y742508D01*
X283005Y742319D01*
X283003Y742280D01*
X282976Y742253D01*
X282896Y742059D01*
Y742021D01*
X282870Y741993D01*
X282800Y741795D01*
X282802Y741756D01*
X282778Y741726D01*
X282718Y741525D01*
X282722Y741487D01*
X282700Y741456D01*
X282651Y741253D01*
X282657Y741214D01*
X282636Y741182D01*
X282598Y740976D01*
X282606Y740938D01*
X282586Y740905D01*
X282559Y740698D01*
X282569Y740660D01*
X282551Y740626D01*
X282535Y740417D01*
X282547Y740380D01*
X282531Y740345D01*
X282526Y740136D01*
X282531Y740122D01*
X282527Y740100D01*
X282531Y740078D01*
X282526Y740064D01*
X282531Y739855D01*
X282547Y739819D01*
X282535Y739783D01*
X282551Y739574D01*
X282569Y739539D01*
X282559Y739502D01*
X282586Y739295D01*
X282606Y739261D01*
X282598Y739224D01*
X282636Y739018D01*
X282657Y738986D01*
X282651Y738947D01*
X282700Y738744D01*
X282722Y738713D01*
X282718Y738675D01*
X282778Y738474D01*
X282802Y738444D01*
X282800Y738405D01*
X282870Y738207D01*
X282896Y738179D01*
Y738141D01*
X282976Y737947D01*
X283003Y737920D01*
X283005Y737881D01*
X283095Y737692D01*
X283124Y737666D01*
X283128Y737628D01*
X283228Y737444D01*
X283258Y737420D01*
X283264Y737382D01*
X283373Y737203D01*
X283405Y737180D01*
X283412Y737143D01*
X283531Y736970D01*
X283563Y736949D01*
X283573Y736912D01*
X283701Y736746D01*
X283734Y736727D01*
X283746Y736690D01*
X283882Y736531D01*
X283916Y736513D01*
X283930Y736477D01*
X284075Y736325D01*
X284088Y736319D01*
X284100Y736301D01*
X284119Y736288D01*
X284125Y736274D01*
X284277Y736130D01*
X284313Y736116D01*
X284331Y736082D01*
X284490Y735946D01*
X284527Y735934D01*
X284546Y735901D01*
X284712Y735773D01*
X284749Y735763D01*
X284770Y735731D01*
X284943Y735612D01*
X284981Y735604D01*
X285003Y735573D01*
X285182Y735464D01*
X285220Y735458D01*
X285244Y735428D01*
X285428Y735328D01*
X285466Y735324D01*
X285492Y735295D01*
X285681Y735205D01*
X285720Y735203D01*
X285747Y735176D01*
X285941Y735096D01*
X285979D01*
X286008Y735070D01*
X286205Y735000D01*
X286243Y735002D01*
X286273Y734978D01*
X286474Y734918D01*
X286513Y734922D01*
X286544Y734900D01*
X286747Y734851D01*
X286786Y734857D01*
X286818Y734836D01*
X287024Y734798D01*
X287062Y734806D01*
X287095Y734786D01*
X287302Y734759D01*
X287340Y734769D01*
X287374Y734752D01*
X287583Y734735D01*
X287619Y734747D01*
X287655Y734731D01*
X287864Y734726D01*
X287878Y734731D01*
X287894Y734728D01*
X287900Y734725D01*
X293900D01*
X293906Y734728D01*
X293922Y734731D01*
X293936Y734726D01*
X294145Y734731D01*
X294181Y734747D01*
X294217Y734735D01*
X294426Y734752D01*
X294460Y734769D01*
X294498Y734759D01*
X294705Y734786D01*
X294739Y734806D01*
X294776Y734798D01*
X294982Y734836D01*
X295014Y734857D01*
X295053Y734851D01*
X295256Y734900D01*
X295287Y734922D01*
X295326Y734918D01*
X295527Y734978D01*
X295557Y735002D01*
X295595Y735000D01*
X295792Y735070D01*
X295821Y735096D01*
X295860D01*
X296053Y735176D01*
X296080Y735203D01*
X296119Y735205D01*
X296308Y735295D01*
X296334Y735324D01*
X296372Y735328D01*
X296556Y735428D01*
X296580Y735458D01*
X296618Y735464D01*
X296797Y735573D01*
X296819Y735604D01*
X296857Y735612D01*
X297030Y735731D01*
X297051Y735763D01*
X297088Y735773D01*
X297254Y735901D01*
X297273Y735934D01*
X297310Y735946D01*
X297469Y736082D01*
X297487Y736116D01*
X297523Y736130D01*
X297675Y736274D01*
X297681Y736288D01*
X297700Y736301D01*
X297712Y736319D01*
X297726Y736325D01*
X297870Y736477D01*
X297883Y736513D01*
X297918Y736531D01*
X298054Y736690D01*
X298066Y736727D01*
X298099Y736746D01*
X298227Y736912D01*
X298237Y736949D01*
X298269Y736970D01*
X298388Y737143D01*
X298396Y737180D01*
X298427Y737203D01*
X298536Y737382D01*
X298542Y737420D01*
X298572Y737444D01*
X298672Y737628D01*
X298676Y737666D01*
X298705Y737692D01*
X298795Y737881D01*
X298797Y737920D01*
X298824Y737947D01*
X298904Y738140D01*
Y738179D01*
X298930Y738208D01*
X299000Y738405D01*
X298998Y738444D01*
X299022Y738473D01*
X299082Y738674D01*
X299078Y738713D01*
X299100Y738744D01*
X299149Y738948D01*
X299143Y738986D01*
X299164Y739018D01*
X299202Y739224D01*
X299194Y739261D01*
X299214Y739295D01*
X299241Y739502D01*
X299231Y739540D01*
X299249Y739574D01*
X299265Y739783D01*
X299253Y739819D01*
X299269Y739855D01*
X299274Y740064D01*
X299269Y740078D01*
X299273Y740100D01*
X299269Y740122D01*
X299274Y740136D01*
X299269Y740345D01*
X299253Y740380D01*
X299265Y740417D01*
X299249Y740626D01*
X299231Y740660D01*
X299241Y740698D01*
X299214Y740905D01*
X299194Y740939D01*
X299202Y740976D01*
X299164Y741182D01*
X299143Y741214D01*
X299149Y741252D01*
X299100Y741456D01*
X299078Y741487D01*
X299082Y741526D01*
X299022Y741727D01*
X298998Y741757D01*
X299000Y741795D01*
X298930Y741992D01*
X298904Y742021D01*
Y742059D01*
X298824Y742253D01*
X298797Y742280D01*
X298795Y742319D01*
X298705Y742508D01*
X298676Y742533D01*
X298672Y742572D01*
X298572Y742756D01*
X298542Y742780D01*
X298536Y742818D01*
X298427Y742997D01*
X298396Y743019D01*
X298388Y743057D01*
X298269Y743230D01*
X298237Y743251D01*
X298227Y743288D01*
X298099Y743454D01*
X298066Y743473D01*
X298054Y743510D01*
X297918Y743669D01*
X297884Y743687D01*
X297870Y743723D01*
X297726Y743875D01*
X297712Y743881D01*
X297700Y743899D01*
X297681Y743912D01*
X297675Y743926D01*
X297523Y744070D01*
X297487Y744083D01*
X297469Y744118D01*
X297310Y744254D01*
X297273Y744266D01*
X297254Y744299D01*
X297088Y744427D01*
X297051Y744437D01*
X297030Y744469D01*
X296857Y744587D01*
X296819Y744596D01*
X296797Y744627D01*
X296618Y744736D01*
X296348Y744915D01*
X296230Y745125D01*
X296612Y745916D01*
X296901Y746125D01*
X341506D01*
X341706Y746021D01*
X341870Y745848D01*
X342218Y745126D01*
X342222Y745087D01*
X342200Y745056D01*
X342151Y744852D01*
X342157Y744814D01*
X342136Y744782D01*
X342098Y744576D01*
X342106Y744538D01*
X342086Y744505D01*
X342059Y744297D01*
X342069Y744260D01*
X342052Y744226D01*
X342035Y744017D01*
X342047Y743980D01*
X342031Y743945D01*
X342026Y743736D01*
X342031Y743722D01*
X342027Y743700D01*
X342031Y743678D01*
X342026Y743664D01*
X342031Y743455D01*
X342047Y743419D01*
X342035Y743383D01*
X342052Y743174D01*
X342069Y743140D01*
X342059Y743102D01*
X342086Y742895D01*
X342106Y742861D01*
X342098Y742823D01*
X342136Y742617D01*
X342157Y742586D01*
X342151Y742548D01*
X342200Y742344D01*
X342222Y742313D01*
X342218Y742274D01*
X342278Y742073D01*
X342302Y742044D01*
X342300Y742005D01*
X342370Y741808D01*
X342396Y741779D01*
Y741740D01*
X342476Y741547D01*
X342503Y741520D01*
X342505Y741481D01*
X342595Y741292D01*
X342624Y741266D01*
X342628Y741228D01*
X342728Y741044D01*
X342758Y741020D01*
X342764Y740982D01*
X342873Y740803D01*
X342904Y740781D01*
X342912Y740743D01*
X343031Y740570D01*
X343063Y740549D01*
X343073Y740512D01*
X343201Y740346D01*
X343234Y740327D01*
X343246Y740290D01*
X343382Y740131D01*
X343416Y740113D01*
X343430Y740077D01*
X343574Y739925D01*
X343588Y739919D01*
X343601Y739901D01*
X343619Y739888D01*
X343625Y739874D01*
X343777Y739730D01*
X343813Y739716D01*
X343831Y739682D01*
X343990Y739546D01*
X344026Y739534D01*
X344046Y739501D01*
X344212Y739373D01*
X344249Y739363D01*
X344270Y739331D01*
X344443Y739212D01*
X344481Y739204D01*
X344503Y739173D01*
X344682Y739064D01*
X344720Y739058D01*
X344744Y739028D01*
X344928Y738928D01*
X344966Y738924D01*
X344992Y738895D01*
X345181Y738805D01*
X345220Y738803D01*
X345247Y738776D01*
X345440Y738696D01*
X345479D01*
X345508Y738670D01*
X345705Y738600D01*
X345744Y738602D01*
X345774Y738578D01*
X345974Y738518D01*
X346013Y738522D01*
X346044Y738500D01*
X346248Y738451D01*
X346286Y738457D01*
X346318Y738436D01*
X346524Y738398D01*
X346561Y738406D01*
X346595Y738386D01*
X346802Y738359D01*
X346840Y738369D01*
X346874Y738352D01*
X347083Y738335D01*
X347119Y738347D01*
X347155Y738331D01*
X347364Y738326D01*
X347378Y738331D01*
X347393Y738328D01*
X347400Y738325D01*
X353400D01*
X353407Y738328D01*
X353422Y738331D01*
X353436Y738326D01*
X353645Y738331D01*
X353680Y738347D01*
X353717Y738335D01*
X353926Y738352D01*
X353960Y738369D01*
X353997Y738359D01*
X354205Y738386D01*
X354239Y738406D01*
X354277Y738398D01*
X354482Y738436D01*
X354515Y738457D01*
X354552Y738451D01*
X354756Y738500D01*
X354787Y738522D01*
X354826Y738518D01*
X355027Y738578D01*
X355056Y738602D01*
X355095Y738600D01*
X355292Y738670D01*
X355321Y738696D01*
X355359D01*
X355553Y738776D01*
X355580Y738803D01*
X355619Y738805D01*
X355808Y738895D01*
X355834Y738924D01*
X355872Y738928D01*
X356056Y739028D01*
X356080Y739058D01*
X356118Y739064D01*
X356297Y739173D01*
X356319Y739204D01*
X356357Y739212D01*
X356530Y739331D01*
X356551Y739363D01*
X356588Y739373D01*
X356754Y739501D01*
X356773Y739534D01*
X356810Y739546D01*
X356969Y739682D01*
X356987Y739716D01*
X357023Y739730D01*
X357175Y739874D01*
X357181Y739888D01*
X357200Y739901D01*
X357212Y739919D01*
X357226Y739925D01*
X357370Y740077D01*
X357383Y740113D01*
X357418Y740131D01*
X357554Y740290D01*
X357566Y740327D01*
X357599Y740346D01*
X357727Y740512D01*
X357737Y740549D01*
X357769Y740570D01*
X357888Y740743D01*
X357896Y740780D01*
X357927Y740803D01*
X358036Y740982D01*
X358042Y741020D01*
X358072Y741044D01*
X358172Y741228D01*
X358176Y741266D01*
X358205Y741292D01*
X358295Y741481D01*
X358297Y741520D01*
X358324Y741547D01*
X358404Y741740D01*
Y741779D01*
X358430Y741808D01*
X358500Y742005D01*
X358498Y742043D01*
X358522Y742073D01*
X358582Y742274D01*
X358578Y742313D01*
X358601Y742344D01*
X358649Y742548D01*
X358643Y742586D01*
X358664Y742617D01*
X358702Y742823D01*
X358694Y742861D01*
X358714Y742895D01*
X358741Y743102D01*
X358731Y743140D01*
X358749Y743174D01*
X358765Y743383D01*
X358753Y743419D01*
X358769Y743455D01*
X358774Y743664D01*
X359603Y744141D01*
X359757Y744164D01*
X361136Y743242D01*
X362900Y742891D01*
X364664Y743242D01*
X366159Y744241D01*
X367158Y745736D01*
X367509Y747500D01*
Y750500D01*
X367158Y752264D01*
X366687Y752968D01*
X367222Y753968D01*
X375032D01*
Y756228D01*
X375027Y756228D01*
X373071Y756102D01*
X372995Y756068D01*
X372970Y756030D01*
Y758969D01*
X372995Y758932D01*
X373071Y758898D01*
X373198Y758868D01*
X373376Y758842D01*
X373884Y758802D01*
X375032Y758779D01*
Y761032D01*
X374270D01*
Y768948D01*
X374836Y769413D01*
X376014Y769647D01*
X377013Y770314D01*
X377681Y771313D01*
X377915Y772492D01*
X377681Y773670D01*
X377013Y774669D01*
X376014Y775337D01*
X374836Y775571D01*
X374270Y776035D01*
Y779730D01*
X374270D01*
Y780320D01*
X374442Y780334D01*
X374731Y780340D01*
X374993Y780454D01*
X375648Y780584D01*
X376008Y780824D01*
X394491D01*
X394995Y780724D01*
X416812D01*
Y769586D01*
X416917Y769333D01*
Y768316D01*
X417934D01*
X418187Y768211D01*
X425807D01*
X426060Y768316D01*
X427077D01*
Y769333D01*
X427182Y769586D01*
Y780724D01*
X433471D01*
X434412Y780911D01*
X435210Y781445D01*
X441726Y787960D01*
X442649Y787577D01*
Y783612D01*
X486817D01*
Y788520D01*
X487817Y788934D01*
X490705Y786045D01*
X490906Y785911D01*
X490962Y784771D01*
X490917Y784701D01*
X486091Y779875D01*
X450102D01*
X448615Y779579D01*
X447355Y778737D01*
X440943Y772325D01*
X440101Y771065D01*
X439805Y769578D01*
Y741406D01*
X439776Y741341D01*
X439722Y739553D01*
X439661Y738869D01*
X439578Y738295D01*
X439480Y737854D01*
X439383Y737558D01*
X439364Y737520D01*
X438480D01*
Y736538D01*
X438470Y736523D01*
X438384Y736474D01*
X438102Y736368D01*
X437672Y736261D01*
X437127Y736171D01*
X436930Y736156D01*
X436669Y736187D01*
X436120Y736292D01*
X435707Y736412D01*
X435439Y736528D01*
X435341Y736593D01*
X435329Y736671D01*
X435270Y736770D01*
Y737770D01*
X434149D01*
X433969Y737844D01*
X433871Y737803D01*
X433768Y737829D01*
X433669Y737770D01*
X417730D01*
Y735057D01*
X417726Y735049D01*
X417675Y735028D01*
X417494Y734979D01*
X417231Y734936D01*
X416894Y734906D01*
X416454Y734894D01*
X416332Y734840D01*
X415190D01*
X414199Y734643D01*
X413359Y734081D01*
X412621Y733344D01*
X412522Y733314D01*
X412502Y733276D01*
X412462Y733261D01*
X412253Y733067D01*
X412085Y732934D01*
X411920Y732824D01*
X411757Y732736D01*
X411595Y732667D01*
X411431Y732614D01*
X411262Y732578D01*
X411085Y732556D01*
X410895Y732550D01*
X410635Y732565D01*
X410495Y732517D01*
X410210Y732573D01*
X408349Y732203D01*
X406771Y731149D01*
X406010Y730010D01*
X405010Y730313D01*
Y740990D01*
X385946D01*
Y728426D01*
X392294D01*
X392373Y728479D01*
X392627Y728673D01*
X392874Y728883D01*
X393111Y729108D01*
X394304Y728426D01*
X404469D01*
X405300Y727748D01*
X405373Y727576D01*
X405717Y725849D01*
X406771Y724271D01*
X408349Y723217D01*
X410210Y722847D01*
X412071Y723217D01*
X413649Y724271D01*
X414703Y725849D01*
X414944Y727062D01*
X415065Y727280D01*
X415097Y727561D01*
X415138Y727784D01*
X415192Y727998D01*
X415261Y728202D01*
X415343Y728399D01*
X415440Y728589D01*
X415553Y728774D01*
X415682Y728957D01*
X415828Y729136D01*
X416024Y729345D01*
X416454Y729606D01*
X416894Y729594D01*
X417231Y729565D01*
X417494Y729521D01*
X417675Y729472D01*
X417726Y729451D01*
X417730Y729443D01*
Y726730D01*
X433651D01*
X433736Y726676D01*
X433856Y726703D01*
X433969Y726656D01*
X434149Y726730D01*
X435270D01*
Y727711D01*
X435280Y727727D01*
X435366Y727776D01*
X435649Y727882D01*
X436077Y727989D01*
X436623Y728079D01*
X436820Y728094D01*
X437081Y728063D01*
X437630Y727958D01*
X438043Y727838D01*
X438311Y727722D01*
X438409Y727657D01*
X438421Y727579D01*
X438480Y727480D01*
Y726480D01*
X439601D01*
X439781Y726406D01*
X439879Y726447D01*
X439982Y726421D01*
X440081Y726480D01*
X456020D01*
X456020Y726480D01*
Y726480D01*
X456694Y725812D01*
X457407Y725099D01*
X457431Y725034D01*
X459271Y723054D01*
X459933Y722229D01*
X460450Y721489D01*
X460730Y721002D01*
Y718891D01*
X460686Y718785D01*
X460730Y718680D01*
Y718680D01*
X460704Y718568D01*
X460730Y718525D01*
Y709730D01*
X471770D01*
Y727270D01*
X469475D01*
X469431Y727297D01*
X469320Y727270D01*
X469320D01*
X469215Y727314D01*
X469109Y727270D01*
X466998D01*
X466511Y727550D01*
X465786Y728056D01*
X463998Y729573D01*
X462985Y730550D01*
X462916Y730578D01*
X460103Y733391D01*
X458842Y734233D01*
X457517Y734497D01*
X457372Y734559D01*
X456020Y734575D01*
Y737520D01*
X448984D01*
X448919Y737556D01*
X448598Y737591D01*
X448480Y737633D01*
X448376Y737703D01*
X448248Y737842D01*
X448097Y738091D01*
X447942Y738472D01*
X447804Y738988D01*
X448578Y739968D01*
X464532D01*
Y744849D01*
X464191Y744842D01*
X463499Y744773D01*
X463218Y744712D01*
X462980Y744634D01*
X462785Y744540D01*
X462634Y744427D01*
X462526Y744298D01*
X462461Y744152D01*
X462439Y743988D01*
Y748253D01*
X462461Y748089D01*
X462526Y747942D01*
X462634Y747813D01*
X462785Y747701D01*
X462980Y747606D01*
X463218Y747528D01*
X463499Y747468D01*
X463823Y747425D01*
X464191Y747399D01*
X464532Y747392D01*
Y752532D01*
X447575D01*
Y758230D01*
X462160D01*
X462253Y758173D01*
X462364Y758199D01*
X462469Y758156D01*
X462649Y758230D01*
X463770D01*
Y759221D01*
X463827Y759314D01*
X463829Y759328D01*
X463904Y759374D01*
X464178Y759485D01*
X464599Y759598D01*
X465136Y759694D01*
X466254Y759787D01*
X466679Y759771D01*
X467345Y759697D01*
X467901Y759598D01*
X468322Y759485D01*
X468596Y759374D01*
X468671Y759328D01*
X468673Y759314D01*
X468730Y759221D01*
Y758230D01*
X469851D01*
X470031Y758156D01*
X470136Y758199D01*
X470247Y758173D01*
X470340Y758230D01*
X482085D01*
X482460Y758155D01*
X485235D01*
X485436Y758115D01*
X486741D01*
X487258Y757599D01*
X487282Y757533D01*
X489103Y755577D01*
X489760Y754762D01*
X490274Y754032D01*
X490580Y753508D01*
Y751514D01*
X490536Y751409D01*
X490580Y751303D01*
Y751296D01*
X490554Y751187D01*
X490580Y751145D01*
X490580Y742357D01*
X489818Y741782D01*
X489818Y741655D01*
Y734220D01*
X490078Y734099D01*
X490370Y733993D01*
X490646Y733918D01*
X490651Y733918D01*
X490986Y734007D01*
X491268Y734122D01*
X491500Y734261D01*
X491680Y734426D01*
X491808Y734617D01*
X491885Y734833D01*
X491911Y735074D01*
Y729994D01*
X491885Y730235D01*
X491808Y730451D01*
X491680Y730642D01*
X491500Y730807D01*
X491268Y730947D01*
X490986Y731061D01*
X490651Y731150D01*
X490646Y731151D01*
X490370Y731075D01*
X490078Y730969D01*
X489818Y730849D01*
Y728043D01*
X489270Y727270D01*
X488818Y727270D01*
X478230D01*
Y709730D01*
X489270D01*
Y713668D01*
X489406Y713851D01*
X489608Y714025D01*
X490229Y714334D01*
X490405Y714252D01*
X490574Y714156D01*
X490741Y714042D01*
X490904Y713910D01*
X491102Y713722D01*
X491147Y713705D01*
X492685Y712677D01*
X494547Y712307D01*
X496408Y712677D01*
X497946Y713705D01*
X497991Y713722D01*
X498189Y713910D01*
X498353Y714042D01*
X498518Y714156D01*
X498689Y714252D01*
X498864Y714334D01*
X499049Y714401D01*
X499243Y714454D01*
X499450Y714493D01*
X499671Y714517D01*
X499956Y714527D01*
X500075Y714581D01*
X514222D01*
X515213Y714778D01*
X516053Y715339D01*
X522475Y721761D01*
X523037Y722602D01*
X523068Y722759D01*
X524068Y722661D01*
Y718968D01*
X532180D01*
X532204Y719034D01*
X532286Y719337D01*
X532323Y719531D01*
X532278Y719801D01*
X532189Y720136D01*
X532075Y720418D01*
X531935Y720650D01*
X531770Y720830D01*
X531580Y720958D01*
X531364Y721035D01*
X531123Y721061D01*
X536203D01*
X535961Y721035D01*
X535745Y720958D01*
X535555Y720830D01*
X535390Y720650D01*
X535250Y720418D01*
X535136Y720136D01*
X535047Y719801D01*
X535002Y719531D01*
X535039Y719337D01*
X535121Y719034D01*
X535145Y718968D01*
X543132D01*
Y731532D01*
X524234D01*
X524068Y731532D01*
X523234Y731932D01*
Y759657D01*
X523037Y760648D01*
X522475Y761489D01*
X522436Y761528D01*
X522765Y762613D01*
X522833Y762626D01*
X523667Y763183D01*
X523749Y763306D01*
X524951D01*
X525033Y763183D01*
X525867Y762626D01*
X526850Y762431D01*
X527833Y762626D01*
X528667Y763183D01*
X528749Y763306D01*
X529951D01*
X530033Y763183D01*
X530867Y762626D01*
X531850Y762431D01*
X532833Y762626D01*
X533667Y763183D01*
X533749Y763306D01*
X534951D01*
X535033Y763183D01*
X535867Y762626D01*
X536850Y762431D01*
X537833Y762626D01*
X538667Y763183D01*
X538749Y763306D01*
X539951D01*
X540033Y763183D01*
X540867Y762626D01*
X541850Y762431D01*
X542833Y762626D01*
X543667Y763183D01*
X544224Y764017D01*
X544419Y765000D01*
Y772500D01*
X544224Y773483D01*
X544356Y774145D01*
X544565Y774285D01*
X544705Y774495D01*
X545367Y774626D01*
X546350Y774431D01*
X553850D01*
X554833Y774626D01*
X554837Y774629D01*
X555837Y774094D01*
Y762390D01*
X556024Y761449D01*
X556558Y760650D01*
X559488Y757720D01*
X560286Y757187D01*
X561227Y757000D01*
X601146D01*
X628098Y730047D01*
X628897Y729514D01*
X629838Y729327D01*
X641334D01*
X652561Y718100D01*
X653359Y717567D01*
X653992Y717441D01*
X654248Y717323D01*
X654524Y717313D01*
X654693Y717291D01*
X654746Y717278D01*
X654747Y717269D01*
X654827Y717121D01*
X655101Y715038D01*
X656125Y712566D01*
X657754Y710444D01*
X659876Y708815D01*
X662348Y707792D01*
X665000Y707442D01*
X667652Y707792D01*
X670124Y708815D01*
X672246Y710444D01*
X673875Y712566D01*
X674899Y715038D01*
X675248Y717690D01*
X674899Y720342D01*
X673875Y722814D01*
X672246Y724936D01*
X670836Y726018D01*
X671175Y727018D01*
X720276D01*
X722394Y724900D01*
X722394Y724900D01*
X723571Y724114D01*
X724958Y723838D01*
X789255D01*
X789333Y723804D01*
X790163Y723782D01*
X790849Y723722D01*
X791421Y723627D01*
X791871Y723507D01*
X792196Y723374D01*
X792399Y723251D01*
X792503Y723156D01*
X792548Y723089D01*
X792574Y723015D01*
X792605Y722741D01*
X792640Y722677D01*
Y711980D01*
X811680D01*
Y731020D01*
X796546D01*
X796196Y731090D01*
X796196Y731090D01*
X793960D01*
X793950Y731094D01*
X789378Y731125D01*
X789373Y731123D01*
X789369Y731125D01*
X789284Y731090D01*
X726460D01*
X724342Y733208D01*
X723166Y733994D01*
X721778Y734270D01*
X721778Y734270D01*
X671750D01*
X671429Y735217D01*
X672246Y735844D01*
X673875Y737966D01*
X674899Y740438D01*
X675248Y743090D01*
X674899Y745742D01*
X673875Y748214D01*
X672246Y750336D01*
X670124Y751965D01*
X667652Y752989D01*
X665000Y753338D01*
X664968Y753334D01*
X664919Y753354D01*
X663618Y753362D01*
X661318Y753500D01*
X660357Y753625D01*
X659492Y753788D01*
X658741Y753983D01*
X658105Y754206D01*
X657585Y754449D01*
X657181Y754701D01*
X656794Y755030D01*
X656689Y755063D01*
X652236Y759517D01*
Y783844D01*
X652039Y784835D01*
X651477Y785675D01*
X646493Y790659D01*
X646460Y790764D01*
X646131Y791151D01*
X645879Y791555D01*
X645636Y792075D01*
X645413Y792711D01*
X645218Y793463D01*
X645055Y794327D01*
X644930Y795288D01*
X644791Y797588D01*
X644784Y798889D01*
X644763Y798938D01*
X644768Y798970D01*
X644418Y801622D01*
X643395Y804094D01*
X641766Y806216D01*
X639644Y807845D01*
X637172Y808868D01*
X634520Y809218D01*
X631868Y808868D01*
X629396Y807845D01*
X627274Y806216D01*
X625645Y804094D01*
X624622Y801622D01*
X624272Y798970D01*
X624622Y796318D01*
X625645Y793846D01*
X627274Y791724D01*
X629396Y790095D01*
X631868Y789072D01*
X634520Y788722D01*
X634552Y788727D01*
X634601Y788706D01*
X635902Y788699D01*
X638202Y788560D01*
X639163Y788435D01*
X640027Y788272D01*
X640779Y788077D01*
X641415Y787854D01*
X641935Y787611D01*
X642339Y787359D01*
X642726Y787030D01*
X642831Y786997D01*
X647056Y782771D01*
Y758444D01*
X647254Y757453D01*
X647815Y756613D01*
X653027Y751401D01*
X653061Y751296D01*
X653389Y750909D01*
X653641Y750505D01*
X653884Y749985D01*
X654107Y749349D01*
X654303Y748597D01*
X654465Y747733D01*
X654590Y746772D01*
X654728Y744472D01*
X654736Y743171D01*
X654757Y743122D01*
X654752Y743090D01*
X654887Y742069D01*
X653990Y741626D01*
X652490Y743127D01*
X651313Y743913D01*
X649926Y744189D01*
X649926Y744189D01*
X648885D01*
X648817Y744221D01*
X648108Y744261D01*
X647516Y744364D01*
X646958Y744535D01*
X646427Y744773D01*
X645916Y745083D01*
X645420Y745470D01*
X644939Y745941D01*
X644472Y746500D01*
X644022Y747151D01*
X643566Y747939D01*
X643482Y748004D01*
X643395Y748214D01*
X641766Y750336D01*
X639644Y751965D01*
X637172Y752989D01*
X634520Y753338D01*
X631868Y752989D01*
X629396Y751965D01*
X627274Y750336D01*
X625645Y748214D01*
X624622Y745742D01*
X624272Y743090D01*
X624412Y742032D01*
X623515Y741590D01*
X603905Y761200D01*
X603107Y761733D01*
X602165Y761920D01*
X569870D01*
Y764616D01*
X569896Y764658D01*
X569870Y764769D01*
Y764772D01*
X569914Y764877D01*
X569870Y764983D01*
Y765746D01*
X569933Y765854D01*
X570152Y766167D01*
X570879Y767022D01*
X571354Y767514D01*
X571404Y767642D01*
X579406Y775644D01*
X580330Y775261D01*
Y770730D01*
X589870D01*
Y774116D01*
X589896Y774158D01*
X589870Y774268D01*
Y774272D01*
X589914Y774377D01*
X589870Y774483D01*
Y775246D01*
X589933Y775354D01*
X590152Y775667D01*
X590879Y776522D01*
X591354Y777014D01*
X591404Y777142D01*
X610516Y796254D01*
X611077Y797094D01*
X611275Y798085D01*
Y813627D01*
X623514Y825866D01*
X624411Y825424D01*
X624272Y824370D01*
X624622Y821718D01*
X625645Y819246D01*
X627274Y817124D01*
X629396Y815495D01*
X631868Y814472D01*
X634520Y814122D01*
X637172Y814472D01*
X639644Y815495D01*
X641766Y817124D01*
X642127Y817593D01*
X642280Y817657D01*
X642296Y817697D01*
X642335Y817716D01*
X643023Y818489D01*
X643677Y819150D01*
X644319Y819723D01*
X644945Y820210D01*
X645554Y820611D01*
X646144Y820931D01*
X646715Y821172D01*
X647267Y821339D01*
X647804Y821437D01*
X648415Y821474D01*
X648636Y821582D01*
X649421Y821738D01*
X650346Y822356D01*
X653953Y825964D01*
X654901Y825497D01*
X654752Y824370D01*
X655101Y821718D01*
X656125Y819246D01*
X657754Y817124D01*
X659876Y815495D01*
X662348Y814472D01*
X663350Y814340D01*
X663565Y814207D01*
X666115Y813789D01*
X668221Y813304D01*
X669088Y813045D01*
X669856Y812770D01*
X670509Y812487D01*
X671043Y812203D01*
X671458Y811926D01*
X671836Y811600D01*
X671934Y811568D01*
X728627Y754874D01*
X728668Y754764D01*
X729754Y753594D01*
X730125Y753131D01*
X730409Y752723D01*
X730530Y752511D01*
Y751568D01*
X730456Y751389D01*
X730499Y751284D01*
X730473Y751174D01*
X730530Y751081D01*
Y745460D01*
X745425D01*
X745493Y745414D01*
X745639Y745442D01*
X745777Y745386D01*
X745954Y745460D01*
X747070D01*
Y746054D01*
X748306Y746159D01*
X748836Y746167D01*
X748952Y746216D01*
X788795D01*
X788889Y746170D01*
X789456Y746130D01*
X789917Y746031D01*
X790376Y745862D01*
X790841Y745617D01*
X791315Y745288D01*
X791798Y744867D01*
X792288Y744351D01*
X792780Y743735D01*
X793272Y743018D01*
X793779Y742169D01*
X793832Y742130D01*
X793844Y742099D01*
X795370Y740110D01*
X797359Y738584D01*
X799675Y737625D01*
X802160Y737298D01*
X804645Y737625D01*
X806961Y738584D01*
X808950Y740110D01*
X810476Y742099D01*
X811435Y744415D01*
X811762Y746900D01*
X811435Y749385D01*
X810476Y751701D01*
X808950Y753690D01*
X806961Y755216D01*
X804645Y756175D01*
X802160Y756502D01*
X799675Y756175D01*
X797382Y755225D01*
X797318Y755218D01*
X795145Y753998D01*
X793299Y753073D01*
X791755Y752424D01*
X791134Y752214D01*
X790593Y752068D01*
X790156Y751989D01*
X789736Y751960D01*
X789642Y751914D01*
X748964D01*
X748853Y751963D01*
X748312Y751977D01*
X747884Y752015D01*
X747541Y752072D01*
X747289Y752139D01*
X747131Y752203D01*
X747111Y752215D01*
X747105Y752266D01*
X747070Y752329D01*
Y757000D01*
X736449D01*
X736355Y757057D01*
X736245Y757031D01*
X736141Y757074D01*
X735962Y757000D01*
X735019D01*
X734807Y757121D01*
X734415Y757394D01*
X733378Y758271D01*
X732785Y758844D01*
X732669Y758889D01*
X676335Y815223D01*
X676319Y815288D01*
X676272Y815317D01*
X676254Y815370D01*
X675872Y815813D01*
X675595Y816245D01*
X675357Y816754D01*
X675161Y817347D01*
X675012Y818029D01*
X674917Y818801D01*
X674880Y819642D01*
X674991Y821667D01*
X675143Y822797D01*
X675075Y823056D01*
X675248Y824370D01*
X675025Y826062D01*
X675972Y826529D01*
X728627Y773874D01*
X728668Y773764D01*
X729754Y772594D01*
X730125Y772131D01*
X730409Y771723D01*
X730530Y771511D01*
Y770568D01*
X730456Y770389D01*
X730499Y770285D01*
X730473Y770175D01*
X730530Y770081D01*
Y764460D01*
X747070D01*
Y768006D01*
X747106Y768072D01*
X747111Y768118D01*
X747126Y768127D01*
X747284Y768191D01*
X747537Y768258D01*
X747881Y768315D01*
X748310Y768353D01*
X748853Y768367D01*
X748964Y768416D01*
X789179D01*
X789273Y768370D01*
X789759Y768336D01*
X790222Y768248D01*
X790759Y768088D01*
X791363Y767852D01*
X792029Y767538D01*
X792729Y767156D01*
X795272Y765457D01*
X796201Y764742D01*
X796464Y764671D01*
X797359Y763984D01*
X799675Y763025D01*
X802160Y762698D01*
X804645Y763025D01*
X806961Y763984D01*
X808950Y765510D01*
X810476Y767499D01*
X811435Y769815D01*
X811762Y772300D01*
X811435Y774785D01*
X810476Y777101D01*
X808950Y779090D01*
X806961Y780616D01*
X804645Y781575D01*
X802160Y781902D01*
X799675Y781575D01*
X797359Y780616D01*
X795370Y779090D01*
X794744Y778273D01*
X794515Y778147D01*
X793856Y777319D01*
X793229Y776611D01*
X792618Y775998D01*
X792026Y775479D01*
X791455Y775053D01*
X790908Y774717D01*
X790388Y774467D01*
X789895Y774297D01*
X789426Y774199D01*
X788878Y774160D01*
X788840Y774141D01*
X788799Y774152D01*
X788732Y774114D01*
X748964D01*
X748853Y774163D01*
X748310Y774177D01*
X747881Y774215D01*
X747537Y774272D01*
X747284Y774339D01*
X747126Y774403D01*
X747111Y774412D01*
X747106Y774458D01*
X747070Y774525D01*
Y776000D01*
X736449D01*
X736355Y776057D01*
X736245Y776031D01*
X736141Y776074D01*
X735962Y776000D01*
X735019D01*
X734807Y776121D01*
X734415Y776394D01*
X733378Y777271D01*
X732785Y777844D01*
X732669Y777889D01*
X672490Y838068D01*
X672477Y838077D01*
X672270Y839419D01*
X672423Y839610D01*
X675160D01*
Y859930D01*
X654840D01*
Y844811D01*
X654783Y844717D01*
X654809Y844607D01*
X654766Y844503D01*
X654840Y844324D01*
Y843650D01*
X654762Y843513D01*
X654546Y843204D01*
X653827Y842354D01*
X653355Y841865D01*
X653305Y841738D01*
X649957Y838390D01*
X629786D01*
X628795Y838193D01*
X627954Y837631D01*
X606854Y816531D01*
X606292Y815690D01*
X606095Y814699D01*
Y799157D01*
X587755Y780817D01*
X587633Y780772D01*
X586659Y779866D01*
X586282Y779563D01*
X585954Y779333D01*
X585846Y779270D01*
X585083D01*
X584977Y779314D01*
X584872Y779270D01*
X584869D01*
X584758Y779296D01*
X584716Y779270D01*
X581650D01*
Y782795D01*
X591471Y792617D01*
X592033Y793457D01*
X592230Y794448D01*
Y817368D01*
X592033Y818359D01*
X591471Y819199D01*
X583864Y826806D01*
X584247Y827730D01*
X589870D01*
Y829208D01*
X589900Y829220D01*
X590088Y829270D01*
X590356Y829314D01*
X590699Y829344D01*
X591145Y829356D01*
X591268Y829410D01*
X616750D01*
X617741Y829607D01*
X618581Y830169D01*
X626474Y838062D01*
X626596Y838107D01*
X627565Y839007D01*
X627938Y839306D01*
X628263Y839532D01*
X628400Y839610D01*
X629073D01*
X629253Y839536D01*
X629357Y839579D01*
X629467Y839553D01*
X629561Y839610D01*
X644680D01*
Y859930D01*
X624360D01*
Y844811D01*
X624303Y844717D01*
X624329Y844607D01*
X624286Y844503D01*
X624360Y844324D01*
Y843650D01*
X624282Y843513D01*
X624066Y843204D01*
X623347Y842354D01*
X622876Y841865D01*
X622825Y841738D01*
X615677Y834590D01*
X591268D01*
X591145Y834644D01*
X590699Y834656D01*
X590356Y834686D01*
X590088Y834730D01*
X589900Y834780D01*
X589870Y834792D01*
Y836270D01*
X581255D01*
Y838401D01*
X581058Y839392D01*
X580496Y840232D01*
X572160Y848568D01*
X572115Y848690D01*
X571920Y848899D01*
X571781Y849072D01*
X571662Y849247D01*
X571562Y849421D01*
X571479Y849599D01*
X571412Y849781D01*
X571361Y849969D01*
X571323Y850167D01*
X571301Y850376D01*
X571294Y850649D01*
X571274Y850693D01*
X570913Y852507D01*
X569859Y854085D01*
X568281Y855139D01*
X566467Y855500D01*
X566423Y855520D01*
X566150Y855527D01*
X565941Y855549D01*
X565743Y855586D01*
X565555Y855638D01*
X565373Y855705D01*
X565195Y855788D01*
X565020Y855888D01*
X564846Y856007D01*
X564673Y856146D01*
X564464Y856341D01*
X564342Y856386D01*
X561256Y859472D01*
X560416Y860033D01*
X559425Y860231D01*
X535061D01*
X534070Y860033D01*
X533230Y859472D01*
X531742Y857984D01*
X531180Y857144D01*
X530983Y856153D01*
Y855988D01*
X530929Y855866D01*
X530917Y855426D01*
X530887Y855089D01*
X530844Y854826D01*
X530795Y854645D01*
X530774Y854594D01*
X530766Y854590D01*
X528020D01*
Y847794D01*
X527990Y847782D01*
X527802Y847732D01*
X527534Y847688D01*
X527192Y847658D01*
X526745Y847646D01*
X526622Y847592D01*
X516928D01*
X515937Y847395D01*
X515097Y846833D01*
X510019Y841755D01*
X509457Y840915D01*
X509260Y839924D01*
Y815250D01*
X509281Y815147D01*
Y811500D01*
X509476Y810517D01*
X510033Y809683D01*
X510867Y809126D01*
X511850Y808931D01*
X512833Y809126D01*
X513667Y809683D01*
X513749Y809806D01*
X514951D01*
X515033Y809683D01*
X515501Y809370D01*
X515752Y808207D01*
X510643Y803098D01*
X509480Y803349D01*
X509167Y803817D01*
X509044Y803899D01*
Y805101D01*
X509167Y805183D01*
X509724Y806017D01*
X509919Y807000D01*
X509724Y807983D01*
X509167Y808817D01*
X508333Y809374D01*
X507350Y809569D01*
X499850D01*
X498867Y809374D01*
X498033Y808817D01*
X497476Y807983D01*
X497281Y807000D01*
X497476Y806017D01*
X498033Y805183D01*
X498156Y805101D01*
Y803899D01*
X498033Y803817D01*
X497476Y802983D01*
X497281Y802000D01*
X497476Y801017D01*
X498033Y800183D01*
X497484Y799366D01*
X497484Y799366D01*
X496758Y798281D01*
X496504Y797000D01*
X496758Y795720D01*
X497092Y795220D01*
X497229Y794368D01*
X496829Y793951D01*
X496452Y793699D01*
X496429Y793676D01*
X494885D01*
X491356Y797205D01*
X490558Y797738D01*
X489616Y797926D01*
X486817D01*
Y803910D01*
X442649D01*
Y797926D01*
X440900D01*
X439958Y797738D01*
X439160Y797205D01*
X431031Y789075D01*
X427182D01*
Y800066D01*
X427077Y800319D01*
Y801336D01*
X426060D01*
X425807Y801441D01*
X418187D01*
X417934Y801336D01*
X416917D01*
Y800319D01*
X416812Y800066D01*
Y789075D01*
X396820D01*
X396316Y789175D01*
X376672D01*
X376574Y790175D01*
X377388Y790337D01*
X378228Y790899D01*
X386761Y799432D01*
X387323Y800272D01*
X387520Y801264D01*
Y812372D01*
X387574Y812495D01*
X387586Y812939D01*
X387616Y813280D01*
X387660Y813548D01*
X387710Y813734D01*
X387724Y813770D01*
X399930D01*
Y824810D01*
X382390D01*
Y816560D01*
X382340Y816310D01*
Y815144D01*
X382316Y815087D01*
X382285Y812547D01*
X382289Y812539D01*
X382285Y812531D01*
X382340Y812398D01*
Y802336D01*
X378786Y798782D01*
X377607Y799017D01*
X377211Y799611D01*
X376212Y800279D01*
X375033Y800513D01*
X374270Y801140D01*
Y808968D01*
X375032D01*
Y811251D01*
X375027Y811251D01*
X373198Y811144D01*
X373071Y811111D01*
X372995Y811073D01*
X372970Y811030D01*
Y813969D01*
X372995Y813936D01*
X373071Y813906D01*
X373198Y813880D01*
X373376Y813857D01*
X373884Y813822D01*
X375032Y813802D01*
Y816032D01*
X365401D01*
X365097Y817032D01*
X366159Y817741D01*
X367158Y819236D01*
X367509Y821000D01*
X367158Y822764D01*
X366159Y824259D01*
X364664Y825258D01*
X362900Y825609D01*
X361136Y825258D01*
X359641Y824259D01*
X359613Y824217D01*
X359541Y824182D01*
X358479Y824279D01*
X358522Y824673D01*
X358582Y824874D01*
X358578Y824913D01*
X358600Y824944D01*
X358649Y825147D01*
X358643Y825185D01*
X358664Y825218D01*
X358702Y825424D01*
X358694Y825461D01*
X358714Y825495D01*
X358741Y825702D01*
X358731Y825740D01*
X358749Y825774D01*
X358765Y825983D01*
X358753Y826019D01*
X358769Y826054D01*
X358774Y826264D01*
X358769Y826278D01*
X358773Y826300D01*
X358769Y826322D01*
X358774Y826336D01*
X358769Y826545D01*
X358753Y826581D01*
X358765Y826617D01*
X358749Y826826D01*
X358731Y826860D01*
X358741Y826898D01*
X358714Y827105D01*
X358694Y827139D01*
X358702Y827177D01*
X358664Y827382D01*
X358643Y827414D01*
X358649Y827452D01*
X358601Y827656D01*
X358578Y827687D01*
X358582Y827726D01*
X358522Y827927D01*
X358498Y827956D01*
X358500Y827995D01*
X358430Y828192D01*
X358404Y828221D01*
Y828260D01*
X358324Y828453D01*
X358297Y828480D01*
X358295Y828519D01*
X358205Y828708D01*
X358176Y828734D01*
X358172Y828772D01*
X358072Y828956D01*
X358042Y828980D01*
X358036Y829018D01*
X357927Y829197D01*
X357896Y829219D01*
X357888Y829257D01*
X357769Y829430D01*
X357737Y829451D01*
X357727Y829488D01*
X357599Y829654D01*
X357566Y829673D01*
X357554Y829710D01*
X357418Y829869D01*
X357384Y829887D01*
X357370Y829923D01*
X357226Y830075D01*
X357212Y830081D01*
X357200Y830099D01*
X357181Y830112D01*
X357175Y830125D01*
X357023Y830270D01*
X356987Y830283D01*
X356969Y830318D01*
X356810Y830454D01*
X356773Y830466D01*
X356754Y830499D01*
X356588Y830627D01*
X356551Y830637D01*
X356530Y830669D01*
X356357Y830788D01*
X356319Y830796D01*
X356297Y830827D01*
X356118Y830936D01*
X356080Y830942D01*
X356056Y830972D01*
X355872Y831072D01*
X355834Y831076D01*
X355808Y831105D01*
X355619Y831195D01*
X355580Y831197D01*
X355553Y831224D01*
X355359Y831304D01*
X355321D01*
X355292Y831330D01*
X355095Y831400D01*
X355056Y831398D01*
X355027Y831422D01*
X354826Y831482D01*
X354787Y831478D01*
X354756Y831500D01*
X354552Y831549D01*
X354515Y831543D01*
X354482Y831564D01*
X354276Y831602D01*
X354239Y831594D01*
X354205Y831614D01*
X353997Y831641D01*
X353960Y831631D01*
X353926Y831648D01*
X353717Y831665D01*
X353680Y831653D01*
X353645Y831669D01*
X353436Y831674D01*
X353422Y831669D01*
X353407Y831672D01*
X353400Y831675D01*
X347400D01*
X347393Y831672D01*
X347378Y831669D01*
X347364Y831674D01*
X347155Y831669D01*
X347119Y831653D01*
X347083Y831665D01*
X346874Y831648D01*
X346840Y831631D01*
X346803Y831641D01*
X346595Y831614D01*
X346562Y831594D01*
X346524Y831602D01*
X346318Y831564D01*
X346286Y831543D01*
X346248Y831549D01*
X346044Y831500D01*
X346013Y831478D01*
X345974Y831482D01*
X345774Y831422D01*
X345743Y831398D01*
X345705Y831400D01*
X345508Y831330D01*
X345479Y831304D01*
X345440D01*
X345247Y831224D01*
X345220Y831197D01*
X345181Y831195D01*
X344992Y831105D01*
X344966Y831076D01*
X344928Y831072D01*
X344744Y830972D01*
X344720Y830942D01*
X344682Y830936D01*
X344503Y830827D01*
X344481Y830796D01*
X344443Y830788D01*
X344270Y830669D01*
X344249Y830637D01*
X344212Y830627D01*
X344046Y830499D01*
X344027Y830466D01*
X343990Y830454D01*
X343831Y830318D01*
X343813Y830284D01*
X343777Y830270D01*
X343625Y830126D01*
X343619Y830112D01*
X343601Y830099D01*
X343588Y830081D01*
X343574Y830075D01*
X343430Y829923D01*
X343416Y829887D01*
X343382Y829869D01*
X343246Y829710D01*
X343234Y829673D01*
X343201Y829654D01*
X343073Y829488D01*
X343063Y829451D01*
X343031Y829430D01*
X342912Y829257D01*
X342904Y829219D01*
X342873Y829197D01*
X342764Y829018D01*
X342758Y828980D01*
X342728Y828956D01*
X342628Y828772D01*
X342624Y828734D01*
X342595Y828708D01*
X342505Y828519D01*
X342503Y828480D01*
X342476Y828453D01*
X342396Y828260D01*
Y828221D01*
X342370Y828192D01*
X342300Y827995D01*
X342302Y827956D01*
X342278Y827926D01*
X342218Y827726D01*
X342222Y827687D01*
X342200Y827656D01*
X342151Y827452D01*
X342157Y827414D01*
X342136Y827382D01*
X342098Y827177D01*
X342106Y827139D01*
X342086Y827105D01*
X342059Y826897D01*
X342069Y826860D01*
X342052Y826826D01*
X342035Y826617D01*
X342047Y826581D01*
X342031Y826545D01*
X342026Y826336D01*
X342031Y826322D01*
X342027Y826300D01*
X342031Y826278D01*
X342026Y826264D01*
X342031Y826055D01*
X342047Y826019D01*
X342035Y825983D01*
X342052Y825774D01*
X342069Y825740D01*
X342059Y825702D01*
X342086Y825495D01*
X342106Y825461D01*
X342098Y825424D01*
X342136Y825218D01*
X342157Y825185D01*
X342151Y825147D01*
X342200Y824944D01*
X342222Y824913D01*
X342218Y824874D01*
X341869Y824151D01*
X341706Y823979D01*
X341506Y823875D01*
X296901D01*
X296612Y824084D01*
X296230Y824875D01*
X296348Y825084D01*
X296618Y825264D01*
X296797Y825373D01*
X296819Y825404D01*
X296857Y825412D01*
X297030Y825531D01*
X297051Y825563D01*
X297088Y825573D01*
X297254Y825701D01*
X297273Y825734D01*
X297310Y825746D01*
X297469Y825882D01*
X297487Y825916D01*
X297523Y825930D01*
X297675Y826074D01*
X297681Y826088D01*
X297700Y826100D01*
X297712Y826119D01*
X297726Y826125D01*
X297870Y826277D01*
X297884Y826313D01*
X297918Y826331D01*
X298054Y826490D01*
X298066Y826527D01*
X298099Y826546D01*
X298227Y826712D01*
X298237Y826749D01*
X298269Y826770D01*
X298388Y826943D01*
X298396Y826981D01*
X298427Y827003D01*
X298536Y827182D01*
X298542Y827220D01*
X298572Y827244D01*
X298672Y827428D01*
X298676Y827466D01*
X298705Y827492D01*
X298795Y827681D01*
X298797Y827720D01*
X298824Y827747D01*
X298904Y827941D01*
Y827979D01*
X298930Y828008D01*
X299000Y828205D01*
X298998Y828243D01*
X299022Y828273D01*
X299082Y828474D01*
X299078Y828513D01*
X299100Y828544D01*
X299149Y828747D01*
X299143Y828786D01*
X299164Y828818D01*
X299202Y829024D01*
X299194Y829061D01*
X299214Y829094D01*
X299241Y829302D01*
X299231Y829340D01*
X299249Y829374D01*
X299265Y829583D01*
X299253Y829620D01*
X299269Y829655D01*
X299274Y829864D01*
X299269Y829878D01*
X299273Y829900D01*
X299269Y829922D01*
X299274Y829936D01*
X299269Y830145D01*
X299253Y830181D01*
X299265Y830217D01*
X299249Y830426D01*
X299231Y830460D01*
X299241Y830498D01*
X299214Y830705D01*
X299194Y830739D01*
X299202Y830776D01*
X299164Y830982D01*
X299143Y831014D01*
X299149Y831052D01*
X299100Y831256D01*
X299078Y831287D01*
X299082Y831326D01*
X299022Y831526D01*
X298998Y831556D01*
X299000Y831595D01*
X298930Y831792D01*
X298904Y831821D01*
Y831859D01*
X298824Y832053D01*
X298797Y832080D01*
X298795Y832119D01*
X298705Y832308D01*
X298676Y832334D01*
X298672Y832372D01*
X298572Y832556D01*
X298542Y832580D01*
X298536Y832618D01*
X298427Y832797D01*
X298396Y832820D01*
X298388Y832857D01*
X298269Y833030D01*
X298237Y833051D01*
X298227Y833088D01*
X298099Y833254D01*
X298066Y833273D01*
X298054Y833310D01*
X297918Y833469D01*
X297883Y833487D01*
X297870Y833523D01*
X297726Y833675D01*
X297712Y833681D01*
X297700Y833699D01*
X297681Y833712D01*
X297675Y833726D01*
X297523Y833870D01*
X297487Y833884D01*
X297469Y833918D01*
X297310Y834054D01*
X297273Y834066D01*
X297254Y834099D01*
X297088Y834227D01*
X297051Y834237D01*
X297030Y834269D01*
X296857Y834388D01*
X296819Y834396D01*
X296797Y834427D01*
X296618Y834536D01*
X296580Y834542D01*
X296556Y834572D01*
X296372Y834672D01*
X296334Y834676D01*
X296308Y834705D01*
X296119Y834795D01*
X296080Y834797D01*
X296053Y834824D01*
X295860Y834904D01*
X295821D01*
X295792Y834930D01*
X295595Y835000D01*
X295557Y834998D01*
X295527Y835022D01*
X295326Y835082D01*
X295287Y835078D01*
X295256Y835100D01*
X295053Y835149D01*
X295014Y835143D01*
X294982Y835164D01*
X294776Y835202D01*
X294739Y835194D01*
X294705Y835214D01*
X294498Y835241D01*
X294460Y835231D01*
X294426Y835248D01*
X294217Y835265D01*
X294181Y835253D01*
X294145Y835269D01*
X293936Y835274D01*
X293922Y835269D01*
X293906Y835272D01*
X293900Y835275D01*
X287900Y835275D01*
X287894Y835272D01*
X287878Y835269D01*
X287864Y835274D01*
X287655Y835269D01*
X287619Y835253D01*
X287583Y835265D01*
X287374Y835248D01*
X287340Y835231D01*
X287302Y835241D01*
X287095Y835214D01*
X287062Y835194D01*
X287024Y835202D01*
X286818Y835164D01*
X286786Y835143D01*
X286747Y835149D01*
X286544Y835100D01*
X286513Y835078D01*
X286474Y835082D01*
X286273Y835022D01*
X286243Y834998D01*
X286205Y835000D01*
X286008Y834930D01*
X285979Y834904D01*
X285941D01*
X285747Y834824D01*
X285720Y834797D01*
X285681Y834795D01*
X285492Y834705D01*
X285466Y834676D01*
X285428Y834672D01*
X285244Y834572D01*
X285220Y834542D01*
X285182Y834536D01*
X285003Y834427D01*
X284981Y834396D01*
X284943Y834388D01*
X284770Y834269D01*
X284749Y834237D01*
X284712Y834227D01*
X284546Y834099D01*
X284527Y834066D01*
X284490Y834054D01*
X284331Y833918D01*
X284313Y833884D01*
X284277Y833870D01*
X284125Y833726D01*
X284119Y833712D01*
X284100Y833699D01*
X284088Y833681D01*
X284075Y833675D01*
X283930Y833523D01*
X283916Y833487D01*
X283882Y833469D01*
X283746Y833310D01*
X283734Y833273D01*
X283701Y833254D01*
X283573Y833088D01*
X283563Y833051D01*
X283531Y833030D01*
X283412Y832857D01*
X283404Y832819D01*
X283373Y832797D01*
X283264Y832618D01*
X283258Y832580D01*
X283228Y832556D01*
X283128Y832372D01*
X283124Y832334D01*
X283095Y832308D01*
X283005Y832119D01*
X283003Y832080D01*
X282976Y832053D01*
X282896Y831859D01*
Y831821D01*
X282870Y831793D01*
X282800Y831595D01*
X282802Y831556D01*
X282778Y831526D01*
X282718Y831325D01*
X282722Y831287D01*
X282700Y831256D01*
X282651Y831053D01*
X282657Y831014D01*
X282636Y830982D01*
X282598Y830776D01*
X282606Y830739D01*
X282586Y830705D01*
X282559Y830498D01*
X282569Y830460D01*
X282551Y830426D01*
X282535Y830217D01*
X282547Y830180D01*
X282531Y830145D01*
X282526Y829936D01*
X282531Y829922D01*
X282527Y829900D01*
X282531Y829878D01*
X282526Y829864D01*
X282531Y829655D01*
X282547Y829620D01*
X282535Y829583D01*
X282551Y829374D01*
X282569Y829340D01*
X282559Y829302D01*
X282586Y829095D01*
X282606Y829061D01*
X282598Y829024D01*
X282636Y828818D01*
X282657Y828785D01*
X282651Y828747D01*
X282700Y828544D01*
X282722Y828513D01*
X282718Y828475D01*
X282778Y828274D01*
X282802Y828243D01*
X282800Y828205D01*
X282870Y828007D01*
X282896Y827979D01*
Y827941D01*
X282976Y827747D01*
X283003Y827720D01*
X283005Y827681D01*
X283095Y827492D01*
X283124Y827466D01*
X283128Y827428D01*
X283228Y827244D01*
X283258Y827220D01*
X283264Y827182D01*
X283373Y827003D01*
X283404Y826980D01*
X283412Y826943D01*
X283531Y826770D01*
X283563Y826749D01*
X283573Y826712D01*
X283701Y826546D01*
X283734Y826527D01*
X283746Y826490D01*
X283882Y826331D01*
X283917Y826313D01*
X283930Y826277D01*
X284075Y826125D01*
X284088Y826119D01*
X284100Y826100D01*
X284119Y826088D01*
X284125Y826075D01*
X284277Y825930D01*
X284313Y825917D01*
X284331Y825882D01*
X284490Y825746D01*
X284527Y825734D01*
X284546Y825701D01*
X284712Y825573D01*
X284749Y825563D01*
X284770Y825531D01*
X284943Y825412D01*
X284981Y825404D01*
X285003Y825373D01*
X285182Y825264D01*
X285452Y825084D01*
X285570Y824875D01*
X285189Y824084D01*
X284899Y823875D01*
X277990D01*
Y864452D01*
X834114D01*
Y703770D01*
D02*
G37*
G36*
X513133Y760523D02*
X513171Y760087D01*
X513234Y759702D01*
X513323Y759368D01*
X513438Y759086D01*
X513577Y758854D01*
X513742Y758674D01*
X513933Y758544D01*
X514149Y758466D01*
X514390Y758439D01*
X509380Y758470D01*
X509608Y758495D01*
X509812Y758571D01*
X509992Y758698D01*
X510148Y758876D01*
X510280Y759105D01*
X510388Y759384D01*
X510472Y759714D01*
X510532Y760095D01*
X510568Y760527D01*
X510580Y761010D01*
X513120D01*
X513133Y760523D01*
D02*
G37*
G36*
X492913Y761064D02*
X494759Y759492D01*
X495574Y758918D01*
X496317Y758485D01*
X496987Y758194D01*
X497584Y758043D01*
X498109Y758034D01*
X498561Y758166D01*
X498941Y758439D01*
X491911Y751409D01*
X492184Y751789D01*
X492316Y752241D01*
X492307Y752766D01*
X492157Y753363D01*
X491865Y754033D01*
X491432Y754776D01*
X490858Y755591D01*
X490143Y756478D01*
X488288Y758469D01*
X491880Y762062D01*
X492913Y761064D01*
D02*
G37*
G36*
X732456Y757251D02*
X733576Y756303D01*
X734072Y755958D01*
X734525Y755699D01*
X734934Y755527D01*
X735301Y755441D01*
X735624D01*
X735904Y755527D01*
X736141Y755699D01*
X731831Y751389D01*
X732003Y751626D01*
X732089Y751906D01*
Y752230D01*
X732003Y752596D01*
X731831Y753005D01*
X731572Y753458D01*
X731227Y753954D01*
X730796Y754492D01*
X729675Y755699D01*
X731831Y757855D01*
X732456Y757251D01*
D02*
G37*
G36*
X745771Y751823D02*
X745865Y751564D01*
X746020Y751336D01*
X746236Y751138D01*
X746513Y750970D01*
X746851Y750833D01*
X747251Y750726D01*
X747712Y750650D01*
X748234Y750604D01*
X748818Y750589D01*
Y747541D01*
X748238Y747533D01*
X746867Y747416D01*
X746532Y747346D01*
X746257Y747260D01*
X746044Y747159D01*
X745891Y747041D01*
X745800Y746909D01*
X745770Y746760D01*
X745739Y752113D01*
X745771Y751823D01*
D02*
G37*
G36*
X656367Y753589D02*
X656928Y753239D01*
X657585Y752931D01*
X658340Y752667D01*
X659192Y752445D01*
X660141Y752267D01*
X661188Y752131D01*
X663573Y751987D01*
X664911Y751980D01*
X656111Y743179D01*
X656103Y744517D01*
X655959Y746902D01*
X655824Y747949D01*
X655645Y748898D01*
X655423Y749750D01*
X655159Y750505D01*
X654851Y751162D01*
X654501Y751722D01*
X654109Y752185D01*
X655905Y753981D01*
X656367Y753589D01*
D02*
G37*
G36*
X794959Y742874D02*
X794430Y743760D01*
X793885Y744554D01*
X793326Y745254D01*
X792751Y745861D01*
X792161Y746374D01*
X791556Y746794D01*
X790936Y747121D01*
X790301Y747354D01*
X789650Y747494D01*
X788985Y747541D01*
X789831Y750589D01*
X790327Y750623D01*
X790894Y750726D01*
X791533Y750898D01*
X792242Y751138D01*
X793874Y751824D01*
X795790Y752784D01*
X797990Y754019D01*
X794959Y742874D01*
D02*
G37*
G36*
X516049Y743505D02*
X515833Y743429D01*
X515642Y743302D01*
X515477Y743124D01*
X515337Y742896D01*
X515223Y742616D01*
X515134Y742286D01*
X515071Y741905D01*
X515046Y741625D01*
X515071Y741345D01*
X515134Y740964D01*
X515223Y740634D01*
X515337Y740355D01*
X515477Y740126D01*
X515642Y739948D01*
X515833Y739821D01*
X516049Y739745D01*
X516290Y739719D01*
X511210D01*
X511451Y739745D01*
X511667Y739821D01*
X511858Y739948D01*
X512023Y740126D01*
X512163Y740355D01*
X512277Y740634D01*
X512366Y740964D01*
X512429Y741345D01*
X512454Y741625D01*
X512429Y741905D01*
X512366Y742286D01*
X512277Y742616D01*
X512163Y742896D01*
X512023Y743124D01*
X511858Y743302D01*
X511667Y743429D01*
X511451Y743505D01*
X511210Y743531D01*
X516290D01*
X516049Y743505D01*
D02*
G37*
G36*
X353609Y747694D02*
X353818Y747678D01*
X354026Y747651D01*
X354232Y747613D01*
X354435Y747564D01*
X354636Y747504D01*
X354833Y747434D01*
X355027Y747354D01*
X355216Y747264D01*
X355400Y747164D01*
X355578Y747055D01*
X355751Y746936D01*
X355917Y746808D01*
X356077Y746673D01*
X356228Y746528D01*
X356373Y746376D01*
X356509Y746217D01*
X356636Y746051D01*
X356755Y745879D01*
X356864Y745700D01*
X356964Y745516D01*
X357054Y745327D01*
X357134Y745133D01*
X357204Y744936D01*
X357264Y744735D01*
X357313Y744532D01*
X357351Y744326D01*
X357378Y744118D01*
X357394Y743909D01*
X357400Y743700D01*
X357394Y743491D01*
X357378Y743282D01*
X357351Y743074D01*
X357313Y742868D01*
X357264Y742665D01*
X357204Y742464D01*
X357134Y742266D01*
X357054Y742073D01*
X356964Y741884D01*
X356864Y741700D01*
X356755Y741521D01*
X356636Y741349D01*
X356509Y741183D01*
X356373Y741023D01*
X356228Y740872D01*
X356077Y740727D01*
X355917Y740591D01*
X355751Y740464D01*
X355579Y740345D01*
X355400Y740236D01*
X355216Y740136D01*
X355027Y740046D01*
X354833Y739966D01*
X354636Y739896D01*
X354435Y739836D01*
X354232Y739787D01*
X354026Y739749D01*
X353818Y739722D01*
X353609Y739705D01*
X353400Y739700D01*
X347400D01*
X347191Y739705D01*
X346982Y739722D01*
X346774Y739749D01*
X346568Y739787D01*
X346365Y739836D01*
X346164Y739896D01*
X345966Y739966D01*
X345773Y740046D01*
X345584Y740136D01*
X345400Y740236D01*
X345221Y740345D01*
X345049Y740464D01*
X344883Y740591D01*
X344724Y740727D01*
X344572Y740872D01*
X344427Y741023D01*
X344291Y741183D01*
X344164Y741349D01*
X344045Y741521D01*
X343936Y741700D01*
X343836Y741884D01*
X343746Y742073D01*
X343666Y742266D01*
X343596Y742464D01*
X343536Y742665D01*
X343488Y742868D01*
X343449Y743074D01*
X343422Y743282D01*
X343405Y743491D01*
X343400Y743700D01*
X343405Y743909D01*
X343422Y744118D01*
X343449Y744326D01*
X343487Y744532D01*
X343536Y744735D01*
X343596Y744936D01*
X343666Y745133D01*
X343746Y745327D01*
X343836Y745516D01*
X343936Y745700D01*
X344045Y745879D01*
X344164Y746051D01*
X344291Y746217D01*
X344427Y746376D01*
X344572Y746528D01*
X344724Y746673D01*
X344883Y746808D01*
X345049Y746936D01*
X345221Y747055D01*
X345400Y747164D01*
X345584Y747264D01*
X345773Y747354D01*
X345966Y747434D01*
X346164Y747504D01*
X346365Y747564D01*
X346568Y747613D01*
X346774Y747651D01*
X346982Y747678D01*
X347191Y747694D01*
X347400Y747700D01*
X353400D01*
X353609Y747694D01*
D02*
G37*
G36*
X446255Y740330D02*
X446332Y739463D01*
X446459Y738697D01*
X446636Y738033D01*
X446865Y737471D01*
X447144Y737011D01*
X447475Y736653D01*
X447856Y736396D01*
X448287Y736242D01*
X448770Y736189D01*
X439781Y736219D01*
X440041Y736270D01*
X440274Y736423D01*
X440479Y736677D01*
X440657Y737032D01*
X440808Y737489D01*
X440931Y738048D01*
X441027Y738709D01*
X441095Y739471D01*
X441150Y741300D01*
X446230D01*
X446255Y740330D01*
D02*
G37*
G36*
X294109Y744094D02*
X294318Y744078D01*
X294526Y744051D01*
X294732Y744013D01*
X294935Y743964D01*
X295136Y743904D01*
X295333Y743834D01*
X295527Y743754D01*
X295716Y743664D01*
X295900Y743564D01*
X296079Y743455D01*
X296251Y743336D01*
X296417Y743208D01*
X296576Y743073D01*
X296728Y742928D01*
X296873Y742776D01*
X297009Y742617D01*
X297136Y742451D01*
X297255Y742279D01*
X297364Y742100D01*
X297464Y741916D01*
X297554Y741727D01*
X297634Y741533D01*
X297704Y741336D01*
X297764Y741135D01*
X297813Y740932D01*
X297851Y740726D01*
X297878Y740518D01*
X297895Y740309D01*
X297900Y740100D01*
X297894Y739891D01*
X297878Y739682D01*
X297851Y739474D01*
X297813Y739268D01*
X297764Y739065D01*
X297704Y738864D01*
X297634Y738667D01*
X297554Y738473D01*
X297464Y738284D01*
X297364Y738100D01*
X297255Y737921D01*
X297136Y737749D01*
X297009Y737583D01*
X296873Y737423D01*
X296728Y737271D01*
X296576Y737127D01*
X296417Y736991D01*
X296251Y736864D01*
X296079Y736745D01*
X295900Y736636D01*
X295716Y736536D01*
X295527Y736446D01*
X295333Y736366D01*
X295136Y736296D01*
X294935Y736236D01*
X294732Y736187D01*
X294526Y736149D01*
X294318Y736122D01*
X294109Y736105D01*
X293900Y736100D01*
X287900D01*
X287691Y736105D01*
X287482Y736122D01*
X287274Y736149D01*
X287068Y736187D01*
X286865Y736236D01*
X286664Y736296D01*
X286467Y736366D01*
X286273Y736446D01*
X286084Y736536D01*
X285900Y736636D01*
X285721Y736745D01*
X285549Y736864D01*
X285383Y736991D01*
X285224Y737127D01*
X285072Y737271D01*
X284927Y737423D01*
X284792Y737583D01*
X284664Y737749D01*
X284545Y737921D01*
X284436Y738100D01*
X284336Y738284D01*
X284246Y738473D01*
X284166Y738667D01*
X284096Y738864D01*
X284036Y739065D01*
X283987Y739268D01*
X283949Y739474D01*
X283922Y739682D01*
X283906Y739891D01*
X283900Y740100D01*
X283906Y740309D01*
X283922Y740518D01*
X283949Y740726D01*
X283987Y740932D01*
X284036Y741135D01*
X284096Y741336D01*
X284166Y741533D01*
X284246Y741727D01*
X284336Y741916D01*
X284436Y742100D01*
X284545Y742279D01*
X284664Y742451D01*
X284791Y742617D01*
X284927Y742776D01*
X285072Y742928D01*
X285224Y743073D01*
X285383Y743208D01*
X285549Y743336D01*
X285721Y743455D01*
X285900Y743564D01*
X286084Y743664D01*
X286273Y743754D01*
X286467Y743834D01*
X286664Y743904D01*
X286865Y743964D01*
X287068Y744013D01*
X287274Y744051D01*
X287482Y744078D01*
X287691Y744094D01*
X287900Y744100D01*
X293900D01*
X294109Y744094D01*
D02*
G37*
G36*
X642859Y746415D02*
X643377Y745667D01*
X643928Y745006D01*
X644514Y744434D01*
X645133Y743950D01*
X645787Y743553D01*
X646474Y743245D01*
X647196Y743025D01*
X647951Y742893D01*
X648741Y742849D01*
X647328Y738277D01*
X646673Y738247D01*
X645975Y738158D01*
X645234Y738011D01*
X644450Y737804D01*
X643622Y737537D01*
X641838Y736827D01*
X640881Y736384D01*
X638838Y735319D01*
X642376Y747252D01*
X642859Y746415D01*
D02*
G37*
G36*
X415021Y730285D02*
X414793Y730042D01*
X414587Y729790D01*
X414402Y729528D01*
X414238Y729257D01*
X414095Y728977D01*
X413974Y728687D01*
X413873Y728388D01*
X413794Y728079D01*
X413736Y727761D01*
X413699Y727434D01*
X410556Y731193D01*
X410876Y731174D01*
X411188Y731184D01*
X411492Y731221D01*
X411788Y731285D01*
X412076Y731377D01*
X412356Y731497D01*
X412629Y731645D01*
X412893Y731820D01*
X413149Y732023D01*
X413397Y732253D01*
X415021Y730285D01*
D02*
G37*
G36*
X424705Y730453D02*
X424555Y730553D01*
X424317Y730643D01*
X423990Y730722D01*
X423574Y730790D01*
X422477Y730896D01*
X420167Y730975D01*
X419220Y730980D01*
Y733520D01*
X420167Y733525D01*
X423990Y733778D01*
X424317Y733857D01*
X424555Y733947D01*
X424705Y734047D01*
Y730453D01*
D02*
G37*
G36*
X419030Y729710D02*
X419005Y729951D01*
X418929Y730167D01*
X418802Y730358D01*
X418624Y730523D01*
X418396Y730663D01*
X418116Y730777D01*
X417786Y730866D01*
X417405Y730929D01*
X416973Y730967D01*
X416491Y730980D01*
Y733520D01*
X416973Y733533D01*
X417405Y733571D01*
X417786Y733634D01*
X418116Y733723D01*
X418396Y733838D01*
X418624Y733977D01*
X418802Y734142D01*
X418929Y734333D01*
X419005Y734549D01*
X419030Y734790D01*
Y729710D01*
D02*
G37*
G36*
X454716Y733262D02*
X454796Y733246D01*
X454929Y733231D01*
X455356Y733208D01*
X457356Y733184D01*
Y728104D01*
X454689Y728008D01*
Y733280D01*
X454716Y733262D01*
D02*
G37*
G36*
X434020Y736127D02*
X434173Y735820D01*
X434427Y735549D01*
X434782Y735315D01*
X435239Y735116D01*
X435798Y734954D01*
X436459Y734827D01*
X436901Y734775D01*
X437291Y734805D01*
X437952Y734914D01*
X438511Y735054D01*
X438968Y735225D01*
X439323Y735427D01*
X439577Y735660D01*
X439730Y735924D01*
X439781Y736219D01*
Y727781D01*
X439730Y728123D01*
X439577Y728430D01*
X439323Y728701D01*
X438968Y728935D01*
X438511Y729134D01*
X437952Y729296D01*
X437291Y729423D01*
X436849Y729475D01*
X436459Y729445D01*
X435798Y729336D01*
X435239Y729196D01*
X434782Y729025D01*
X434427Y728823D01*
X434173Y728590D01*
X434020Y728326D01*
X433969Y728030D01*
Y736469D01*
X434020Y736127D01*
D02*
G37*
G36*
X793941Y729719D02*
X793971Y722892D01*
X793923Y723326D01*
X793784Y723715D01*
X793552Y724058D01*
X793230Y724355D01*
X792815Y724606D01*
X792309Y724812D01*
X791712Y724972D01*
X791022Y725087D01*
X790241Y725155D01*
X789369Y725178D01*
Y729750D01*
X793941Y729719D01*
D02*
G37*
G36*
X463075Y728553D02*
X464947Y726966D01*
X465774Y726388D01*
X466528Y725954D01*
X467210Y725664D01*
X467820Y725517D01*
X468358Y725514D01*
X468822Y725655D01*
X469215Y725939D01*
X462061Y718785D01*
X462345Y719178D01*
X462486Y719642D01*
X462483Y720180D01*
X462336Y720790D01*
X462046Y721472D01*
X461612Y722226D01*
X461034Y723054D01*
X460312Y723953D01*
X458438Y725969D01*
X462030Y729562D01*
X463075Y728553D01*
D02*
G37*
G36*
X656114Y717411D02*
X656089Y717655D01*
X656029Y717874D01*
X655934Y718067D01*
X655805Y718234D01*
X655641Y718375D01*
X655442Y718491D01*
X655209Y718581D01*
X654940Y718645D01*
X654638Y718684D01*
X654300Y718697D01*
Y720983D01*
X654751Y720994D01*
X655169Y721028D01*
X655552Y721084D01*
X655901Y721163D01*
X656217Y721264D01*
X656498Y721387D01*
X656746Y721533D01*
X656959Y721702D01*
X657139Y721893D01*
X657284Y722106D01*
X656114Y717411D01*
D02*
G37*
G36*
X497283Y719397D02*
X497531Y719196D01*
X497789Y719019D01*
X498059Y718866D01*
X498340Y718736D01*
X498632Y718630D01*
X498934Y718547D01*
X499248Y718488D01*
X499572Y718453D01*
X499908Y718441D01*
Y715901D01*
X499572Y715889D01*
X499248Y715854D01*
X498934Y715795D01*
X498632Y715712D01*
X498340Y715606D01*
X498059Y715476D01*
X497789Y715322D01*
X497531Y715145D01*
X497283Y714945D01*
X497046Y714721D01*
Y719621D01*
X497283Y719397D01*
D02*
G37*
G36*
X487965Y719469D02*
X488042Y719253D01*
X488170Y719063D01*
X488350Y718898D01*
X488582Y718758D01*
X488864Y718644D01*
X489199Y718555D01*
X489584Y718492D01*
X489748Y718477D01*
X489845Y718488D01*
X490159Y718547D01*
X490462Y718630D01*
X490753Y718736D01*
X491034Y718866D01*
X491304Y719019D01*
X491562Y719196D01*
X491810Y719397D01*
X492047Y719621D01*
Y714721D01*
X491810Y714945D01*
X491562Y715145D01*
X491304Y715322D01*
X491034Y715476D01*
X490753Y715606D01*
X490462Y715712D01*
X490159Y715795D01*
X489845Y715854D01*
X489748Y715864D01*
X489584Y715850D01*
X489199Y715786D01*
X488864Y715697D01*
X488582Y715583D01*
X488350Y715443D01*
X488170Y715278D01*
X488042Y715088D01*
X487965Y714872D01*
X487939Y714631D01*
Y719711D01*
X487965Y719469D01*
D02*
G37*
%LPC*%
G36*
X802160Y858871D02*
X799476Y858517D01*
X796975Y857481D01*
X795640Y856457D01*
X797243Y854853D01*
X795807Y853417D01*
X794203Y855020D01*
X793179Y853685D01*
X792143Y851184D01*
X791789Y848500D01*
X792143Y845816D01*
X793179Y843315D01*
X794203Y841980D01*
X795807Y843584D01*
X797243Y842147D01*
X795640Y840543D01*
X796975Y839519D01*
X799476Y838483D01*
X802160Y838129D01*
X804844Y838483D01*
X807345Y839519D01*
X808680Y840543D01*
X807076Y842147D01*
X808513Y843584D01*
X810117Y841980D01*
X811141Y843315D01*
X812177Y845816D01*
X812531Y848500D01*
X812177Y851184D01*
X811141Y853685D01*
X810117Y855020D01*
X808513Y853417D01*
X807076Y854853D01*
X808680Y856457D01*
X807345Y857481D01*
X804844Y858517D01*
X802160Y858871D01*
D02*
G37*
G36*
X401426Y843216D02*
X400486Y843072D01*
X392643D01*
X392619Y843005D01*
X392536Y842702D01*
X392500Y842509D01*
X392544Y842239D01*
X392633Y841904D01*
X392747Y841622D01*
X392887Y841390D01*
X393052Y841210D01*
X393243Y841082D01*
X393459Y841005D01*
X393700Y840979D01*
X388620D01*
X388861Y841005D01*
X389077Y841082D01*
X389268Y841210D01*
X389433Y841390D01*
X389572Y841622D01*
X389687Y841904D01*
X389776Y842239D01*
X389820Y842509D01*
X389784Y842702D01*
X389701Y843005D01*
X389677Y843072D01*
X381628D01*
Y830508D01*
X400486D01*
X400692Y830508D01*
X401632Y830652D01*
X420490D01*
Y843216D01*
X412011D01*
X411960Y843028D01*
X411908Y842750D01*
X411968Y842383D01*
X412057Y842048D01*
X412172Y841766D01*
X412311Y841534D01*
X412476Y841354D01*
X412667Y841226D01*
X412883Y841149D01*
X413124Y841123D01*
X408044D01*
X408285Y841149D01*
X408501Y841226D01*
X408692Y841354D01*
X408857Y841534D01*
X408997Y841766D01*
X409111Y842048D01*
X409200Y842383D01*
X409260Y842750D01*
X409208Y843028D01*
X409157Y843216D01*
X401632D01*
X401426Y843216D01*
D02*
G37*
G36*
X715800Y857327D02*
X712858Y856940D01*
X710116Y855804D01*
X707762Y853998D01*
X705956Y851644D01*
X704820Y848902D01*
X704433Y845960D01*
X704820Y843018D01*
X705956Y840276D01*
X707762Y837922D01*
X710116Y836116D01*
X712858Y834980D01*
X715800Y834593D01*
X718742Y834980D01*
X721484Y836116D01*
X723838Y837922D01*
X725644Y840276D01*
X726780Y843018D01*
X727167Y845960D01*
X726780Y848902D01*
X725644Y851644D01*
X723838Y853998D01*
X721484Y855804D01*
X718742Y856940D01*
X715800Y857327D01*
D02*
G37*
G36*
X468020Y844160D02*
X452480D01*
Y830620D01*
X468020D01*
Y834613D01*
X468050Y834626D01*
X468238Y834676D01*
X468506Y834720D01*
X468848Y834750D01*
X469295Y834761D01*
X469418Y834816D01*
X470582D01*
X470704Y834761D01*
X471144Y834750D01*
X471481Y834720D01*
X471744Y834676D01*
X471925Y834627D01*
X471976Y834607D01*
X471980Y834599D01*
Y831980D01*
X489520D01*
Y843020D01*
X471980D01*
Y840212D01*
X471976Y840204D01*
X471925Y840183D01*
X471744Y840135D01*
X471481Y840091D01*
X471144Y840061D01*
X470704Y840050D01*
X470582Y839995D01*
X469418D01*
X469295Y840050D01*
X468848Y840061D01*
X468506Y840091D01*
X468238Y840135D01*
X468050Y840185D01*
X468020Y840197D01*
Y844160D01*
D02*
G37*
G36*
X802160Y832702D02*
X799675Y832375D01*
X797359Y831416D01*
X795370Y829890D01*
X794744Y829073D01*
X794515Y828947D01*
X793856Y828120D01*
X793229Y827411D01*
X792618Y826798D01*
X792026Y826279D01*
X791454Y825853D01*
X790908Y825517D01*
X790388Y825267D01*
X789895Y825097D01*
X789426Y824999D01*
X788878Y824960D01*
X788840Y824941D01*
X788799Y824952D01*
X788732Y824914D01*
X748964D01*
X748853Y824963D01*
X748310Y824977D01*
X747881Y825015D01*
X747537Y825072D01*
X747284Y825139D01*
X747126Y825203D01*
X747111Y825212D01*
X747106Y825258D01*
X747070Y825324D01*
Y826800D01*
X730530D01*
Y815260D01*
X747070D01*
Y818806D01*
X747106Y818872D01*
X747111Y818918D01*
X747126Y818927D01*
X747284Y818991D01*
X747537Y819058D01*
X747881Y819115D01*
X748310Y819153D01*
X748853Y819167D01*
X748964Y819216D01*
X789179D01*
X789273Y819170D01*
X789759Y819136D01*
X790222Y819047D01*
X790759Y818888D01*
X791363Y818652D01*
X792029Y818338D01*
X792729Y817956D01*
X795272Y816257D01*
X796197Y815545D01*
X796197Y815545D01*
X796197Y815545D01*
X796201Y815542D01*
X796464Y815471D01*
X797359Y814784D01*
X799675Y813825D01*
X802160Y813498D01*
X804645Y813825D01*
X806961Y814784D01*
X808950Y816310D01*
X810476Y818299D01*
X811435Y820615D01*
X811762Y823100D01*
X811435Y825585D01*
X810476Y827901D01*
X808950Y829890D01*
X806961Y831416D01*
X804645Y832375D01*
X802160Y832702D01*
D02*
G37*
G36*
X490282Y826282D02*
X471218D01*
Y813718D01*
X479249D01*
X479291Y813835D01*
X479374Y814138D01*
X479406Y814308D01*
X479366Y814551D01*
X479277Y814886D01*
X479162Y815168D01*
X479023Y815400D01*
X478858Y815580D01*
X478667Y815708D01*
X478451Y815785D01*
X478210Y815811D01*
X483290D01*
X483049Y815785D01*
X482833Y815708D01*
X482642Y815580D01*
X482477Y815400D01*
X482337Y815168D01*
X482223Y814886D01*
X482134Y814551D01*
X482094Y814308D01*
X482126Y814138D01*
X482209Y813835D01*
X482251Y813718D01*
X490282D01*
Y826282D01*
D02*
G37*
G36*
X768832Y818062D02*
X750768D01*
X750768Y804998D01*
X749818Y804879D01*
X748964D01*
X748853Y804928D01*
X748310Y804942D01*
X747881Y804980D01*
X747537Y805037D01*
X747284Y805104D01*
X747126Y805168D01*
X747111Y805177D01*
X747106Y805223D01*
X747070Y805289D01*
Y807800D01*
X730530D01*
Y796260D01*
X747070D01*
Y798771D01*
X747106Y798837D01*
X747111Y798883D01*
X747126Y798892D01*
X747284Y798956D01*
X747537Y799023D01*
X747881Y799080D01*
X748310Y799118D01*
X748853Y799132D01*
X748964Y799181D01*
X765278D01*
X768774Y795686D01*
X768774Y795686D01*
X769698Y795068D01*
X770788Y794851D01*
X788913D01*
X789007Y794805D01*
X789530Y794768D01*
X790001Y794674D01*
X790519Y794506D01*
X791085Y794259D01*
X791693Y793929D01*
X792342Y793512D01*
X793015Y793018D01*
X794514Y791722D01*
X795305Y790945D01*
X795361Y790922D01*
X795370Y790910D01*
X797359Y789384D01*
X799675Y788425D01*
X802160Y788098D01*
X804645Y788425D01*
X806961Y789384D01*
X808950Y790910D01*
X810476Y792899D01*
X811435Y795215D01*
X811762Y797700D01*
X811435Y800185D01*
X810476Y802501D01*
X808950Y804490D01*
X806961Y806016D01*
X804645Y806975D01*
X802160Y807302D01*
X799675Y806975D01*
X797359Y806016D01*
X795376Y804494D01*
X795324Y804474D01*
X793739Y802976D01*
X793029Y802392D01*
X792342Y801888D01*
X791693Y801471D01*
X791085Y801141D01*
X790519Y800894D01*
X790001Y800726D01*
X789530Y800632D01*
X789007Y800595D01*
X788913Y800549D01*
X771968D01*
X768519Y803998D01*
X768527Y804124D01*
X768832Y804998D01*
X768832D01*
Y810248D01*
X768821Y810247D01*
X768384Y810209D01*
X767999Y810146D01*
X767664Y810057D01*
X767382Y809942D01*
X767150Y809803D01*
X766970Y809638D01*
X766842Y809447D01*
X766765Y809231D01*
X766739Y808990D01*
Y814070D01*
X766765Y813829D01*
X766842Y813613D01*
X766970Y813422D01*
X767150Y813257D01*
X767382Y813118D01*
X767664Y813003D01*
X767999Y812914D01*
X768384Y812851D01*
X768821Y812813D01*
X768832Y812812D01*
Y818062D01*
D02*
G37*
G36*
X468020Y826380D02*
X452480D01*
Y812840D01*
X455161D01*
X455888Y811840D01*
X455638Y810585D01*
X456009Y808724D01*
X457063Y807146D01*
X458641Y806092D01*
X460502Y805721D01*
X462363Y806092D01*
X463941Y807146D01*
X464995Y808724D01*
X465365Y810585D01*
X465116Y811840D01*
X465843Y812840D01*
X468020D01*
Y826380D01*
D02*
G37*
G36*
X419728Y824954D02*
X402188D01*
Y813914D01*
X406584D01*
X406650Y813878D01*
X406971Y813844D01*
X407087Y813803D01*
X407190Y813734D01*
X407317Y813596D01*
X407468Y813348D01*
X407622Y812967D01*
X407761Y812450D01*
X407868Y811802D01*
X407928Y811120D01*
X407749Y810851D01*
X407379Y808990D01*
X407749Y807129D01*
X408803Y805551D01*
X410381Y804497D01*
X412242Y804127D01*
X414103Y804497D01*
X415681Y805551D01*
X416735Y807129D01*
X417105Y808990D01*
X416735Y810851D01*
X415925Y812064D01*
X415988Y812450D01*
X416127Y812967D01*
X416282Y813348D01*
X416432Y813596D01*
X416559Y813734D01*
X416663Y813803D01*
X416779Y813844D01*
X417099Y813878D01*
X417166Y813914D01*
X419728D01*
Y824954D01*
D02*
G37*
G36*
X402778Y808824D02*
X400916Y808454D01*
X399339Y807400D01*
X398284Y805822D01*
X397914Y803961D01*
X398237Y802336D01*
X398121Y802126D01*
X397613Y801336D01*
X397613Y801336D01*
X397613Y801336D01*
Y800215D01*
X397539Y800036D01*
X397583Y799930D01*
X397556Y799819D01*
X397613Y799726D01*
Y791176D01*
X407773D01*
Y799717D01*
X407828Y799804D01*
X407801Y799923D01*
X407847Y800036D01*
X407773Y800215D01*
Y801336D01*
X407773Y801336D01*
X407318Y802336D01*
X407641Y803961D01*
X407271Y805822D01*
X406217Y807400D01*
X404639Y808454D01*
X402778Y808824D01*
D02*
G37*
G36*
X665000Y809218D02*
X662348Y808868D01*
X659876Y807845D01*
X657754Y806216D01*
X656125Y804094D01*
X655101Y801622D01*
X654752Y798970D01*
X655101Y796318D01*
X656125Y793846D01*
X657754Y791724D01*
X659876Y790095D01*
X662348Y789072D01*
X665000Y788722D01*
X667652Y789072D01*
X670124Y790095D01*
X672246Y791724D01*
X673875Y793846D01*
X674899Y796318D01*
X675248Y798970D01*
X674899Y801622D01*
X673875Y804094D01*
X672246Y806216D01*
X670124Y807845D01*
X667652Y808868D01*
X665000Y809218D01*
D02*
G37*
G36*
X412853Y779238D02*
X397105D01*
Y774984D01*
X397134Y774967D01*
X397415Y774837D01*
X397706Y774731D01*
X397959Y774662D01*
X398273Y774745D01*
X398555Y774860D01*
X398787Y774999D01*
X398967Y775165D01*
X399095Y775355D01*
X399172Y775571D01*
X399198Y775812D01*
Y770732D01*
X399172Y770974D01*
X399095Y771189D01*
X398967Y771380D01*
X398787Y771545D01*
X398555Y771685D01*
X398273Y771799D01*
X397959Y771882D01*
X397706Y771814D01*
X397415Y771707D01*
X397134Y771578D01*
X397105Y771561D01*
Y767554D01*
X412853D01*
Y779238D01*
D02*
G37*
G36*
X768832Y767262D02*
X750768D01*
Y754198D01*
X768832D01*
Y759393D01*
X768729Y759413D01*
X768594Y759427D01*
X768384Y759409D01*
X767999Y759346D01*
X767664Y759257D01*
X767382Y759143D01*
X767150Y759003D01*
X766970Y758838D01*
X766842Y758647D01*
X766765Y758431D01*
X766739Y758190D01*
Y763270D01*
X766765Y763029D01*
X766842Y762813D01*
X766970Y762622D01*
X767150Y762457D01*
X767382Y762318D01*
X767664Y762203D01*
X767999Y762114D01*
X768384Y762051D01*
X768594Y762032D01*
X768729Y762047D01*
X768832Y762067D01*
Y767262D01*
D02*
G37*
G36*
X675160Y778650D02*
X654840D01*
Y758330D01*
X675160D01*
Y778650D01*
D02*
G37*
G36*
X644680D02*
X624360D01*
Y758330D01*
X644680D01*
Y778650D01*
D02*
G37*
G36*
X395224Y765593D02*
X393363Y765223D01*
X391785Y764169D01*
X390731Y762591D01*
X390361Y760730D01*
X390731Y758869D01*
X390819Y758736D01*
X390803Y758523D01*
X390342Y757728D01*
X386708D01*
Y746688D01*
X404248D01*
Y757728D01*
X400106D01*
X399645Y758523D01*
X399629Y758736D01*
X399717Y758869D01*
X400087Y760730D01*
X399717Y762591D01*
X398663Y764169D01*
X397085Y765223D01*
X395224Y765593D01*
D02*
G37*
G36*
X598132Y746532D02*
X590238D01*
X590176Y746396D01*
X590070Y746105D01*
X589987Y745802D01*
X589982Y745777D01*
X589995Y745699D01*
X590084Y745364D01*
X590198Y745082D01*
X590338Y744850D01*
X590503Y744670D01*
X590694Y744542D01*
X590910Y744465D01*
X591151Y744439D01*
X586071D01*
X586312Y744465D01*
X586528Y744542D01*
X586719Y744670D01*
X586884Y744850D01*
X587023Y745082D01*
X587138Y745364D01*
X587227Y745699D01*
X587239Y745777D01*
X587235Y745802D01*
X587152Y746105D01*
X587046Y746396D01*
X586983Y746532D01*
X579068D01*
Y733968D01*
X598132D01*
Y746532D01*
D02*
G37*
G36*
X487032Y752532D02*
X467968D01*
Y739968D01*
X476191D01*
X476203Y740031D01*
X476219Y740184D01*
X476199Y740416D01*
X476136Y740801D01*
X476047Y741136D01*
X475933Y741418D01*
X475793Y741650D01*
X475628Y741830D01*
X475437Y741958D01*
X475221Y742035D01*
X474980Y742061D01*
X480060D01*
X479819Y742035D01*
X479603Y741958D01*
X479412Y741830D01*
X479247Y741650D01*
X479108Y741418D01*
X478993Y741136D01*
X478904Y740801D01*
X478841Y740416D01*
X478821Y740184D01*
X478837Y740031D01*
X478849Y739968D01*
X487032D01*
Y752532D01*
D02*
G37*
G36*
X533567Y755462D02*
X531706Y755091D01*
X530129Y754037D01*
X529074Y752459D01*
X528704Y750598D01*
X528968Y749270D01*
X528275Y748270D01*
X524830D01*
Y737230D01*
X542370D01*
Y748270D01*
X538860D01*
X538167Y749270D01*
X538431Y750598D01*
X538061Y752459D01*
X537006Y754037D01*
X535429Y755091D01*
X533567Y755462D01*
D02*
G37*
G36*
X551640Y760584D02*
X549779Y760214D01*
X548201Y759160D01*
X547147Y757582D01*
X546777Y755721D01*
X547015Y754520D01*
X546930Y753520D01*
X546930Y753520D01*
X546930Y753520D01*
Y752399D01*
X546856Y752220D01*
X546918Y752070D01*
X546891Y751910D01*
X546930Y751855D01*
Y738480D01*
X555568D01*
Y737718D01*
X559427D01*
X559474Y737888D01*
X559528Y738175D01*
X559466Y738551D01*
X559377Y738886D01*
X559263Y739168D01*
X559123Y739400D01*
X558958Y739580D01*
X558767Y739708D01*
X558551Y739785D01*
X558310Y739811D01*
X563390D01*
X563149Y739785D01*
X562933Y739708D01*
X562742Y739580D01*
X562577Y739400D01*
X562438Y739168D01*
X562323Y738886D01*
X562234Y738551D01*
X562172Y738175D01*
X562226Y737888D01*
X562272Y737718D01*
X564719D01*
X565353Y736945D01*
X565235Y736352D01*
X565605Y734490D01*
X566659Y732913D01*
X568237Y731858D01*
X570098Y731488D01*
X571959Y731858D01*
X573537Y732913D01*
X574592Y734490D01*
X574962Y736352D01*
X574737Y737480D01*
X574770Y738480D01*
X574770Y738480D01*
X574770Y738480D01*
Y739601D01*
X574844Y739781D01*
X574782Y739932D01*
X574808Y740093D01*
X574770Y740146D01*
Y753520D01*
X566132D01*
Y754282D01*
X557006D01*
X556371Y755055D01*
X556503Y755721D01*
X556133Y757582D01*
X555079Y759160D01*
X553501Y760214D01*
X551640Y760584D01*
D02*
G37*
G36*
X573474Y728594D02*
X573398Y728563D01*
X573319Y728586D01*
X573199Y728520D01*
X565730D01*
Y713480D01*
X574770D01*
Y717964D01*
X574806Y718029D01*
X574835Y718302D01*
X574862Y718376D01*
X574907Y718442D01*
X575010Y718537D01*
X575213Y718660D01*
X575538Y718792D01*
X575988Y718913D01*
X576560Y719008D01*
X577247Y719068D01*
X577362Y719071D01*
X578057Y719019D01*
X578641Y718937D01*
X579106Y718831D01*
X579444Y718714D01*
X579652Y718606D01*
X579741Y718537D01*
X579745Y718532D01*
X579766Y718361D01*
X579830Y718249D01*
Y717230D01*
X580951D01*
X581130Y717156D01*
X581214Y717190D01*
X581300Y717166D01*
X581412Y717230D01*
X592243D01*
X594346Y715126D01*
X594346Y715126D01*
X595523Y714340D01*
X596910Y714064D01*
X596910Y714064D01*
X620453D01*
X620522Y714031D01*
X621196Y713996D01*
X621805Y713900D01*
X622427Y713736D01*
X623063Y713504D01*
X623714Y713198D01*
X624382Y712818D01*
X625064Y712359D01*
X625761Y711821D01*
X626470Y711203D01*
X627214Y710481D01*
X627259Y710463D01*
X627274Y710444D01*
X629396Y708815D01*
X631868Y707792D01*
X634520Y707442D01*
X637172Y707792D01*
X639644Y708815D01*
X641766Y710444D01*
X643395Y712566D01*
X644418Y715038D01*
X644768Y717690D01*
X644418Y720342D01*
X643395Y722814D01*
X641766Y724936D01*
X639644Y726565D01*
X637172Y727589D01*
X634520Y727938D01*
X631868Y727589D01*
X629396Y726565D01*
X627274Y724936D01*
X627259Y724917D01*
X627214Y724899D01*
X626470Y724177D01*
X625761Y723559D01*
X625064Y723021D01*
X624382Y722562D01*
X623714Y722182D01*
X623063Y721876D01*
X622427Y721644D01*
X621805Y721481D01*
X621196Y721384D01*
X620522Y721349D01*
X620453Y721316D01*
X598412D01*
X597370Y722357D01*
Y728270D01*
X581412D01*
X581300Y728334D01*
X581214Y728310D01*
X581130Y728344D01*
X580951Y728270D01*
X579830D01*
Y727251D01*
X579766Y727139D01*
X579745Y726969D01*
X579741Y726963D01*
X579652Y726893D01*
X579444Y726786D01*
X579106Y726669D01*
X578665Y726569D01*
X577342Y726429D01*
X577248Y726431D01*
X576562Y726489D01*
X575990Y726580D01*
X575538Y726696D01*
X575213Y726823D01*
X575011Y726941D01*
X574915Y727026D01*
X574881Y727076D01*
X574863Y727123D01*
X574836Y727370D01*
X574770Y727490D01*
Y728520D01*
X573652D01*
X573474Y728594D01*
D02*
G37*
G36*
X387142Y725558D02*
X382367D01*
X382317Y725295D01*
X382310Y725231D01*
X382321Y725110D01*
X382384Y724725D01*
X382473Y724390D01*
X382588Y724108D01*
X382727Y723876D01*
X382892Y723696D01*
X383083Y723568D01*
X383299Y723491D01*
X383540Y723465D01*
X378460D01*
X378701Y723491D01*
X378917Y723568D01*
X379108Y723696D01*
X379273Y723876D01*
X379412Y724108D01*
X379527Y724390D01*
X379616Y724725D01*
X379679Y725110D01*
X379690Y725231D01*
X379683Y725295D01*
X379633Y725558D01*
X374578D01*
Y706494D01*
X387142D01*
Y725558D01*
D02*
G37*
G36*
X436032Y721032D02*
X416968D01*
Y716290D01*
X417165Y716199D01*
X417457Y716093D01*
X417751Y716012D01*
X417786Y716018D01*
X418116Y716107D01*
X418396Y716221D01*
X418624Y716361D01*
X418802Y716526D01*
X418929Y716717D01*
X419005Y716933D01*
X419030Y717174D01*
Y712094D01*
X419005Y712335D01*
X418929Y712551D01*
X418802Y712742D01*
X418624Y712907D01*
X418396Y713046D01*
X418116Y713161D01*
X417786Y713250D01*
X417751Y713255D01*
X417457Y713175D01*
X417165Y713069D01*
X416968Y712978D01*
Y708468D01*
X436032D01*
Y713218D01*
X436021Y713217D01*
X435584Y713179D01*
X435199Y713116D01*
X434864Y713027D01*
X434582Y712913D01*
X434350Y712773D01*
X434170Y712608D01*
X434042Y712417D01*
X433965Y712201D01*
X433939Y711960D01*
Y717040D01*
X433965Y716799D01*
X434042Y716583D01*
X434170Y716392D01*
X434350Y716227D01*
X434582Y716087D01*
X434864Y715973D01*
X435199Y715884D01*
X435584Y715821D01*
X436021Y715783D01*
X436032Y715782D01*
Y721032D01*
D02*
G37*
G36*
X555970Y728520D02*
X546930D01*
Y713480D01*
X555970D01*
Y728520D01*
D02*
G37*
G36*
X456782Y720782D02*
X437718D01*
Y715783D01*
X437723Y715783D01*
X438155Y715821D01*
X438536Y715884D01*
X438866Y715973D01*
X439146Y716087D01*
X439374Y716227D01*
X439552Y716392D01*
X439679Y716583D01*
X439755Y716799D01*
X439781Y717040D01*
Y711960D01*
X439755Y712201D01*
X439679Y712417D01*
X439552Y712608D01*
X439374Y712773D01*
X439146Y712913D01*
X438866Y713027D01*
X438536Y713116D01*
X438155Y713179D01*
X437723Y713217D01*
X437718Y713217D01*
Y708218D01*
X456782D01*
Y720782D01*
D02*
G37*
G36*
X342500Y731367D02*
X339558Y730980D01*
X336816Y729844D01*
X334462Y728038D01*
X332656Y725684D01*
X331520Y722942D01*
X331133Y720000D01*
X331520Y717058D01*
X332656Y714316D01*
X334462Y711962D01*
X336816Y710156D01*
X339558Y709020D01*
X342500Y708633D01*
X345442Y709020D01*
X348184Y710156D01*
X350538Y711962D01*
X352344Y714316D01*
X353480Y717058D01*
X353867Y720000D01*
X353480Y722942D01*
X352344Y725684D01*
X350538Y728038D01*
X348184Y729844D01*
X345442Y730980D01*
X342500Y731367D01*
D02*
G37*
G36*
X374142Y744759D02*
X372964Y744525D01*
X371965Y743857D01*
X371297Y742858D01*
X371208Y742408D01*
X361529Y732729D01*
X360967Y731889D01*
X360770Y730898D01*
Y726193D01*
X360716Y726071D01*
X360704Y725624D01*
X360674Y725282D01*
X360630Y725014D01*
X360580Y724826D01*
X360568Y724796D01*
X357840D01*
Y707256D01*
X368880D01*
Y724796D01*
X366152D01*
X366140Y724826D01*
X366090Y725014D01*
X366046Y725282D01*
X366016Y725624D01*
X366004Y726071D01*
X365950Y726194D01*
Y729825D01*
X374870Y738746D01*
X375320Y738835D01*
X376319Y739503D01*
X376987Y740502D01*
X377221Y741680D01*
X376987Y742858D01*
X376319Y743857D01*
X375320Y744525D01*
X374142Y744759D01*
D02*
G37*
%LPD*%
G36*
X473280Y834865D02*
X473255Y835107D01*
X473179Y835323D01*
X473052Y835513D01*
X472874Y835678D01*
X472645Y835818D01*
X472366Y835932D01*
X472036Y836021D01*
X471655Y836085D01*
X471223Y836123D01*
X470741Y836135D01*
Y838675D01*
X471223Y838688D01*
X471655Y838726D01*
X472036Y838790D01*
X472366Y838879D01*
X472645Y838993D01*
X472874Y839133D01*
X473052Y839298D01*
X473179Y839488D01*
X473255Y839704D01*
X473280Y839945D01*
Y834865D01*
D02*
G37*
G36*
X466715Y839704D02*
X466792Y839488D01*
X466920Y839298D01*
X467100Y839133D01*
X467332Y838993D01*
X467614Y838879D01*
X467949Y838790D01*
X468334Y838726D01*
X468771Y838688D01*
X469259Y838675D01*
Y836135D01*
X468771Y836123D01*
X468334Y836085D01*
X467949Y836021D01*
X467614Y835932D01*
X467332Y835818D01*
X467100Y835678D01*
X466920Y835513D01*
X466792Y835323D01*
X466715Y835107D01*
X466689Y834865D01*
Y839945D01*
X466715Y839704D01*
D02*
G37*
G36*
X745770Y824823D02*
X745862Y824564D01*
X746016Y824336D01*
X746232Y824138D01*
X746509Y823970D01*
X746847Y823833D01*
X747247Y823726D01*
X747709Y823650D01*
X748233Y823604D01*
X748818Y823589D01*
Y820541D01*
X748233Y820526D01*
X747709Y820480D01*
X747247Y820404D01*
X746847Y820297D01*
X746509Y820160D01*
X746232Y819992D01*
X746016Y819794D01*
X745862Y819566D01*
X745770Y819307D01*
X745739Y819017D01*
Y825113D01*
X745770Y824823D01*
D02*
G37*
G36*
X797039Y816631D02*
X796074Y817374D01*
X793441Y819134D01*
X792652Y819564D01*
X791907Y819915D01*
X791206Y820189D01*
X790549Y820385D01*
X789936Y820502D01*
X789367Y820541D01*
X788975Y823589D01*
X789616Y823634D01*
X790262Y823769D01*
X790913Y823994D01*
X791568Y824309D01*
X792227Y824714D01*
X792891Y825209D01*
X793559Y825795D01*
X794232Y826470D01*
X794909Y827235D01*
X795590Y828090D01*
X797039Y816631D01*
D02*
G37*
G36*
X745770Y804788D02*
X745862Y804529D01*
X746016Y804301D01*
X746232Y804103D01*
X746509Y803935D01*
X746847Y803798D01*
X747247Y803691D01*
X747709Y803615D01*
X748233Y803569D01*
X748818Y803554D01*
Y800506D01*
X748233Y800491D01*
X747709Y800445D01*
X747247Y800369D01*
X746847Y800262D01*
X746509Y800125D01*
X746232Y799957D01*
X746016Y799759D01*
X745862Y799531D01*
X745770Y799272D01*
X745739Y798982D01*
Y805078D01*
X745770Y804788D01*
D02*
G37*
G36*
X796268Y791925D02*
X795447Y792733D01*
X793873Y794093D01*
X793122Y794646D01*
X792393Y795113D01*
X791688Y795496D01*
X791007Y795793D01*
X790349Y796006D01*
X789714Y796133D01*
X789102Y796176D01*
Y799224D01*
X789714Y799267D01*
X790349Y799394D01*
X791007Y799607D01*
X791688Y799904D01*
X792393Y800287D01*
X793122Y800754D01*
X793873Y801307D01*
X794648Y801945D01*
X796268Y803475D01*
Y791925D01*
D02*
G37*
G36*
X463637Y814136D02*
X463485Y814033D01*
X463352Y813860D01*
X463236Y813617D01*
X463138Y813306D01*
X463058Y812925D01*
X462996Y812475D01*
X462925Y811368D01*
X462916Y810711D01*
X457836D01*
X457827Y811368D01*
X457694Y812925D01*
X457613Y813306D01*
X457516Y813617D01*
X457400Y813860D01*
X457266Y814033D01*
X457115Y814136D01*
X456946Y814171D01*
X463806D01*
X463637Y814136D01*
D02*
G37*
G36*
X416472Y815194D02*
X416040Y815041D01*
X415659Y814785D01*
X415329Y814427D01*
X415050Y813967D01*
X414821Y813405D01*
X414643Y812741D01*
X414516Y811974D01*
X414440Y811105D01*
X414415Y810135D01*
X409335D01*
X409309Y811105D01*
X409233Y811974D01*
X409106Y812741D01*
X408928Y813405D01*
X408700Y813967D01*
X408420Y814427D01*
X408090Y814785D01*
X407709Y815041D01*
X407277Y815194D01*
X406795Y815245D01*
X416955D01*
X416472Y815194D01*
D02*
G37*
G36*
X405287Y803181D02*
X405383Y801938D01*
X405467Y801433D01*
X405575Y801006D01*
X405706Y800657D01*
X405862Y800385D01*
X406041Y800191D01*
X406245Y800074D01*
X406473Y800036D01*
X398913D01*
X399157Y800074D01*
X399375Y800191D01*
X399567Y800385D01*
X399734Y800657D01*
X399875Y801006D01*
X399990Y801433D01*
X400080Y801938D01*
X400144Y802521D01*
X400195Y803918D01*
X405275D01*
X405287Y803181D01*
D02*
G37*
G36*
X397782Y759907D02*
X397923Y758520D01*
X398046Y757957D01*
X398205Y757480D01*
X398399Y757090D01*
X398628Y756787D01*
X398892Y756570D01*
X399192Y756440D01*
X399526Y756397D01*
X390922D01*
X391256Y756440D01*
X391556Y756570D01*
X391820Y756787D01*
X392049Y757090D01*
X392243Y757480D01*
X392402Y757957D01*
X392525Y758520D01*
X392613Y759170D01*
X392666Y759907D01*
X392684Y760730D01*
X397764D01*
X397782Y759907D01*
D02*
G37*
G36*
X536134Y749890D02*
X536220Y748724D01*
X536295Y748250D01*
X536392Y747850D01*
X536510Y747522D01*
X536649Y747267D01*
X536810Y747085D01*
X536992Y746975D01*
X537196Y746939D01*
X529972D01*
X530175Y746975D01*
X530358Y747085D01*
X530518Y747267D01*
X530658Y747522D01*
X530776Y747850D01*
X530872Y748250D01*
X530947Y748724D01*
X531001Y749270D01*
X531044Y750582D01*
X536124D01*
X536134Y749890D01*
D02*
G37*
G36*
X554091Y754978D02*
X554231Y753071D01*
X554296Y752765D01*
X554371Y752526D01*
X554459Y752356D01*
X554558Y752254D01*
X554669Y752220D01*
X548231D01*
X548378Y752254D01*
X548509Y752356D01*
X548625Y752526D01*
X548726Y752765D01*
X548811Y753071D01*
X548881Y753446D01*
X548935Y753888D01*
X548997Y754978D01*
X549005Y755626D01*
X554085D01*
X554091Y754978D01*
D02*
G37*
G36*
X573326Y739747D02*
X573198Y739646D01*
X573084Y739479D01*
X572986Y739244D01*
X572903Y738942D01*
X572835Y738573D01*
X572782Y738138D01*
X572722Y737065D01*
X572714Y736427D01*
X567634D01*
X567628Y737065D01*
X567483Y738942D01*
X567417Y739244D01*
X567338Y739479D01*
X567248Y739646D01*
X567145Y739747D01*
X567030Y739781D01*
X573470D01*
X573326Y739747D01*
D02*
G37*
G36*
X573515Y726805D02*
X573652Y726433D01*
X573881Y726106D01*
X574201Y725822D01*
X574613Y725582D01*
X575116Y725385D01*
X575710Y725233D01*
X576396Y725123D01*
X577173Y725058D01*
X577345Y725053D01*
X577427Y725055D01*
X578890Y725210D01*
X579485Y725345D01*
X579987Y725519D01*
X580399Y725732D01*
X580719Y725984D01*
X580948Y726273D01*
X581085Y726602D01*
X581130Y726970D01*
Y718531D01*
X581085Y718898D01*
X580948Y719227D01*
X580719Y719517D01*
X580399Y719768D01*
X579987Y719981D01*
X579485Y720155D01*
X578890Y720290D01*
X578204Y720387D01*
X577427Y720445D01*
X577360Y720446D01*
X577169Y720441D01*
X576387Y720373D01*
X575698Y720258D01*
X575100Y720098D01*
X574594Y719893D01*
X574179Y719641D01*
X573857Y719344D01*
X573626Y719001D01*
X573487Y718612D01*
X573439Y718178D01*
X573470Y727220D01*
X573515Y726805D01*
D02*
G37*
G36*
X628171Y711467D02*
X627401Y712215D01*
X626633Y712884D01*
X625869Y713475D01*
X625107Y713987D01*
X624348Y714420D01*
X623591Y714774D01*
X622838Y715050D01*
X622088Y715247D01*
X621340Y715365D01*
X620595Y715404D01*
Y719976D01*
X621340Y720015D01*
X622088Y720134D01*
X622838Y720330D01*
X623591Y720606D01*
X624348Y720960D01*
X625107Y721393D01*
X625869Y721905D01*
X626633Y722496D01*
X627401Y723165D01*
X628171Y723913D01*
Y711467D01*
D02*
G37*
G36*
X364643Y725547D02*
X364681Y725110D01*
X364744Y724725D01*
X364833Y724390D01*
X364948Y724108D01*
X365087Y723876D01*
X365252Y723696D01*
X365443Y723568D01*
X365659Y723491D01*
X365900Y723465D01*
X360820D01*
X361061Y723491D01*
X361277Y723568D01*
X361468Y723696D01*
X361633Y723876D01*
X361772Y724108D01*
X361887Y724390D01*
X361976Y724725D01*
X362039Y725110D01*
X362077Y725547D01*
X362090Y726036D01*
X364630D01*
X364643Y725547D01*
D02*
G37*
D11*
X391160Y836790D02*
Y847090D01*
X391160Y836790D02*
X391160Y836790D01*
X376396Y792730D02*
X384930Y801264D01*
Y816310D01*
X387910Y819290D01*
X391160D01*
X369730Y792730D02*
X376396D01*
X369500Y792500D02*
X369730Y792730D01*
X759800Y811530D02*
X775970D01*
X759800Y760730D02*
X773430D01*
X629786Y835800D02*
X651030D01*
X665000Y849770D01*
X363360Y730898D02*
X374142Y741680D01*
X363360Y716026D02*
Y730898D01*
X410584Y837308D02*
X410958Y836934D01*
X410584Y837308D02*
Y847416D01*
X375000Y797467D02*
X375033Y797434D01*
X369533Y797467D02*
X375000D01*
X369392Y797608D02*
X369533Y797467D01*
X395478Y729679D02*
Y734708D01*
X391160Y725361D02*
X395478Y729679D01*
X391160Y724154D02*
Y725361D01*
X380860Y716026D02*
X381000Y716166D01*
Y729996D01*
X538060Y820570D02*
X544159Y826669D01*
X551673D01*
X519430Y828690D02*
Y838962D01*
X589640Y794448D02*
Y817368D01*
X516928Y845002D02*
X532722D01*
X511850Y815250D02*
Y839924D01*
X516928Y845002D01*
X519430Y828690D02*
X521850Y826271D01*
X565600Y765500D02*
X579060Y778960D01*
X369500Y757500D02*
X379150D01*
X379222Y757428D01*
X578665Y828343D02*
Y838401D01*
X579060Y778960D02*
Y783868D01*
X559425Y857641D02*
X578665Y838401D01*
Y828343D02*
X589640Y817368D01*
X369500Y812500D02*
X369524Y812523D01*
X377973D02*
X377996Y812547D01*
X369524Y812523D02*
X377973D01*
X369477Y812523D02*
X369500Y812500D01*
X361725Y800000D02*
X364009Y797716D01*
X364269D01*
X364377Y797608D01*
X352500Y800000D02*
X361725D01*
X364377Y797608D02*
X369392D01*
X426384Y714634D02*
X426500Y714750D01*
X413372Y714634D02*
X426384D01*
X426500Y714750D02*
X426750Y714500D01*
X495816Y732534D02*
X496100Y732250D01*
X486285Y732534D02*
X495816D01*
X477500Y746250D02*
X477520Y746230D01*
Y735330D02*
Y746230D01*
X533600Y725250D02*
X533662Y725188D01*
Y714949D02*
Y725188D01*
X588600Y740250D02*
X588611Y740261D01*
Y750190D01*
X464602Y746120D02*
X466090Y744632D01*
X455130Y746120D02*
X464602D01*
X466090Y734060D02*
Y744632D01*
X455000Y746250D02*
X455130Y746120D01*
X352730Y814770D02*
X358503D01*
X360942Y812850D02*
X361269Y812523D01*
X369477D01*
X360423Y812850D02*
X360942D01*
X358503Y814770D02*
X360423Y812850D01*
X359416Y760000D02*
X360605Y758812D01*
X361124D02*
X362436Y757500D01*
X352500Y760000D02*
X359416D01*
X360605Y758812D02*
X361124D01*
X362436Y757500D02*
X369500D01*
X410650Y727710D02*
X415190Y732250D01*
X426500D01*
X410210Y727710D02*
X410650D01*
X493710Y782000D02*
X499870D01*
X498870Y777000D02*
X503600D01*
X496570Y774700D02*
X498870Y777000D01*
X483750Y718500D02*
X485079Y717171D01*
X514222D01*
X520644Y723593D01*
X352500Y815000D02*
X352730Y814770D01*
X535061Y857641D02*
X559425D01*
X533573Y856153D02*
X535061Y857641D01*
X521850Y815250D02*
Y826271D01*
X579060Y783868D02*
X589640Y794448D01*
X493850Y802640D02*
X498280Y798210D01*
X492760Y802640D02*
X493850D01*
X499890Y797000D02*
X503600D01*
X498680Y798210D02*
X499890Y797000D01*
X498280Y798210D02*
X498680D01*
X352500Y780000D02*
X352537Y779963D01*
X357602D02*
X357639Y779925D01*
X352537Y779963D02*
X357602D01*
X516870Y763431D02*
Y768730D01*
X526830Y815270D02*
Y829832D01*
X536870Y818980D02*
X538060Y820170D01*
Y820570D01*
X531850Y818980D02*
Y825799D01*
X534843Y828792D01*
X511850Y756000D02*
Y768750D01*
X516850D02*
X516870Y768730D01*
X526830Y815270D02*
X526850Y815250D01*
X511850Y756000D02*
X513750Y754100D01*
X534843Y828792D02*
Y829999D01*
X526539Y830123D02*
X526830Y829832D01*
X516870Y763431D02*
X520644Y759657D01*
Y723593D02*
Y759657D01*
X540194Y835350D02*
X557492D01*
X534843Y829999D02*
X540194Y835350D01*
X557492D02*
X563532Y829310D01*
Y824068D02*
X565100Y822500D01*
X563532Y824068D02*
Y829310D01*
X532722Y845002D02*
X533540Y845820D01*
X533573Y845853D02*
Y856153D01*
X551040Y843810D02*
Y845820D01*
Y843810D02*
X553350Y841500D01*
X565100D01*
X560850Y733500D02*
Y746000D01*
X608685Y814699D02*
X629786Y835800D01*
X585600Y775000D02*
X608685Y798085D01*
Y814699D01*
X585100Y775000D02*
X585600D01*
X649646Y758444D02*
Y783844D01*
Y758444D02*
X665000Y743090D01*
X634520Y798970D02*
X649646Y783844D01*
X616750Y832000D02*
X634520Y849770D01*
X585100Y832000D02*
X616750D01*
X369500Y757500D02*
X369500Y757500D01*
X393621Y773272D02*
X404855D01*
X404979Y773396D01*
X426750Y714500D02*
X447250D01*
X460265Y837405D02*
X480655D01*
X460250Y837390D02*
X460265Y837405D01*
X480655D02*
X480750Y837500D01*
X579870Y791960D02*
Y800020D01*
X565100Y784500D02*
X572410D01*
X579870Y791960D01*
Y800020D02*
X582850Y803000D01*
X513750Y732400D02*
Y754100D01*
X565100Y803250D02*
X565350Y803000D01*
X565100Y803250D02*
Y822250D01*
X513600Y732250D02*
X513750Y732400D01*
X565100Y765500D02*
X565600D01*
X480750Y809750D02*
Y820000D01*
X480750Y820000D01*
D15*
X509026Y768750D02*
X511850D01*
X505603Y765857D02*
X506133D01*
X509026Y768750D01*
D19*
X738800Y770230D02*
D03*
Y751230D02*
D03*
X759800Y760730D02*
D03*
X738800Y821030D02*
D03*
Y802030D02*
D03*
X759800Y811530D02*
D03*
D20*
X421997Y796256D02*
D03*
Y773396D02*
D03*
X402693Y796256D02*
D03*
D21*
X404979Y773396D02*
D03*
D22*
X369500Y757500D02*
D03*
Y762500D02*
D03*
Y767500D02*
D03*
Y777500D02*
D03*
X369500Y782500D02*
D03*
Y787500D02*
D03*
X369500Y792500D02*
D03*
Y802500D02*
D03*
Y807500D02*
D03*
X352500Y815000D02*
D03*
Y810000D02*
D03*
Y805000D02*
D03*
X352500Y795000D02*
D03*
X352500Y790000D02*
D03*
Y785000D02*
D03*
Y780000D02*
D03*
Y770000D02*
D03*
Y765000D02*
D03*
Y760000D02*
D03*
X369500Y812500D02*
D03*
X352500Y800000D02*
D03*
X369500Y797500D02*
D03*
X352500Y775000D02*
D03*
X369500Y772500D02*
D03*
D23*
X570250Y746000D02*
D03*
X560850D02*
D03*
X551450D02*
D03*
Y721000D02*
D03*
X570250D02*
D03*
D24*
X503600Y807000D02*
D03*
Y802000D02*
D03*
X550100Y777000D02*
D03*
Y782000D02*
D03*
Y792000D02*
D03*
Y797000D02*
D03*
Y802000D02*
D03*
Y807000D02*
D03*
X503600Y797000D02*
D03*
Y792000D02*
D03*
Y787000D02*
D03*
Y782000D02*
D03*
Y777000D02*
D03*
X550100Y787000D02*
D03*
D25*
X521850Y768750D02*
D03*
X526850D02*
D03*
X531850D02*
D03*
X536850D02*
D03*
X541850D02*
D03*
Y815250D02*
D03*
X516850D02*
D03*
X511850Y768750D02*
D03*
X516850D02*
D03*
X536850Y815250D02*
D03*
X531850D02*
D03*
X526850D02*
D03*
X521850D02*
D03*
X511850D02*
D03*
D26*
X496100Y751000D02*
D03*
X513600Y751000D02*
D03*
X363360Y716026D02*
D03*
X380860Y716026D02*
D03*
X513600Y732250D02*
D03*
X496100Y732250D02*
D03*
X466250Y718500D02*
D03*
X483750Y718500D02*
D03*
X551040Y845820D02*
D03*
X533540Y845820D02*
D03*
X582850Y803000D02*
D03*
X565350Y803000D02*
D03*
D27*
X533600Y742750D02*
D03*
X533600Y725250D02*
D03*
X588600Y722750D02*
D03*
Y740250D02*
D03*
X395478Y734708D02*
D03*
Y752208D02*
D03*
X391160Y819290D02*
D03*
X391160Y836790D02*
D03*
X426500Y732250D02*
D03*
Y714750D02*
D03*
X447250Y732000D02*
D03*
Y714500D02*
D03*
X477500Y763750D02*
D03*
Y746250D02*
D03*
X455000Y763750D02*
D03*
Y746250D02*
D03*
X480750Y837500D02*
D03*
X480750Y820000D02*
D03*
X410958Y836934D02*
D03*
Y819434D02*
D03*
D28*
X460250Y819610D02*
D03*
Y837390D02*
D03*
D29*
X478250Y788750D02*
D03*
X451250D02*
D03*
Y798750D02*
D03*
X478250D02*
D03*
D30*
X565100Y841500D02*
D03*
X585100Y832000D02*
D03*
X565100Y822500D02*
D03*
Y784500D02*
D03*
X585100Y775000D02*
D03*
X565100Y765500D02*
D03*
D51*
X526850Y792000D02*
D03*
D52*
X766458Y802030D02*
X770788Y797700D01*
X738800Y802030D02*
X766458D01*
X770788Y797700D02*
X802160D01*
X738800Y821030D02*
X739835Y822065D01*
X801125D01*
X802160Y823100D01*
X740965Y749065D02*
X799995D01*
X802160Y746900D01*
X738800Y751230D02*
X740965Y749065D01*
X665000Y822530D02*
X736300Y751230D01*
X665000Y822530D02*
Y824370D01*
X736300Y751230D02*
X738800D01*
X739835Y771265D02*
X801125D01*
X738800Y770230D02*
X739835Y771265D01*
X801125D02*
X802160Y772300D01*
X736300Y770230D02*
X738800D01*
X670476Y836054D02*
X736300Y770230D01*
X660015Y836054D02*
X670476D01*
X648331Y824370D02*
X660015Y836054D01*
X634520Y824370D02*
X648331D01*
D53*
X410958Y819434D02*
X411875Y818517D01*
Y809357D02*
X412242Y808990D01*
X411875Y809357D02*
Y818517D01*
X395224Y752462D02*
X395478Y752208D01*
X395224Y752462D02*
Y760730D01*
X533584Y742766D02*
X533600Y742750D01*
X533567Y750598D02*
X533584Y750582D01*
Y742766D02*
Y750582D01*
X551545Y755626D02*
X551640Y755721D01*
X551450Y746000D02*
X551545Y746095D01*
Y755626D01*
X570174Y736427D02*
Y745924D01*
X570250Y746000D01*
X570098Y736352D02*
X570174Y736427D01*
X443690Y769578D02*
X450102Y775990D01*
X487700D02*
X493710Y782000D01*
X445400Y732000D02*
X445730D01*
X443690Y733710D02*
Y769578D01*
X480750Y763750D02*
X482460Y765460D01*
X487330D01*
X496570Y774700D01*
X477500Y763750D02*
X480750D01*
X455000D02*
X477500D01*
X450102Y775990D02*
X487700D01*
X482460Y762040D02*
X485396D01*
X485436Y762000D02*
X488350D01*
X496100Y754250D01*
X480750Y763750D02*
X482460Y762040D01*
X485396D02*
X485436Y762000D01*
X443690Y733710D02*
X445400Y732000D01*
X426625Y732125D02*
X442784D01*
X457356Y730644D02*
X466250Y721750D01*
X448606Y730644D02*
X457356D01*
X426500Y732250D02*
X426625Y732125D01*
X496100Y751000D02*
Y754250D01*
X447125Y732125D02*
X448606Y730644D01*
X460250Y819610D02*
X460376Y819484D01*
Y810711D02*
X460502Y810585D01*
X460376Y810711D02*
Y819484D01*
X402735Y803918D02*
X402778Y803961D01*
X402693Y796256D02*
X402735Y796298D01*
Y803918D01*
X466250Y718500D02*
Y721750D01*
D54*
X396417Y786615D02*
X432050D01*
X394995Y783184D02*
X433471D01*
X352513Y789987D02*
X357704D01*
X352500Y790000D02*
X352513Y789987D01*
X357704D02*
X357716Y789975D01*
X352500Y785000D02*
X359929D01*
X362429Y787500D02*
X369500D01*
X359929Y785000D02*
X362429Y787500D01*
X654300Y719840D02*
X662850D01*
X629838Y731787D02*
X642353D01*
X654300Y719840D01*
X662850D02*
X665000Y717690D01*
X558297Y762390D02*
X561227Y759460D01*
X602165D01*
X629838Y731787D01*
X553908Y787000D02*
X555245Y785663D01*
X550100Y787000D02*
X553908D01*
X555245Y785663D02*
X555367D01*
X558297Y782733D01*
X483946Y795465D02*
X489616D01*
X497448Y791215D02*
X498192Y791959D01*
X489616Y795465D02*
X493866Y791215D01*
X498192Y791959D02*
X503559D01*
X493866Y791215D02*
X497448D01*
X503559Y791959D02*
X503600Y792000D01*
X488195Y792035D02*
X492445Y787785D01*
X498192Y787041D02*
X503559D01*
X492445Y787785D02*
X497448D01*
X498192Y787041D01*
X503559D02*
X503600Y787000D01*
X558297Y762390D02*
Y782733D01*
X482607Y796804D02*
X483946Y795465D01*
X482607Y796804D02*
Y796893D01*
X480750Y798750D02*
X482607Y796893D01*
X478250Y798750D02*
X480750D01*
X483946Y792035D02*
X488195D01*
X482607Y790696D02*
X483946Y792035D01*
X482607Y790607D02*
Y790696D01*
X480750Y788750D02*
X482607Y790607D01*
X478250Y788750D02*
X480750D01*
X364425Y782479D02*
X369479D01*
X369500Y782500D01*
X364404Y782459D02*
X364425Y782479D01*
X369857Y787143D02*
X374706D01*
X394895Y783285D02*
X394995Y783184D01*
X374706Y782857D02*
X375134Y783285D01*
X396316Y786715D02*
X396417Y786615D01*
X369500Y787500D02*
X369857Y787143D01*
X374706D02*
X375134Y786715D01*
X396316D01*
X369500Y782500D02*
X369857Y782857D01*
X375134Y783285D02*
X394895D01*
X369857Y782857D02*
X374706D01*
X446893Y790607D02*
X448750Y788750D01*
X451250D01*
X446893Y790607D02*
Y790696D01*
X442321Y792035D02*
X445554D01*
X433471Y783184D02*
X442321Y792035D01*
X445554D02*
X446893Y790696D01*
X445554Y795465D02*
X446893Y796804D01*
X440900Y795465D02*
X445554D01*
X446893Y796804D02*
Y796893D01*
X448750Y798750D01*
X451250D01*
X432050Y786615D02*
X440900Y795465D01*
D55*
X374828Y772500D02*
X374836Y772492D01*
X364251Y772500D02*
X374828D01*
X361596Y775000D02*
X364106Y772490D01*
X364241D01*
X352500Y775000D02*
X361596D01*
X364241Y772490D02*
X364251Y772500D01*
D56*
X659845Y730644D02*
X721778D01*
X724958Y727464D01*
X649926Y740563D02*
X659845Y730644D01*
X637047Y740563D02*
X649926D01*
X724958Y727464D02*
X796196D01*
X634520Y743090D02*
X637047Y740563D01*
X796196Y727464D02*
X802160Y721500D01*
X570250Y721000D02*
Y721786D01*
X571214Y722750D02*
X588600D01*
X570250Y721786D02*
X571214Y722750D01*
X591850D02*
X596910Y717690D01*
X588600Y722750D02*
X591850D01*
X596910Y717690D02*
X634520D01*
D57*
X421997Y776768D02*
D03*
D58*
Y792978D02*
D03*
D59*
X290900Y740100D02*
D03*
Y829900D02*
D03*
X350400Y826300D02*
D03*
Y743700D02*
D03*
D60*
X362900Y749000D02*
D03*
D61*
Y821000D02*
D03*
D62*
X802160Y823100D02*
D03*
Y797700D02*
D03*
Y772300D02*
D03*
Y746900D02*
D03*
Y848500D02*
D03*
D63*
Y721500D02*
D03*
D64*
X634520Y824370D02*
D03*
X665000Y743090D02*
D03*
Y717690D02*
D03*
X634520Y798970D02*
D03*
X665000Y824370D02*
D03*
Y798970D02*
D03*
X634520Y743090D02*
D03*
Y717690D02*
D03*
D65*
X665000Y768490D02*
D03*
X634520Y849770D02*
D03*
X665000D02*
D03*
X634520Y768490D02*
D03*
D66*
X715800Y845960D02*
D03*
X342500Y720000D02*
D03*
D67*
X391160Y847090D02*
D03*
X775970Y811530D02*
D03*
X773430Y760730D02*
D03*
X412242Y808990D02*
D03*
X410584Y847416D02*
D03*
X395224Y760730D02*
D03*
X391160Y724154D02*
D03*
X551673Y826669D02*
D03*
X575310Y820674D02*
D03*
X599186Y801878D02*
D03*
X616966Y800354D02*
D03*
X519430Y838962D02*
D03*
X598932Y821436D02*
D03*
X613664Y847598D02*
D03*
X436880Y723900D02*
D03*
X413372Y714634D02*
D03*
X486285Y732534D02*
D03*
X477520Y735330D02*
D03*
X533662Y714949D02*
D03*
X588611Y750190D02*
D03*
X466090Y734060D02*
D03*
X381000Y729996D02*
D03*
X533567Y750598D02*
D03*
X551640Y755721D02*
D03*
X570098Y736352D02*
D03*
X410210Y727710D02*
D03*
X490550Y768680D02*
D03*
X560850Y733500D02*
D03*
X494547Y717171D02*
D03*
X499110Y835660D02*
D03*
X505460Y852170D02*
D03*
X521970D02*
D03*
X598678Y859790D02*
D03*
X575818Y859282D02*
D03*
X566420Y850646D02*
D03*
X505603Y765857D02*
D03*
X460502Y810585D02*
D03*
X402778Y803961D02*
D03*
X492760Y802640D02*
D03*
X534843Y829999D02*
D03*
X526539Y830123D02*
D03*
X393621Y773272D02*
D03*
X480750Y809750D02*
D03*
D68*
X374142Y741680D02*
D03*
X365760Y740664D02*
D03*
X375033Y797434D02*
D03*
X379222Y757428D02*
D03*
X374836Y772492D02*
D03*
X377996Y812547D02*
D03*
X377952Y818388D02*
D03*
X373634Y822452D02*
D03*
X369316Y818388D02*
D03*
X353516Y818532D02*
D03*
X361188Y740410D02*
D03*
X348488Y752856D02*
D03*
X355346D02*
D03*
X364269Y797716D02*
D03*
X357716Y789975D02*
D03*
X364241Y772490D02*
D03*
X360682Y812850D02*
D03*
X360864Y758812D02*
D03*
X357639Y779925D02*
D03*
X364404Y782459D02*
D03*
D69*
X515850Y803000D02*
D03*
X526850D02*
D03*
X537850D02*
D03*
X515850Y792000D02*
D03*
X526850D02*
D03*
X537850D02*
D03*
X515850Y781000D02*
D03*
X526850D02*
D03*
X537850D02*
D03*
M02*
