G04*
G04 #@! TF.GenerationSoftware,Altium Limited,Altium Designer,24.9.1 (31)*
G04*
G04 Layer_Color=32896*
%FSLAX44Y44*%
%MOMM*%
G71*
G04*
G04 #@! TF.SameCoordinates,0DAEADC5-739E-474D-A028-FC833E2B39B4*
G04*
G04*
G04 #@! TF.FilePolarity,Positive*
G04*
G01*
G75*
%ADD13C,0.1270*%
%ADD15C,0.1524*%
D13*
X469897Y721359D02*
X464818D01*
X467357D01*
Y713741D01*
X462279D02*
Y721359D01*
X458470D01*
X457201Y720089D01*
Y717550D01*
X458470Y716280D01*
X462279D01*
X449583Y721359D02*
X452122Y720089D01*
X454662Y717550D01*
Y715011D01*
X453392Y713741D01*
X450853D01*
X449583Y715011D01*
Y716280D01*
X450853Y717550D01*
X454662D01*
X386216Y717822D02*
X381815D01*
X384016D01*
Y711220D01*
X379614D02*
Y717822D01*
X376313D01*
X375213Y716722D01*
Y714521D01*
X376313Y713421D01*
X379614D01*
X368611Y717822D02*
X373013D01*
Y714521D01*
X370812Y715622D01*
X369712D01*
X368611Y714521D01*
Y712321D01*
X369712Y711220D01*
X371912D01*
X373013Y712321D01*
X491435Y754693D02*
X487033D01*
X489234D01*
Y748091D01*
X484833D02*
Y754693D01*
X481532D01*
X480431Y753593D01*
Y751392D01*
X481532Y750292D01*
X484833D01*
X474930Y748091D02*
Y754693D01*
X478231Y751392D01*
X473829D01*
X601430Y720582D02*
X597029D01*
X599230D01*
Y713980D01*
X594828D02*
Y720582D01*
X591527D01*
X590427Y719482D01*
Y717281D01*
X591527Y716181D01*
X594828D01*
X588227Y719482D02*
X587126Y720582D01*
X584926D01*
X583825Y719482D01*
Y718381D01*
X584926Y717281D01*
X586026D01*
X584926D01*
X583825Y716181D01*
Y715080D01*
X584926Y713980D01*
X587126D01*
X588227Y715080D01*
X575853Y853701D02*
X571451D01*
X573652D01*
Y847099D01*
X569251D02*
Y853701D01*
X565950D01*
X564849Y852601D01*
Y850400D01*
X565950Y849300D01*
X569251D01*
X558247Y847099D02*
X562649D01*
X558247Y851500D01*
Y852601D01*
X559348Y853701D01*
X561548D01*
X562649Y852601D01*
D15*
X406146Y715010D02*
G03*
X406146Y715010I-7366J0D01*
G01*
X597916Y850900D02*
G03*
X597916Y850900I-7366J0D01*
G01*
X488696Y717550D02*
G03*
X488696Y717550I-7366J0D01*
G01*
X623316D02*
G03*
X623316Y717550I-7366J0D01*
G01*
X512826Y753110D02*
G03*
X512826Y753110I-7366J0D01*
G01*
X789178Y716674D02*
Y725561D01*
X784734D01*
X783253Y724080D01*
Y721118D01*
X784734Y719636D01*
X789178D01*
X775847Y725561D02*
X778810D01*
X780291Y724080D01*
Y718155D01*
X778810Y716674D01*
X775847D01*
X774366Y718155D01*
Y724080D01*
X775847Y725561D01*
X771404D02*
Y716674D01*
X768441Y719636D01*
X765479Y716674D01*
Y725561D01*
X756592D02*
X762517D01*
Y716674D01*
X756592D01*
X762517Y721118D02*
X759554D01*
X753630Y716674D02*
Y725561D01*
X749186D01*
X747705Y724080D01*
Y721118D01*
X749186Y719636D01*
X753630D01*
X750667D02*
X747705Y716674D01*
X789178Y750961D02*
Y742074D01*
X784734D01*
X783253Y743555D01*
Y745036D01*
X784734Y746518D01*
X789178D01*
X784734D01*
X783253Y747999D01*
Y749480D01*
X784734Y750961D01*
X789178D01*
X775847D02*
X778810D01*
X780291Y749480D01*
Y743555D01*
X778810Y742074D01*
X775847D01*
X774366Y743555D01*
Y749480D01*
X775847Y750961D01*
X766960D02*
X769923D01*
X771404Y749480D01*
Y743555D01*
X769923Y742074D01*
X766960D01*
X765479Y743555D01*
Y749480D01*
X766960Y750961D01*
X762517D02*
X756592D01*
X759554D01*
Y742074D01*
X753630D02*
X747705Y747999D01*
X738818Y749480D02*
X740299Y750961D01*
X743261D01*
X744742Y749480D01*
Y743555D01*
X743261Y742074D01*
X740299D01*
X738818Y743555D01*
X735855Y750961D02*
X729930D01*
X732893D01*
Y742074D01*
X721043Y749480D02*
X722524Y750961D01*
X725487D01*
X726968Y749480D01*
Y747999D01*
X725487Y746518D01*
X722524D01*
X721043Y745036D01*
Y743555D01*
X722524Y742074D01*
X725487D01*
X726968Y743555D01*
X783253Y776361D02*
X789178D01*
Y767474D01*
X783253D01*
X789178Y771918D02*
X786216D01*
X780291Y767474D02*
Y776361D01*
X774366Y767474D01*
Y776361D01*
X771404Y767474D02*
Y773399D01*
X768441Y776361D01*
X765479Y773399D01*
Y767474D01*
Y771918D01*
X771404D01*
X762517Y767474D02*
X756592Y773399D01*
X753630Y767474D02*
Y776361D01*
X749186D01*
X747705Y774880D01*
Y771918D01*
X749186Y770436D01*
X753630D01*
X750667D02*
X747705Y767474D01*
X744742Y776361D02*
X738818D01*
X741780D01*
Y767474D01*
X729930Y774880D02*
X731412Y776361D01*
X734374D01*
X735855Y774880D01*
Y773399D01*
X734374Y771918D01*
X731412D01*
X729930Y770436D01*
Y768955D01*
X731412Y767474D01*
X734374D01*
X735855Y768955D01*
X726968Y767474D02*
X721043Y773399D01*
X713637Y767474D02*
Y776361D01*
X718081Y771918D01*
X712156D01*
X709194Y774880D02*
X707713Y776361D01*
X704750D01*
X703269Y774880D01*
Y773399D01*
X704750Y771918D01*
X703269Y770436D01*
Y768955D01*
X704750Y767474D01*
X707713D01*
X709194Y768955D01*
Y770436D01*
X707713Y771918D01*
X709194Y773399D01*
Y774880D01*
X707713Y771918D02*
X704750D01*
X694382Y776361D02*
X700307D01*
Y771918D01*
X697344Y773399D01*
X695863D01*
X694382Y771918D01*
Y768955D01*
X695863Y767474D01*
X698826D01*
X700307Y768955D01*
X789178Y828037D02*
X783253D01*
X786216D01*
Y819150D01*
X780291Y828037D02*
X774366Y819150D01*
Y828037D02*
X780291Y819150D01*
X771404Y828037D02*
Y819150D01*
X766960D01*
X765479Y820631D01*
Y826556D01*
X766960Y828037D01*
X771404D01*
X789178Y793750D02*
Y802637D01*
X784734D01*
X783253Y801156D01*
Y798194D01*
X784734Y796712D01*
X789178D01*
X786216D02*
X783253Y793750D01*
X780291Y802637D02*
X774366Y793750D01*
Y802637D02*
X780291Y793750D01*
X771404Y802637D02*
Y793750D01*
X766960D01*
X765479Y795231D01*
Y801156D01*
X766960Y802637D01*
X771404D01*
X783253Y851080D02*
X784734Y852561D01*
X787697D01*
X789178Y851080D01*
Y845155D01*
X787697Y843674D01*
X784734D01*
X783253Y845155D01*
Y848118D01*
X786216D01*
X780291Y843674D02*
Y852561D01*
X774366Y843674D01*
Y852561D01*
X771404D02*
Y843674D01*
X766960D01*
X765479Y845155D01*
Y851080D01*
X766960Y852561D01*
X771404D01*
M02*
