M48
;Layer_Color=0
;FILE_FORMAT=4:4
METRIC,LZ
;TYPE=PLATED
T01F00S00C0.2000
T02F00S00C0.4000
T03F00S00C0.4064
T05F00S00C1.0922
T06F00S00C1.1000
;TYPE=NON_PLATED
T07F00S00C0.6500
T08F00S00C2.0000
%
T01
X0051585Y00781
X0052685
X0053785
Y00792
X0052685
X0051585
X00375Y00755
X0037
Y0075
X00375
Y00745
X0037
X0036322Y00727202
X00358648Y0076962
X00359Y008
X00365Y008175
X0037
Y008225
X00365
Y008275
X0037
X00381508Y0081915
X00388Y00805
Y008
X00394
Y00805
X0051585Y00803
X0052685
X0053785
T02
X00413372Y00714634
X0041402Y00732028
X0043675Y00723
X0046609Y0073406
X0047752Y0073533
X00486285Y00732534
X00494547Y00717171
X00533662Y00714949
X00533567Y00750598
X0055164Y00755721
X0056085Y007335
X00570098Y00736352
X0058847Y00749475
X0057277Y0078486
X0060579Y0079248
X0064643Y0076962
X0077343Y0076073
X00494Y00764
X003925Y007625
X00395224Y00724154
X00381Y00729996
X0039116Y0084709
X00410584Y00847416
X00425Y0082
X00446
X0048075Y0080975
X0049276Y0080264
X004953Y0084074
X0051308
X0052578Y0083693
X0053975Y00835858
X0054991Y0083312
X0057277Y0081534
X00582542Y00811001
X005842Y0080264
X0058547Y00823976
X0060579Y0080899
X0058674Y0085852
X0056515
X0047752Y0085979
X0046863
X0045974
X0046863Y008509
X0073406Y0085725
X00763778Y00843026
X0077724Y00811022
X0073719Y00811506
T03
X0082Y00747
Y00772
X0063881Y0072263
X0063373Y0070993
X0064516
X00505206Y00722884
X00433Y00777
X00419
X0040767Y0080391
X0045974Y008509
X0057531Y0085852
X00822Y00849
X0082Y00824
Y00798
T05
X0061976Y0071755
Y0074295
Y0076835
X0066167
Y0074295
Y0071755
Y0079883
Y0082423
Y0084963
X0061976
Y0082423
Y0079883
T06
X0080216Y007215
Y007469
Y007723
Y007977
Y008231
Y008485
T07
X003393Y007586
Y008164
T08
X0073533Y0072263
X003425Y0072
M30
