G04*
G04 #@! TF.GenerationSoftware,Altium Limited,Altium Designer,24.5.2 (23)*
G04*
G04 Layer_Color=32896*
%FSLAX44Y44*%
%MOMM*%
G71*
G04*
G04 #@! TF.SameCoordinates,3EA6B18B-4548-4CAF-BF52-0E37F5A7FA18*
G04*
G04*
G04 #@! TF.FilePolarity,Positive*
G04*
G01*
G75*
%ADD12C,0.1270*%
%ADD14C,0.1524*%
D12*
X466087Y732789D02*
X461008D01*
X463548D01*
Y725171D01*
X458469D02*
Y732789D01*
X454660D01*
X453391Y731519D01*
Y728980D01*
X454660Y727710D01*
X458469D01*
X445773Y732789D02*
X448312Y731519D01*
X450852Y728980D01*
Y726441D01*
X449582Y725171D01*
X447043D01*
X445773Y726441D01*
Y727710D01*
X447043Y728980D01*
X450852D01*
X416396Y755217D02*
X411995D01*
X414196D01*
Y748615D01*
X409795D02*
Y755217D01*
X406494D01*
X405393Y754117D01*
Y751916D01*
X406494Y750816D01*
X409795D01*
X398792Y755217D02*
X403193D01*
Y751916D01*
X400992Y753016D01*
X399892D01*
X398792Y751916D01*
Y749715D01*
X399892Y748615D01*
X402093D01*
X403193Y749715D01*
X494225Y758583D02*
X489823D01*
X492024D01*
Y751981D01*
X487623D02*
Y758583D01*
X484322D01*
X483221Y757483D01*
Y755282D01*
X484322Y754182D01*
X487623D01*
X477720Y751981D02*
Y758583D01*
X481021Y755282D01*
X476619D01*
X588730Y720582D02*
X584329D01*
X586530D01*
Y713980D01*
X582128D02*
Y720582D01*
X578828D01*
X577727Y719482D01*
Y717281D01*
X578828Y716181D01*
X582128D01*
X575527Y719482D02*
X574426Y720582D01*
X572226D01*
X571125Y719482D01*
Y718381D01*
X572226Y717281D01*
X573326D01*
X572226D01*
X571125Y716181D01*
Y715080D01*
X572226Y713980D01*
X574426D01*
X575527Y715080D01*
X575853Y853701D02*
X571451D01*
X573652D01*
Y847099D01*
X569251D02*
Y853701D01*
X565950D01*
X564849Y852601D01*
Y850400D01*
X565950Y849300D01*
X569251D01*
X558247Y847099D02*
X562649D01*
X558247Y851500D01*
Y852601D01*
X559348Y853701D01*
X561548D01*
X562649Y852601D01*
D14*
X484886Y728980D02*
G03*
X484886Y728980I-7366J0D01*
G01*
X434876Y750456D02*
G03*
X434876Y750456I-7366J0D01*
G01*
X610616Y717550D02*
G03*
X610616Y717550I-7366J0D01*
G01*
X515616Y757000D02*
G03*
X515616Y757000I-7366J0D01*
G01*
X597916Y850900D02*
G03*
X597916Y850900I-7366J0D01*
G01*
M02*
