M48
;Layer_Color=9474304
;FILE_FORMAT=4:4
METRIC,LZ
;TYPE=PLATED
T01F00S00C0.2000
T02F00S00C0.4000
T04F00S00C1.0922
T05F00S00C1.1000
;TYPE=NON_PLATED
T06F00S00C0.6500
T08F00S00C2.0000
%
T01
X0051585Y00781
Y00792
X0052685
X0053785
Y00781
X0052685
X00364404Y00782459
X00357639Y00779925
X00357941Y00789939
X00363556Y00772727
X0035941Y008001
X0051585Y00803
X0052685
X0053785
T02
X004145Y007145
X00411Y0074309
X00442416Y00750115
X00463506Y00738148
X00488Y0073975
X00494547Y00717171
X0053292Y00714388
X005336Y007525
X0055118Y0073533
X0056085Y007335
X0057023Y0073533
X0058801Y007493
X00505603Y00765857
X00493349Y00770017
X00393621Y00773272
X00379476Y00771144
X0038Y007575
X0037417Y0074309
X00377365Y00798461
X003775Y008125
X00402778Y00803961
X00401841Y00822621
X00418137Y00812041
X00438882Y00812186
X00460502Y00810585
X0048075Y0080975
X0049276Y0080264
X0049911Y0083566
X0050546Y0085217
X0052197
X00522224Y008382
X00526539Y00830123
X00534843Y00829999
X0055499Y0082931
X0056642Y00850646
X00575818Y00859282
X00598678Y0085979
X004385Y00848
X0041925Y0084825
T04
X0063452Y0071769
Y0074309
Y0076849
X00665
Y0074309
Y0071769
Y0079897
Y0082437
Y0084977
X0063452
Y0082437
Y0079897
T05
X0080216Y007215
Y007469
Y007723
Y007977
Y008231
Y008485
T06
X003629Y00821
T08
X003425Y0072
X007158Y0084596
M30
