M48
;Layer_Color=0
;FILE_FORMAT=4:4
METRIC,LZ
;TYPE=PLATED
T01F00S00C0.2000
T02F00S00C0.4000
T03F00S00C0.4064
T05F00S00C1.0922
T06F00S00C1.1000
;TYPE=NON_PLATED
T07F00S00C0.6500
T08F00S00C2.0000
%
T01
X0051585Y00781
X0052685
X0053785
Y00792
X0052685
X0051585
X00375Y00755
X0037
Y0075
X00375
Y00745
X0037
X0036322Y00727202
X00358648Y0076962
X00359Y008
X00365Y008175
X0037
Y008225
X00365
Y008275
X0037
X00381508Y0081915
X00388Y00805
Y008
X00394
Y00805
X0051585Y00803
X0052685
X0053785
T02
X00413372Y00714634
X0041402Y00732028
X0043675Y00723
X0046609Y0073406
X0047752Y0073533
X00486285Y00732534
X00494547Y00717171
X00533662Y00714949
X00533567Y00750598
X0055164Y00755721
X0056085Y007335
X00570098Y00736352
X00588611Y0075019
X00494Y00764
X00680466Y00787908
X00738124Y0079248
X0077343Y0076073
X003925Y007625
X00395224Y00724154
X00381Y00729996
X0039116Y0084709
X00410584Y00847416
X00425Y0082
X00446
X0048075Y0080975
X0049276Y0080264
X0049911Y0083566
X0050546Y0085217
X0052197
X00517906Y00830072
X00526539Y00830123
X00535686Y00829564
X00549698Y00824311
X00575056Y00827278
X00575818Y00859282
X00598678Y0085979
X00612394Y00853694
X0061722Y00814578
X00738632Y00830834
X0077724Y00811022
T03
X0082Y00721
Y00747
Y00772
X00735Y00717
X00687
X00686Y0075
X00505206Y00722884
X00433Y00777
X00419
X00610616Y008001
X00710692Y00812546
X0082Y00824
Y00798
X00822Y00849
T05
X0063452Y0071769
Y0074309
Y0076849
X00665
Y0074309
Y0071769
Y0079897
Y0082437
Y0084977
X0063452
Y0082437
Y0079897
T06
X0080216Y007215
Y007469
Y007723
Y007977
Y008231
Y008485
T07
X003393Y007586
Y008164
T08
X003425Y0072
X007158Y0084596
M30
